<svg id="Componente_1_1" data-name="Componente 1 – 1" xmlns="http://www.w3.org/2000/svg" xmlns:xlink="http://www.w3.org/1999/xlink" width="1920" height="373.51" viewBox="0 0 1920 373.51">
  <defs>
    <clipPath id="clip-path">
      <rect id="Rectángulo_6401" data-name="Rectángulo 6401" width="1920" height="373.51" transform="translate(3.77 1.14)" fill="none"/>
    </clipPath>
  </defs>
  <g id="Grupo_44691" data-name="Grupo 44691" transform="translate(-3.77 -1.14)">
    <g id="Grupo_44690" data-name="Grupo 44690" clip-path="url(#clip-path)">
      <path id="Trazado_62792" data-name="Trazado 62792" d="M112.208,862.464S-207.185,633.1-61.639,333.765,347.348,491.3,530.977,68.808,755.74-677.125,1244.583-543.708s288.459,483.551,544.3,518.717,457.993,161.966,340.747,436.152S2303.481,865.4,2303.481,865.4Z" fill="#97c7fa"/>
      <path id="Trazado_62793" data-name="Trazado 62793" d="M1200.859,954s-319.392-229.365-173.846-528.7S1436,582.846,1619.629,160.348s224.763-745.932,713.606-612.515,288.459,483.551,544.3,518.717S3335.531,228.516,3218.286,502.7s173.847,454.243,173.847,454.243Z" fill="#00448c" opacity="0.7"/>
      <path id="Trazado_62794" data-name="Trazado 62794" d="M-627.5,1138.956s-319.392-229.365-173.846-528.7S-392.358,767.8-208.729,345.3,16.034-400.632,504.877-267.215s288.459,483.551,544.3,518.717,457.992,161.966,340.747,436.151S1563.775,1141.9,1563.775,1141.9Z" fill="#5e9af2" opacity="0.7"/>
      <path id="Trazado_62795" data-name="Trazado 62795" d="M-1013.14,1198.084s-319.393-229.365-173.847-528.7S-778,826.926-594.371,404.428-369.608-341.5,119.235-208.087s288.459,483.551,544.3,518.717S1121.532,472.6,1004.286,746.781s173.847,454.243,173.847,454.243Z" fill="#00448c" opacity="0.7"/>
      <g id="Grupo_44658" data-name="Grupo 44658">
        <g id="Grupo_44653" data-name="Grupo 44653">
          <path id="Trazado_62796" data-name="Trazado 62796" d="M160.127,339.508s-24.115-28.133-1.487-46c0,0,16.528-10.007,30-9.194,0,0-19.1,32.022-12.918,35.207S194.432,282.3,194.432,282.3s37.612-3.647,49.711,2.17c0,0-32.153,26.313-25.382,27.879s41.5-24.26,41.5-24.26,35.006,5.957,33.139,27.312-13.928,27.949-19.229,27.381-36.313-12.406-36.989-8.063,17.992,18.54,31.064,19.205c0,0-24.68,27.217-41.082,19.362s-17.8-20.306-28.027-24.977-18.953-4.658-14.732.1,22.726,9.391,28.573,19.734,11.094,17.319-5.877,14.766-44.554-14.971-45.765-29.19Z" fill="#699dee"/>
          <g id="Grupo_44652" data-name="Grupo 44652">
            <path id="Trazado_62797" data-name="Trazado 62797" d="M276.2,315.981s-95.078-3.665-116.075,23.527c0,0-4.644,13.907-18.933,26.571l-2.228,6.07s16.476-17.372,22.372-18.422C161.338,353.727,152.118,320.04,276.2,315.981Z" fill="#699dee"/>
            <path id="Trazado_62798" data-name="Trazado 62798" d="M141.194,366.079s-20.408,15.093-21.826,42.06l3.7.331s6.518-27.883,18.3-38.788S141.194,366.079,141.194,366.079Z" fill="#699dee"/>
          </g>
        </g>
        <g id="Grupo_44655" data-name="Grupo 44655">
          <path id="Trazado_62799" data-name="Trazado 62799" d="M75.815,304.128s38.36-21.482,20.458-50.635c0,0-14.32-17.9-29.664-22.5,0,0,8.183,43.474,0,44.5s-5.626-49.1-5.626-49.1-40.207-8.047-56.062-6.512c0,0,24.863,31.062,16.679,30.039s-36.313-43.985-36.313-43.985-41.429-7.672-48.078,16.878,4.092,36.825,10.23,38.36,45.519,1.022,44.5,6.137S-35.683,280.6-50.516,276c0,0,16.367,40.406,37.848,38.36s28.131-15.343,41.429-16.366,23.015,2.556,16.366,6.137-29.153,1.173-39.893,10.3-19.436,14.757.511,18.849,55.749,1.535,62.91-13.809Z" fill="#699dee"/>
          <g id="Grupo_44654" data-name="Grupo 44654">
            <path id="Trazado_62800" data-name="Trazado 62800" d="M-43.867,230.478S63.54,265.257,75.815,304.128c0,0-.511,17.39,10.229,37.336v7.673s-11.252-26.085-17.389-29.665C68.655,319.472,92.693,285.716-43.867,230.478Z" fill="#699dee"/>
            <path id="Trazado_62801" data-name="Trazado 62801" d="M86.044,341.464s16.564,25.153,7.121,55.772L88.9,396.091s4.136-33.724-4.53-50.686S86.044,341.464,86.044,341.464Z" fill="#699dee"/>
          </g>
        </g>
        <g id="Grupo_44657" data-name="Grupo 44657">
          <path id="Trazado_62802" data-name="Trazado 62802" d="M136.842,274.5s-50.565-28.316-26.968-66.746c0,0,18.878-23.6,39.1-29.664,0,0-10.788,57.306,0,58.655s7.416-64.723,7.416-64.723,53.261-25.62,74.162-23.6c0,0-33.036,55.959-22.249,54.61s47.868-57.981,47.868-57.981,54.61-10.113,63.375,22.248-5.394,48.543-13.484,50.566-60,1.348-58.655,8.09,36.406,17.529,55.958,11.461c0,0-21.574,53.262-49.891,50.566s-37.08-20.227-54.61-21.576-30.339,3.372-21.574,8.091,38.429,1.547,52.588,13.584,25.619,19.452-.675,24.845-73.487,2.023-82.926-18.2Z" fill="#afcdfb"/>
          <g id="Grupo_44656" data-name="Grupo 44656">
            <path id="Trazado_62803" data-name="Trazado 62803" d="M294.6,177.417S153.023,223.263,136.842,274.5c0,0,.674,22.923-13.484,49.217v10.113s14.832-34.384,22.923-39.1C146.281,294.728,114.593,250.231,294.6,177.417Z" fill="#699dee"/>
            <path id="Trazado_62804" data-name="Trazado 62804" d="M123.358,323.719s-21.834,33.156-9.387,73.517l5.617-1.509s-5.452-44.455,5.972-66.813S123.358,323.719,123.358,323.719Z" fill="#699dee"/>
          </g>
        </g>
        <path id="Trazado_62805" data-name="Trazado 62805" d="M135.138,484.76a99.049,99.049,0,0,0,99.049-99.049H36.089A99.049,99.049,0,0,0,135.138,484.76Z" fill="#f1a34f"/>
        <path id="Trazado_62806" data-name="Trazado 62806" d="M159.511,484A99.108,99.108,0,0,1,48.161,385.71H72.768A99.065,99.065,0,0,0,159.511,484Z" fill="#ffb973"/>
        <path id="Trazado_62807" data-name="Trazado 62807" d="M223.335,477.58H46.942A12.22,12.22,0,0,0,34.722,489.8H235.555A12.22,12.22,0,0,0,223.335,477.58Z" fill="#f1a34f"/>
        <rect id="Rectángulo_6377" data-name="Rectángulo 6377" width="203.607" height="3.039" transform="translate(32.833 385.71)" fill="#d86713"/>
      </g>
      <path id="Trazado_62808" data-name="Trazado 62808" d="M1325.464,516.569h-121.7c5.861-4.325,26.9-19.41,45.948-27.556,7.9-3.374,15.449-5.557,21.441-5.288C1290.156,484.578,1316.793,508.347,1325.464,516.569Z" fill="#fc801c"/>
      <path id="Trazado_62809" data-name="Trazado 62809" d="M1286.778,516.569h-121.7c8.288-6.118,46.936-33.759,67.388-32.844,5.336.241,11.273,2.288,17.246,5.288C1265.011,496.7,1280.539,510.653,1286.778,516.569Z" fill="#fb9d39"/>
      <path id="Trazado_62810" data-name="Trazado 62810" d="M1919.742,518.229H1107.581a.8.8,0,0,1-.8-.8h0a.8.8,0,0,1,.8-.8h812.161a.8.8,0,0,1,.8.8h0A.8.8,0,0,1,1919.742,518.229Z" fill="#1e2e50"/>
      <path id="Trazado_62811" data-name="Trazado 62811" d="M1253.633,446.5a1.025,1.025,0,0,0-1.224.768l-9.277,40.518c-2.506.074-5.054,2.787-5.919,6.567l-.884,3.86a5.433,5.433,0,0,0-.121.65l10.3,2.359a2.7,2.7,0,0,0,.2-.632l.884-3.86c.863-3.769-.242-7.312-2.473-8.483l9.279-40.523A1.025,1.025,0,0,0,1253.633,446.5Z" fill="#0d458d"/>
      <path id="Trazado_62812" data-name="Trazado 62812" d="M1226.671,498.8s21.4-5.542,28.231-1.031-3.481,9.281-3.481,9.281Z" fill="#fb9d39"/>
      <g id="Grupo_44689" data-name="Grupo 44689">
        <path id="Trazado_62928" data-name="Trazado 62928" d="M2080.418,423.907H1023.894a1.034,1.034,0,0,1-1.031-1.03h0a1.034,1.034,0,0,1,1.031-1.031H2080.418a1.034,1.034,0,0,1,1.031,1.031h0A1.034,1.034,0,0,1,2080.418,423.907Z" fill="#0f2b4e"/>
      </g>
    </g>
  </g>
</svg>
