<svg xmlns="http://www.w3.org/2000/svg" width="155.547" height="154.761" viewBox="0 0 155.547 154.761">
  <g id="arrastrar" transform="translate(0 -0.001)">
    <path id="Trazado_142737" data-name="Trazado 142737" d="M259.292,313.576a32.113,32.113,0,0,1-32.081,32.082H188A13,13,0,0,1,200.962,332.7h12.963l-30.332-30.332a6.853,6.853,0,0,1,9.527-9.851l12.7,12.639a6.859,6.859,0,0,1-1.815-6.417,6.685,6.685,0,0,1,1.815-3.305,6.925,6.925,0,0,1,9.722,0l1.621,1.62a6.858,6.858,0,0,1-1.816-6.351,6.641,6.641,0,0,1,1.816-3.37,6.925,6.925,0,0,1,9.722,0l3.24,3.241a6.967,6.967,0,0,1,0-9.722,6.925,6.925,0,0,1,9.722,0l10.046,10.046A32.084,32.084,0,0,1,259.292,313.576Zm0,0" transform="translate(-126.43 -194.137)" fill="#ffcc80"/>
    <path id="Trazado_142738" data-name="Trazado 142738" d="M45.367,308.1a22.684,22.684,0,1,1-22.683-22.683A22.684,22.684,0,0,1,45.367,308.1Zm0,0" transform="translate(0 -198.704)" fill="#26a69a"/>
    <path id="Trazado_142739" data-name="Trazado 142739" d="M219.807,341.435H180.6a3.242,3.242,0,0,1-3.241-3.241,16.221,16.221,0,0,1,16.2-16.2h5.14L173.92,297.214a10.115,10.115,0,0,1,14.3-14.3l5.813,5.807a10.124,10.124,0,0,1,10.662-5.911,10.1,10.1,0,0,1,13.255-7.634,10.108,10.108,0,0,1,16.786-4.084l10.046,10.053a35.32,35.32,0,0,1-24.978,60.294Zm-35.419-6.482h35.419a28.835,28.835,0,0,0,20.4-49.223l-10.047-10.053a3.634,3.634,0,0,0-5.139,5.14,3.24,3.24,0,1,1-4.583,4.582l-3.24-3.241a3.632,3.632,0,1,0-5.14,5.134l3.241,3.24a3.243,3.243,0,0,1-4.583,4.589l-4.861-4.861a3.732,3.732,0,0,0-5.139,0,3.6,3.6,0,0,0-1.063,2.567,3.642,3.642,0,0,0,1.056,2.566l8.108,8.109a3.225,3.225,0,0,1,.947,2.287,3.238,3.238,0,0,1-5.529,2.3l-20.591-20.591a3.633,3.633,0,0,0-6.2,2.567,3.6,3.6,0,0,0,1.063,2.566l30.311,30.313a3.244,3.244,0,0,1-2.294,5.535H193.558A9.747,9.747,0,0,0,184.388,334.953Zm0,0" transform="translate(-119.025 -186.673)"/>
    <path id="Trazado_142740" data-name="Trazado 142740" d="M22.684,330.782A22.684,22.684,0,1,1,45.367,308.1,22.709,22.709,0,0,1,22.684,330.782Zm0-38.887a16.2,16.2,0,1,0,16.2,16.2A16.221,16.221,0,0,0,22.684,291.895Zm0,0" transform="translate(0 -198.704)"/>
    <path id="Trazado_142741" data-name="Trazado 142741" d="M389.933,44.045a3.241,3.241,0,0,1-.757-6.391,16.139,16.139,0,0,0,4.938-2.119,3.241,3.241,0,0,1,3.507,5.451,22.763,22.763,0,0,1-6.916,2.968A3.536,3.536,0,0,1,389.933,44.045Zm-12.67-1.219a3.343,3.343,0,0,1-1.348-.292,22.542,22.542,0,0,1-6.229-4.226,3.241,3.241,0,0,1,4.479-4.685,15.971,15.971,0,0,0,4.453,3.013,3.241,3.241,0,0,1-1.354,6.19ZM403.732,31.5a3.423,3.423,0,0,1-1.063-.176,3.242,3.242,0,0,1-2-4.122,16.315,16.315,0,0,0,.241-9.864,3.242,3.242,0,1,1,6.221-1.828,22.9,22.9,0,0,1,.908,6.4A22.641,22.641,0,0,1,406.8,29.32,3.246,3.246,0,0,1,403.732,31.5ZM366.1,27.9a3.252,3.252,0,0,1-3.209-2.781,23.2,23.2,0,0,1-.22-3.228,22.281,22.281,0,0,1,.408-4.29,3.241,3.241,0,1,1,6.364,1.231,16.4,16.4,0,0,0-.292,3.065,15.669,15.669,0,0,0,.163,2.3,3.24,3.24,0,0,1-2.748,3.668A2.8,2.8,0,0,1,366.1,27.9Zm6.526-17.454a3.243,3.243,0,0,1-2.125-5.69A22.627,22.627,0,0,1,376.913.842a3.238,3.238,0,1,1,2.417,6.007,16.3,16.3,0,0,0-4.6,2.807A3.186,3.186,0,0,1,372.622,10.446ZM396.629,9.3a3.211,3.211,0,0,1-1.88-.6,16.025,16.025,0,0,0-4.828-2.346A3.242,3.242,0,1,1,391.749.129a22.422,22.422,0,0,1,6.773,3.3A3.238,3.238,0,0,1,396.629,9.3Zm0,0" transform="translate(-252.489)"/>
    <path id="Trazado_142742" data-name="Trazado 142742" d="M99.224,144.038a3.49,3.49,0,0,1-.765-.09,3.239,3.239,0,0,1-2.391-3.915,29.625,29.625,0,0,1,2.644-6.754,3.241,3.241,0,0,1,5.743,3.007,23.328,23.328,0,0,0-2.08,5.263A3.241,3.241,0,0,1,99.224,144.038ZM108.9,127.33a3.241,3.241,0,0,1-2.5-5.3c1.361-1.659,2.833-3.344,4.394-5.036a3.243,3.243,0,1,1,4.764,4.4q-2.216,2.391-4.142,4.743A3.246,3.246,0,0,1,108.9,127.33ZM122.374,113.3a3.206,3.206,0,0,1-2.385-1.05,3.246,3.246,0,0,1,.195-4.582q2.41-2.216,4.938-4.381a3.241,3.241,0,0,1,4.213,4.926c-1.62,1.393-3.221,2.807-4.764,4.232A3.26,3.26,0,0,1,122.374,113.3Zm14.978-12.45a3.241,3.241,0,0,1-1.951-5.827q2.643-2,5.321-3.895a3.241,3.241,0,0,1,3.739,5.3q-2.586,1.826-5.159,3.771A3.189,3.189,0,0,1,137.352,100.848Zm16.086-10.954a3.241,3.241,0,0,1-1.679-6.014q2.926-1.778,5.762-3.312a3.241,3.241,0,0,1,3.091,5.7q-2.691,1.458-5.5,3.156A3.261,3.261,0,0,1,153.438,89.895Zm17.408-8.658a3.242,3.242,0,0,1-1.1-6.293,41.1,41.1,0,0,1,6.8-1.861,3.244,3.244,0,0,1,1.082,6.4,33.866,33.866,0,0,0-5.69,1.568A3.408,3.408,0,0,1,170.846,81.237Zm0,0" transform="translate(-66.818 -50.847)"/>
  </g>
</svg>
