<svg xmlns="http://www.w3.org/2000/svg" width="1240" height="644" viewBox="0 0 1240 644">
  <g id="Grupo_84569" data-name="Grupo 84569" transform="translate(-180 -1069)">
    <g id="Grupo_84568" data-name="Grupo 84568">
      <rect id="Rectángulo_31586" data-name="Rectángulo 31586" width="1240" height="644" transform="translate(180 1069)" fill="none"/>
      <g id="Grupo_84567" data-name="Grupo 84567">
        <path id="Trazado_144283" data-name="Trazado 144283" d="M1794.656,2014.865q1.583-1.584,3.048-3.237l96.572-96.574.685-.684,107.9-107.9a74.918,74.918,0,0,0-105.948-105.951q-1.584,1.583-3.051,3.242l-104.753,104.754-.685.683L1687.4,1910.22l.017.014a74.918,74.918,0,0,0,107.237,104.63Z" transform="translate(-941.256 -376.809)" fill="#1565c0"/>
        <path id="Trazado_144284" data-name="Trazado 144284" d="M1688.587,1545.52c1.055,1.055,2.138,2.069,3.238,3.047l96.572,96.574.685.684,107.9,107.9a74.918,74.918,0,0,0,105.951-105.951c-1.056-1.056-2.14-2.068-3.242-3.051l-104.752-104.753-.685-.685-101.017-101.019-.019.016a74.918,74.918,0,0,0-104.629,107.238Z" transform="translate(-941.232 -324.299)" fill="#039be5"/>
        <path id="Trazado_144285" data-name="Trazado 144285" d="M1533.741,1753.5q1.585-1.579,3.048-3.236l96.571-96.572.685-.684,107.9-107.9a74.918,74.918,0,1,0-105.951-105.951c-1.056,1.057-2.069,2.139-3.05,3.244l-104.752,104.75-.685.685-101.02,101.021.017.016A74.916,74.916,0,0,0,1533.741,1753.5Z" transform="translate(-888.754 -324.217)" fill="#4dd0e1"/>
        <path id="Trazado_144286" data-name="Trazado 144286" d="M1742.017,1908.68c-1.056-1.056-2.137-2.069-3.237-3.049l-96.573-96.574-.685-.684-107.9-107.9a74.917,74.917,0,1,0-105.948,105.95c1.054,1.058,2.137,2.071,3.24,3.051l104.752,104.753.687.685,101.021,101.019.015-.016c29.345,27.962,75.332,27.059,104.153-1.765C1770.8,1984.9,1771.274,1937.934,1742.017,1908.68Z" transform="translate(-888.73 -376.799)" fill="#26a69a"/>
        <path id="Trazado_144287" data-name="Trazado 144287" d="M1744.97,1955.679a62.075,62.075,0,1,0,62.077,62.075A62.076,62.076,0,0,0,1744.97,1955.679Z" transform="translate(-944.502 -432.568)" fill="#fff"/>
        <path id="Trazado_144288" data-name="Trazado 144288" d="M2005.5,1693.508a62.077,62.077,0,1,0,62.075,62.076A62.079,62.079,0,0,0,2005.5,1693.508Z" transform="translate(-996.926 -379.813)" fill="#fff"/>
        <circle id="Elipse_4133" data-name="Elipse 4133" cx="62.077" cy="62.077" r="62.077" transform="translate(737.119 1229.783) rotate(-89.045)" fill="#fff"/>
        <path id="Trazado_144289" data-name="Trazado 144289" d="M1484.68,1693.359a62.077,62.077,0,1,0,62.074,62.077A62.077,62.077,0,0,0,1484.68,1693.359Z" transform="translate(-892.125 -379.783)" fill="#fff"/>
        <g id="cloud-2" transform="translate(746.297 1298.307)">
          <g id="Grupo_83934" data-name="Grupo 83934" transform="translate(1.573 31.643)">
            <path id="Trazado_144290" data-name="Trazado 144290" d="M96.372,73.991H93.108c.077-.931.119-1.872.119-2.823A33.6,33.6,0,0,0,27.165,62.5a21.162,21.162,0,0,0,1.5,42.271h67.71a15.387,15.387,0,1,0,0-30.775Z" transform="translate(-7.5 -37.57)" fill="#e8e8e8"/>
            <path id="Trazado_144292" data-name="Trazado 144292" d="M183.991,195.842h-3.675V171.533a7.143,7.143,0,0,0-7.143-7.143h-10.01a7.143,7.143,0,0,0-7.143,7.143v24.309h-3.675a7.479,7.479,0,0,0-5.7,12.321l15.823,18.63a7.479,7.479,0,0,0,11.4,0l15.823-18.63A7.479,7.479,0,0,0,183.991,195.842Z" transform="translate(-116.038 -137.785)" fill="#ffa726"/>
          </g>
          <path id="Trazado_144294" data-name="Trazado 144294" d="M102.439,71.458a16.857,16.857,0,0,0-11.993-4.966H88.851q.023-.631.023-1.25A35.167,35.167,0,0,0,28.04,41.2a1.573,1.573,0,1,0,2.3,2.151A31.708,31.708,0,0,1,53.7,33.217,32.061,32.061,0,0,1,85.728,65.241c0,.878-.039,1.784-.114,2.693a1.573,1.573,0,0,0,1.568,1.7h3.264a13.814,13.814,0,0,1,0,27.628H78.589a9.09,9.09,0,0,0-.848-3.889,8.964,8.964,0,0,0-8.215-5.251h-2.1V65.39a8.726,8.726,0,0,0-8.716-8.716H48.7a8.726,8.726,0,0,0-8.716,8.716V88.126h-2.1a8.964,8.964,0,0,0-8.215,5.251,9.089,9.089,0,0,0-.848,3.889H22.736a19.588,19.588,0,0,1-1.388-39.127,1.573,1.573,0,0,0,1.411-1.164,31.886,31.886,0,0,1,3.9-8.887A1.573,1.573,0,0,0,24,46.4a35.027,35.027,0,0,0-3.984,8.7,22.736,22.736,0,0,0,2.717,45.308h6.682a9.152,9.152,0,0,0,1.563,2.625L46.8,121.668a9.052,9.052,0,0,0,13.8,0l3.95-4.653a1.573,1.573,0,1,0-2.4-2.037l-3.95,4.653a5.9,5.9,0,0,1-9,0L33.379,101a5.905,5.905,0,0,1,4.5-9.728h3.675A1.573,1.573,0,0,0,43.128,89.7V65.39a5.576,5.576,0,0,1,5.57-5.57H58.708a5.576,5.576,0,0,1,5.57,5.57V89.7a1.573,1.573,0,0,0,1.573,1.573h3.675a5.905,5.905,0,0,1,4.5,9.728l-7.8,9.182a1.573,1.573,0,1,0,2.4,2.037l7.8-9.182a9.155,9.155,0,0,0,1.563-2.625H90.446a16.962,16.962,0,0,0,11.993-28.955Z"/>
        </g>
        <g id="clave" transform="translate(557.457 1340.393)">
          <path id="Trazado_144295" data-name="Trazado 144295" d="M76.2,10.806a2.362,2.362,0,0,0-.83-1.823,1.913,1.913,0,0,0-.6-.35c-.047-.023-.117-.047-.176-.07a2.769,2.769,0,0,0-.339-.082,2.133,2.133,0,0,0-.386-.035h-3.53l-7.971-.011a1.456,1.456,0,0,0-.818.467l-25.4,25.4a21.726,21.726,0,0,0-2.841-.666,21.1,21.1,0,0,0-5.213-.211,21.439,21.439,0,0,0-15.1,34.69c.491.608.993,1.18,1.519,1.718A21.452,21.452,0,0,0,50.316,48.454l2.525-2.525a.747.747,0,0,0,.211-.573l-.573-6.219a.717.717,0,0,1,.164-.514.707.707,0,0,1,.62-.269l2.805.257,2.887.269a.731.731,0,0,0,.783-.783l-.526-5.692a.718.718,0,0,1,.163-.515.693.693,0,0,1,.62-.269l2.805.257,2.887.269a.73.73,0,0,0,.783-.783l-.514-5.715a.7.7,0,0,1,.164-.514.69.69,0,0,1,.608-.257l3.355.3,2.9.257a.694.694,0,0,0,.561-.21L75.9,22.8a1.189,1.189,0,0,0,.327-.818ZM27.8,64.9a5.743,5.743,0,0,1-8.088,0,.618.618,0,0,1-.117-.14,2.476,2.476,0,0,1-.362-.42l-.011-.012a2.717,2.717,0,0,1-.3-.444,2.8,2.8,0,0,1-.269-.479,4.634,4.634,0,0,1-.245-.549,2.785,2.785,0,0,1-.14-.444,5.7,5.7,0,0,1,7.048-7.048,2.75,2.75,0,0,1,.444.14,4.6,4.6,0,0,1,.549.245,2.8,2.8,0,0,1,.479.269,2.721,2.721,0,0,1,.444.3l.011.011a2.477,2.477,0,0,1,.421.362.615.615,0,0,1,.14.117A5.72,5.72,0,0,1,27.8,64.9Zm0,0" transform="translate(-7.203 -7.226)" fill="#fec108"/>
          <path id="Trazado_144296" data-name="Trazado 144296" d="M72.7,10.806a2.362,2.362,0,0,0-.83-1.823,1.91,1.91,0,0,0-.6-.35c-.047-.023-.116-.047-.175-.07a2.769,2.769,0,0,0-.339-.082,2.133,2.133,0,0,0-.386-.035h-.023l-7.971-.011a1.456,1.456,0,0,0-.818.467l-25.4,25.4a21.726,21.726,0,0,0-2.841-.666l-.666.666a21.571,21.571,0,0,0-4.547-.877,21.439,21.439,0,0,0-15.1,34.69c.491.608.993,1.18,1.519,1.718A21.342,21.342,0,0,0,28.12,76.154a21.437,21.437,0,0,0,18.689-27.7l2.525-2.525a.747.747,0,0,0,.211-.573l-.573-6.219a.724.724,0,0,1,.783-.783l2.887.269,2.805.257a.735.735,0,0,0,.783-.783L55.7,32.406a.725.725,0,0,1,.783-.783l2.887.269,2.805.257a.735.735,0,0,0,.783-.783l-.514-5.715a.713.713,0,0,1,.771-.771l2.9.257,3.354.3a.7.7,0,0,0,.561-.21l.047-.047L72.395,22.8a1.189,1.189,0,0,0,.327-.818ZM27.8,64.9a5.7,5.7,0,0,1-5.8,1.391c-1.976.643-.315.176-1.882-1.391a.618.618,0,0,1-.117-.14,2.476,2.476,0,0,1-.362-.42l-.011-.012a2.717,2.717,0,0,1-.3-.444,2.8,2.8,0,0,1-.269-.479,4.635,4.635,0,0,1-.245-.549,2.785,2.785,0,0,1-.14-.444,5.69,5.69,0,0,1,1.449-5.6c1.52-1.519-.245-2,1.683-1.449A1.166,1.166,0,0,1,22,55.42a5.639,5.639,0,0,1,3.32-.058,2.75,2.75,0,0,1,.444.14,4.6,4.6,0,0,1,.549.245,2.8,2.8,0,0,1,.479.269,2.721,2.721,0,0,1,.444.3l.011.011a2.477,2.477,0,0,1,.421.362.615.615,0,0,1,.14.117A5.72,5.72,0,0,1,27.8,64.9Zm0,0" transform="translate(-7.203 -7.226)" fill="#ffca28"/>
          <path id="Trazado_144297" data-name="Trazado 144297" d="M22.612,70.176c-.42,0-.839-.012-1.26-.035a22.617,22.617,0,1,1,7.271-44.386L53.527.85a2.633,2.633,0,0,1,1.515-.8c.049-.007.12.014.146-.009l11.47.01a3.593,3.593,0,0,1,2.494,1.032,3.482,3.482,0,0,1,1.022,2.5l.021,11.169a2.336,2.336,0,0,1-.66,1.632h0L67.17,18.82a1.867,1.867,0,0,1-1.5.557l-5.7-.513.465,5.173a1.884,1.884,0,0,1-2.047,2.045l-5.159-.472.471,5.158a1.883,1.883,0,0,1-2.049,2.046l-5.157-.471.519,5.679a1.878,1.878,0,0,1-.544,1.5L44.43,41.562A22.616,22.616,0,0,1,22.612,70.176Zm-.03-42.9A20.284,20.284,0,1,0,42,41.567a1.166,1.166,0,0,1,.29-1.17l2.373-2.373-.549-6.01a1.885,1.885,0,0,1,2.047-2.048l5.158.472-.472-5.158a1.884,1.884,0,0,1,2.047-2.047l5.159.472-.465-5.172a1.885,1.885,0,0,1,2.046-2.046l6.019.542,2.2-2.267,0,0-.02-11.179a1.168,1.168,0,0,0-1.168-1.192h-.006l-11.337-.01a1.553,1.553,0,0,0-.147.127L29.786,27.9a1.169,1.169,0,0,1-1.17.29A20.521,20.521,0,0,0,22.582,27.273Zm0,0" transform="translate(0)"/>
          <path id="Trazado_144298" data-name="Trazado 144298" d="M76.347,349.2a6.885,6.885,0,1,1,4.871-2.014A6.885,6.885,0,0,1,76.347,349.2Zm0-11.433a4.548,4.548,0,1,0,3.218,1.331A4.548,4.548,0,0,0,76.347,337.769Zm0,0" transform="translate(-59.793 -288.689)"/>
          <path id="Trazado_144299" data-name="Trazado 144299" d="M235.087,99.266a1.169,1.169,0,0,1-.827-2l18.2-18.2a1.169,1.169,0,1,1,1.653,1.653l-18.2,18.2A1.167,1.167,0,0,1,235.087,99.266Zm0,0" transform="translate(-201.345 -67.722)"/>
          <path id="Trazado_144300" data-name="Trazado 144300" d="M388.908,59.618a1.169,1.169,0,1,0-1.169,1.169A1.169,1.169,0,0,0,388.908,59.618Zm0,0" transform="translate(-332.74 -50.276)"/>
        </g>
        <g id="ganancia" transform="translate(741.879 1121.434)">
          <g id="Grupo_83936" data-name="Grupo 83936" transform="translate(28.412 11.876)">
            <g id="Grupo_83935" data-name="Grupo 83935">
              <path id="Trazado_144301" data-name="Trazado 144301" d="M101.4,87.149,88.221,73.966a1.668,1.668,0,0,0-2.359,0L72.679,87.149A1.668,1.668,0,0,0,73.858,90h4.7v21a1.668,1.668,0,0,0,1.668,1.668H93.852a1.668,1.668,0,0,0,1.668-1.668V90h4.7a1.668,1.668,0,0,0,1.179-2.848Z" transform="translate(-72.187 -73.477)" fill="#039be5"/>
            </g>
          </g>
          <g id="Grupo_83941" data-name="Grupo 83941" transform="translate(21.183 23.164)">
            <g id="Grupo_83938" data-name="Grupo 83938" transform="translate(44.167)">
              <g id="Grupo_83937" data-name="Grupo 83937">
                <path id="Trazado_144303" data-name="Trazado 144303" d="M329.942,156.992l-13.183-13.183a1.668,1.668,0,0,0-2.359,0l-13.183,13.183a1.668,1.668,0,0,0,1.18,2.848h4.7V197a1.668,1.668,0,0,0,1.668,1.668H322.39A1.668,1.668,0,0,0,324.058,197V159.84h4.7A1.668,1.668,0,0,0,329.942,156.992Z" transform="translate(-300.725 -143.32)" fill="#26a69a"/>
              </g>
            </g>
            <g id="Grupo_83940" data-name="Grupo 83940" transform="translate(0 4.041)">
              <g id="Grupo_83939" data-name="Grupo 83939">
                <path id="Trazado_144305" data-name="Trazado 144305" d="M56.679,181.992,43.5,168.809a1.668,1.668,0,0,0-2.359,0L27.954,181.992a1.668,1.668,0,0,0,1.18,2.848h4.7v33.117a1.668,1.668,0,0,0,1.668,1.668H49.127a1.668,1.668,0,0,0,1.668-1.668V184.84h4.7a1.668,1.668,0,0,0,1.179-2.848Z" transform="translate(-27.462 -168.32)" fill="#1565c0"/>
                <path id="Trazado_144306" data-name="Trazado 144306" d="M106.1,168.806l13.184,13.184Z" transform="translate(-90.063 -168.318)" fill="#1565c0"/>
              </g>
            </g>
          </g>
          <g id="Grupo_83946" data-name="Grupo 83946" transform="translate(19.973 0)">
            <g id="Grupo_83943" data-name="Grupo 83943" transform="translate(36.018 1.212)">
              <g id="Grupo_83942" data-name="Grupo 83942">
                <path id="Trazado_144307" data-name="Trazado 144307" d="M272.036,21.172,258.853,7.989a1.668,1.668,0,0,0-2.359,0L243.311,21.172a1.668,1.668,0,0,0,1.18,2.848h4.7V61.178a1.668,1.668,0,0,0,1.668,1.668h13.621a1.668,1.668,0,0,0,1.668-1.668V24.02h4.7A1.668,1.668,0,0,0,272.036,21.172Z" transform="translate(-242.819 -7.5)" fill="#4dd0e1"/>
              </g>
            </g>
            <g id="Grupo_83945" data-name="Grupo 83945">
              <path id="Trazado_144316" data-name="Trazado 144316" d="M23.411,0A23.411,23.411,0,1,1,0,23.411,23.411,23.411,0,0,1,23.411,0Z" transform="translate(13.501 34.719)" fill="#ffca28"/>
              <path id="Trazado_144318" data-name="Trazado 144318" d="M18.362,0A18.362,18.362,0,1,1,0,18.362,18.362,18.362,0,0,1,18.362,0Z" transform="translate(18.551 39.769)" fill="#26a69a"/>
              <path id="Trazado_144317" data-name="Trazado 144317" d="M12.321,0A12.321,12.321,0,1,1,0,12.321,12.321,12.321,0,0,1,12.321,0Z" transform="translate(24.592 45.809)" fill="#ffca28"/>
              <g id="Grupo_83944" data-name="Grupo 83944">
                <path id="Trazado_144312" data-name="Trazado 144312" d="M95.425,35.979,82.242,22.8a2.893,2.893,0,0,0-1.705-.821V18.944h3.492a2.88,2.88,0,0,0,2.037-4.917L72.883.844a2.88,2.88,0,0,0-4.074,0L55.626,14.027a2.88,2.88,0,0,0,2.037,4.917h3.492V33.878a24.706,24.706,0,0,0-8.2-.057V29.608H56.45a2.88,2.88,0,0,0,2.037-4.917l-5.664-5.664a1.212,1.212,0,0,0-1.714,1.714l5.664,5.664a.456.456,0,0,1-.322.778h-4.7A1.212,1.212,0,0,0,50.533,28.4v5.943a24.438,24.438,0,0,0-3.66,1.3l-8.8-8.8a2.884,2.884,0,0,0-4.073,0l-.347.347H30.083a.456.456,0,0,1-.322-.778L42.944,13.222a.456.456,0,0,1,.644,0L47.1,16.736a1.212,1.212,0,1,0,1.714-1.714L45.3,11.508a2.884,2.884,0,0,0-4.073,0L28.047,24.691a2.88,2.88,0,0,0,2.037,4.917H31.23L20.818,40.02a2.88,2.88,0,0,0,2.037,4.917h3.492v31.9a2.883,2.883,0,0,0,2.88,2.88H42.848a2.878,2.878,0,0,0,1.487-.415,24.571,24.571,0,0,0,26.6-.97,2.878,2.878,0,0,0,2.457,1.385H87.016a2.883,2.883,0,0,0,2.88-2.88V40.9h3.492a2.88,2.88,0,0,0,2.037-4.917ZM29.227,77.3a.456.456,0,0,1-.456-.456V43.725a1.212,1.212,0,0,0-1.212-1.212h-4.7a.456.456,0,0,1-.322-.778L35.716,28.551a.456.456,0,0,1,.644,0L44.6,36.794a24.6,24.6,0,0,0-3.156,40.5H29.227Zm27.658,3.031a22.2,22.2,0,1,1,22.2-22.2A22.224,22.224,0,0,1,56.885,80.329ZM93.81,38.191a.434.434,0,0,1-.421.281h-4.7a1.212,1.212,0,0,0-1.212,1.212V76.842a.456.456,0,0,1-.456.456H73.395a.456.456,0,0,1-.456-.456c0-.018,0-.036,0-.054a24.6,24.6,0,0,0,7.6-25.507V36.517a1.212,1.212,0,1,0-2.424,0v9.149A24.731,24.731,0,0,0,63.58,34.432v-16.7a1.212,1.212,0,0,0-1.212-1.212h-4.7a.456.456,0,0,1-.322-.778L70.524,2.558a.456.456,0,0,1,.644,0L84.352,15.741a.456.456,0,0,1-.322.778h-4.7a1.212,1.212,0,0,0-1.212,1.212V30.853a1.212,1.212,0,1,0,2.424,0V24.52L93.711,37.694A.435.435,0,0,1,93.81,38.191Z" transform="translate(-19.973 0)"/>
                <path id="Trazado_144313" data-name="Trazado 144313" d="M146.818,238.548a19.43,19.43,0,0,0-11.485,3.724,1.212,1.212,0,1,0,1.424,1.962A17.148,17.148,0,1,1,133,247.962a1.212,1.212,0,1,0-1.952-1.438,19.574,19.574,0,1,0,15.768-7.976Z" transform="translate(-109.906 -199.992)"/>
                <path id="Trazado_144314" data-name="Trazado 144314" d="M178.153,302.989a13.533,13.533,0,1,0-13.533-13.533A13.548,13.548,0,0,0,178.153,302.989Zm0-24.641a11.108,11.108,0,1,1-11.108,11.108A11.121,11.121,0,0,1,178.153,278.348Z" transform="translate(-141.241 -231.326)"/>
                <path id="Trazado_144315" data-name="Trazado 144315" d="M218.355,317.227v.958a1.212,1.212,0,1,0,2.424,0v-.958c2.478-.459,4.337-2.293,4.337-4.481,0-3.25-2.946-4.021-5.1-4.584-2.011-.526-2.724-.834-2.724-1.513,0-.8,1.062-1.5,2.272-1.5s2.273.7,2.273,1.5a1.212,1.212,0,0,0,2.424,0,4.128,4.128,0,0,0-3.485-3.8v-.98a1.212,1.212,0,0,0-2.424,0v.98a4.128,4.128,0,0,0-3.485,3.8c0,2.671,2.621,3.357,4.535,3.858,2.466.645,3.286,1.059,3.286,2.239s-1.431,2.168-3.124,2.168-3.124-.993-3.124-2.168a1.212,1.212,0,1,0-2.424,0c0,2.188,1.858,4.022,4.336,4.481Z" transform="translate(-182.656 -252.067)"/>
              </g>
            </g>
          </g>
        </g>
        <g id="velocidad" transform="translate(960.602 1289.904)">
          <g id="Grupo_83947" data-name="Grupo 83947" transform="translate(50.489 51.852)">
            <path id="Trazado_144319" data-name="Trazado 144319" d="M299.16,66.643H285.83v-7.5a1.115,1.115,0,0,1,1.115-1.115h11.1a1.115,1.115,0,0,1,1.115,1.115Z" transform="translate(-285.83 -58.027)" fill="#ffa726"/>
          </g>
          <g id="Grupo_83948" data-name="Grupo 83948" transform="translate(25.697 58.373)">
            <path id="Trazado_144331" data-name="Trazado 144331" d="M31.457,0A31.457,31.457,0,1,1,0,31.457,31.457,31.457,0,0,1,31.457,0Z" fill="#ffca28"/>
          </g>
          <g id="Grupo_83950" data-name="Grupo 83950" transform="translate(33.749 66.426)">
            <circle id="Elipse_4135" data-name="Elipse 4135" cx="23.405" cy="23.405" r="23.405" fill="#f7f7f7"/>
          </g>
          <g id="Grupo_83951" data-name="Grupo 83951" transform="translate(54.504 66.426)">
            <path id="Trazado_144321" data-name="Trazado 144321" d="M311.213,140.534a23.642,23.642,0,0,0-2.65.15,23.405,23.405,0,0,1,0,46.509,23.642,23.642,0,0,0,2.65.15,23.4,23.4,0,0,0,0-46.81Z" transform="translate(-308.563 -140.534)" fill="#e8e8e8"/>
          </g>
          <g id="Grupo_83952" data-name="Grupo 83952" transform="translate(0 50.527)">
            <path id="Trazado_144322" data-name="Trazado 144322" d="M208.291,182.493a24.73,24.73,0,1,0-24.73-24.73A24.758,24.758,0,0,0,208.291,182.493Zm-18.413-26.055h-3.627a21.99,21.99,0,0,1,5.526-13.315l2.557,2.557a1.325,1.325,0,1,0,1.873-1.873l-2.557-2.557a21.99,21.99,0,0,1,13.315-5.526v3.627a1.325,1.325,0,0,0,2.65,0v-3.627a21.989,21.989,0,0,1,13.315,5.526l-2.557,2.557a1.325,1.325,0,0,0,1.874,1.873l2.557-2.557a21.99,21.99,0,0,1,5.526,13.315H226.7a1.325,1.325,0,0,0,0,2.65h3.627A21.989,21.989,0,0,1,224.8,172.4l-2.557-2.557a1.325,1.325,0,0,0-1.874,1.873l2.557,2.557a21.99,21.99,0,0,1-13.315,5.526v-3.627a1.325,1.325,0,0,0-2.65,0V179.8a21.99,21.99,0,0,1-13.315-5.526l2.557-2.557a1.325,1.325,0,0,0-1.873-1.873l-2.557,2.557a21.99,21.99,0,0,1-5.526-13.315h3.627a1.325,1.325,0,1,0,0-2.649Z" transform="translate(-151.137 -118.46)"/>
            <path id="Trazado_144323" data-name="Trazado 144323" d="M186.821,202.822a30.136,30.136,0,0,1-39.928-43.9,1.325,1.325,0,0,0-2.1-1.619,32.47,32.47,0,0,0-6.82,20.018,32.788,32.788,0,0,0,50.26,27.739,1.325,1.325,0,1,0-1.415-2.24Z" transform="translate(-113.604 -138.02)"/>
            <path id="Trazado_144324" data-name="Trazado 144324" d="M226.017,58.035V53.013a2.489,2.489,0,0,0-2.486-2.486H212.523a2.489,2.489,0,0,0-2.486,2.486v5.02a32.679,32.679,0,0,0-14.224,7.689,1.325,1.325,0,1,0,1.8,1.948,30.132,30.132,0,1,1,40.569,44.564,1.325,1.325,0,0,0,1.773,1.969,32.784,32.784,0,0,0-13.933-56.168Zm-13.33-.552V53.177h10.681v4.309a32.921,32.921,0,0,0-10.681,0Z" transform="translate(-160.873 -50.527)"/>
            <path id="Trazado_144325" data-name="Trazado 144325" d="M317.387,220.622a1.324,1.324,0,0,0,1.156-.679l4.57-4.57a1.325,1.325,0,1,0-1.874-1.874l-2.528,2.528v-6.452a1.325,1.325,0,1,0-2.65,0V219.3a1.325,1.325,0,0,0,1.325,1.325Z" transform="translate(-260.233 -180.391)"/>
            <path id="Trazado_144326" data-name="Trazado 144326" d="M19.55,268.553a1.325,1.325,0,0,0-1.325-1.325H1.325a1.325,1.325,0,1,0,0,2.65h16.9A1.325,1.325,0,0,0,19.55,268.553Z" transform="translate(0 -228.95)"/>
            <path id="Trazado_144327" data-name="Trazado 144327" d="M31.239,226.2H44.621a1.325,1.325,0,1,0,0-2.65H31.239a1.325,1.325,0,1,0,0,2.65Z" transform="translate(-24.63 -192.987)"/>
            <path id="Trazado_144328" data-name="Trazado 144328" d="M65.842,179.871H54.867a1.325,1.325,0,1,0,0,2.65H65.842a1.325,1.325,0,0,0,0-2.65Z" transform="translate(-44.084 -157.024)"/>
            <path id="Trazado_144329" data-name="Trazado 144329" d="M45.946,308.846a1.325,1.325,0,0,0-1.325-1.325H31.239a1.325,1.325,0,1,0,0,2.65H44.621A1.325,1.325,0,0,0,45.946,308.846Z" transform="translate(-24.63 -262.126)"/>
            <path id="Trazado_144330" data-name="Trazado 144330" d="M65.842,351.2H54.867a1.325,1.325,0,1,0,0,2.65H65.842a1.325,1.325,0,1,0,0-2.65Z" transform="translate(-44.084 -298.089)"/>
          </g>
        </g>
        <g id="giro" transform="translate(762.518 1544.051)">
          <path id="Trazado_144332" data-name="Trazado 144332" d="M172.875,23.011,186.021,8.252l13.146,14.759h-8.587v63.6h-9.12v-63.6Z" transform="translate(-145.537 -6.296)" fill="#039be5"/>
          <path id="Trazado_144334" data-name="Trazado 144334" d="M236.279,181.161V149.419a11.753,11.753,0,0,1,3.637-8.526,12.084,12.084,0,0,1,8.705-3.392l7.444,0v9.014l14.956-12.973-14.956-12.973V128.5l-7.181,0h-.037a21.2,21.2,0,0,0-15.305,5.952,20.625,20.625,0,0,0-6.383,14.962v31.742Z" transform="translate(-191.237 -100.849)" fill="#ffca28"/>
          <path id="Trazado_144336" data-name="Trazado 144336" d="M42.221,262.014V245.459a11.753,11.753,0,0,0-3.637-8.526,12.084,12.084,0,0,0-8.705-3.392l-7.444,0v9.014L7.479,229.579l14.956-12.973v7.937l7.181,0h.037A21.2,21.2,0,0,1,44.957,230.5a20.625,20.625,0,0,1,6.383,14.962v16.554h-9.12Z" transform="translate(-6.296 -181.702)" fill="#26a69a"/>
          <path id="Trazado_144337" data-name="Trazado 144337" d="M80.559,31.8,65.6,18.824a1.183,1.183,0,0,0-1.958.893v6.755l-5.982,0h-.027a22.491,22.491,0,0,0-11.409,2.779V17.9h7.4a1.183,1.183,0,0,0,.883-1.969L41.367,1.169a1.183,1.183,0,0,0-1.767,0L26.454,15.928a1.183,1.183,0,0,0,.883,1.969h7.4v5.207a1.183,1.183,0,1,0,2.365,0v-6.39a1.183,1.183,0,0,0-1.183-1.183H29.975l10.509-11.8,10.509,11.8H45.044a1.183,1.183,0,0,0-1.183,1.183V30.761a22.659,22.659,0,0,0-2.377,2,22.156,22.156,0,0,0-4.377,5.872V27.836a1.183,1.183,0,1,0-2.365,0v16.6a22.454,22.454,0,0,0-11.408-2.78h-.028l-5.984,0V34.9a1.183,1.183,0,0,0-1.958-.893L.408,46.984a1.182,1.182,0,0,0,0,1.787l4.606,4a1.183,1.183,0,1,0,1.55-1.787l-3.576-3.1L14.956,37.5v5.346a1.183,1.183,0,0,0,1.182,1.183l7.181,0h.063A20.04,20.04,0,0,1,37.84,49.647a19.45,19.45,0,0,1,6.019,13.938v2.8a1.183,1.183,0,0,0,1.183,1.183h0a1.183,1.183,0,0,0,1.183-1.183V63.757c0-.058,0-.115,0-.173V48.57A10.581,10.581,0,0,1,49.5,40.9a10.893,10.893,0,0,1,7.859-3.061.15.15,0,0,0,.025,0l6.261,0v7.831a1.183,1.183,0,0,0,1.958.893L80.559,33.583a1.182,1.182,0,0,0,0-1.786ZM66.011,43.072V36.65a1.183,1.183,0,0,0-1.183-1.183h0l-7.431,0a13.276,13.276,0,0,0-9.538,3.723,12.925,12.925,0,0,0-4,9.377v5.266a22.168,22.168,0,0,0-4.377-5.892,22.741,22.741,0,0,0-2.219-1.88,19.337,19.337,0,0,1,5.863-11.6A20.025,20.025,0,0,1,57.6,28.838h.051l7.181,0a1.183,1.183,0,0,0,1.182-1.183V22.309L77.979,32.69Z"/>
          <path id="Trazado_144338" data-name="Trazado 144338" d="M88.6,335.484a1.183,1.183,0,0,0-1.183,1.183v8.01H80.66V329.305a12.925,12.925,0,0,0-4-9.377,13.259,13.259,0,0,0-9.538-3.723l-7.431,0h0a1.183,1.183,0,0,0-1.183,1.183v6.422l-4.817-4.178a1.183,1.183,0,1,0-1.55,1.787l6.774,5.877a1.183,1.183,0,0,0,1.958-.893v-7.831l6.26,0a.166.166,0,0,0,.025,0,10.909,10.909,0,0,1,7.859,3.061,10.579,10.579,0,0,1,3.275,7.674V345.86a1.183,1.183,0,0,0,1.183,1.183H88.6a1.183,1.183,0,0,0,1.183-1.183v-9.193A1.182,1.182,0,0,0,88.6,335.484Z" transform="translate(-43.552 -265.548)"/>
        </g>
      </g>
    </g>
  </g>
</svg>
