<svg xmlns="http://www.w3.org/2000/svg" width="1240" height="422" viewBox="0 0 1240 422">
  <g id="Grupo_84563" data-name="Grupo 84563" transform="translate(-180 -936)">
    <g id="Grupo_84562" data-name="Grupo 84562">
      <path id="Trazado_146344" data-name="Trazado 146344" d="M0,0H1240V422H0Z" transform="translate(180 936)" fill="none"/>
      <g id="Grupo_83973" data-name="Grupo 83973" transform="translate(260.285 783.607)">
        <g id="Grupo_83965" data-name="Grupo 83965" transform="translate(129.715 311.393)">
          <g id="Grupo_83963" data-name="Grupo 83963" transform="translate(1.94 1.94)">
            <path id="Trazado_144596" data-name="Trazado 144596" d="M421.647,441.576c0-29.007-22.649-52.522-50.576-52.522-.174,0-.339.009-.519.02-.1-22.8-17.912-41.245-39.886-41.245a38.454,38.454,0,0,0-16.848,3.919c-10.679-23.115-33.34-39.115-59.666-39.115-34.286,0-62.483,27.064-65.877,61.757-31.685.167-57.318,26.9-57.318,59.856,0,31.871,24,57.862,54.254,59.693v.183H374.46v-.183C400.8,492.118,421.647,469.409,421.647,441.576Z" transform="translate(-130.956 -312.634)" fill="#e8e8e8" opacity="0.198"/>
          </g>
          <g id="Grupo_83964" data-name="Grupo 83964">
            <path id="Trazado_144597" data-name="Trazado 144597" d="M375.159,496.764H183.968v-.328c-30.567-2.82-54.253-29.478-54.253-61.491,0-33.287,25.646-60.626,57.514-61.767,4.283-35.338,33.065-61.785,67.622-61.785,25.4,0,48.98,15.048,60.59,38.5a40.1,40.1,0,0,1,15.924-3.3c22.33,0,40.694,18.325,41.778,41.232,28.327.761,51.143,24.9,51.143,54.454,0,27.925-20.578,51.346-47.185,54.143v.163Zm-187.31-3.888,185.368-.052,1.806-.117c25.451-1.762,45.386-23.912,45.386-50.432,0-27.889-21.821-50.585-48.639-50.585h-1.934l-.525-1.912c-.094-21.672-17.121-39.306-37.946-39.306a36.372,36.372,0,0,0-16,3.727l-1.777.855-.833-1.788c-10.662-23.085-33.386-38-57.9-38-33.111,0-60.6,25.8-63.947,60.007l-.167,1.74-1.748.008c-30.544.169-55.391,26.159-55.391,57.922,0,30.608,23.029,55.975,52.428,57.762Z" transform="translate(-129.715 -311.393)" fill="#4dd0e1"/>
          </g>
        </g>
        <g id="Grupo_83967" data-name="Grupo 83967" transform="translate(252.894 321.1)">
          <g id="Grupo_83966" data-name="Grupo 83966">
            <path id="Trazado_144598" data-name="Trazado 144598" d="M255.53,344.628a1.937,1.937,0,0,1-1.562-.788,53.653,53.653,0,0,0-43.521-22.357,1.941,1.941,0,0,1,0-3.882,57.487,57.487,0,0,1,46.646,23.942,1.931,1.931,0,0,1-1.563,3.084Z" transform="translate(-208.509 -317.602)" fill="#4dd0e1"/>
          </g>
        </g>
        <g id="Grupo_83969" data-name="Grupo 83969" transform="translate(379.25 398.125)">
          <g id="Grupo_83968" data-name="Grupo 83968">
            <path id="Trazado_144599" data-name="Trazado 144599" d="M320.794,401.644a1.931,1.931,0,0,1-1.871-1.463c-3.672-14.425-14.468-25.721-28.16-29.5a1.942,1.942,0,1,1,1.03-3.744c15.034,4.141,26.872,16.515,30.889,32.288a1.941,1.941,0,0,1-1.4,2.359A2.174,2.174,0,0,1,320.794,401.644Z" transform="translate(-289.336 -366.873)" fill="#4dd0e1"/>
          </g>
        </g>
        <g id="Grupo_83971" data-name="Grupo 83971" transform="translate(328.612 355.938)">
          <g id="Grupo_83970" data-name="Grupo 83970">
            <path id="Trazado_144600" data-name="Trazado 144600" d="M287.394,363.547a1.949,1.949,0,0,1-1.8-1.207c-4.605-11.285-15.091-18.577-26.709-18.577a1.939,1.939,0,1,1,0-3.877c13.2,0,25.1,8.234,30.3,20.989a1.942,1.942,0,0,1-1.065,2.529A1.883,1.883,0,0,1,287.394,363.547Z" transform="translate(-256.944 -339.887)" fill="#4dd0e1"/>
          </g>
        </g>
      </g>
      <g id="Grupo_83974" data-name="Grupo 83974" transform="translate(523.285 641.607)">
        <g id="Grupo_83965-2" data-name="Grupo 83965" transform="translate(129.715 311.393)">
          <g id="Grupo_83963-2" data-name="Grupo 83963" transform="translate(1.94 1.94)">
            <path id="Trazado_144596-2" data-name="Trazado 144596" d="M421.647,441.576c0-29.007-22.649-52.522-50.576-52.522-.174,0-.339.009-.519.02-.1-22.8-17.912-41.245-39.886-41.245a38.454,38.454,0,0,0-16.848,3.919c-10.679-23.115-33.34-39.115-59.666-39.115-34.286,0-62.483,27.064-65.877,61.757-31.685.167-57.318,26.9-57.318,59.856,0,31.871,24,57.862,54.254,59.693v.183H374.46v-.183C400.8,492.118,421.647,469.409,421.647,441.576Z" transform="translate(-130.956 -312.634)" fill="#4dd0e1" opacity="0.198"/>
          </g>
          <g id="Grupo_83964-2" data-name="Grupo 83964">
            <path id="Trazado_144597-2" data-name="Trazado 144597" d="M375.159,496.764H183.968v-.328c-30.567-2.82-54.253-29.478-54.253-61.491,0-33.287,25.646-60.626,57.514-61.767,4.283-35.338,33.065-61.785,67.622-61.785,25.4,0,48.98,15.048,60.59,38.5a40.1,40.1,0,0,1,15.924-3.3c22.33,0,40.694,18.325,41.778,41.232,28.327.761,51.143,24.9,51.143,54.454,0,27.925-20.578,51.346-47.185,54.143v.163Zm-187.31-3.888,185.368-.052,1.806-.117c25.451-1.762,45.386-23.912,45.386-50.432,0-27.889-21.821-50.585-48.639-50.585h-1.934l-.525-1.912c-.094-21.672-17.121-39.306-37.946-39.306a36.372,36.372,0,0,0-16,3.727l-1.777.855-.833-1.788c-10.662-23.085-33.386-38-57.9-38-33.111,0-60.6,25.8-63.947,60.007l-.167,1.74-1.748.008c-30.544.169-55.391,26.159-55.391,57.922,0,30.608,23.029,55.975,52.428,57.762Z" transform="translate(-129.715 -311.393)" fill="#4dd0e1"/>
          </g>
        </g>
        <g id="Grupo_83967-2" data-name="Grupo 83967" transform="translate(252.894 321.1)">
          <g id="Grupo_83966-2" data-name="Grupo 83966">
            <path id="Trazado_144598-2" data-name="Trazado 144598" d="M255.53,344.628a1.937,1.937,0,0,1-1.562-.788,53.653,53.653,0,0,0-43.521-22.357,1.941,1.941,0,0,1,0-3.882,57.487,57.487,0,0,1,46.646,23.942,1.931,1.931,0,0,1-1.563,3.084Z" transform="translate(-208.509 -317.602)" fill="#4dd0e1"/>
          </g>
        </g>
        <g id="Grupo_83969-2" data-name="Grupo 83969" transform="translate(379.25 398.125)">
          <g id="Grupo_83968-2" data-name="Grupo 83968">
            <path id="Trazado_144599-2" data-name="Trazado 144599" d="M320.794,401.644a1.931,1.931,0,0,1-1.871-1.463c-3.672-14.425-14.468-25.721-28.16-29.5a1.942,1.942,0,1,1,1.03-3.744c15.034,4.141,26.872,16.515,30.889,32.288a1.941,1.941,0,0,1-1.4,2.359A2.174,2.174,0,0,1,320.794,401.644Z" transform="translate(-289.336 -366.873)" fill="#4dd0e1"/>
          </g>
        </g>
        <g id="Grupo_83971-2" data-name="Grupo 83971" transform="translate(328.612 355.938)">
          <g id="Grupo_83970-2" data-name="Grupo 83970">
            <path id="Trazado_144600-2" data-name="Trazado 144600" d="M287.394,363.547a1.949,1.949,0,0,1-1.8-1.207c-4.605-11.285-15.091-18.577-26.709-18.577a1.939,1.939,0,1,1,0-3.877c13.2,0,25.1,8.234,30.3,20.989a1.942,1.942,0,0,1-1.065,2.529A1.883,1.883,0,0,1,287.394,363.547Z" transform="translate(-256.944 -339.887)" fill="#4dd0e1"/>
          </g>
        </g>
      </g>
      <g id="Grupo_83975" data-name="Grupo 83975" transform="translate(785.285 783.607)">
        <g id="Grupo_83965-3" data-name="Grupo 83965" transform="translate(129.715 311.393)">
          <g id="Grupo_83963-3" data-name="Grupo 83963" transform="translate(1.94 1.94)">
            <path id="Trazado_144596-3" data-name="Trazado 144596" d="M421.647,441.576c0-29.007-22.649-52.522-50.576-52.522-.174,0-.339.009-.519.02-.1-22.8-17.912-41.245-39.886-41.245a38.454,38.454,0,0,0-16.848,3.919c-10.679-23.115-33.34-39.115-59.666-39.115-34.286,0-62.483,27.064-65.877,61.757-31.685.167-57.318,26.9-57.318,59.856,0,31.871,24,57.862,54.254,59.693v.183H374.46v-.183C400.8,492.118,421.647,469.409,421.647,441.576Z" transform="translate(-130.956 -312.634)" fill="#e8e8e8" opacity="0.198"/>
          </g>
          <g id="Grupo_83964-3" data-name="Grupo 83964">
            <path id="Trazado_144597-3" data-name="Trazado 144597" d="M375.159,496.764H183.968v-.328c-30.567-2.82-54.253-29.478-54.253-61.491,0-33.287,25.646-60.626,57.514-61.767,4.283-35.338,33.065-61.785,67.622-61.785,25.4,0,48.98,15.048,60.59,38.5a40.1,40.1,0,0,1,15.924-3.3c22.33,0,40.694,18.325,41.778,41.232,28.327.761,51.143,24.9,51.143,54.454,0,27.925-20.578,51.346-47.185,54.143v.163Zm-187.31-3.888,185.368-.052,1.806-.117c25.451-1.762,45.386-23.912,45.386-50.432,0-27.889-21.821-50.585-48.639-50.585h-1.934l-.525-1.912c-.094-21.672-17.121-39.306-37.946-39.306a36.372,36.372,0,0,0-16,3.727l-1.777.855-.833-1.788c-10.662-23.085-33.386-38-57.9-38-33.111,0-60.6,25.8-63.947,60.007l-.167,1.74-1.748.008c-30.544.169-55.391,26.159-55.391,57.922,0,30.608,23.029,55.975,52.428,57.762Z" transform="translate(-129.715 -311.393)" fill="#4dd0e1"/>
          </g>
        </g>
        <g id="Grupo_83967-3" data-name="Grupo 83967" transform="translate(252.894 321.1)">
          <g id="Grupo_83966-3" data-name="Grupo 83966">
            <path id="Trazado_144598-3" data-name="Trazado 144598" d="M255.53,344.628a1.937,1.937,0,0,1-1.562-.788,53.653,53.653,0,0,0-43.521-22.357,1.941,1.941,0,0,1,0-3.882,57.487,57.487,0,0,1,46.646,23.942,1.931,1.931,0,0,1-1.563,3.084Z" transform="translate(-208.509 -317.602)" fill="#4dd0e1"/>
          </g>
        </g>
        <g id="Grupo_83969-3" data-name="Grupo 83969" transform="translate(379.25 398.125)">
          <g id="Grupo_83968-3" data-name="Grupo 83968">
            <path id="Trazado_144599-3" data-name="Trazado 144599" d="M320.794,401.644a1.931,1.931,0,0,1-1.871-1.463c-3.672-14.425-14.468-25.721-28.16-29.5a1.942,1.942,0,1,1,1.03-3.744c15.034,4.141,26.872,16.515,30.889,32.288a1.941,1.941,0,0,1-1.4,2.359A2.174,2.174,0,0,1,320.794,401.644Z" transform="translate(-289.336 -366.873)" fill="#4dd0e1"/>
          </g>
        </g>
        <g id="Grupo_83971-3" data-name="Grupo 83971" transform="translate(328.612 355.938)">
          <g id="Grupo_83970-3" data-name="Grupo 83970">
            <path id="Trazado_144600-3" data-name="Trazado 144600" d="M287.394,363.547a1.949,1.949,0,0,1-1.8-1.207c-4.605-11.285-15.091-18.577-26.709-18.577a1.939,1.939,0,1,1,0-3.877c13.2,0,25.1,8.234,30.3,20.989a1.942,1.942,0,0,1-1.065,2.529A1.883,1.883,0,0,1,287.394,363.547Z" transform="translate(-256.944 -339.887)" fill="#4dd0e1"/>
          </g>
        </g>
      </g>
      <g id="transferir" transform="translate(723.93 1103.172)">
        <g id="Grupo_83976" data-name="Grupo 83976" transform="translate(0 51.198)">
          <path id="Trazado_144601" data-name="Trazado 144601" d="M150.55,90.825,112.514,52.789a5.434,5.434,0,0,0-9.275,3.842v16.3H65.2a5.434,5.434,0,1,0,0,10.868h43.47a5.434,5.434,0,0,0,5.434-5.434V69.748l24.919,24.919-24.919,24.919v-8.618a5.434,5.434,0,0,0-5.434-5.434H48.9v-16.3a5.434,5.434,0,0,0-9.275-3.842L1.591,123.427a5.433,5.433,0,0,0,0,7.683l38.036,38.036a5.434,5.434,0,0,0,3.842,1.592,5.365,5.365,0,0,0,2.081-.413A5.434,5.434,0,0,0,48.9,165.3V149H86.937a5.434,5.434,0,1,0,0-10.868H43.468a5.434,5.434,0,0,0-5.434,5.434v8.618L13.115,127.269,38.034,102.35v8.618a5.434,5.434,0,0,0,5.434,5.434h59.77v16.3a5.434,5.434,0,0,0,9.275,3.842L150.55,98.508A5.434,5.434,0,0,0,150.55,90.825Z" transform="translate(0 -51.198)" fill="#26a69a"/>
        </g>
      </g>
      <g id="group" transform="translate(1027.494 1139)">
        <path id="Trazado_144602" data-name="Trazado 144602" d="M38.334,308.851a8.131,8.131,0,0,0-3.969-2.272l-5.626-1.348,0,0,0,0V301.8h-6.87v3.446h0l-5.611,1.34A8.152,8.152,0,0,0,10,314.511V323.7H22.438Z" transform="translate(-8.633 -260.529)" fill="#1565c0"/>
        <path id="Trazado_144603" data-name="Trazado 144603" d="M103.127,301.8v3.527l-3.565,8.54L96,305.336V301.8Z" transform="translate(-82.873 -260.529)" fill="#ffb487"/>
        <path id="Trazado_144604" data-name="Trazado 144604" d="M81.267,215.261v4.757a7.658,7.658,0,0,1-7.658,7.658h0a7.658,7.658,0,0,1-7.658-7.658v-4.757Z" transform="translate(-56.933 -185.826)" fill="#ffcdac"/>
        <path id="Trazado_144605" data-name="Trazado 144605" d="M81.267,166.286v-1.843a7.658,7.658,0,0,0-7.658-7.658h0a7.658,7.658,0,0,0-7.658,7.658v1.843H71.23a18.259,18.259,0,0,0,9.385-2.6h0" transform="translate(-56.933 -135.346)" fill="#878791"/>
        <path id="Trazado_144606" data-name="Trazado 144606" d="M294.79,308.851a8.131,8.131,0,0,1,3.969-2.272l5.626-1.348,0,0,0,0V301.8h6.87v3.446h0l5.611,1.34a8.152,8.152,0,0,1,6.258,7.928V323.7H310.686Z" transform="translate(-254.48 -260.529)" fill="#26a69a"/>
        <path id="Trazado_144607" data-name="Trazado 144607" d="M116.507,352.4l-7.836,1.878a11.354,11.354,0,0,0-8.708,11.041v7.537h42.646v-7.53a11.354,11.354,0,0,0-8.716-11.043l-7.816-1.867Z" transform="translate(-86.293 -304.215)" fill="#ffca28"/>
        <g id="Grupo_83977" data-name="Grupo 83977" transform="translate(29.902 41.268)">
          <path id="Trazado_144608" data-name="Trazado 144608" d="M371.007,301.8v3.539l-3.562,8.528-3.565-8.54V301.8Z" transform="translate(-344.024 -301.797)" fill="#ffb487"/>
          <path id="Trazado_144609" data-name="Trazado 144609" d="M223.779,338.952l5.1-11.583a4.211,4.211,0,0,1-.594-2.159V324.1h-9.02v1.113a4.211,4.211,0,0,1-.592,2.156Z" transform="translate(-218.674 -321.047)" fill="#ffb487"/>
        </g>
        <path id="Trazado_144610" data-name="Trazado 144610" d="M199.333,191.525v7.359a10.666,10.666,0,0,1-10.666,10.666h0A10.666,10.666,0,0,1,178,198.884v-7.359Z" transform="translate(-153.661 -165.336)" fill="#ffcdac"/>
        <path id="Trazado_144611" data-name="Trazado 144611" d="M188.665,115.437h0A10.666,10.666,0,0,0,178,126.1v2.568h5.215a11.718,11.718,0,0,0,8.982-4.192h0l7.135,4.192V126.1A10.666,10.666,0,0,0,188.665,115.437Z" transform="translate(-153.659 -99.652)" fill="#f5b955"/>
        <path id="Trazado_144612" data-name="Trazado 144612" d="M334.045,215.261v4.757a7.658,7.658,0,0,0,7.658,7.658h0a7.658,7.658,0,0,0,7.658-7.658v-4.757Z" transform="translate(-288.367 -185.826)" fill="#ffcdac"/>
        <path id="Trazado_144613" data-name="Trazado 144613" d="M334.045,166.286v-1.843a7.658,7.658,0,0,1,7.658-7.658h0a7.658,7.658,0,0,1,7.658,7.658v1.843h-5.279a18.259,18.259,0,0,1-9.385-2.6h0" transform="translate(-288.367 -135.346)" fill="#878791"/>
        <path id="Trazado_144614" data-name="Trazado 144614" d="M247.107,492a1.368,1.368,0,1,0,.967.4A1.377,1.377,0,0,0,247.107,492Z" transform="translate(-212.137 -424.723)"/>
        <path id="Trazado_144615" data-name="Trazado 144615" d="M62.7,135.744l-4.561-1.09v-1.809a9.025,9.025,0,0,0,4.218-7.633v-5.1a9.02,9.02,0,0,0-15.778-5.979,12.055,12.055,0,0,0-11.563-8.7h0a12.055,12.055,0,0,0-11.571,8.724,9.019,9.019,0,0,0-15.8,5.955v5.1a9.024,9.024,0,0,0,4.218,7.633v1.809l-4.561,1.09A9.488,9.488,0,0,0,0,145v9.192a1.367,1.367,0,0,0,1.367,1.367H12.3v4.1a1.367,1.367,0,0,0,1.367,1.367h15a1.367,1.367,0,1,0,0-2.735h-6.1v-6.018a1.367,1.367,0,0,0-2.735,0V158.3H15.036v-6.17a9.955,9.955,0,0,1,7.66-9.712l6.725-1.612,4.327,9.845a1.367,1.367,0,0,0,1.252.817h0a1.367,1.367,0,0,0,1.252-.817l4.323-9.831,6.706,1.6a9.954,9.954,0,0,1,7.666,9.713v1.526a1.37,1.37,0,0,0,0,1.07V158.3H50.181v-6.018a1.367,1.367,0,1,0-2.735,0V158.3h-6.7a1.367,1.367,0,1,0,0,2.735H56.315a1.367,1.367,0,0,0,1.367-1.367v-4.1H68.644a1.367,1.367,0,0,0,1.367-1.367V145A9.488,9.488,0,0,0,62.7,135.744Zm-7.293.063-2.088,5-2.06-4.933a1.366,1.366,0,0,0,.009-.15c0-.013,0-.026,0-.038V134a8.963,8.963,0,0,0,4.135,0v1.739C55.408,135.758,55.41,135.782,55.411,135.807Zm-26.565,1.1a9.495,9.495,0,0,0-2.795-1.165l-4.577-1.1V132.85a9.09,9.09,0,0,0,2.826-2.818,12.12,12.12,0,0,0,4.546,4.861Zm-3.125-12.337v-3.163h3.848a13.05,13.05,0,0,0,9.242-3.821l5.5,3.231v4.073a9.3,9.3,0,0,1-18.589-.321ZM41.15,134.919a12.119,12.119,0,0,0,4.577-4.862,9.1,9.1,0,0,0,2.811,2.794v1.793l-4.577,1.1a9.5,9.5,0,0,0-2.81,1.175v-2ZM53.336,131.5a6.3,6.3,0,0,1-6.29-6.29v-.223c0-.14.008-3.677.008-3.677a19.631,19.631,0,0,0,8.661,2.015h3.911v1.885A6.3,6.3,0,0,1,53.336,131.5Zm0-17.676a6.3,6.3,0,0,1,6.29,6.29v.476H55.715a16.9,16.9,0,0,1-8.416-2.246A6.3,6.3,0,0,1,53.336,113.826ZM25.721,117.47a9.3,9.3,0,0,1,18.6,0v.178l-5.075-2.982a1.367,1.367,0,0,0-1.741.3,10.327,10.327,0,0,1-7.934,3.7H25.721Zm-15.335,2.646a6.291,6.291,0,0,1,12.327-1.77,16.9,16.9,0,0,1-8.416,2.246H10.386v-.476Zm0,3.211H14.3a19.63,19.63,0,0,0,8.67-2.019v3.9a6.29,6.29,0,0,1-12.581,0S10.386,123.327,10.386,123.327Zm6.29,10.91A9.018,9.018,0,0,0,18.739,134v1.65c0,.026,0,.051,0,.077,0,.043,0,.086.008.129l-2.069,4.954L14.6,135.832c0-.033,0-.065,0-.1v-1.739A9.019,9.019,0,0,0,16.676,134.237ZM12.3,152.127v.7H8.2v-6.075a1.367,1.367,0,0,0-2.735,0v6.075H2.735V145a6.762,6.762,0,0,1,5.208-6.6l4.334-1.036,2.829,6.776A12.694,12.694,0,0,0,12.3,152.127Zm9.757-12.371a12.853,12.853,0,0,0-2.312.795l1.332-3.189,4.335,1.039a6.777,6.777,0,0,1,.981.316ZM35,146.7l-3.42-7.78V136.1a12.043,12.043,0,0,0,6.834.013v2.822Zm8.591-7.974A6.79,6.79,0,0,1,44.6,138.4l4.325-1.036,1.337,3.2a12.855,12.855,0,0,0-2.343-.807Zm23.685,14.1H64.542v-6.075a1.367,1.367,0,1,0-2.735,0v6.075H57.682v-.693a12.694,12.694,0,0,0-2.8-7.973l2.838-6.795,4.345,1.038a6.762,6.762,0,0,1,5.208,6.6Z" transform="translate(0 -91.019)"/>
        <path id="Trazado_144616" data-name="Trazado 144616" d="M213.827,231.25a1.368,1.368,0,1,0,.967.4A1.378,1.378,0,0,0,213.827,231.25Z" transform="translate(-183.408 -199.628)"/>
        <path id="Trazado_144617" data-name="Trazado 144617" d="M280.7,233.985a1.368,1.368,0,1,0-.967-.4A1.377,1.377,0,0,0,280.7,233.985Z" transform="translate(-241.134 -199.628)"/>
        <path id="Trazado_144618" data-name="Trazado 144618" d="M239.042,265.314a1.368,1.368,0,0,0-1.934,0,1.038,1.038,0,0,1-1.467,0,1.367,1.367,0,0,0-1.934,1.934,3.776,3.776,0,0,0,5.334,0A1.367,1.367,0,0,0,239.042,265.314Z" transform="translate(-201.404 -228.689)"/>
        <path id="Trazado_144619" data-name="Trazado 144619" d="M397.987,56.735h.938a1.367,1.367,0,0,0,0-2.735h-.938a1.367,1.367,0,1,0,0,2.735Z" transform="translate(-342.386 -46.616)"/>
        <path id="Trazado_144620" data-name="Trazado 144620" d="M446.508,56.735h.938a1.367,1.367,0,0,0,0-2.735h-.938a1.367,1.367,0,1,0,0,2.735Z" transform="translate(-384.272 -46.616)"/>
        <path id="Trazado_144621" data-name="Trazado 144621" d="M425.678,78.5a1.367,1.367,0,0,0,1.367-1.367V76.2a1.367,1.367,0,0,0-2.735,0v.938A1.367,1.367,0,0,0,425.678,78.5Z" transform="translate(-366.29 -64.598)"/>
        <path id="Trazado_144622" data-name="Trazado 144622" d="M425.678,29.983a1.367,1.367,0,0,0,1.367-1.367v-.938a1.367,1.367,0,0,0-2.735,0v.938A1.367,1.367,0,0,0,425.678,29.983Z" transform="translate(-366.29 -22.712)"/>
        <path id="Trazado_144623" data-name="Trazado 144623" d="M40.811,56.735h.938a1.367,1.367,0,0,0,0-2.735h-.938a1.367,1.367,0,1,0,0,2.735Z" transform="translate(-34.05 -46.616)"/>
        <path id="Trazado_144624" data-name="Trazado 144624" d="M89.332,56.735h.938a1.367,1.367,0,1,0,0-2.735h-.938a1.367,1.367,0,1,0,0,2.735Z" transform="translate(-75.937 -46.616)"/>
        <path id="Trazado_144625" data-name="Trazado 144625" d="M68.5,78.5a1.367,1.367,0,0,0,1.367-1.367V76.2a1.367,1.367,0,0,0-2.735,0v.938A1.367,1.367,0,0,0,68.5,78.5Z" transform="translate(-57.954 -64.598)"/>
        <path id="Trazado_144626" data-name="Trazado 144626" d="M68.5,29.983a1.367,1.367,0,0,0,1.367-1.367v-.938a1.367,1.367,0,0,0-2.735,0v.938A1.367,1.367,0,0,0,68.5,29.983Z" transform="translate(-57.954 -22.712)"/>
        <path id="Trazado_144627" data-name="Trazado 144627" d="M247.367,44.42a1.367,1.367,0,0,0,1.367-1.367v-3.6a1.367,1.367,0,1,0-2.735,0v3.6A1.367,1.367,0,0,0,247.367,44.42Z" transform="translate(-212.362 -32.879)"/>
        <path id="Trazado_144628" data-name="Trazado 144628" d="M247.367,2.735a1.368,1.368,0,0,0,1.367-1.367,1.367,1.367,0,1,0-2.334.967A1.378,1.378,0,0,0,247.367,2.735Z" transform="translate(-212.362)"/>
        <path id="Trazado_144629" data-name="Trazado 144629" d="M191.651,26.892a1.367,1.367,0,1,0,1.934-1.934l-2-2a1.368,1.368,0,0,0-1.934,1.934Z" transform="translate(-163.371 -19.472)"/>
        <path id="Trazado_144630" data-name="Trazado 144630" d="M288.993,26.809a1.363,1.363,0,0,0,.967-.4l2.068-2.068a1.368,1.368,0,1,0-1.934-1.934l-2.068,2.068a1.367,1.367,0,0,0,.967,2.334Z" transform="translate(-248.295 -18.997)"/>
      </g>
      <g id="group-2" data-name="group" transform="translate(825.26 1010.223)">
        <path id="Trazado_144602-2" data-name="Trazado 144602" d="M27.727,306.211a5.087,5.087,0,0,0-2.483-1.421l-3.52-.843V301.8h-4.3v2.156h0l-3.511.839A5.1,5.1,0,0,0,10,309.752V315.5h7.782Z" transform="translate(-9.144 -275.978)" fill="#1565c0"/>
        <path id="Trazado_144603-2" data-name="Trazado 144603" d="M100.459,301.8V304l-2.231,5.343L96,304.011V301.8Z" transform="translate(-87.787 -275.978)" fill="#ffb487"/>
        <path id="Trazado_144604-2" data-name="Trazado 144604" d="M75.533,215.261v2.976a4.791,4.791,0,0,1-4.791,4.791h0a4.791,4.791,0,0,1-4.791-4.791v-2.976Z" transform="translate(-60.309 -196.845)" fill="#ffcdac"/>
        <path id="Trazado_144605-2" data-name="Trazado 144605" d="M75.533,162.729v-1.153a4.791,4.791,0,0,0-4.791-4.791h0a4.791,4.791,0,0,0-4.791,4.791v1.153h3.3a11.423,11.423,0,0,0,5.872-1.624h0" transform="translate(-60.309 -143.372)" fill="#878791"/>
        <path id="Trazado_144606-2" data-name="Trazado 144606" d="M294.79,306.211a5.087,5.087,0,0,1,2.483-1.421l3.52-.843V301.8h4.3v2.156h0l3.511.839a5.1,5.1,0,0,1,3.915,4.96V315.5h-7.782Z" transform="translate(-269.57 -275.978)" fill="#26a69a"/>
        <path id="Trazado_144607-2" data-name="Trazado 144607" d="M110.313,352.4l-4.9,1.175a7.1,7.1,0,0,0-5.448,6.908V365.2h26.681V360.49a7.1,7.1,0,0,0-5.453-6.909l-4.89-1.168Z" transform="translate(-91.41 -322.254)" fill="#ffca28"/>
        <g id="Grupo_83977-2" data-name="Grupo 83977" transform="translate(18.708 25.819)">
          <path id="Trazado_144608-2" data-name="Trazado 144608" d="M368.339,301.8v2.214l-2.228,5.336L363.88,304V301.8Z" transform="translate(-351.457 -301.797)" fill="#ffb487"/>
          <path id="Trazado_144609-2" data-name="Trazado 144609" d="M221.868,333.391l3.192-7.247a2.635,2.635,0,0,1-.372-1.351v-.7h-5.644v.7a2.634,2.634,0,0,1-.371,1.349Z" transform="translate(-218.674 -322.188)" fill="#ffb487"/>
        </g>
        <path id="Trazado_144610-2" data-name="Trazado 144610" d="M191.347,191.525v4.6a6.673,6.673,0,0,1-6.673,6.673h0A6.673,6.673,0,0,1,178,196.129v-4.6Z" transform="translate(-162.773 -175.14)" fill="#ffcdac"/>
        <path id="Trazado_144611-2" data-name="Trazado 144611" d="M184.672,115.437h0A6.673,6.673,0,0,0,178,122.11v1.606h3.263a7.332,7.332,0,0,0,5.619-2.623h0l4.464,2.623V122.11A6.673,6.673,0,0,0,184.672,115.437Z" transform="translate(-162.771 -105.561)" fill="#f5b955"/>
        <path id="Trazado_144612-2" data-name="Trazado 144612" d="M334.045,215.261v2.976a4.791,4.791,0,0,0,4.791,4.791h0a4.791,4.791,0,0,0,4.791-4.791v-2.976Z" transform="translate(-305.467 -196.845)" fill="#ffcdac"/>
        <path id="Trazado_144613-2" data-name="Trazado 144613" d="M334.045,162.729v-1.153a4.791,4.791,0,0,1,4.791-4.791h0a4.791,4.791,0,0,1,4.791,4.791v1.153h-3.3a11.423,11.423,0,0,1-5.872-1.624h0" transform="translate(-305.467 -143.372)" fill="#878791"/>
        <path id="Trazado_144614-2" data-name="Trazado 144614" d="M246.6,492a.856.856,0,1,0,.6.251A.862.862,0,0,0,246.6,492Z" transform="translate(-224.716 -449.908)"/>
        <path id="Trazado_144615-2" data-name="Trazado 144615" d="M39.231,124.4l-2.854-.682v-1.132a5.646,5.646,0,0,0,2.639-4.775v-3.188a5.643,5.643,0,0,0-9.871-3.741,7.542,7.542,0,0,0-7.235-5.443h0a7.542,7.542,0,0,0-7.239,5.458,5.643,5.643,0,0,0-9.884,3.726v3.188a5.646,5.646,0,0,0,2.639,4.775v1.132l-2.854.682A5.936,5.936,0,0,0,0,130.191v5.751a.856.856,0,0,0,.856.856H7.7v2.567a.856.856,0,0,0,.856.856h9.385a.856.856,0,1,0,0-1.711H14.118v-3.765a.856.856,0,0,0-1.711,0v3.765h-3v-3.86a6.229,6.229,0,0,1,4.792-6.076l4.208-1.008,2.707,6.159a.855.855,0,0,0,.783.511h0a.855.855,0,0,0,.783-.511l2.7-6.15,4.2,1a6.228,6.228,0,0,1,4.8,6.077v.955a.857.857,0,0,0,0,.669v2.232H31.4v-3.765a.856.856,0,0,0-1.711,0v3.765h-4.19a.856.856,0,1,0,0,1.711h9.739a.856.856,0,0,0,.856-.856V136.8h6.858a.856.856,0,0,0,.856-.856v-5.751A5.936,5.936,0,0,0,39.231,124.4Zm-4.563.04-1.306,3.128-1.289-3.087a.855.855,0,0,0,.006-.094c0-.008,0-.016,0-.024v-1.057a5.608,5.608,0,0,0,2.587,0v1.088C34.666,124.407,34.667,124.423,34.668,124.438Zm-16.62.687A5.94,5.94,0,0,0,16.3,124.4l-2.864-.686v-1.122a5.687,5.687,0,0,0,1.768-1.763,7.583,7.583,0,0,0,2.844,3.041Zm-1.955-7.719v-1.979H18.5a8.165,8.165,0,0,0,5.782-2.39l3.441,2.021v2.549a5.817,5.817,0,0,1-11.63-.2Zm9.653,6.476a7.582,7.582,0,0,0,2.864-3.042,5.69,5.69,0,0,0,1.758,1.748v1.122L27.5,124.4a5.941,5.941,0,0,0-1.758.735v-1.249Zm7.624-2.138a3.94,3.94,0,0,1-3.936-3.935v-.14c0-.087.005-2.3.005-2.3a12.282,12.282,0,0,0,5.419,1.261h2.447v1.179A3.94,3.94,0,0,1,33.369,121.745Zm0-11.059a3.94,3.94,0,0,1,3.936,3.935v.3H34.858a10.571,10.571,0,0,1-5.266-1.405A3.943,3.943,0,0,1,33.369,110.685Zm-17.277,2.28a5.818,5.818,0,0,1,11.636,0v.112l-3.175-1.865a.855.855,0,0,0-1.089.188,6.461,6.461,0,0,1-4.964,2.317H16.092ZM6.5,114.621a3.936,3.936,0,0,1,7.713-1.107,10.571,10.571,0,0,1-5.266,1.405H6.5v-.3Zm0,2.009H8.945a12.282,12.282,0,0,0,5.424-1.263v2.442a3.936,3.936,0,0,1-7.871,0S6.5,116.63,6.5,116.63Zm3.936,6.826a5.642,5.642,0,0,0,1.291-.151v1.033c0,.016,0,.032,0,.048s0,.054.005.081l-1.294,3.1-1.3-3.112c0-.02,0-.041,0-.062V123.3A5.643,5.643,0,0,0,10.433,123.456ZM7.7,134.648v.438H5.133v-3.8a.856.856,0,1,0-1.711,0v3.8H1.711v-4.9a4.231,4.231,0,0,1,3.258-4.128l2.712-.648,1.77,4.24A7.942,7.942,0,0,0,7.7,134.648Zm6.1-7.74a8.042,8.042,0,0,0-1.446.5l.833-2,2.712.65a4.239,4.239,0,0,1,.614.2Zm8.1,4.345-2.14-4.868v-1.764a7.535,7.535,0,0,0,4.276.008V126.4Zm5.375-4.989a4.248,4.248,0,0,1,.629-.2l2.706-.648.837,2a8.043,8.043,0,0,0-1.466-.5Zm14.819,8.821H40.381v-3.8a.856.856,0,1,0-1.711,0v3.8H36.089v-.434a7.942,7.942,0,0,0-1.749-4.988l1.775-4.251,2.718.649a4.231,4.231,0,0,1,3.258,4.128Z" transform="translate(0 -96.417)"/>
        <path id="Trazado_144616-2" data-name="Trazado 144616" d="M213.316,231.25a.856.856,0,1,0,.6.251A.862.862,0,0,0,213.316,231.25Z" transform="translate(-194.284 -211.466)"/>
        <path id="Trazado_144617-2" data-name="Trazado 144617" d="M280.185,232.961a.856.856,0,1,0-.6-.251A.862.862,0,0,0,280.185,232.961Z" transform="translate(-255.433 -211.466)"/>
        <path id="Trazado_144618-2" data-name="Trazado 144618" d="M236.9,265.164a.856.856,0,0,0-1.21,0,.649.649,0,0,1-.918,0,.856.856,0,0,0-1.21,1.21,2.363,2.363,0,0,0,3.337,0A.856.856,0,0,0,236.9,265.164Z" transform="translate(-213.347 -242.249)"/>
        <path id="Trazado_144619-2" data-name="Trazado 144619" d="M397.476,55.711h.587a.856.856,0,0,0,0-1.711h-.587a.856.856,0,1,0,0,1.711Z" transform="translate(-362.688 -49.38)"/>
        <path id="Trazado_144620-2" data-name="Trazado 144620" d="M446,55.711h.587a.856.856,0,0,0,0-1.711H446a.856.856,0,1,0,0,1.711Z" transform="translate(-407.058 -49.38)"/>
        <path id="Trazado_144621-2" data-name="Trazado 144621" d="M425.167,77.129a.856.856,0,0,0,.856-.856v-.587a.856.856,0,0,0-1.711,0v.587A.856.856,0,0,0,425.167,77.129Z" transform="translate(-388.01 -68.429)"/>
        <path id="Trazado_144622-2" data-name="Trazado 144622" d="M425.167,28.608a.856.856,0,0,0,.856-.856v-.587a.856.856,0,0,0-1.711,0v.587A.856.856,0,0,0,425.167,28.608Z" transform="translate(-388.01 -24.059)"/>
        <path id="Trazado_144623-2" data-name="Trazado 144623" d="M40.3,55.711h.587a.856.856,0,0,0,0-1.711H40.3a.856.856,0,0,0,0,1.711Z" transform="translate(-36.069 -49.38)"/>
        <path id="Trazado_144624-2" data-name="Trazado 144624" d="M88.821,55.711h.587a.856.856,0,0,0,0-1.711h-.587a.856.856,0,0,0,0,1.711Z" transform="translate(-80.439 -49.38)"/>
        <path id="Trazado_144625-2" data-name="Trazado 144625" d="M67.99,77.129a.856.856,0,0,0,.856-.856v-.587a.856.856,0,0,0-1.711,0v.587A.856.856,0,0,0,67.99,77.129Z" transform="translate(-61.391 -68.429)"/>
        <path id="Trazado_144626-2" data-name="Trazado 144626" d="M67.99,28.608a.856.856,0,0,0,.856-.856v-.587a.856.856,0,1,0-1.711,0v.587A.856.856,0,0,0,67.99,28.608Z" transform="translate(-61.391 -24.059)"/>
        <path id="Trazado_144627-2" data-name="Trazado 144627" d="M246.856,42.049a.856.856,0,0,0,.856-.856V38.943a.856.856,0,1,0-1.711,0v2.251A.856.856,0,0,0,246.856,42.049Z" transform="translate(-224.954 -34.829)"/>
        <path id="Trazado_144628-2" data-name="Trazado 144628" d="M246.856,1.711a.856.856,0,0,0,.856-.856.856.856,0,1,0-1.46.6A.862.862,0,0,0,246.856,1.711Z" transform="translate(-224.954 0)"/>
        <path id="Trazado_144629-2" data-name="Trazado 144629" d="M190.752,25.269a.856.856,0,1,0,1.21-1.21l-1.252-1.252a.856.856,0,1,0-1.21,1.21Z" transform="translate(-173.059 -20.627)"/>
        <path id="Trazado_144630-2" data-name="Trazado 144630" d="M288.481,25.011a.853.853,0,0,0,.6-.251l1.294-1.294a.856.856,0,1,0-1.21-1.21l-1.294,1.294a.856.856,0,0,0,.605,1.461Z" transform="translate(-263.018 -20.124)"/>
      </g>
      <g id="candado" transform="translate(452.329 1138)">
        <path id="Trazado_144631" data-name="Trazado 144631" d="M152.2,38.441V27.383a19.78,19.78,0,1,0-39.56,0V38.441m7.133,0V27.383a12.647,12.647,0,1,1,25.294,0V38.441" transform="translate(-47.462 -6.554)" fill="#d3dae0"/>
        <g id="Grupo_83978" data-name="Grupo 83978" transform="translate(65.176 1.049)">
          <path id="Trazado_144632" data-name="Trazado 144632" d="M133.572,7.637c-.382-.022-.766-.034-1.154-.034a19.78,19.78,0,0,0-19.78,19.78V38.441h2.308V27.383A19.78,19.78,0,0,1,133.572,7.637Z" transform="translate(-112.638 -7.603)" fill="#899ea8"/>
          <path id="Trazado_144633" data-name="Trazado 144633" d="M265.52,59.3c-.389,0-.774.019-1.154.053a12.663,12.663,0,0,1,11.492,12.594V83h2.308V71.948A12.66,12.66,0,0,0,265.52,59.3Z" transform="translate(-243.432 -52.167)" fill="#899ea8"/>
        </g>
        <path id="Trazado_144637" data-name="Trazado 144637" d="M0,0H52.655V37.706H0Z" transform="translate(58.629 31.887)" fill="#ffca28"/>
        <rect id="Rect치ngulo_31537" data-name="Rect치ngulo 31537" width="4.615" height="37.706" transform="translate(58.629 31.887)" fill="#e48900"/>
        <path id="Trazado_144634" data-name="Trazado 144634" d="M226.277,306.715a5.664,5.664,0,1,0-8.354,4.985l-.911,6.972h7.2L223.3,311.7A5.663,5.663,0,0,0,226.277,306.715Z" transform="translate(-135.657 -259.514)" fill="#3e3d4c"/>
        <path id="Trazado_144635" data-name="Trazado 144635" d="M111.284,30.838h-5.5V26.852a1.049,1.049,0,0,0-1.049-1.049h0a1.049,1.049,0,0,0-1.049,1.049v3.986H98.652V21A13.7,13.7,0,1,0,71.26,20.83V30.838H66.225v-9.8a18.731,18.731,0,1,1,37.462-.206v1.127a1.049,1.049,0,0,0,1.049,1.049h0a1.049,1.049,0,0,0,1.049-1.049V21.03a20.829,20.829,0,1,0-41.657-.2V30.838h-5.5a1.049,1.049,0,0,0-1.049,1.049V59.3a1.049,1.049,0,0,0,1.049,1.049h0A1.049,1.049,0,0,0,59.678,59.3V32.936h50.557V68.544H59.678V64.195a1.049,1.049,0,0,0-1.049-1.049h0a1.049,1.049,0,0,0-1.049,1.049v5.4a1.049,1.049,0,0,0,1.049,1.049h52.655a1.049,1.049,0,0,0,1.049-1.049V31.887A1.049,1.049,0,0,0,111.284,30.838ZM73.358,20.83a11.6,11.6,0,1,1,23.2,0V30.838h-23.2Z"/>
        <path id="Trazado_144636" data-name="Trazado 144636" d="M220.772,300.16a6.713,6.713,0,1,0-10.531,5.522l-.824,6.3a1.049,1.049,0,0,0,1.04,1.185h7.2a1.049,1.049,0,0,0,1.04-1.185l-.824-6.3A6.708,6.708,0,0,0,220.772,300.16Zm-4.522,4.063a1.049,1.049,0,0,0-.541,1.059l.757,5.787h-4.813l.757-5.787a1.049,1.049,0,0,0-.541-1.059,4.615,4.615,0,1,1,4.382,0Z" transform="translate(-129.103 -252.959)"/>
      </g>
      <g id="candado-2" data-name="candado" transform="translate(674.533 1010.225)">
        <path id="Trazado_144631-2" data-name="Trazado 144631" d="M137.168,26.725V19.868a12.265,12.265,0,1,0-24.53,0v6.856m4.423,0V19.868a7.842,7.842,0,1,1,15.684,0v6.856" transform="translate(-50.348 -6.952)" fill="#d3dae0"/>
        <g id="Grupo_83978-2" data-name="Grupo 83978" transform="translate(62.29 0.651)">
          <path id="Trazado_144632-2" data-name="Trazado 144632" d="M125.619,7.624c-.237-.014-.475-.021-.715-.021a12.265,12.265,0,0,0-12.265,12.265v6.856h1.431V19.868A12.265,12.265,0,0,1,125.619,7.624Z" transform="translate(-112.638 -7.603)" fill="#899ea8"/>
          <path id="Trazado_144633-2" data-name="Trazado 144633" d="M265.081,59.3c-.241,0-.48.012-.715.033a7.852,7.852,0,0,1,7.126,7.809V74h1.431V67.142A7.85,7.85,0,0,0,265.081,59.3Z" transform="translate(-251.385 -54.877)" fill="#899ea8"/>
        </g>
        <path id="Trazado_144637-2" data-name="Trazado 144637" d="M0,0H32.649V23.381H0Z" transform="translate(58.23 19.772)" fill="#ffca28"/>
        <rect id="Rect치ngulo_31537-2" data-name="Rect치ngulo 31537" width="2.862" height="23.381" transform="translate(58.23 19.772)" fill="#e48900"/>
        <path id="Trazado_144634-2" data-name="Trazado 144634" d="M221.973,304.563a3.512,3.512,0,1,0-5.18,3.091l-.565,4.323h4.466l-.565-4.323A3.511,3.511,0,0,0,221.973,304.563Z" transform="translate(-143.906 -275.295)" fill="#3e3d4c"/>
        <path id="Trazado_144635-2" data-name="Trazado 144635" d="M90.88,19.122H87.47V16.65a.65.65,0,0,0-.65-.65h0a.65.65,0,0,0-.65.65v2.471H83.047v-6.1a8.493,8.493,0,1,0-16.985-.107v6.206H62.941V13.044a11.615,11.615,0,1,1,23.229-.128v.7a.65.65,0,0,0,.65.65h0a.65.65,0,0,0,.65-.65V13.04a12.915,12.915,0,1,0-25.83-.124v6.206H58.23a.65.65,0,0,0-.65.65v17a.65.65,0,0,0,.65.65h0a.65.65,0,0,0,.65-.65V20.423H90.23V42.5H58.881v-2.7a.65.65,0,0,0-.65-.65h0a.65.65,0,0,0-.65.65v3.347a.65.65,0,0,0,.65.65H90.88a.65.65,0,0,0,.65-.65V19.772A.651.651,0,0,0,90.88,19.122ZM67.364,12.916a7.191,7.191,0,1,1,14.383,0v6.206H67.364Z"/>
        <path id="Trazado_144636-2" data-name="Trazado 144636" d="M215.671,297.609a4.163,4.163,0,1,0-6.53,3.424l-.511,3.906a.65.65,0,0,0,.645.735h4.466a.65.65,0,0,0,.645-.735l-.511-3.906A4.16,4.16,0,0,0,215.671,297.609Zm-2.8,2.519a.651.651,0,0,0-.336.657l.469,3.588h-2.984l.469-3.588a.651.651,0,0,0-.336-.657,2.862,2.862,0,1,1,2.717,0Z" transform="translate(-136.953 -268.342)"/>
      </g>
      <g id="Grupo_83991" data-name="Grupo 83991" transform="translate(194.887 -614.559)">
        <g id="Grupo_83979" data-name="Grupo 83979" transform="translate(580.802 1647.486)">
          <path id="Trazado_144638" data-name="Trazado 144638" d="M36.551,405.043v-1.4a.924.924,0,0,1,.924-.924l30.455.073a.924.924,0,0,1,.924.924v1.256a.924.924,0,0,0,1.492.728l6.313-4.93a.924.924,0,0,0,0-1.456l-6.313-4.93a.924.924,0,0,0-1.492.728v1.4a.924.924,0,0,1-.924.924l-30.455-.073a.924.924,0,0,1-.924-.924v-1.256a.924.924,0,0,0-1.492-.728l-6.313,4.93a.924.924,0,0,0,0,1.456l6.313,4.93A.924.924,0,0,0,36.551,405.043Z" transform="translate(-28.391 -394.185)" fill="#26a69a"/>
        </g>
        <g id="Grupo_83990" data-name="Grupo 83990" transform="translate(580 1646.685)">
          <path id="Trazado_144647" data-name="Trazado 144647" d="M28.924,400.071a1.716,1.716,0,0,1-1.059-.367l-6.313-4.93a1.725,1.725,0,0,1,0-2.719l6.313-4.93a1.725,1.725,0,0,1,2.786,1.36v1.256a.123.123,0,0,0,.123.123l1.41.008a.8.8,0,0,1,0,1.6h0l-1.405-.008a1.726,1.726,0,0,1-1.72-1.725v-1.256a.123.123,0,0,0-.2-.1l-6.313,4.93a.122.122,0,0,0,0,.193l6.313,4.93a.123.123,0,0,0,.2-.1v-1.4a1.727,1.727,0,0,1,1.725-1.725l30.457.073a1.726,1.726,0,0,1,1.723,1.725v1.256a.123.123,0,0,0,.2.1l6.313-4.93a.123.123,0,0,0,0-.193l-6.313-4.929a.123.123,0,0,0-.2.1v1.4a1.727,1.727,0,0,1-1.725,1.725l-26.222-.065a.8.8,0,0,1,0-1.6h0l26.221.065a.122.122,0,0,0,.121-.123v-1.4a1.725,1.725,0,0,1,2.786-1.359l6.313,4.929a1.725,1.725,0,0,1,0,2.719l-6.313,4.93a1.725,1.725,0,0,1-2.786-1.36v-1.256a.123.123,0,0,0-.123-.123l-30.457-.073a.122.122,0,0,0-.121.123v1.4a1.73,1.73,0,0,1-1.728,1.727Z" transform="translate(-20.888 -386.685)"/>
        </g>
      </g>
      <path id="Trazado_146345" data-name="Trazado 146345" d="M46.129,23H42.613L35.77,11.773V23H32.254V5.938H35.77l6.855,11.25V5.938h3.5ZM56.57,21.711A4.247,4.247,0,0,1,53.1,23.234a4.005,4.005,0,0,1-3.111-1.172,5,5,0,0,1-1.1-3.434V10.32h3.387v8.2q0,1.983,1.8,1.983a2.445,2.445,0,0,0,2.367-1.2V10.32h3.4V23H56.664Zm17.262-4.934a7.678,7.678,0,0,1-1.3,4.752A4.309,4.309,0,0,1,68.9,23.234a3.959,3.959,0,0,1-3.293-1.582L65.453,23H62.406V5h3.387v6.457a3.857,3.857,0,0,1,3.082-1.371,4.344,4.344,0,0,1,3.639,1.705,7.689,7.689,0,0,1,1.318,4.8Zm-3.387-.258a5.072,5.072,0,0,0-.609-2.815,2.058,2.058,0,0,0-1.816-.888,2.233,2.233,0,0,0-2.227,1.328v5.019a2.263,2.263,0,0,0,2.25,1.34A2.092,2.092,0,0,0,70.2,18.882,8.392,8.392,0,0,0,70.445,16.519Zm11.309,6.715a6.225,6.225,0,0,1-4.541-1.711,6.082,6.082,0,0,1-1.752-4.559v-.328a7.66,7.66,0,0,1,.738-3.416,5.418,5.418,0,0,1,2.092-2.32,5.871,5.871,0,0,1,3.088-.814,5.262,5.262,0,0,1,4.1,1.641,6.667,6.667,0,0,1,1.494,4.652v1.383H78.895a3.146,3.146,0,0,0,.99,1.992,2.993,2.993,0,0,0,2.092.75,3.656,3.656,0,0,0,3.059-1.418L86.7,20.949a5.084,5.084,0,0,1-2.062,1.682A6.767,6.767,0,0,1,81.754,23.234Zm-.387-10.418a2.116,2.116,0,0,0-1.635.683,3.535,3.535,0,0,0-.8,1.954h4.711v-.271a2.521,2.521,0,0,0-.609-1.748A2.183,2.183,0,0,0,81.367,12.816ZM95.758,19.5a1.091,1.091,0,0,0-.615-.979,6.989,6.989,0,0,0-1.975-.639q-4.523-.949-4.523-3.844a3.484,3.484,0,0,1,1.4-2.818,5.649,5.649,0,0,1,3.662-1.131,6.08,6.08,0,0,1,3.861,1.137,3.582,3.582,0,0,1,1.447,2.953H95.629a1.639,1.639,0,0,0-.469-1.2A1.984,1.984,0,0,0,93.7,12.5a2.027,2.027,0,0,0-1.324.387,1.221,1.221,0,0,0-.469.984,1.044,1.044,0,0,0,.533.908,5.485,5.485,0,0,0,1.8.6,14.693,14.693,0,0,1,2.133.568q2.684.984,2.684,3.41a3.307,3.307,0,0,1-1.488,2.807,6.42,6.42,0,0,1-3.844,1.072,6.706,6.706,0,0,1-2.83-.568,4.748,4.748,0,0,1-1.939-1.559,3.621,3.621,0,0,1-.7-2.139h3.211a1.768,1.768,0,0,0,.668,1.383,2.649,2.649,0,0,0,1.664.48,2.452,2.452,0,0,0,1.471-.369A1.149,1.149,0,0,0,95.758,19.5ZM110.512,11.7a4.227,4.227,0,0,1,3.387-1.617q4.125,0,4.184,4.793V23H114.7V14.954a2.365,2.365,0,0,0-.469-1.615,2.007,2.007,0,0,0-1.559-.523,2.3,2.3,0,0,0-2.156,1.151V23h-3.387V5h3.387ZM124.293,23h-3.387V10.32h3.387Zm-1-17.824h3.691l-3.246,3.633h-2.754Zm15.34,11.6a7.678,7.678,0,0,1-1.3,4.752,4.309,4.309,0,0,1-3.633,1.705,3.959,3.959,0,0,1-3.293-1.582L130.258,23h-3.047V5H130.6v6.457a3.857,3.857,0,0,1,3.082-1.371,4.344,4.344,0,0,1,3.639,1.705,7.689,7.689,0,0,1,1.318,4.8Zm-3.387-.258a5.072,5.072,0,0,0-.609-2.815,2.058,2.058,0,0,0-1.816-.888,2.233,2.233,0,0,0-2.227,1.328v5.019a2.263,2.263,0,0,0,2.25,1.34A2.092,2.092,0,0,0,135,18.882,8.392,8.392,0,0,0,135.25,16.519Zm12.6-3.023a9.2,9.2,0,0,0-1.219-.094,2.481,2.481,0,0,0-2.52,1.3V23h-3.387V10.32h3.2l.094,1.512a3.138,3.138,0,0,1,2.824-1.746,3.549,3.549,0,0,1,1.055.152Zm5.2,9.5h-3.4V10.32h3.4Zm-3.6-15.961a1.668,1.668,0,0,1,.51-1.254,2.2,2.2,0,0,1,2.771,0,1.658,1.658,0,0,1,.516,1.254,1.663,1.663,0,0,1-.521,1.266,2.172,2.172,0,0,1-2.754,0A1.663,1.663,0,0,1,149.453,7.039Zm5.859,9.527a7.641,7.641,0,0,1,1.33-4.723,4.316,4.316,0,0,1,3.639-1.758,3.884,3.884,0,0,1,3.059,1.383V5h3.4V23H163.68l-.164-1.348a3.985,3.985,0,0,1-3.258,1.582,4.3,4.3,0,0,1-3.592-1.764A7.887,7.887,0,0,1,155.313,16.566Zm3.387.241a5.033,5.033,0,0,0,.621,2.743,2.022,2.022,0,0,0,1.8.954,2.265,2.265,0,0,0,2.215-1.33V14.147a2.233,2.233,0,0,0-2.191-1.33Q158.7,12.816,158.7,16.807ZM176.711,23a3.761,3.761,0,0,1-.34-1.137,4.1,4.1,0,0,1-3.2,1.371,4.5,4.5,0,0,1-3.088-1.078,3.467,3.467,0,0,1-1.225-2.719,3.583,3.583,0,0,1,1.494-3.094,7.373,7.373,0,0,1,4.318-1.09h1.559v-.727a2.089,2.089,0,0,0-.451-1.406,1.775,1.775,0,0,0-1.424-.527,2.018,2.018,0,0,0-1.342.41,1.393,1.393,0,0,0-.486,1.125h-3.387a3.4,3.4,0,0,1,.68-2.039,4.493,4.493,0,0,1,1.922-1.471,7,7,0,0,1,2.789-.533,5.534,5.534,0,0,1,3.721,1.178,4.12,4.12,0,0,1,1.377,3.311v5.5a6.062,6.062,0,0,0,.5,2.73V23Zm-2.8-2.355a2.917,2.917,0,0,0,1.383-.334,2.194,2.194,0,0,0,.938-.9v-2.18h-1.266q-2.543,0-2.707,1.758l-.012.2a1.356,1.356,0,0,0,.445,1.043A1.73,1.73,0,0,0,173.91,20.645ZM189.1,19.5a1.091,1.091,0,0,0-.615-.979,6.989,6.989,0,0,0-1.975-.639q-4.523-.949-4.523-3.844a3.484,3.484,0,0,1,1.4-2.818,5.649,5.649,0,0,1,3.662-1.131,6.08,6.08,0,0,1,3.861,1.137,3.582,3.582,0,0,1,1.447,2.953h-3.387a1.639,1.639,0,0,0-.469-1.2,1.984,1.984,0,0,0-1.465-.475,2.027,2.027,0,0,0-1.324.387,1.221,1.221,0,0,0-.469.984,1.044,1.044,0,0,0,.533.908,5.485,5.485,0,0,0,1.8.6,14.693,14.693,0,0,1,2.133.568q2.684.984,2.684,3.41a3.307,3.307,0,0,1-1.488,2.807,6.42,6.42,0,0,1-3.844,1.072,6.706,6.706,0,0,1-2.83-.568,4.748,4.748,0,0,1-1.939-1.559,3.621,3.621,0,0,1-.7-2.139H184.8a1.768,1.768,0,0,0,.668,1.383,2.649,2.649,0,0,0,1.664.48,2.452,2.452,0,0,0,1.471-.369A1.149,1.149,0,0,0,189.1,19.5Z" transform="translate(691 1062)" fill="#12263f"/>
      <path id="Trazado_146346" data-name="Trazado 146346" d="M44.359,23H40.844L34,11.773V23H30.484V5.938H34l6.855,11.25V5.938h3.5ZM54.8,21.711a4.247,4.247,0,0,1-3.469,1.523,4.005,4.005,0,0,1-3.111-1.172,5,5,0,0,1-1.1-3.434V10.32h3.387v8.2q0,1.983,1.8,1.983a2.445,2.445,0,0,0,2.367-1.2V10.32h3.4V23H54.895Zm17.262-4.934a7.678,7.678,0,0,1-1.3,4.752,4.309,4.309,0,0,1-3.633,1.705,3.959,3.959,0,0,1-3.293-1.582L63.684,23H60.637V5h3.387v6.457a3.857,3.857,0,0,1,3.082-1.371,4.344,4.344,0,0,1,3.639,1.705,7.689,7.689,0,0,1,1.318,4.8Zm-3.387-.258a5.072,5.072,0,0,0-.609-2.815,2.058,2.058,0,0,0-1.816-.888,2.233,2.233,0,0,0-2.227,1.328v5.019a2.263,2.263,0,0,0,2.25,1.34,2.092,2.092,0,0,0,2.156-1.622A8.392,8.392,0,0,0,68.676,16.519Zm11.309,6.715a6.225,6.225,0,0,1-4.541-1.711,6.082,6.082,0,0,1-1.752-4.559v-.328a7.66,7.66,0,0,1,.738-3.416,5.418,5.418,0,0,1,2.092-2.32,5.871,5.871,0,0,1,3.088-.814,5.262,5.262,0,0,1,4.1,1.641A6.667,6.667,0,0,1,85.2,16.379v1.383H77.125a3.146,3.146,0,0,0,.99,1.992,2.993,2.993,0,0,0,2.092.75,3.656,3.656,0,0,0,3.059-1.418l1.664,1.863a5.084,5.084,0,0,1-2.062,1.682A6.767,6.767,0,0,1,79.984,23.234ZM79.6,12.816a2.116,2.116,0,0,0-1.635.683,3.535,3.535,0,0,0-.8,1.954h4.711v-.271a2.521,2.521,0,0,0-.609-1.748A2.183,2.183,0,0,0,79.6,12.816ZM93.988,19.5a1.091,1.091,0,0,0-.615-.979,6.989,6.989,0,0,0-1.975-.639q-4.523-.949-4.523-3.844a3.484,3.484,0,0,1,1.4-2.818,5.649,5.649,0,0,1,3.662-1.131A6.08,6.08,0,0,1,95.8,11.223a3.582,3.582,0,0,1,1.447,2.953H93.859a1.639,1.639,0,0,0-.469-1.2,1.984,1.984,0,0,0-1.465-.475,2.027,2.027,0,0,0-1.324.387,1.221,1.221,0,0,0-.469.984,1.044,1.044,0,0,0,.533.908,5.485,5.485,0,0,0,1.8.6,14.693,14.693,0,0,1,2.133.568q2.684.984,2.684,3.41a3.307,3.307,0,0,1-1.488,2.807,6.42,6.42,0,0,1-3.844,1.072,6.706,6.706,0,0,1-2.83-.568,4.748,4.748,0,0,1-1.939-1.559,3.621,3.621,0,0,1-.7-2.139h3.211a1.768,1.768,0,0,0,.668,1.383,2.649,2.649,0,0,0,1.664.48,2.452,2.452,0,0,0,1.471-.369A1.149,1.149,0,0,0,93.988,19.5Zm22.863-2.719a7.6,7.6,0,0,1-1.33,4.693,4.264,4.264,0,0,1-3.592,1.764,3.95,3.95,0,0,1-3.105-1.336v5.977h-3.387V10.32h3.141l.117,1.242a3.98,3.98,0,0,1,3.211-1.477,4.294,4.294,0,0,1,3.645,1.734,7.811,7.811,0,0,1,1.3,4.781Zm-3.387-.258a5.018,5.018,0,0,0-.627-2.739,2.04,2.04,0,0,0-1.822-.964,2.217,2.217,0,0,0-2.191,1.222v5.207a2.254,2.254,0,0,0,2.215,1.258Q113.465,20.5,113.465,16.519Zm13.078,5.192a4.247,4.247,0,0,1-3.469,1.523,4.005,4.005,0,0,1-3.111-1.172,5,5,0,0,1-1.1-3.434V10.32h3.387v8.2q0,1.983,1.8,1.983a2.445,2.445,0,0,0,2.367-1.2V10.32h3.4V23h-3.187ZM125.031,5h3.691l-3.246,3.633h-2.754ZM143.8,16.777a7.678,7.678,0,0,1-1.3,4.752,4.309,4.309,0,0,1-3.633,1.705,3.959,3.959,0,0,1-3.293-1.582L135.426,23h-3.047V5h3.387v6.457a3.857,3.857,0,0,1,3.082-1.371,4.344,4.344,0,0,1,3.639,1.705,7.689,7.689,0,0,1,1.318,4.8Zm-3.387-.258a5.072,5.072,0,0,0-.609-2.815,2.058,2.058,0,0,0-1.816-.888,2.233,2.233,0,0,0-2.227,1.328v5.019a2.263,2.263,0,0,0,2.25,1.34,2.092,2.092,0,0,0,2.156-1.622A8.392,8.392,0,0,0,140.418,16.519ZM149.465,23h-3.4V5h3.4Zm6.363,0h-3.4V10.32h3.4Zm-3.6-15.961a1.668,1.668,0,0,1,.51-1.254,2.2,2.2,0,0,1,2.771,0,1.658,1.658,0,0,1,.516,1.254,1.663,1.663,0,0,1-.521,1.266,2.172,2.172,0,0,1-2.754,0A1.663,1.663,0,0,1,152.23,7.039ZM163.891,20.5a2.221,2.221,0,0,0,1.523-.516,1.807,1.807,0,0,0,.609-1.371H169.2a4.344,4.344,0,0,1-.7,2.361,4.64,4.64,0,0,1-1.893,1.664,5.923,5.923,0,0,1-2.654.592,5.5,5.5,0,0,1-4.289-1.729,6.84,6.84,0,0,1-1.57-4.775v-.223a6.762,6.762,0,0,1,1.559-4.676,5.441,5.441,0,0,1,4.277-1.746,5.333,5.333,0,0,1,3.814,1.354,4.792,4.792,0,0,1,1.459,3.6h-3.176a2.327,2.327,0,0,0-.609-1.608,2.265,2.265,0,0,0-3.334.244,5,5,0,0,0-.6,2.8v.352a5.063,5.063,0,0,0,.6,2.817A2.065,2.065,0,0,0,163.891,20.5ZM178.48,23a3.761,3.761,0,0,1-.34-1.137,4.1,4.1,0,0,1-3.2,1.371,4.5,4.5,0,0,1-3.088-1.078,3.467,3.467,0,0,1-1.225-2.719,3.583,3.583,0,0,1,1.494-3.094,7.373,7.373,0,0,1,4.318-1.09H178v-.727a2.089,2.089,0,0,0-.451-1.406,1.775,1.775,0,0,0-1.424-.527,2.018,2.018,0,0,0-1.342.41,1.393,1.393,0,0,0-.486,1.125H170.91a3.4,3.4,0,0,1,.68-2.039,4.493,4.493,0,0,1,1.922-1.471,7,7,0,0,1,2.789-.533,5.534,5.534,0,0,1,3.721,1.178,4.12,4.12,0,0,1,1.377,3.311v5.5a6.062,6.062,0,0,0,.5,2.73V23Zm-2.8-2.355a2.917,2.917,0,0,0,1.383-.334,2.194,2.194,0,0,0,.938-.9v-2.18h-1.266q-2.543,0-2.707,1.758l-.012.2a1.356,1.356,0,0,0,.445,1.043A1.73,1.73,0,0,0,175.68,20.645ZM190.867,19.5a1.091,1.091,0,0,0-.615-.979,6.989,6.989,0,0,0-1.975-.639q-4.523-.949-4.523-3.844a3.484,3.484,0,0,1,1.4-2.818,5.649,5.649,0,0,1,3.662-1.131,6.08,6.08,0,0,1,3.861,1.137,3.582,3.582,0,0,1,1.447,2.953h-3.387a1.639,1.639,0,0,0-.469-1.2A1.984,1.984,0,0,0,188.8,12.5a2.027,2.027,0,0,0-1.324.387,1.221,1.221,0,0,0-.469.984,1.044,1.044,0,0,0,.533.908,5.485,5.485,0,0,0,1.8.6,14.693,14.693,0,0,1,2.133.568q2.684.984,2.684,3.41a3.307,3.307,0,0,1-1.488,2.807,6.42,6.42,0,0,1-3.844,1.072,6.706,6.706,0,0,1-2.83-.568,4.748,4.748,0,0,1-1.939-1.559,3.621,3.621,0,0,1-.7-2.139h3.211a1.768,1.768,0,0,0,.668,1.383,2.649,2.649,0,0,0,1.664.48,2.452,2.452,0,0,0,1.471-.369A1.149,1.149,0,0,0,190.867,19.5Z" transform="translate(948 1220)" fill="#12263f"/>
      <path id="Trazado_146347" data-name="Trazado 146347" d="M43.721,23H40.205L33.361,11.773V23H29.846V5.938h3.516l6.855,11.25V5.938h3.5Zm10.441-1.289a4.247,4.247,0,0,1-3.469,1.523,4.005,4.005,0,0,1-3.111-1.172,5,5,0,0,1-1.1-3.434V10.32h3.387v8.2q0,1.983,1.8,1.983a2.445,2.445,0,0,0,2.367-1.2V10.32h3.4V23H54.256Zm17.262-4.934a7.678,7.678,0,0,1-1.3,4.752,4.309,4.309,0,0,1-3.633,1.705A3.959,3.959,0,0,1,63.2,21.652L63.045,23H60V5h3.387v6.457a3.857,3.857,0,0,1,3.082-1.371,4.344,4.344,0,0,1,3.639,1.705,7.689,7.689,0,0,1,1.318,4.8Zm-3.387-.258a5.072,5.072,0,0,0-.609-2.815,2.058,2.058,0,0,0-1.816-.888,2.233,2.233,0,0,0-2.227,1.328v5.019a2.263,2.263,0,0,0,2.25,1.34,2.092,2.092,0,0,0,2.156-1.622A8.392,8.392,0,0,0,68.037,16.519Zm11.309,6.715A6.225,6.225,0,0,1,74.8,21.523a6.082,6.082,0,0,1-1.752-4.559v-.328a7.66,7.66,0,0,1,.738-3.416,5.418,5.418,0,0,1,2.092-2.32,5.871,5.871,0,0,1,3.088-.814,5.262,5.262,0,0,1,4.1,1.641,6.667,6.667,0,0,1,1.494,4.652v1.383H76.486a3.146,3.146,0,0,0,.99,1.992,2.993,2.993,0,0,0,2.092.75,3.656,3.656,0,0,0,3.059-1.418l1.664,1.863a5.084,5.084,0,0,1-2.062,1.682A6.767,6.767,0,0,1,79.346,23.234Zm-.387-10.418a2.116,2.116,0,0,0-1.635.683,3.535,3.535,0,0,0-.8,1.954h4.711v-.271a2.521,2.521,0,0,0-.609-1.748A2.183,2.183,0,0,0,78.959,12.816ZM93.35,19.5a1.091,1.091,0,0,0-.615-.979,6.989,6.989,0,0,0-1.975-.639q-4.523-.949-4.523-3.844a3.484,3.484,0,0,1,1.4-2.818A5.649,5.649,0,0,1,91.3,10.086a6.08,6.08,0,0,1,3.861,1.137,3.582,3.582,0,0,1,1.447,2.953H93.221a1.639,1.639,0,0,0-.469-1.2,1.984,1.984,0,0,0-1.465-.475,2.027,2.027,0,0,0-1.324.387,1.221,1.221,0,0,0-.469.984,1.044,1.044,0,0,0,.533.908,5.485,5.485,0,0,0,1.8.6,14.693,14.693,0,0,1,2.133.568q2.684.984,2.684,3.41a3.307,3.307,0,0,1-1.488,2.807,6.42,6.42,0,0,1-3.844,1.072,6.706,6.706,0,0,1-2.83-.568,4.748,4.748,0,0,1-1.939-1.559,3.621,3.621,0,0,1-.7-2.139h3.211a1.768,1.768,0,0,0,.668,1.383,2.649,2.649,0,0,0,1.664.48,2.452,2.452,0,0,0,1.471-.369A1.149,1.149,0,0,0,93.35,19.5Zm22.863-2.719a7.6,7.6,0,0,1-1.33,4.693,4.264,4.264,0,0,1-3.592,1.764,3.95,3.95,0,0,1-3.105-1.336v5.977H104.8V10.32h3.141l.117,1.242a3.98,3.98,0,0,1,3.211-1.477,4.294,4.294,0,0,1,3.645,1.734,7.811,7.811,0,0,1,1.3,4.781Zm-3.387-.258a5.018,5.018,0,0,0-.627-2.739,2.04,2.04,0,0,0-1.822-.964,2.217,2.217,0,0,0-2.191,1.222v5.207A2.254,2.254,0,0,0,110.4,20.5Q112.826,20.5,112.826,16.519ZM125.436,13.5a9.2,9.2,0,0,0-1.219-.094,2.481,2.481,0,0,0-2.52,1.3V23h-3.387V10.32h3.2l.094,1.512a3.138,3.138,0,0,1,2.824-1.746,3.549,3.549,0,0,1,1.055.152Zm5.2,9.5h-3.4V10.32h3.4Zm-3.6-15.961a1.668,1.668,0,0,1,.51-1.254,2.2,2.2,0,0,1,2.771,0,1.658,1.658,0,0,1,.516,1.254,1.663,1.663,0,0,1-.521,1.266,2.172,2.172,0,0,1-2.754,0A1.663,1.663,0,0,1,127.041,7.039Zm11.133,11.824,2.355-8.543h3.539L139.791,23h-3.234l-4.277-12.68h3.539ZM152.729,23a3.761,3.761,0,0,1-.34-1.137,4.1,4.1,0,0,1-3.2,1.371,4.5,4.5,0,0,1-3.088-1.078,3.467,3.467,0,0,1-1.225-2.719,3.583,3.583,0,0,1,1.494-3.094,7.373,7.373,0,0,1,4.318-1.09h1.559v-.727a2.089,2.089,0,0,0-.451-1.406,1.775,1.775,0,0,0-1.424-.527,2.018,2.018,0,0,0-1.342.41,1.393,1.393,0,0,0-.486,1.125h-3.387a3.4,3.4,0,0,1,.68-2.039,4.493,4.493,0,0,1,1.922-1.471,7,7,0,0,1,2.789-.533,5.534,5.534,0,0,1,3.721,1.178,4.12,4.12,0,0,1,1.377,3.311v5.5a6.062,6.062,0,0,0,.5,2.73V23Zm-2.8-2.355a2.917,2.917,0,0,0,1.383-.334,2.194,2.194,0,0,0,.938-.9v-2.18h-1.266q-2.543,0-2.707,1.758l-.012.2a1.356,1.356,0,0,0,.445,1.043A1.73,1.73,0,0,0,149.928,20.645Zm7.793-4.078a7.641,7.641,0,0,1,1.33-4.723,4.316,4.316,0,0,1,3.639-1.758,3.884,3.884,0,0,1,3.059,1.383V5h3.4V23h-3.059l-.164-1.348a3.985,3.985,0,0,1-3.258,1.582,4.3,4.3,0,0,1-3.592-1.764A7.887,7.887,0,0,1,157.721,16.566Zm3.387.241a5.033,5.033,0,0,0,.621,2.743,2.022,2.022,0,0,0,1.8.954,2.265,2.265,0,0,0,2.215-1.33V14.147a2.233,2.233,0,0,0-2.191-1.33Q161.107,12.816,161.107,16.807ZM179.119,23a3.761,3.761,0,0,1-.34-1.137,4.1,4.1,0,0,1-3.2,1.371,4.5,4.5,0,0,1-3.088-1.078,3.467,3.467,0,0,1-1.225-2.719,3.583,3.583,0,0,1,1.494-3.094,7.373,7.373,0,0,1,4.318-1.09h1.559v-.727a2.089,2.089,0,0,0-.451-1.406,1.775,1.775,0,0,0-1.424-.527,2.018,2.018,0,0,0-1.342.41,1.393,1.393,0,0,0-.486,1.125h-3.387a3.4,3.4,0,0,1,.68-2.039,4.493,4.493,0,0,1,1.922-1.471,7,7,0,0,1,2.789-.533,5.534,5.534,0,0,1,3.721,1.178,4.12,4.12,0,0,1,1.377,3.311v5.5a6.062,6.062,0,0,0,.5,2.73V23Zm-2.8-2.355a2.917,2.917,0,0,0,1.383-.334,2.194,2.194,0,0,0,.938-.9v-2.18h-1.266q-2.543,0-2.707,1.758l-.012.2a1.356,1.356,0,0,0,.445,1.043A1.73,1.73,0,0,0,176.318,20.645ZM191.506,19.5a1.091,1.091,0,0,0-.615-.979,6.989,6.989,0,0,0-1.975-.639q-4.523-.949-4.523-3.844a3.484,3.484,0,0,1,1.4-2.818,5.649,5.649,0,0,1,3.662-1.131,6.08,6.08,0,0,1,3.861,1.137,3.582,3.582,0,0,1,1.447,2.953h-3.387a1.639,1.639,0,0,0-.469-1.2,1.984,1.984,0,0,0-1.465-.475,2.027,2.027,0,0,0-1.324.387,1.221,1.221,0,0,0-.469.984,1.044,1.044,0,0,0,.533.908,5.485,5.485,0,0,0,1.8.6,14.693,14.693,0,0,1,2.133.568q2.684.984,2.684,3.41a3.307,3.307,0,0,1-1.488,2.807,6.42,6.42,0,0,1-3.844,1.072,6.706,6.706,0,0,1-2.83-.568,4.748,4.748,0,0,1-1.939-1.559,3.621,3.621,0,0,1-.7-2.139h3.211a1.768,1.768,0,0,0,.668,1.383,2.649,2.649,0,0,0,1.664.48,2.452,2.452,0,0,0,1.471-.369A1.149,1.149,0,0,0,191.506,19.5Z" transform="translate(426 1220)" fill="#12263f"/>
    </g>
  </g>
</svg>
