<svg xmlns="http://www.w3.org/2000/svg" width="181" height="182" viewBox="0 0 181 182">
  <g id="t1-ic4" transform="translate(-395 -2461)">
    <ellipse id="Ellipse_4064" data-name="Ellipse 4064" cx="90.5" cy="91" rx="90.5" ry="91" transform="translate(395 2461)" fill="#fff"/>
    <g id="Group_96768" data-name="Group 96768" transform="translate(781.424 1834.977)">
      <g id="Group_96718" data-name="Group 96718" transform="translate(-316.431 655.023)">
        <path id="Path_142457" data-name="Path 142457" d="M-268.758,681c.148.413.315.81.5,1.2l-3.7,3.7,7.269,7.269,3.7-3.7c.393.183.794.35,1.2.5v5.23h10.278v-5.23c.408-.148.809-.315,1.2-.5l3.7,3.7,7.269-7.269-3.7-3.7c.183-.393.35-.79.5-1.2h5.23V670.722h-5.23c-.148-.409-.315-.809-.5-1.2l3.7-3.7-7.269-7.27-3.7,3.7c-.393-.183-.794-.354-1.2-.5v-5.226h-10.278v5.226c-.408.148-.809.319-1.2.5l-3.7-3.7-7.269,7.27,3.7,3.7c-.183.393-.35.794-.5,1.2h-5.226V681Z" transform="translate(274.696 -655.813)" fill="#4dd0e1"/>
        <g id="Group_96715" data-name="Group 96715" transform="translate(0.712 2.741)">
          <path id="Path_142458" data-name="Path 142458" d="M-262.31,709.291c-.183-.393-.35-.79-.5-1.2h-3.705c.148.413.315.81.5,1.2l-3.7,3.7,7.269,7.269,1.853-1.852-5.417-5.417Z" transform="translate(271.74 -685.643)" fill="#039be5"/>
          <rect id="Rectangle_8606" data-name="Rectangle 8606" width="3.705" height="10.277" transform="translate(0 12.168)" fill="#039be5"/>
          <path id="Path_142459" data-name="Path 142459" d="M-262.31,671.764l-3.7-3.7,5.416-5.416-1.852-1.853-7.269,7.269,3.7,3.7q-.275.59-.5,1.2h3.705C-262.66,672.557-262.493,672.157-262.31,671.764Z" transform="translate(271.74 -660.798)" fill="#039be5"/>
        </g>
        <circle id="Ellipse_4371" data-name="Ellipse 4371" cx="6.545" cy="6.545" r="6.545" transform="translate(13.504 13.504)" fill="#9e9e9e"/>
        <g id="Group_96716" data-name="Group 96716" transform="translate(0)">
          <path id="Path_142460" data-name="Path 142460" d="M-250.3,695.12h-10.279a.712.712,0,0,1-.712-.712V689.67q-.165-.067-.333-.14l-3.351,3.351a.712.712,0,0,1-1.007,0l-7.268-7.268a.713.713,0,0,1-.208-.5.712.712,0,0,1,.208-.5l3.351-3.351c-.048-.112-.094-.223-.139-.333h-4.738a.712.712,0,0,1-.712-.712V669.932a.712.712,0,0,1,.712-.712h4.738c.045-.111.091-.221.139-.333l-3.351-3.352a.712.712,0,0,1,0-1.007l7.268-7.268a.712.712,0,0,1,1.007,0l3.351,3.351q.168-.073.333-.14v-4.738a.712.712,0,0,1,.712-.712H-250.3a.712.712,0,0,1,.712.712v4.738q.166.067.333.14l3.351-3.351a.712.712,0,0,1,1.007,0l7.268,7.268a.712.712,0,0,1,0,1.007l-3.351,3.352c.048.112.095.222.139.333h4.738a.712.712,0,0,1,.712.712v10.279a.712.712,0,0,1-.712.712h-4.738c-.044.111-.091.221-.139.333l3.351,3.351a.712.712,0,0,1,.208.5.713.713,0,0,1-.208.5l-7.268,7.268a.712.712,0,0,1-1.007,0l-3.351-3.351q-.167.072-.333.14v4.738A.712.712,0,0,1-250.3,695.12Zm-9.567-1.424h8.855v-4.515a.712.712,0,0,1,.468-.669c.374-.136.748-.292,1.143-.477a.714.714,0,0,1,.8.141l3.195,3.2,6.261-6.261-3.2-3.195a.712.712,0,0,1-.141-.8c.185-.4.341-.772.477-1.145a.712.712,0,0,1,.669-.468h4.515v-8.855h-4.515a.712.712,0,0,1-.669-.468c-.136-.373-.292-.747-.477-1.144a.712.712,0,0,1,.141-.8l3.2-3.2-6.261-6.261-3.195,3.2a.711.711,0,0,1-.8.142c-.4-.185-.77-.341-1.143-.477a.712.712,0,0,1-.468-.669v-4.515h-8.855v4.515a.713.713,0,0,1-.468.669c-.374.136-.748.292-1.144.477a.712.712,0,0,1-.8-.142l-3.2-3.2-6.261,6.261,3.2,3.2a.712.712,0,0,1,.142.8c-.186.4-.342.771-.477,1.144a.712.712,0,0,1-.669.468h-4.515V679.5h4.515a.712.712,0,0,1,.669.468c.136.373.292.747.477,1.145a.712.712,0,0,1-.142.8l-3.2,3.195,6.261,6.261,3.2-3.2a.712.712,0,0,1,.8-.141c.4.185.77.341,1.144.477a.712.712,0,0,1,.468.669Z" transform="translate(275.484 -655.023)" fill="#12263f"/>
        </g>
        <g id="Group_96717" data-name="Group 96717" transform="translate(12.792 12.792)">
          <path id="Path_142461" data-name="Path 142461" d="M-241.276,696.487a7.264,7.264,0,0,1-7.256-7.257,7.264,7.264,0,0,1,7.256-7.257,7.265,7.265,0,0,1,7.257,7.257A7.265,7.265,0,0,1-241.276,696.487Zm0-13.089a5.839,5.839,0,0,0-5.832,5.833,5.839,5.839,0,0,0,5.832,5.833,5.839,5.839,0,0,0,5.833-5.833A5.839,5.839,0,0,0-241.276,683.4Z" transform="translate(248.532 -681.974)" fill="#12263f"/>
        </g>
      </g>
      <rect id="Rectangle_8607" data-name="Rectangle 8607" width="56.165" height="22.251" rx="5" transform="translate(-324.465 676.36)" fill="#ffca28"/>
      <g id="Group_96719" data-name="Group 96719" transform="translate(-325.177 675.648)">
        <path id="Path_142462" data-name="Path 142462" d="M-239.407,722.153h-51.418a3.089,3.089,0,0,1-3.085-3.085v-17.5a3.089,3.089,0,0,1,3.085-3.085h51.418a3.089,3.089,0,0,1,3.085,3.085v17.5A3.089,3.089,0,0,1-239.407,722.153ZM-290.825,699.9a1.663,1.663,0,0,0-1.661,1.661v17.5a1.663,1.663,0,0,0,1.661,1.661h51.418a1.664,1.664,0,0,0,1.661-1.661v-17.5a1.663,1.663,0,0,0-1.661-1.661Z" transform="translate(293.91 -698.478)" fill="#12263f"/>
      </g>
      <g id="Group_96727" data-name="Group 96727" transform="translate(-351.722 678.546)">
        <g id="Group_96723" data-name="Group 96723" transform="translate(2.571 2.571)">
          <g id="Group_96720" data-name="Group 96720" transform="translate(9.696)">
            <path id="Path_142463" data-name="Path 142463" d="M-309,711.425h-14.279a.712.712,0,0,1-.712-.712.712.712,0,0,1,.712-.712H-309a.712.712,0,0,1,.712.712A.712.712,0,0,1-309,711.425Z" transform="translate(323.994 -710.001)" fill="#12263f"/>
          </g>
          <g id="Group_96721" data-name="Group 96721" transform="translate(0 5.656)">
            <path id="Path_142464" data-name="Path 142464" d="M-319.736,723.341h-23.975a.712.712,0,0,1-.712-.712.712.712,0,0,1,.712-.712h23.975a.712.712,0,0,1,.712.712A.712.712,0,0,1-319.736,723.341Z" transform="translate(344.423 -721.917)" fill="#12263f"/>
          </g>
          <g id="Group_96722" data-name="Group 96722" transform="translate(9.696 11.312)">
            <path id="Path_142465" data-name="Path 142465" d="M-309,735.258h-14.279a.712.712,0,0,1-.712-.712.712.712,0,0,1,.712-.712H-309a.712.712,0,0,1,.712.712A.712.712,0,0,1-309,735.258Z" transform="translate(323.994 -733.834)" fill="#12263f"/>
          </g>
        </g>
        <circle id="Ellipse_4372" data-name="Ellipse 4372" cx="2.571" cy="2.571" r="2.571" transform="translate(10.128 0.712)" fill="#4dd0e1"/>
        <circle id="Ellipse_4373" data-name="Ellipse 4373" cx="2.571" cy="2.571" r="2.571" transform="translate(10.128 12.024)" fill="#4dd0e1"/>
        <circle id="Ellipse_4374" data-name="Ellipse 4374" cx="2.571" cy="2.571" r="2.571" transform="translate(0.712 6.368)" fill="#4dd0e1"/>
        <g id="Group_96724" data-name="Group 96724" transform="translate(9.416 0)">
          <path id="Path_142466" data-name="Path 142466" d="M-326.717,711.15A3.286,3.286,0,0,1-330,707.867a3.287,3.287,0,0,1,3.283-3.283,3.287,3.287,0,0,1,3.283,3.283A3.286,3.286,0,0,1-326.717,711.15Zm0-5.142a1.861,1.861,0,0,0-1.859,1.859,1.861,1.861,0,0,0,1.859,1.859,1.861,1.861,0,0,0,1.859-1.859A1.861,1.861,0,0,0-326.717,706.008Z" transform="translate(330 -704.584)" fill="#12263f"/>
        </g>
        <g id="Group_96725" data-name="Group 96725" transform="translate(9.416 11.312)">
          <path id="Path_142467" data-name="Path 142467" d="M-326.717,734.983A3.286,3.286,0,0,1-330,731.7a3.287,3.287,0,0,1,3.283-3.283,3.287,3.287,0,0,1,3.283,3.283A3.286,3.286,0,0,1-326.717,734.983Zm0-5.142a1.861,1.861,0,0,0-1.859,1.859,1.861,1.861,0,0,0,1.859,1.859,1.861,1.861,0,0,0,1.859-1.859A1.861,1.861,0,0,0-326.717,729.841Z" transform="translate(330 -728.417)" fill="#12263f"/>
        </g>
        <g id="Group_96726" data-name="Group 96726" transform="translate(0 5.656)">
          <path id="Path_142468" data-name="Path 142468" d="M-346.556,723.067a3.286,3.286,0,0,1-3.283-3.283,3.286,3.286,0,0,1,3.283-3.282,3.287,3.287,0,0,1,3.283,3.282A3.286,3.286,0,0,1-346.556,723.067Zm0-5.142a1.861,1.861,0,0,0-1.859,1.859,1.861,1.861,0,0,0,1.859,1.859,1.861,1.861,0,0,0,1.859-1.859A1.861,1.861,0,0,0-346.556,717.925Z" transform="translate(349.839 -716.501)" fill="#12263f"/>
        </g>
      </g>
      <g id="Group_96735" data-name="Group 96735" transform="translate(-269.012 678.546)">
        <g id="Group_96731" data-name="Group 96731" transform="translate(0 2.571)">
          <g id="Group_96728" data-name="Group 96728">
            <path id="Path_142469" data-name="Path 142469" d="M-160.587,711.425h-14.278a.712.712,0,0,1-.712-.712.712.712,0,0,1,.712-.712h14.278a.712.712,0,0,1,.712.712A.712.712,0,0,1-160.587,711.425Z" transform="translate(175.577 -710.001)" fill="#12263f"/>
          </g>
          <g id="Group_96729" data-name="Group 96729" transform="translate(0 5.656)">
            <path id="Path_142470" data-name="Path 142470" d="M-150.891,723.341h-23.975a.712.712,0,0,1-.712-.712.712.712,0,0,1,.712-.712h23.975a.712.712,0,0,1,.712.712A.712.712,0,0,1-150.891,723.341Z" transform="translate(175.577 -721.917)" fill="#12263f"/>
          </g>
          <g id="Group_96730" data-name="Group 96730" transform="translate(0 11.312)">
            <path id="Path_142471" data-name="Path 142471" d="M-160.587,735.258h-14.278a.712.712,0,0,1-.712-.712.712.712,0,0,1,.712-.712h14.278a.712.712,0,0,1,.712.712A.712.712,0,0,1-160.587,735.258Z" transform="translate(175.577 -733.834)" fill="#12263f"/>
          </g>
        </g>
        <circle id="Ellipse_4375" data-name="Ellipse 4375" cx="2.571" cy="2.571" r="2.571" transform="translate(12.699 0.712)" fill="#4dd0e1"/>
        <circle id="Ellipse_4376" data-name="Ellipse 4376" cx="2.571" cy="2.571" r="2.571" transform="translate(12.699 12.024)" fill="#4dd0e1"/>
        <circle id="Ellipse_4377" data-name="Ellipse 4377" cx="2.571" cy="2.571" r="2.571" transform="translate(22.115 6.368)" fill="#4dd0e1"/>
        <g id="Group_96732" data-name="Group 96732" transform="translate(11.987 0)">
          <path id="Path_142472" data-name="Path 142472" d="M-147.039,711.15a3.286,3.286,0,0,1-3.283-3.283,3.287,3.287,0,0,1,3.283-3.283,3.287,3.287,0,0,1,3.283,3.283A3.286,3.286,0,0,1-147.039,711.15Zm0-5.142a1.861,1.861,0,0,0-1.859,1.859,1.861,1.861,0,0,0,1.859,1.859,1.861,1.861,0,0,0,1.859-1.859A1.861,1.861,0,0,0-147.039,706.008Z" transform="translate(150.322 -704.584)" fill="#12263f"/>
        </g>
        <g id="Group_96733" data-name="Group 96733" transform="translate(11.987 11.312)">
          <path id="Path_142473" data-name="Path 142473" d="M-147.039,734.983a3.286,3.286,0,0,1-3.283-3.283,3.287,3.287,0,0,1,3.283-3.283,3.287,3.287,0,0,1,3.283,3.283A3.286,3.286,0,0,1-147.039,734.983Zm0-5.142A1.861,1.861,0,0,0-148.9,731.7a1.861,1.861,0,0,0,1.859,1.859,1.861,1.861,0,0,0,1.859-1.859A1.861,1.861,0,0,0-147.039,729.841Z" transform="translate(150.322 -728.417)" fill="#12263f"/>
        </g>
        <g id="Group_96734" data-name="Group 96734" transform="translate(21.403 5.656)">
          <path id="Path_142474" data-name="Path 142474" d="M-127.2,723.067a3.286,3.286,0,0,1-3.283-3.283A3.287,3.287,0,0,1-127.2,716.5a3.286,3.286,0,0,1,3.283,3.282A3.286,3.286,0,0,1-127.2,723.067Zm0-5.142a1.861,1.861,0,0,0-1.859,1.859,1.861,1.861,0,0,0,1.859,1.859,1.861,1.861,0,0,0,1.859-1.859A1.861,1.861,0,0,0-127.2,717.925Z" transform="translate(130.482 -716.501)" fill="#12263f"/>
        </g>
      </g>
      <g id="Group_96741" data-name="Group 96741" transform="translate(-353.424 763.391)">
        <g id="Group_96738" data-name="Group 96738" transform="translate(0 5.208)">
          <g id="Group_96736" data-name="Group 96736">
            <path id="Path_142475" data-name="Path 142475" d="M-344.167,895.741h-8.545a.712.712,0,0,1-.712-.712.712.712,0,0,1,.712-.712h8.545a.712.712,0,0,1,.712.712A.712.712,0,0,1-344.167,895.741Z" transform="translate(353.424 -894.317)" fill="#12263f"/>
          </g>
          <g id="Group_96737" data-name="Group 96737" transform="translate(104.113)">
            <path id="Path_142476" data-name="Path 142476" d="M-124.81,895.741h-8.545a.712.712,0,0,1-.712-.712.712.712,0,0,1,.712-.712h8.545a.712.712,0,0,1,.712.712A.712.712,0,0,1-124.81,895.741Z" transform="translate(134.067 -894.317)" fill="#12263f"/>
          </g>
        </g>
        <g id="Group_96739" data-name="Group 96739" transform="translate(13.385 5.208)">
          <path id="Path_142477" data-name="Path 142477" d="M-238.622,895.741h-85.889a.712.712,0,0,1-.712-.712.712.712,0,0,1,.712-.712h85.889a.712.712,0,0,1,.712.712A.712.712,0,0,1-238.622,895.741Z" transform="translate(325.223 -894.317)" fill="#12263f"/>
        </g>
        <g id="Group_96740" data-name="Group 96740" transform="translate(0 0)">
          <path id="Path_142478" data-name="Path 142478" d="M-240.054,884.768H-352.712a.712.712,0,0,1-.712-.712.712.712,0,0,1,.712-.712h112.658a.712.712,0,0,1,.712.712A.712.712,0,0,1-240.054,884.768Z" transform="translate(353.424 -883.344)" fill="#12263f"/>
        </g>
      </g>
      <g id="Group_96766" data-name="Group 96766" transform="translate(-330.609 702.028)">
        <g id="Group_96742" data-name="Group 96742" transform="translate(0.712 21.166)">
          <rect id="Rectangle_8608" data-name="Rectangle 8608" width="67.028" height="20.454" rx="4.919" fill="#cecece"/>
        </g>
        <g id="Group_96743" data-name="Group 96743" transform="translate(0.712 41.621)">
          <rect id="Rectangle_8609" data-name="Rectangle 8609" width="67.028" height="20.454" rx="4.919" fill="#cecece"/>
        </g>
        <g id="Group_96744" data-name="Group 96744" transform="translate(0.712 0.712)">
          <rect id="Rectangle_8610" data-name="Rectangle 8610" width="67.028" height="20.454" rx="4.919" fill="#cecece"/>
        </g>
        <g id="Group_96745" data-name="Group 96745" transform="translate(0.712 0.712)">
          <path id="Path_142479" data-name="Path 142479" d="M-300.043,774.6v-17.64a1.407,1.407,0,0,1,1.407-1.407h-3.811a1.407,1.407,0,0,0-1.407,1.407V774.6a1.407,1.407,0,0,0,1.407,1.407h3.811A1.407,1.407,0,0,1-300.043,774.6Z" transform="translate(303.854 -755.558)" fill="#9e9e9e"/>
        </g>
        <g id="Group_96746" data-name="Group 96746" transform="translate(62.521 0.712)">
          <path id="Path_142480" data-name="Path 142480" d="M-172.221,774.6v-17.64a1.408,1.408,0,0,0-1.408-1.407h3.811a1.407,1.407,0,0,1,1.407,1.407V774.6a1.407,1.407,0,0,1-1.407,1.407h-3.811A1.407,1.407,0,0,0-172.221,774.6Z" transform="translate(173.629 -755.558)" fill="#e2e2e2"/>
        </g>
        <g id="Group_96747" data-name="Group 96747" transform="translate(62.521 21.167)">
          <path id="Path_142481" data-name="Path 142481" d="M-172.221,817.7V800.061a1.407,1.407,0,0,0-1.408-1.407h3.811a1.407,1.407,0,0,1,1.407,1.407V817.7a1.407,1.407,0,0,1-1.407,1.408h-3.811A1.408,1.408,0,0,0-172.221,817.7Z" transform="translate(173.629 -798.654)" fill="#e2e2e2"/>
        </g>
        <g id="Group_96748" data-name="Group 96748" transform="translate(62.521 41.621)">
          <path id="Path_142482" data-name="Path 142482" d="M-172.221,860.8v-17.64a1.407,1.407,0,0,0-1.408-1.407h3.811a1.407,1.407,0,0,1,1.407,1.407V860.8a1.407,1.407,0,0,1-1.407,1.407h-3.811A1.408,1.408,0,0,0-172.221,860.8Z" transform="translate(173.629 -841.749)" fill="#e2e2e2"/>
        </g>
        <g id="Group_96749" data-name="Group 96749" transform="translate(0.712 21.167)">
          <path id="Path_142483" data-name="Path 142483" d="M-300.043,817.7V800.061a1.407,1.407,0,0,1,1.407-1.407h-3.811a1.407,1.407,0,0,0-1.407,1.407V817.7a1.407,1.407,0,0,0,1.407,1.408h3.811A1.407,1.407,0,0,1-300.043,817.7Z" transform="translate(303.854 -798.654)" fill="#9e9e9e"/>
        </g>
        <g id="Group_96750" data-name="Group 96750" transform="translate(0.712 41.621)">
          <path id="Path_142484" data-name="Path 142484" d="M-300.043,860.8v-17.64a1.407,1.407,0,0,1,1.407-1.407h-3.811a1.407,1.407,0,0,0-1.407,1.407V860.8a1.407,1.407,0,0,0,1.407,1.407h3.811A1.407,1.407,0,0,1-300.043,860.8Z" transform="translate(303.854 -841.749)" fill="#9e9e9e"/>
        </g>
        <g id="Group_96752" data-name="Group 96752" transform="translate(0)">
          <g id="Group_96751" data-name="Group 96751">
            <path id="Path_142485" data-name="Path 142485" d="M-239.949,775.937h-62.358a3.05,3.05,0,0,1-3.047-3.047V757.1a3.05,3.05,0,0,1,3.047-3.047h62.358A3.05,3.05,0,0,1-236.9,757.1V772.89A3.05,3.05,0,0,1-239.949,775.937Zm-62.358-20.455a1.624,1.624,0,0,0-1.623,1.623V772.89a1.625,1.625,0,0,0,1.623,1.623h62.358a1.625,1.625,0,0,0,1.623-1.623V757.1a1.624,1.624,0,0,0-1.623-1.623Z" transform="translate(305.354 -754.058)" fill="#12263f"/>
          </g>
        </g>
        <g id="Group_96754" data-name="Group 96754" transform="translate(0 20.455)">
          <g id="Group_96753" data-name="Group 96753">
            <path id="Path_142486" data-name="Path 142486" d="M-239.949,819.032h-62.358a3.05,3.05,0,0,1-3.047-3.046V800.2a3.05,3.05,0,0,1,3.047-3.047h62.358A3.05,3.05,0,0,1-236.9,800.2v15.785A3.05,3.05,0,0,1-239.949,819.032Zm-62.358-20.454a1.624,1.624,0,0,0-1.623,1.623v15.785a1.624,1.624,0,0,0,1.623,1.622h62.358a1.624,1.624,0,0,0,1.623-1.622V800.2a1.624,1.624,0,0,0-1.623-1.623Z" transform="translate(305.354 -797.154)" fill="#12263f"/>
          </g>
        </g>
        <g id="Group_96756" data-name="Group 96756" transform="translate(0 40.908)">
          <g id="Group_96755" data-name="Group 96755">
            <path id="Path_142487" data-name="Path 142487" d="M-239.949,862.127h-62.358a3.05,3.05,0,0,1-3.047-3.047V843.295a3.05,3.05,0,0,1,3.047-3.047h62.358a3.05,3.05,0,0,1,3.047,3.047V859.08A3.05,3.05,0,0,1-239.949,862.127Zm-62.358-20.455a1.625,1.625,0,0,0-1.623,1.623V859.08a1.624,1.624,0,0,0,1.623,1.623h62.358a1.624,1.624,0,0,0,1.623-1.623V843.295a1.625,1.625,0,0,0-1.623-1.623Z" transform="translate(305.354 -840.248)" fill="#12263f"/>
          </g>
        </g>
        <rect id="Rectangle_8611" data-name="Rectangle 8611" width="38.857" height="4.405" rx="2.203" transform="translate(6.914 8.737)" fill="#ffca28"/>
        <rect id="Rectangle_8612" data-name="Rectangle 8612" width="38.857" height="4.405" rx="2.203" transform="translate(6.914 29.191)" fill="#ffca28"/>
        <rect id="Rectangle_8613" data-name="Rectangle 8613" width="38.857" height="4.405" rx="2.203" transform="translate(6.914 49.645)" fill="#ffca28"/>
        <g id="Group_96757" data-name="Group 96757" transform="translate(6.202 8.025)">
          <path id="Path_142488" data-name="Path 142488" d="M-253.865,776.794h-36.564a1.86,1.86,0,0,1-1.858-1.858v-2.113a1.86,1.86,0,0,1,1.858-1.858h36.564a1.86,1.86,0,0,1,1.858,1.858v2.113A1.86,1.86,0,0,1-253.865,776.794Zm-36.564-4.405a.44.44,0,0,0-.434.434v2.113a.44.44,0,0,0,.434.434h36.564a.44.44,0,0,0,.434-.434v-2.113a.44.44,0,0,0-.434-.434Z" transform="translate(292.287 -770.965)" fill="#12263f"/>
        </g>
        <g id="Group_96758" data-name="Group 96758" transform="translate(6.202 28.479)">
          <path id="Path_142489" data-name="Path 142489" d="M-253.865,819.889h-36.564a1.86,1.86,0,0,1-1.858-1.858v-2.113a1.86,1.86,0,0,1,1.858-1.858h36.564a1.86,1.86,0,0,1,1.858,1.858v2.113A1.86,1.86,0,0,1-253.865,819.889Zm-36.564-4.4a.44.44,0,0,0-.434.434v2.113a.44.44,0,0,0,.434.434h36.564a.44.44,0,0,0,.434-.434v-2.113a.435.435,0,0,0-.434-.434Z" transform="translate(292.287 -814.061)" fill="#12263f"/>
        </g>
        <g id="Group_96759" data-name="Group 96759" transform="translate(6.202 48.933)">
          <path id="Path_142490" data-name="Path 142490" d="M-253.865,862.985h-36.564a1.86,1.86,0,0,1-1.858-1.858v-2.113a1.86,1.86,0,0,1,1.858-1.858h36.564a1.86,1.86,0,0,1,1.858,1.858v2.113A1.86,1.86,0,0,1-253.865,862.985Zm-36.564-4.405a.44.44,0,0,0-.434.434v2.113a.44.44,0,0,0,.434.434h36.564a.44.44,0,0,0,.434-.434v-2.113a.44.44,0,0,0-.434-.434Z" transform="translate(292.287 -857.156)" fill="#12263f"/>
        </g>
        <g id="Group_96761" data-name="Group 96761" transform="translate(54.44 8.025)">
          <rect id="Rectangle_8614" data-name="Rectangle 8614" width="4.405" height="4.405" rx="2.203" transform="translate(0.712 0.712)" fill="#ffca28"/>
          <g id="Group_96760" data-name="Group 96760">
            <path id="Path_142491" data-name="Path 142491" d="M-186.684,776.794H-188.8a1.86,1.86,0,0,1-1.858-1.858v-2.113a1.86,1.86,0,0,1,1.858-1.858h2.113a1.86,1.86,0,0,1,1.858,1.858v2.113A1.86,1.86,0,0,1-186.684,776.794Zm-2.113-4.405a.44.44,0,0,0-.434.434v2.113a.44.44,0,0,0,.434.434h2.113a.44.44,0,0,0,.434-.434v-2.113a.44.44,0,0,0-.434-.434Z" transform="translate(190.655 -770.965)" fill="#12263f"/>
          </g>
        </g>
        <g id="Group_96763" data-name="Group 96763" transform="translate(54.44 28.479)">
          <rect id="Rectangle_8615" data-name="Rectangle 8615" width="4.405" height="4.405" rx="2.203" transform="translate(0.712 0.712)" fill="#ffca28"/>
          <g id="Group_96762" data-name="Group 96762">
            <path id="Path_142492" data-name="Path 142492" d="M-186.684,819.889H-188.8a1.86,1.86,0,0,1-1.858-1.858v-2.113a1.86,1.86,0,0,1,1.858-1.858h2.113a1.86,1.86,0,0,1,1.858,1.858v2.113A1.86,1.86,0,0,1-186.684,819.889Zm-2.113-4.4a.435.435,0,0,0-.434.434v2.113a.44.44,0,0,0,.434.434h2.113a.44.44,0,0,0,.434-.434v-2.113a.434.434,0,0,0-.434-.434Z" transform="translate(190.655 -814.061)" fill="#12263f"/>
          </g>
        </g>
        <g id="Group_96765" data-name="Group 96765" transform="translate(54.44 48.933)">
          <rect id="Rectangle_8616" data-name="Rectangle 8616" width="4.405" height="4.405" rx="2.203" transform="translate(0.712 0.712)" fill="#ffca28"/>
          <g id="Group_96764" data-name="Group 96764">
            <path id="Path_142493" data-name="Path 142493" d="M-186.684,862.985H-188.8a1.86,1.86,0,0,1-1.858-1.858v-2.113a1.86,1.86,0,0,1,1.858-1.858h2.113a1.86,1.86,0,0,1,1.858,1.858v2.113A1.86,1.86,0,0,1-186.684,862.985Zm-2.113-4.405a.44.44,0,0,0-.434.434v2.113a.44.44,0,0,0,.434.434h2.113a.44.44,0,0,0,.434-.434v-2.113a.44.44,0,0,0-.434-.434Z" transform="translate(190.655 -857.156)" fill="#12263f"/>
          </g>
        </g>
      </g>
      <g id="Group_96767" data-name="Group 96767" transform="translate(-314.636 681.276)">
        <path id="Path_142494" data-name="Path 142494" d="M-263.238,722.772h-2.354v-5h-3.747v5H-271.7V710.7h2.362v5.189h3.747V710.7h2.354Z" transform="translate(271.701 -710.529)" fill="#12263f"/>
        <path id="Path_142495" data-name="Path 142495" d="M-247.665,718.437v4.335h-2.363V710.7h4.195a3.806,3.806,0,0,1,2.852,1.068,3.833,3.833,0,0,1,1.044,2.8,3.82,3.82,0,0,1-1.048,2.8,3.816,3.816,0,0,1-2.847,1.064Zm0-1.882h1.832a1.327,1.327,0,0,0,1.152-.557,2.366,2.366,0,0,0,.4-1.412,2.459,2.459,0,0,0-.394-1.432,1.317,1.317,0,0,0-1.156-.569h-1.832Z" transform="translate(260.315 -710.529)" fill="#12263f"/>
        <path id="Path_142496" data-name="Path 142496" d="M-222.565,718.692l.025.05a4.147,4.147,0,0,1-.945,3,3.731,3.731,0,0,1-2.835,1.011,3.988,3.988,0,0,1-2.992-1.148,4.468,4.468,0,0,1-1.119-3.253v-3.606a4.581,4.581,0,0,1,1.082-3.254,3.777,3.777,0,0,1,2.9-1.157,3.835,3.835,0,0,1,2.905,1.028,4.355,4.355,0,0,1,1.016,3.042l-.025.049h-2.271a2.816,2.816,0,0,0-.323-1.714,1.489,1.489,0,0,0-1.3-.524,1.383,1.383,0,0,0-1.218.622,3.38,3.38,0,0,0-.423,1.884v3.625a3.24,3.24,0,0,0,.452,1.9,1.529,1.529,0,0,0,1.322.622,1.336,1.336,0,0,0,1.19-.493,2.949,2.949,0,0,0,.294-1.687Z" transform="translate(250.02 -710.336)" fill="#12263f"/>
        <path id="Path_142497" data-name="Path 142497" d="M-203.563,718.692l.025.05a4.149,4.149,0,0,1-.945,3,3.731,3.731,0,0,1-2.835,1.011,3.989,3.989,0,0,1-2.993-1.148,4.47,4.47,0,0,1-1.119-3.253v-3.606a4.579,4.579,0,0,1,1.082-3.254,3.776,3.776,0,0,1,2.9-1.157,3.835,3.835,0,0,1,2.905,1.028,4.355,4.355,0,0,1,1.016,3.042l-.025.049h-2.271a2.816,2.816,0,0,0-.323-1.714,1.489,1.489,0,0,0-1.3-.524,1.384,1.384,0,0,0-1.219.622,3.385,3.385,0,0,0-.422,1.884v3.625a3.24,3.24,0,0,0,.452,1.9,1.529,1.529,0,0,0,1.322.622,1.335,1.335,0,0,0,1.189-.493,2.941,2.941,0,0,0,.294-1.687Z" transform="translate(240.036 -710.336)" fill="#12263f"/>
      </g>
    </g>
  </g>
</svg>
