<svg xmlns="http://www.w3.org/2000/svg" width="223.659" height="100" viewBox="0 0 223.659 100">
  <g id="t1-ic1" transform="translate(1314.773 -593.96)">
    <g id="Group_96774" data-name="Group 96774" transform="translate(-1314.773 684.206)">
      <g id="Group_96771" data-name="Group 96771" transform="translate(0 7.66)">
        <g id="Group_96769" data-name="Group 96769">
          <path id="Path_142498" data-name="Path 142498" d="M-1301.158,736.313h-12.567a1.047,1.047,0,0,1-1.047-1.047,1.048,1.048,0,0,1,1.047-1.047h12.567a1.048,1.048,0,0,1,1.047,1.047A1.047,1.047,0,0,1-1301.158,736.313Z" transform="translate(1314.773 -734.219)" fill="#12263f"/>
        </g>
        <g id="Group_96770" data-name="Group 96770" transform="translate(208.998)">
          <path id="Path_142499" data-name="Path 142499" d="M-1001.751,736.313h-12.567a1.047,1.047,0,0,1-1.047-1.047,1.047,1.047,0,0,1,1.047-1.047h12.567a1.047,1.047,0,0,1,1.047,1.047A1.047,1.047,0,0,1-1001.751,736.313Z" transform="translate(1015.365 -734.219)" fill="#12263f"/>
        </g>
      </g>
      <g id="Group_96772" data-name="Group 96772" transform="translate(19.685 7.66)">
        <path id="Path_142500" data-name="Path 142500" d="M-1103.331,736.313h-182.194a1.047,1.047,0,0,1-1.047-1.047,1.048,1.048,0,0,1,1.047-1.047h182.194a1.047,1.047,0,0,1,1.047,1.047A1.047,1.047,0,0,1-1103.331,736.313Z" transform="translate(1286.572 -734.219)" fill="#12263f"/>
      </g>
      <g id="Group_96773" data-name="Group 96773">
        <path id="Path_142501" data-name="Path 142501" d="M-1092.161,725.34h-221.564a1.048,1.048,0,0,1-1.047-1.047,1.048,1.048,0,0,1,1.047-1.047h221.564a1.047,1.047,0,0,1,1.047,1.047A1.047,1.047,0,0,1-1092.161,725.34Z" transform="translate(1314.773 -723.246)" fill="#12263f"/>
      </g>
    </g>
    <g id="Group_96825" data-name="Group 96825" transform="translate(-1303.359 593.96)">
      <g id="Group_96799" data-name="Group 96799">
        <g id="Group_96775" data-name="Group 96775" transform="translate(1.047 31.129)">
          <rect id="Rectangle_8617" data-name="Rectangle 8617" width="89.497" height="30.082" rx="4.919" fill="#cecece"/>
        </g>
        <g id="Group_96776" data-name="Group 96776" transform="translate(1.047 61.211)">
          <rect id="Rectangle_8618" data-name="Rectangle 8618" width="89.497" height="30.082" rx="4.919" fill="#cecece"/>
        </g>
        <g id="Group_96777" data-name="Group 96777" transform="translate(1.047 1.047)">
          <rect id="Rectangle_8619" data-name="Rectangle 8619" width="89.497" height="30.082" rx="4.919" fill="#cecece"/>
        </g>
        <g id="Group_96778" data-name="Group 96778" transform="translate(1.047 1.047)">
          <path id="Path_142502" data-name="Path 142502" d="M-1291.316,623.472V597.53a2.07,2.07,0,0,1,2.07-2.07h-5.6a2.07,2.07,0,0,0-2.07,2.07v25.943a2.07,2.07,0,0,0,2.07,2.07h5.6A2.069,2.069,0,0,1-1291.316,623.472Z" transform="translate(1296.921 -595.46)" fill="#9e9e9e"/>
        </g>
        <g id="Group_96779" data-name="Group 96779" transform="translate(82.869 1.047)">
          <path id="Path_142503" data-name="Path 142503" d="M-1177.634,623.472V597.53a2.071,2.071,0,0,0-2.071-2.07h5.605a2.07,2.07,0,0,1,2.069,2.07v25.943a2.069,2.069,0,0,1-2.069,2.07h-5.605A2.07,2.07,0,0,0-1177.634,623.472Z" transform="translate(1179.704 -595.46)" fill="#e2e2e2"/>
        </g>
        <g id="Group_96780" data-name="Group 96780" transform="translate(82.869 31.129)">
          <path id="Path_142504" data-name="Path 142504" d="M-1177.634,666.567V640.625a2.071,2.071,0,0,0-2.071-2.07h5.605a2.07,2.07,0,0,1,2.069,2.07v25.942a2.07,2.07,0,0,1-2.069,2.07h-5.605A2.071,2.071,0,0,0-1177.634,666.567Z" transform="translate(1179.704 -638.555)" fill="#e2e2e2"/>
        </g>
        <g id="Group_96781" data-name="Group 96781" transform="translate(82.869 61.212)">
          <path id="Path_142505" data-name="Path 142505" d="M-1177.634,709.663V683.721a2.07,2.07,0,0,0-2.071-2.07h5.605a2.069,2.069,0,0,1,2.069,2.07v25.943a2.07,2.07,0,0,1-2.069,2.07h-5.605A2.071,2.071,0,0,0-1177.634,709.663Z" transform="translate(1179.704 -681.651)" fill="#e2e2e2"/>
        </g>
        <g id="Group_96782" data-name="Group 96782" transform="translate(1.047 31.129)">
          <path id="Path_142506" data-name="Path 142506" d="M-1291.316,666.567V640.625a2.07,2.07,0,0,1,2.07-2.07h-5.6a2.07,2.07,0,0,0-2.07,2.07v25.942a2.07,2.07,0,0,0,2.07,2.07h5.6A2.07,2.07,0,0,1-1291.316,666.567Z" transform="translate(1296.921 -638.555)" fill="#9e9e9e"/>
        </g>
        <g id="Group_96783" data-name="Group 96783" transform="translate(1.047 61.212)">
          <path id="Path_142507" data-name="Path 142507" d="M-1291.316,709.663V683.721a2.069,2.069,0,0,1,2.07-2.07h-5.6a2.07,2.07,0,0,0-2.07,2.07v25.943a2.07,2.07,0,0,0,2.07,2.07h5.6A2.07,2.07,0,0,1-1291.316,709.663Z" transform="translate(1296.921 -681.651)" fill="#9e9e9e"/>
        </g>
        <g id="Group_96785" data-name="Group 96785">
          <g id="Group_96784" data-name="Group 96784">
            <path id="Path_142508" data-name="Path 142508" d="M-1211.31,626.137h-82.63a4.486,4.486,0,0,1-4.481-4.481V598.441a4.486,4.486,0,0,1,4.481-4.481h82.63a4.486,4.486,0,0,1,4.481,4.481v23.215A4.486,4.486,0,0,1-1211.31,626.137Zm-82.63-30.083a2.39,2.39,0,0,0-2.386,2.387v23.215a2.39,2.39,0,0,0,2.386,2.387h82.63a2.39,2.39,0,0,0,2.387-2.387V598.441a2.39,2.39,0,0,0-2.387-2.387Z" transform="translate(1298.421 -593.96)" fill="#12263f"/>
          </g>
        </g>
        <g id="Group_96787" data-name="Group 96787" transform="translate(0 30.083)">
          <g id="Group_96786" data-name="Group 96786">
            <path id="Path_142509" data-name="Path 142509" d="M-1211.31,669.231h-82.63a4.485,4.485,0,0,1-4.481-4.48V641.537a4.485,4.485,0,0,1,4.481-4.481h82.63a4.486,4.486,0,0,1,4.481,4.481v23.215A4.486,4.486,0,0,1-1211.31,669.231Zm-82.63-30.081a2.39,2.39,0,0,0-2.386,2.387v23.215a2.389,2.389,0,0,0,2.386,2.386h82.63a2.389,2.389,0,0,0,2.387-2.386V641.537a2.39,2.39,0,0,0-2.387-2.387Z" transform="translate(1298.421 -637.056)" fill="#12263f"/>
          </g>
        </g>
        <g id="Group_96789" data-name="Group 96789" transform="translate(0 60.164)">
          <g id="Group_96788" data-name="Group 96788">
            <path id="Path_142510" data-name="Path 142510" d="M-1211.31,712.327h-82.63a4.486,4.486,0,0,1-4.481-4.481V684.631a4.486,4.486,0,0,1,4.481-4.481h82.63a4.486,4.486,0,0,1,4.481,4.481v23.215A4.486,4.486,0,0,1-1211.31,712.327Zm-82.63-30.083a2.39,2.39,0,0,0-2.386,2.387v23.215a2.39,2.39,0,0,0,2.386,2.387h82.63a2.39,2.39,0,0,0,2.387-2.387V684.631a2.39,2.39,0,0,0-2.387-2.387Z" transform="translate(1298.421 -680.15)" fill="#12263f"/>
          </g>
        </g>
        <rect id="Rectangle_8620" data-name="Rectangle 8620" width="48.066" height="6.479" rx="2.415" transform="translate(10.168 12.849)" fill="#ffca28"/>
        <rect id="Rectangle_8621" data-name="Rectangle 8621" width="48.066" height="6.479" rx="2.415" transform="translate(10.168 42.931)" fill="#ffca28"/>
        <rect id="Rectangle_8622" data-name="Rectangle 8622" width="48.066" height="6.479" rx="2.415" transform="translate(10.168 73.013)" fill="#ffca28"/>
        <g id="Group_96790" data-name="Group 96790" transform="translate(9.121 11.802)">
          <path id="Path_142511" data-name="Path 142511" d="M-1237.927,619.44h-44.694a2.735,2.735,0,0,1-2.733-2.733V613.6a2.736,2.736,0,0,1,2.733-2.733h44.694a2.736,2.736,0,0,1,2.733,2.733v3.107A2.735,2.735,0,0,1-1237.927,619.44Zm-44.694-6.478a.647.647,0,0,0-.639.639v3.107a.647.647,0,0,0,.639.639h44.694a.647.647,0,0,0,.639-.639V613.6a.647.647,0,0,0-.639-.639Z" transform="translate(1285.354 -610.867)" fill="#12263f"/>
        </g>
        <g id="Group_96791" data-name="Group 96791" transform="translate(9.121 41.884)">
          <path id="Path_142512" data-name="Path 142512" d="M-1237.927,662.535h-44.694a2.735,2.735,0,0,1-2.733-2.732V656.7a2.736,2.736,0,0,1,2.733-2.733h44.694a2.736,2.736,0,0,1,2.733,2.733V659.8A2.736,2.736,0,0,1-1237.927,662.535Zm-44.694-6.478a.648.648,0,0,0-.639.639V659.8a.647.647,0,0,0,.639.638h44.694a.647.647,0,0,0,.639-.638V656.7a.64.64,0,0,0-.639-.639Z" transform="translate(1285.354 -653.963)" fill="#12263f"/>
        </g>
        <g id="Group_96792" data-name="Group 96792" transform="translate(9.121 71.966)">
          <path id="Path_142513" data-name="Path 142513" d="M-1237.927,705.631h-44.694a2.736,2.736,0,0,1-2.733-2.733v-3.107a2.735,2.735,0,0,1,2.733-2.733h44.694a2.735,2.735,0,0,1,2.733,2.733V702.9A2.736,2.736,0,0,1-1237.927,705.631Zm-44.694-6.479a.647.647,0,0,0-.639.639V702.9a.647.647,0,0,0,.639.639h44.694a.647.647,0,0,0,.639-.639v-3.107a.647.647,0,0,0-.639-.639Z" transform="translate(1285.354 -697.058)" fill="#12263f"/>
        </g>
        <g id="Group_96794" data-name="Group 96794" transform="translate(70.985 11.802)">
          <rect id="Rectangle_8623" data-name="Rectangle 8623" width="6.479" height="6.479" rx="2.415" transform="translate(1.047 1.047)" fill="#ffca28"/>
          <g id="Group_96793" data-name="Group 96793">
            <path id="Path_142514" data-name="Path 142514" d="M-1190.889,619.44H-1194a2.734,2.734,0,0,1-2.732-2.733V613.6a2.735,2.735,0,0,1,2.732-2.733h3.108a2.736,2.736,0,0,1,2.732,2.733v3.107A2.735,2.735,0,0,1-1190.889,619.44Zm-3.108-6.478a.646.646,0,0,0-.638.639v3.107a.646.646,0,0,0,.638.639h3.108a.647.647,0,0,0,.638-.639V613.6a.647.647,0,0,0-.638-.639Z" transform="translate(1196.729 -610.867)" fill="#12263f"/>
          </g>
        </g>
        <g id="Group_96796" data-name="Group 96796" transform="translate(70.985 41.884)">
          <rect id="Rectangle_8624" data-name="Rectangle 8624" width="6.479" height="6.479" rx="2.415" transform="translate(1.047 1.047)" fill="#ffca28"/>
          <g id="Group_96795" data-name="Group 96795">
            <path id="Path_142515" data-name="Path 142515" d="M-1190.889,662.535H-1194a2.735,2.735,0,0,1-2.732-2.732V656.7a2.735,2.735,0,0,1,2.732-2.733h3.108a2.735,2.735,0,0,1,2.732,2.733V659.8A2.735,2.735,0,0,1-1190.889,662.535Zm-3.108-6.478a.639.639,0,0,0-.638.639V659.8a.646.646,0,0,0,.638.638h3.108a.647.647,0,0,0,.638-.638V656.7a.639.639,0,0,0-.638-.639Z" transform="translate(1196.729 -653.963)" fill="#12263f"/>
          </g>
        </g>
        <g id="Group_96798" data-name="Group 96798" transform="translate(70.985 71.966)">
          <rect id="Rectangle_8625" data-name="Rectangle 8625" width="6.479" height="6.479" rx="2.415" transform="translate(1.047 1.047)" fill="#ffca28"/>
          <g id="Group_96797" data-name="Group 96797">
            <path id="Path_142516" data-name="Path 142516" d="M-1190.889,705.631H-1194a2.735,2.735,0,0,1-2.732-2.733v-3.107a2.734,2.734,0,0,1,2.732-2.733h3.108a2.735,2.735,0,0,1,2.732,2.733V702.9A2.736,2.736,0,0,1-1190.889,705.631Zm-3.108-6.479a.646.646,0,0,0-.638.639V702.9a.646.646,0,0,0,.638.639h3.108a.647.647,0,0,0,.638-.639v-3.107a.647.647,0,0,0-.638-.639Z" transform="translate(1196.729 -697.058)" fill="#12263f"/>
          </g>
        </g>
      </g>
      <g id="Group_96824" data-name="Group 96824" transform="translate(109.239)">
        <g id="Group_96800" data-name="Group 96800" transform="translate(1.047 31.129)">
          <rect id="Rectangle_8626" data-name="Rectangle 8626" width="89.497" height="30.082" rx="4.919" fill="#cecece"/>
        </g>
        <g id="Group_96801" data-name="Group 96801" transform="translate(1.047 61.211)">
          <rect id="Rectangle_8627" data-name="Rectangle 8627" width="89.497" height="30.082" rx="4.919" fill="#cecece"/>
        </g>
        <g id="Group_96802" data-name="Group 96802" transform="translate(1.047 1.047)">
          <rect id="Rectangle_8628" data-name="Rectangle 8628" width="89.497" height="30.082" rx="4.919" fill="#cecece"/>
        </g>
        <g id="Group_96803" data-name="Group 96803" transform="translate(1.047 1.047)">
          <path id="Path_142517" data-name="Path 142517" d="M-1134.821,623.472V597.53a2.07,2.07,0,0,1,2.07-2.07h-5.605a2.07,2.07,0,0,0-2.07,2.07v25.943a2.069,2.069,0,0,0,2.07,2.07h5.605A2.069,2.069,0,0,1-1134.821,623.472Z" transform="translate(1140.426 -595.46)" fill="#9e9e9e"/>
        </g>
        <g id="Group_96804" data-name="Group 96804" transform="translate(82.87 1.047)">
          <path id="Path_142518" data-name="Path 142518" d="M-1021.138,623.472V597.53a2.07,2.07,0,0,0-2.07-2.07h5.6a2.07,2.07,0,0,1,2.07,2.07v25.943a2.07,2.07,0,0,1-2.07,2.07h-5.6A2.07,2.07,0,0,0-1021.138,623.472Z" transform="translate(1023.208 -595.46)" fill="#e2e2e2"/>
        </g>
        <g id="Group_96805" data-name="Group 96805" transform="translate(82.87 31.129)">
          <path id="Path_142519" data-name="Path 142519" d="M-1021.138,666.567V640.625a2.07,2.07,0,0,0-2.07-2.07h5.6a2.07,2.07,0,0,1,2.07,2.07v25.942a2.07,2.07,0,0,1-2.07,2.07h-5.6A2.07,2.07,0,0,0-1021.138,666.567Z" transform="translate(1023.208 -638.555)" fill="#e2e2e2"/>
        </g>
        <g id="Group_96806" data-name="Group 96806" transform="translate(82.87 61.212)">
          <path id="Path_142520" data-name="Path 142520" d="M-1021.138,709.663V683.721a2.07,2.07,0,0,0-2.07-2.07h5.6a2.07,2.07,0,0,1,2.07,2.07v25.943a2.07,2.07,0,0,1-2.07,2.07h-5.6A2.07,2.07,0,0,0-1021.138,709.663Z" transform="translate(1023.208 -681.651)" fill="#e2e2e2"/>
        </g>
        <g id="Group_96807" data-name="Group 96807" transform="translate(1.047 31.129)">
          <path id="Path_142521" data-name="Path 142521" d="M-1134.821,666.567V640.625a2.07,2.07,0,0,1,2.07-2.07h-5.605a2.07,2.07,0,0,0-2.07,2.07v25.942a2.07,2.07,0,0,0,2.07,2.07h5.605A2.07,2.07,0,0,1-1134.821,666.567Z" transform="translate(1140.426 -638.555)" fill="#9e9e9e"/>
        </g>
        <g id="Group_96808" data-name="Group 96808" transform="translate(1.047 61.212)">
          <path id="Path_142522" data-name="Path 142522" d="M-1134.821,709.663V683.721a2.069,2.069,0,0,1,2.07-2.07h-5.605a2.07,2.07,0,0,0-2.07,2.07v25.943a2.07,2.07,0,0,0,2.07,2.07h5.605A2.07,2.07,0,0,1-1134.821,709.663Z" transform="translate(1140.426 -681.651)" fill="#9e9e9e"/>
        </g>
        <g id="Group_96810" data-name="Group 96810">
          <g id="Group_96809" data-name="Group 96809">
            <path id="Path_142523" data-name="Path 142523" d="M-1054.815,626.137h-82.63a4.486,4.486,0,0,1-4.481-4.481V598.441a4.486,4.486,0,0,1,4.481-4.481h82.63a4.486,4.486,0,0,1,4.481,4.481v23.215A4.486,4.486,0,0,1-1054.815,626.137Zm-82.63-30.083a2.39,2.39,0,0,0-2.387,2.387v23.215a2.39,2.39,0,0,0,2.387,2.387h82.63a2.39,2.39,0,0,0,2.386-2.387V598.441a2.389,2.389,0,0,0-2.386-2.387Z" transform="translate(1141.926 -593.96)" fill="#12263f"/>
          </g>
        </g>
        <g id="Group_96812" data-name="Group 96812" transform="translate(0 30.083)">
          <g id="Group_96811" data-name="Group 96811">
            <path id="Path_142524" data-name="Path 142524" d="M-1054.815,669.231h-82.63a4.485,4.485,0,0,1-4.481-4.48V641.537a4.485,4.485,0,0,1,4.481-4.481h82.63a4.486,4.486,0,0,1,4.481,4.481v23.215A4.486,4.486,0,0,1-1054.815,669.231Zm-82.63-30.081a2.39,2.39,0,0,0-2.387,2.387v23.215a2.389,2.389,0,0,0,2.387,2.386h82.63a2.389,2.389,0,0,0,2.386-2.386V641.537a2.389,2.389,0,0,0-2.386-2.387Z" transform="translate(1141.926 -637.056)" fill="#12263f"/>
          </g>
        </g>
        <g id="Group_96814" data-name="Group 96814" transform="translate(0 60.164)">
          <g id="Group_96813" data-name="Group 96813">
            <path id="Path_142525" data-name="Path 142525" d="M-1054.815,712.327h-82.63a4.486,4.486,0,0,1-4.481-4.481V684.631a4.486,4.486,0,0,1,4.481-4.481h82.63a4.486,4.486,0,0,1,4.481,4.481v23.215A4.486,4.486,0,0,1-1054.815,712.327Zm-82.63-30.083a2.39,2.39,0,0,0-2.387,2.387v23.215a2.39,2.39,0,0,0,2.387,2.387h82.63a2.389,2.389,0,0,0,2.386-2.387V684.631a2.39,2.39,0,0,0-2.386-2.387Z" transform="translate(1141.926 -680.15)" fill="#12263f"/>
          </g>
        </g>
        <rect id="Rectangle_8629" data-name="Rectangle 8629" width="48.066" height="6.479" rx="2.415" transform="translate(10.168 12.849)" fill="#ffca28"/>
        <rect id="Rectangle_8630" data-name="Rectangle 8630" width="48.066" height="6.479" rx="2.415" transform="translate(10.168 42.931)" fill="#ffca28"/>
        <rect id="Rectangle_8631" data-name="Rectangle 8631" width="48.066" height="6.479" rx="2.415" transform="translate(10.168 73.013)" fill="#ffca28"/>
        <g id="Group_96815" data-name="Group 96815" transform="translate(9.121 11.802)">
          <path id="Path_142526" data-name="Path 142526" d="M-1081.432,619.44h-44.694a2.735,2.735,0,0,1-2.733-2.733V613.6a2.736,2.736,0,0,1,2.733-2.733h44.694a2.736,2.736,0,0,1,2.733,2.733v3.107A2.735,2.735,0,0,1-1081.432,619.44Zm-44.694-6.478a.647.647,0,0,0-.639.639v3.107a.647.647,0,0,0,.639.639h44.694a.647.647,0,0,0,.639-.639V613.6a.647.647,0,0,0-.639-.639Z" transform="translate(1128.859 -610.867)" fill="#12263f"/>
        </g>
        <g id="Group_96816" data-name="Group 96816" transform="translate(9.121 41.884)">
          <path id="Path_142527" data-name="Path 142527" d="M-1081.432,662.535h-44.694a2.735,2.735,0,0,1-2.733-2.732V656.7a2.736,2.736,0,0,1,2.733-2.733h44.694a2.736,2.736,0,0,1,2.733,2.733V659.8A2.735,2.735,0,0,1-1081.432,662.535Zm-44.694-6.478a.647.647,0,0,0-.639.639V659.8a.647.647,0,0,0,.639.638h44.694a.647.647,0,0,0,.639-.638V656.7a.64.64,0,0,0-.639-.639Z" transform="translate(1128.859 -653.963)" fill="#12263f"/>
        </g>
        <g id="Group_96817" data-name="Group 96817" transform="translate(9.121 71.966)">
          <path id="Path_142528" data-name="Path 142528" d="M-1081.432,705.631h-44.694a2.736,2.736,0,0,1-2.733-2.733v-3.107a2.735,2.735,0,0,1,2.733-2.733h44.694a2.735,2.735,0,0,1,2.733,2.733V702.9A2.736,2.736,0,0,1-1081.432,705.631Zm-44.694-6.479a.647.647,0,0,0-.639.639V702.9a.647.647,0,0,0,.639.639h44.694a.647.647,0,0,0,.639-.639v-3.107a.647.647,0,0,0-.639-.639Z" transform="translate(1128.859 -697.058)" fill="#12263f"/>
        </g>
        <g id="Group_96819" data-name="Group 96819" transform="translate(70.985 11.802)">
          <rect id="Rectangle_8632" data-name="Rectangle 8632" width="6.479" height="6.479" rx="2.415" transform="translate(1.047 1.047)" fill="#ffca28"/>
          <g id="Group_96818" data-name="Group 96818">
            <path id="Path_142529" data-name="Path 142529" d="M-1034.394,619.44h-3.108a2.734,2.734,0,0,1-2.732-2.733V613.6a2.735,2.735,0,0,1,2.732-2.733h3.108a2.735,2.735,0,0,1,2.732,2.733v3.107A2.734,2.734,0,0,1-1034.394,619.44Zm-3.108-6.478a.647.647,0,0,0-.638.639v3.107a.647.647,0,0,0,.638.639h3.108a.647.647,0,0,0,.638-.639V613.6a.647.647,0,0,0-.638-.639Z" transform="translate(1040.234 -610.867)" fill="#12263f"/>
          </g>
        </g>
        <g id="Group_96821" data-name="Group 96821" transform="translate(70.985 41.884)">
          <rect id="Rectangle_8633" data-name="Rectangle 8633" width="6.479" height="6.479" rx="2.415" transform="translate(1.047 1.047)" fill="#ffca28"/>
          <g id="Group_96820" data-name="Group 96820">
            <path id="Path_142530" data-name="Path 142530" d="M-1034.394,662.535h-3.108a2.735,2.735,0,0,1-2.732-2.732V656.7a2.735,2.735,0,0,1,2.732-2.733h3.108a2.735,2.735,0,0,1,2.732,2.733V659.8A2.735,2.735,0,0,1-1034.394,662.535Zm-3.108-6.478a.639.639,0,0,0-.638.639V659.8a.647.647,0,0,0,.638.638h3.108a.647.647,0,0,0,.638-.638V656.7a.639.639,0,0,0-.638-.639Z" transform="translate(1040.234 -653.963)" fill="#12263f"/>
          </g>
        </g>
        <g id="Group_96823" data-name="Group 96823" transform="translate(70.985 71.966)">
          <rect id="Rectangle_8634" data-name="Rectangle 8634" width="6.479" height="6.479" rx="2.415" transform="translate(1.047 1.047)" fill="#ffca28"/>
          <g id="Group_96822" data-name="Group 96822">
            <path id="Path_142531" data-name="Path 142531" d="M-1034.394,705.631h-3.108a2.735,2.735,0,0,1-2.732-2.733v-3.107a2.735,2.735,0,0,1,2.732-2.733h3.108a2.734,2.734,0,0,1,2.732,2.733V702.9A2.735,2.735,0,0,1-1034.394,705.631Zm-3.108-6.479a.647.647,0,0,0-.638.639V702.9a.647.647,0,0,0,.638.639h3.108a.647.647,0,0,0,.638-.639v-3.107a.647.647,0,0,0-.638-.639Z" transform="translate(1040.234 -697.058)" fill="#12263f"/>
          </g>
        </g>
      </g>
    </g>
  </g>
</svg>
