<svg xmlns="http://www.w3.org/2000/svg" width="90" height="90.978" viewBox="0 0 90 90.978">
  <g id="t1-ic7" transform="translate(1127.873 -1345.02)">
    <g id="Group_96346" data-name="Group 96346" transform="translate(-1101.888 1369.12)">
      <g id="Group_96320" data-name="Group 96320" transform="translate(0.421 12.935)">
        <g id="Group_96319" data-name="Group 96319">
          <rect id="Rectangle_8506" data-name="Rectangle 8506" width="36.7" height="12.514" rx="2" fill="#afafaf"/>
        </g>
      </g>
      <g id="Group_96322" data-name="Group 96322" transform="translate(0.421 25.449)">
        <g id="Group_96321" data-name="Group 96321">
          <rect id="Rectangle_8507" data-name="Rectangle 8507" width="36.7" height="12.514" rx="2" fill="#afafaf"/>
        </g>
      </g>
      <g id="Group_96324" data-name="Group 96324" transform="translate(0.421 0.421)">
        <g id="Group_96323" data-name="Group 96323">
          <rect id="Rectangle_8508" data-name="Rectangle 8508" width="36.7" height="12.514" rx="2" fill="#afafaf"/>
        </g>
      </g>
      <g id="Group_96326" data-name="Group 96326" transform="translate(0)">
        <g id="Group_96325" data-name="Group 96325">
          <path id="Path_142244" data-name="Path 142244" d="M-1022.735,1422.74h-33.94a1.8,1.8,0,0,1-1.8-1.8v-9.755a1.8,1.8,0,0,1,1.8-1.8h33.94a1.8,1.8,0,0,1,1.8,1.8v9.755A1.8,1.8,0,0,1-1022.735,1422.74Zm-33.94-12.514a.961.961,0,0,0-.959.959v9.755a.96.96,0,0,0,.959.959h33.94a.96.96,0,0,0,.959-.959v-9.755a.961.961,0,0,0-.959-.959Z" transform="translate(1058.476 -1409.384)" fill="#12263f"/>
        </g>
      </g>
      <g id="Group_96328" data-name="Group 96328" transform="translate(0 12.514)">
        <g id="Group_96327" data-name="Group 96327">
          <path id="Path_142245" data-name="Path 142245" d="M-1022.735,1456.161h-33.94a1.8,1.8,0,0,1-1.8-1.8v-9.755a1.8,1.8,0,0,1,1.8-1.8h33.94a1.8,1.8,0,0,1,1.8,1.8v9.755A1.8,1.8,0,0,1-1022.735,1456.161Zm-33.94-12.514a.96.96,0,0,0-.959.959v9.755a.96.96,0,0,0,.959.959h33.94a.96.96,0,0,0,.959-.959v-9.755a.96.96,0,0,0-.959-.959Z" transform="translate(1058.476 -1442.806)" fill="#12263f"/>
        </g>
      </g>
      <g id="Group_96330" data-name="Group 96330" transform="translate(0 25.028)">
        <g id="Group_96329" data-name="Group 96329">
          <path id="Path_142246" data-name="Path 142246" d="M-1022.735,1489.583h-33.94a1.8,1.8,0,0,1-1.8-1.8v-9.755a1.8,1.8,0,0,1,1.8-1.8h33.94a1.8,1.8,0,0,1,1.8,1.8v9.755A1.8,1.8,0,0,1-1022.735,1489.583Zm-33.94-12.514a.96.96,0,0,0-.959.959v9.755a.96.96,0,0,0,.959.959h33.94a.96.96,0,0,0,.959-.959v-9.755a.96.96,0,0,0-.959-.959Z" transform="translate(1058.476 -1476.227)" fill="#12263f"/>
        </g>
      </g>
      <g id="Group_96331" data-name="Group 96331" transform="translate(4.215 5.33)">
        <rect id="Rectangle_8509" data-name="Rectangle 8509" width="19.465" height="2.695" rx="1.348" fill="#ffca28"/>
      </g>
      <g id="Group_96332" data-name="Group 96332" transform="translate(4.215 17.845)">
        <rect id="Rectangle_8510" data-name="Rectangle 8510" width="19.465" height="2.695" rx="1.348" fill="#ffca28"/>
      </g>
      <g id="Group_96333" data-name="Group 96333" transform="translate(4.215 30.359)">
        <rect id="Rectangle_8511" data-name="Rectangle 8511" width="19.465" height="2.695" rx="1.348" fill="#ffca28"/>
      </g>
      <g id="Group_96334" data-name="Group 96334" transform="translate(3.795 4.91)">
        <path id="Path_142247" data-name="Path 142247" d="M-1029.134,1426.032h-18.11a1.1,1.1,0,0,1-1.1-1.1v-1.34a1.1,1.1,0,0,1,1.1-1.1h18.11a1.1,1.1,0,0,1,1.1,1.1v1.34A1.1,1.1,0,0,1-1029.134,1426.032Zm-18.11-2.7a.26.26,0,0,0-.257.257v1.34a.26.26,0,0,0,.257.257h18.11a.26.26,0,0,0,.257-.257v-1.34a.26.26,0,0,0-.257-.257Z" transform="translate(1048.342 -1422.496)" fill="#12263f"/>
      </g>
      <g id="Group_96335" data-name="Group 96335" transform="translate(3.795 17.424)">
        <path id="Path_142248" data-name="Path 142248" d="M-1029.134,1459.454h-18.11a1.1,1.1,0,0,1-1.1-1.1v-1.34a1.1,1.1,0,0,1,1.1-1.1h18.11a1.1,1.1,0,0,1,1.1,1.1v1.34A1.1,1.1,0,0,1-1029.134,1459.454Zm-18.11-2.695a.26.26,0,0,0-.257.257v1.34a.26.26,0,0,0,.257.256h18.11a.26.26,0,0,0,.257-.256v-1.34a.26.26,0,0,0-.257-.257Z" transform="translate(1048.342 -1455.918)" fill="#12263f"/>
      </g>
      <g id="Group_96336" data-name="Group 96336" transform="translate(3.795 29.938)">
        <path id="Path_142249" data-name="Path 142249" d="M-1029.134,1492.875h-18.11a1.1,1.1,0,0,1-1.1-1.1v-1.34a1.1,1.1,0,0,1,1.1-1.1h18.11a1.1,1.1,0,0,1,1.1,1.1v1.34A1.1,1.1,0,0,1-1029.134,1492.875Zm-18.11-2.7a.26.26,0,0,0-.257.257v1.34a.26.26,0,0,0,.257.257h18.11a.26.26,0,0,0,.257-.257v-1.34a.26.26,0,0,0-.257-.257Z" transform="translate(1048.342 -1489.339)" fill="#12263f"/>
      </g>
      <g id="Group_96339" data-name="Group 96339" transform="translate(28.999 4.91)">
        <g id="Group_96337" data-name="Group 96337" transform="translate(0.421 0.421)">
          <rect id="Rectangle_8512" data-name="Rectangle 8512" width="2.695" height="2.695" rx="1.348" fill="#ffca28"/>
        </g>
        <g id="Group_96338" data-name="Group 96338">
          <path id="Path_142250" data-name="Path 142250" d="M-978.591,1426.032h-1.34a1.1,1.1,0,0,1-1.1-1.1v-1.34a1.1,1.1,0,0,1,1.1-1.1h1.34a1.1,1.1,0,0,1,1.1,1.1v1.34A1.1,1.1,0,0,1-978.591,1426.032Zm-1.34-2.7a.26.26,0,0,0-.256.257v1.34a.26.26,0,0,0,.256.257h1.34a.26.26,0,0,0,.257-.257v-1.34a.26.26,0,0,0-.257-.257Z" transform="translate(981.029 -1422.496)" fill="#12263f"/>
        </g>
      </g>
      <g id="Group_96342" data-name="Group 96342" transform="translate(28.999 17.424)">
        <g id="Group_96340" data-name="Group 96340" transform="translate(0.421 0.421)">
          <rect id="Rectangle_8513" data-name="Rectangle 8513" width="2.695" height="2.695" rx="1.348" fill="#ffca28"/>
        </g>
        <g id="Group_96341" data-name="Group 96341">
          <path id="Path_142251" data-name="Path 142251" d="M-978.591,1459.454h-1.34a1.1,1.1,0,0,1-1.1-1.1v-1.34a1.1,1.1,0,0,1,1.1-1.1h1.34a1.1,1.1,0,0,1,1.1,1.1v1.34A1.1,1.1,0,0,1-978.591,1459.454Zm-1.34-2.695a.26.26,0,0,0-.256.257v1.34a.26.26,0,0,0,.256.256h1.34a.26.26,0,0,0,.257-.256v-1.34a.26.26,0,0,0-.257-.257Z" transform="translate(981.029 -1455.918)" fill="#12263f"/>
        </g>
      </g>
      <g id="Group_96345" data-name="Group 96345" transform="translate(28.999 29.938)">
        <g id="Group_96343" data-name="Group 96343" transform="translate(0.421 0.421)">
          <rect id="Rectangle_8514" data-name="Rectangle 8514" width="2.695" height="2.695" rx="1.348" fill="#ffca28"/>
        </g>
        <g id="Group_96344" data-name="Group 96344">
          <path id="Path_142252" data-name="Path 142252" d="M-978.591,1492.875h-1.34a1.1,1.1,0,0,1-1.1-1.1v-1.34a1.1,1.1,0,0,1,1.1-1.1h1.34a1.1,1.1,0,0,1,1.1,1.1v1.34A1.1,1.1,0,0,1-978.591,1492.875Zm-1.34-2.7a.26.26,0,0,0-.256.257v1.34a.26.26,0,0,0,.256.257h1.34a.26.26,0,0,0,.257-.257v-1.34a.26.26,0,0,0-.257-.257Z" transform="translate(981.029 -1489.339)" fill="#12263f"/>
        </g>
      </g>
    </g>
    <g id="Group_96355" data-name="Group 96355" transform="translate(-1126.307 1345.02)">
      <path id="Path_142253" data-name="Path 142253" d="M-1061.446,1353.308l-5.966-5.965a2.808,2.808,0,0,0-3.971,0,2.807,2.807,0,0,0,0,3.971l1.354,1.354a36.861,36.861,0,0,0-31.388,24.991,2.808,2.808,0,0,0,1.771,3.555,2.792,2.792,0,0,0,.893.146,2.81,2.81,0,0,0,2.662-1.917,31.252,31.252,0,0,1,25.613-21.074l-.9.9a2.807,2.807,0,0,0,0,3.971,2.8,2.8,0,0,0,1.986.823,2.8,2.8,0,0,0,1.986-.823l5.966-5.965a2.808,2.808,0,0,0,.823-1.986A2.808,2.808,0,0,0-1061.446,1353.308Z" transform="translate(1109.849 -1345.958)" fill="#4dd0e1"/>
      <g id="Group_96347" data-name="Group 96347" transform="translate(8.286 0.563)">
        <path id="Path_142254" data-name="Path 142254" d="M-1097.673,1377.662a36.861,36.861,0,0,1,31.388-24.991l-1.354-1.354a2.808,2.808,0,0,1,0-3.972c.036-.037.076-.068.114-.1a2.806,2.806,0,0,0-3.858.1,2.808,2.808,0,0,0,0,3.972l1.354,1.354a36.862,36.862,0,0,0-31.388,24.991,2.808,2.808,0,0,0,1.771,3.555,2.8,2.8,0,0,0,.893.146,2.811,2.811,0,0,0,1.867-.72A2.809,2.809,0,0,1-1097.673,1377.662Z" transform="translate(1101.564 -1346.525)" fill="#7cd5e1"/>
      </g>
      <path id="Path_142255" data-name="Path 142255" d="M-1089.264,1481.024a31.25,31.25,0,0,1-21.079-25.614l.9.9a2.808,2.808,0,0,0,3.972,0,2.808,2.808,0,0,0,0-3.971l-5.965-5.966a2.807,2.807,0,0,0-1.986-.823,2.808,2.808,0,0,0-1.986.823l-5.965,5.966a2.807,2.807,0,0,0,0,3.971,2.8,2.8,0,0,0,1.986.823,2.8,2.8,0,0,0,1.986-.823l1.354-1.354a36.86,36.86,0,0,0,25,31.39,2.81,2.81,0,0,0,.892.146,2.81,2.81,0,0,0,2.663-1.917A2.809,2.809,0,0,0-1089.264,1481.024Z" transform="translate(1122.754 -1407.91)" fill="#ffca28"/>
      <g id="Group_96348" data-name="Group 96348" transform="translate(0.561 37.644)">
        <path id="Path_142256" data-name="Path 142256" d="M-1101.556,1470.673l-1.354,1.354a2.8,2.8,0,0,1-1.986.823c-.041,0-.082,0-.122-.006a36.852,36.852,0,0,0,24.714,29.219,2.81,2.81,0,0,0,.892.146,2.809,2.809,0,0,0,1.679-.564A36.858,36.858,0,0,1-1101.556,1470.673Z" transform="translate(1111.449 -1461.268)" fill="#ffa726"/>
        <path id="Path_142257" data-name="Path 142257" d="M-1117.625,1452.343l5.965-5.966c.036-.036.075-.069.114-.1a2.805,2.805,0,0,0-1.872-.719,2.809,2.809,0,0,0-1.986.822l-5.965,5.966a2.807,2.807,0,0,0,0,3.971,2.8,2.8,0,0,0,1.986.823,2.8,2.8,0,0,0,1.872-.72c-.038-.034-.077-.066-.113-.1A2.807,2.807,0,0,1-1117.625,1452.343Z" transform="translate(1122.193 -1445.555)" fill="#ffa726"/>
      </g>
      <path id="Path_142258" data-name="Path 142258" d="M-984.135,1482.619a2.807,2.807,0,0,0-3.555,1.771,31.251,31.251,0,0,1-25.613,21.074l.9-.9a2.808,2.808,0,0,0,0-3.972,2.809,2.809,0,0,0-3.972,0l-5.965,5.966a2.807,2.807,0,0,0-.823,1.986,2.807,2.807,0,0,0,.823,1.986l5.965,5.965a2.8,2.8,0,0,0,1.986.823,2.8,2.8,0,0,0,1.986-.823,2.808,2.808,0,0,0,0-3.971l-1.354-1.354a36.86,36.86,0,0,0,31.388-24.991A2.808,2.808,0,0,0-984.135,1482.619Z" transform="translate(1060.802 -1431.005)" fill="#4dd0e1"/>
      <g id="Group_96349" data-name="Group 96349" transform="translate(43.305 51.468)">
        <path id="Path_142259" data-name="Path 142259" d="M-974.677,1482.62a2.8,2.8,0,0,0-2.763.571,2.808,2.808,0,0,1,.789,2.984,36.86,36.86,0,0,1-31.388,24.991l1.354,1.354a2.808,2.808,0,0,1,0,3.972c-.037.036-.076.069-.114.1a2.8,2.8,0,0,0,1.873.72,2.8,2.8,0,0,0,1.986-.822,2.808,2.808,0,0,0,0-3.972l-1.354-1.354a36.86,36.86,0,0,0,31.388-24.991A2.808,2.808,0,0,0-974.677,1482.62Z" transform="translate(1008.039 -1482.473)" fill="#039be5"/>
      </g>
      <path id="Path_142260" data-name="Path 142260" d="M-952.222,1397.329a2.808,2.808,0,0,0-3.971,0l-1.354,1.354a36.86,36.86,0,0,0-24.991-31.388,2.808,2.808,0,0,0-3.555,1.77,2.808,2.808,0,0,0,1.771,3.555,31.252,31.252,0,0,1,21.074,25.613l-.9-.9a2.808,2.808,0,0,0-3.971,0,2.809,2.809,0,0,0,0,3.972l5.965,5.965a2.808,2.808,0,0,0,1.986.823,2.807,2.807,0,0,0,1.986-.823l5.965-5.965A2.809,2.809,0,0,0-952.222,1397.329Z" transform="translate(1037.707 -1358.863)" fill="#ffca28"/>
      <g id="Group_96350" data-name="Group 96350" transform="translate(52.593 8.286)">
        <path id="Path_142261" data-name="Path 142261" d="M-959.41,1398.683l1.354-1.354a2.8,2.8,0,0,1,2.108-.817,36.854,36.854,0,0,0-24.708-29.217,2.8,2.8,0,0,0-2.575.416A36.86,36.86,0,0,1-959.41,1398.683Z" transform="translate(983.232 -1367.149)" fill="#ffd34d"/>
        <path id="Path_142262" data-name="Path 142262" d="M-911.8,1446.379a2.806,2.806,0,0,0-3.858-.1c.038.034.077.066.114.1a2.809,2.809,0,0,1,0,3.972l-5.965,5.965c-.036.036-.076.069-.113.1a2.8,2.8,0,0,0,1.872.72,2.807,2.807,0,0,0,1.986-.823l5.965-5.965A2.808,2.808,0,0,0-911.8,1446.379Z" transform="translate(944.692 -1416.199)" fill="#ffd34d"/>
      </g>
      <g id="Group_96351" data-name="Group 96351" transform="translate(7.725)">
        <path id="Path_142263" data-name="Path 142263" d="M-1099.692,1380.984a3.367,3.367,0,0,1-1.071-.175,3.374,3.374,0,0,1-2.125-4.266,37.493,37.493,0,0,1,30.7-25.239l-.53-.53a3.347,3.347,0,0,1-.987-2.383,3.348,3.348,0,0,1,.987-2.383,3.35,3.35,0,0,1,2.383-.987,3.348,3.348,0,0,1,2.383.987l5.965,5.966a3.346,3.346,0,0,1,.987,2.383,3.346,3.346,0,0,1-.987,2.383l-5.965,5.965a3.348,3.348,0,0,1-2.383.987,3.348,3.348,0,0,1-2.383-.987,3.347,3.347,0,0,1-.987-2.383,3.346,3.346,0,0,1,.711-2.072,30.908,30.908,0,0,0-23.5,20.435A3.367,3.367,0,0,1-1099.692,1380.984Zm29.357-34.84a2.234,2.234,0,0,0-1.589.658,2.234,2.234,0,0,0-.658,1.589,2.233,2.233,0,0,0,.658,1.588l1.354,1.354a.561.561,0,0,1,.132.586.563.563,0,0,1-.474.37,36.365,36.365,0,0,0-30.91,24.61,2.25,2.25,0,0,0,1.416,2.844,2.255,2.255,0,0,0,.714.117,2.243,2.243,0,0,0,2.13-1.533,32.019,32.019,0,0,1,26.073-21.453.559.559,0,0,1,.576.309.561.561,0,0,1-.107.645l-.9.9a2.232,2.232,0,0,0-.658,1.588,2.233,2.233,0,0,0,.658,1.589,2.232,2.232,0,0,0,1.589.658,2.232,2.232,0,0,0,1.588-.658l5.965-5.965a2.231,2.231,0,0,0,.658-1.589,2.231,2.231,0,0,0-.658-1.588h0l-5.965-5.966A2.232,2.232,0,0,0-1070.335,1346.143Z" transform="translate(1103.062 -1345.02)" fill="#12263f"/>
      </g>
      <g id="Group_96352" data-name="Group 96352" transform="translate(0 37.082)">
        <path id="Path_142264" data-name="Path 142264" d="M-1091.094,1486.12a3.363,3.363,0,0,1-1.071-.175,37.494,37.494,0,0,1-25.245-30.7l-.53.53a3.346,3.346,0,0,1-2.383.987,3.348,3.348,0,0,1-2.383-.987,3.348,3.348,0,0,1-.987-2.383,3.348,3.348,0,0,1,.987-2.383l5.965-5.965a3.347,3.347,0,0,1,2.383-.987,3.347,3.347,0,0,1,2.383.987l5.965,5.965a3.348,3.348,0,0,1,.987,2.383,3.348,3.348,0,0,1-.987,2.383,3.375,3.375,0,0,1-4.455.275,30.908,30.908,0,0,0,20.439,23.505,3.374,3.374,0,0,1,2.125,4.266A3.367,3.367,0,0,1-1091.094,1486.12Zm-25.888-32.66a.556.556,0,0,1,.189.033.561.561,0,0,1,.37.474,36.366,36.366,0,0,0,24.615,30.912,2.242,2.242,0,0,0,.714.117,2.244,2.244,0,0,0,2.13-1.534,2.231,2.231,0,0,0-.119-1.715,2.234,2.234,0,0,0-1.3-1.129h0a32.018,32.018,0,0,1-21.458-26.074.562.562,0,0,1,.309-.576.561.561,0,0,1,.645.107l.9.9a2.249,2.249,0,0,0,3.177,0,2.233,2.233,0,0,0,.658-1.589,2.233,2.233,0,0,0-.658-1.589l-5.966-5.965a2.231,2.231,0,0,0-1.588-.658,2.232,2.232,0,0,0-1.589.658l-5.965,5.965a2.234,2.234,0,0,0-.658,1.589,2.233,2.233,0,0,0,.658,1.589,2.232,2.232,0,0,0,1.589.658,2.232,2.232,0,0,0,1.588-.658l1.354-1.354A.561.561,0,0,1-1116.982,1453.46Z" transform="translate(1123.692 -1444.055)" fill="#12263f"/>
      </g>
      <g id="Group_96353" data-name="Group 96353" transform="translate(37.082 50.905)">
        <path id="Path_142265" data-name="Path 142265" d="M-1015.323,1516.936a3.348,3.348,0,0,1-2.383-.987l-5.965-5.965a3.346,3.346,0,0,1-.987-2.383,3.346,3.346,0,0,1,.987-2.383l5.965-5.966a3.347,3.347,0,0,1,2.383-.987,3.348,3.348,0,0,1,2.383.987,3.347,3.347,0,0,1,.987,2.383,3.346,3.346,0,0,1-.711,2.072,30.906,30.906,0,0,0,23.5-20.435,3.349,3.349,0,0,1,1.693-1.946,3.349,3.349,0,0,1,2.573-.179,3.349,3.349,0,0,1,1.946,1.693,3.347,3.347,0,0,1,.179,2.573,37.493,37.493,0,0,1-30.7,25.239l.53.53a3.347,3.347,0,0,1,.987,2.383,3.347,3.347,0,0,1-.987,2.383A3.347,3.347,0,0,1-1015.323,1516.936Zm0-17.546a2.239,2.239,0,0,0-1.588.657l-5.965,5.966a2.23,2.23,0,0,0-.658,1.588,2.232,2.232,0,0,0,.658,1.589l5.965,5.965a2.233,2.233,0,0,0,1.588.658,2.233,2.233,0,0,0,1.589-.658,2.232,2.232,0,0,0,.658-1.588,2.233,2.233,0,0,0-.658-1.589l-1.354-1.354a.562.562,0,0,1-.132-.586.563.563,0,0,1,.474-.37,36.366,36.366,0,0,0,30.91-24.61,2.231,2.231,0,0,0-.12-1.715,2.231,2.231,0,0,0-1.3-1.129h0a2.229,2.229,0,0,0-1.715.119,2.23,2.23,0,0,0-1.129,1.3,32.018,32.018,0,0,1-26.073,21.453.559.559,0,0,1-.576-.309.562.562,0,0,1,.107-.645l.9-.9a2.231,2.231,0,0,0,.658-1.589,2.232,2.232,0,0,0-.658-1.588A2.239,2.239,0,0,0-1015.323,1499.389Z" transform="translate(1024.658 -1480.971)" fill="#12263f"/>
      </g>
      <g id="Group_96354" data-name="Group 96354" transform="translate(50.906 7.723)">
        <path id="Path_142266" data-name="Path 142266" d="M-961.11,1407.71a3.347,3.347,0,0,1-2.383-.987l-5.965-5.965a3.347,3.347,0,0,1-.987-2.383,3.348,3.348,0,0,1,.987-2.383,3.375,3.375,0,0,1,4.455-.275,30.907,30.907,0,0,0-20.435-23.5,3.374,3.374,0,0,1-2.125-4.266A3.348,3.348,0,0,1-985.87,1366a3.345,3.345,0,0,1,2.573-.179,37.494,37.494,0,0,1,25.239,30.7l.53-.53a3.35,3.35,0,0,1,2.383-.987,3.347,3.347,0,0,1,2.383.987h0a3.348,3.348,0,0,1,.987,2.383,3.346,3.346,0,0,1-.987,2.383l-5.965,5.965A3.346,3.346,0,0,1-961.11,1407.71Zm-5.965-11.581a2.239,2.239,0,0,0-1.589.657,2.232,2.232,0,0,0-.658,1.589,2.233,2.233,0,0,0,.658,1.588l5.966,5.965a2.231,2.231,0,0,0,1.588.658,2.232,2.232,0,0,0,1.589-.658l5.965-5.965a2.231,2.231,0,0,0,.658-1.588,2.23,2.23,0,0,0-.658-1.589h0a2.23,2.23,0,0,0-1.588-.658,2.233,2.233,0,0,0-1.589.658l-1.354,1.354a.561.561,0,0,1-.587.132.561.561,0,0,1-.369-.474,36.367,36.367,0,0,0-24.611-30.91,2.231,2.231,0,0,0-1.715.119,2.232,2.232,0,0,0-1.129,1.3,2.249,2.249,0,0,0,1.416,2.844,32.018,32.018,0,0,1,21.453,26.073.561.561,0,0,1-.309.576.562.562,0,0,1-.645-.107l-.9-.9A2.239,2.239,0,0,0-967.076,1396.129Z" transform="translate(987.738 -1365.646)" fill="#12263f"/>
      </g>
    </g>
    <g id="Group_96361" data-name="Group 96361" transform="translate(-1127.873 1430.766)">
      <g id="Group_96358" data-name="Group 96358" transform="translate(0 4.108)">
        <g id="Group_96356" data-name="Group 96356">
          <path id="Path_142267" data-name="Path 142267" d="M-1120.57,1586.116h-6.741a.562.562,0,0,1-.562-.562.562.562,0,0,1,.562-.562h6.741a.562.562,0,0,1,.562.562A.562.562,0,0,1-1120.57,1586.116Z" transform="translate(1127.873 -1584.993)" fill="#12263f"/>
        </g>
        <g id="Group_96357" data-name="Group 96357" transform="translate(82.136)">
          <path id="Path_142268" data-name="Path 142268" d="M-901.212,1586.116h-6.741a.562.562,0,0,1-.562-.562.562.562,0,0,1,.562-.562h6.741a.562.562,0,0,1,.562.562A.562.562,0,0,1-901.212,1586.116Z" transform="translate(908.515 -1584.993)" fill="#12263f"/>
        </g>
      </g>
      <g id="Group_96359" data-name="Group 96359" transform="translate(10.56 4.108)">
        <path id="Path_142269" data-name="Path 142269" d="M-1031.352,1586.116h-67.758a.562.562,0,0,1-.562-.562.562.562,0,0,1,.562-.562h67.758a.562.562,0,0,1,.562.562A.562.562,0,0,1-1031.352,1586.116Z" transform="translate(1099.672 -1584.993)" fill="#12263f"/>
      </g>
      <g id="Group_96360" data-name="Group 96360">
        <path id="Path_142270" data-name="Path 142270" d="M-1038.435,1575.144h-88.877a.562.562,0,0,1-.562-.562.562.562,0,0,1,.562-.562h88.877a.562.562,0,0,1,.562.562A.562.562,0,0,1-1038.435,1575.144Z" transform="translate(1127.873 -1574.021)" fill="#12263f"/>
      </g>
    </g>
  </g>
</svg>
