<svg xmlns="http://www.w3.org/2000/svg" width="181" height="182" viewBox="0 0 181 182">
  <g id="t1-ic5" transform="translate(-1028 -2456)">
    <ellipse id="Ellipse_4214" data-name="Ellipse 4214" cx="90.5" cy="91" rx="90.5" ry="91" transform="translate(1028 2456)" fill="#fff"/>
    <g id="Group_96714" data-name="Group 96714" transform="translate(1681.853 1839.977)">
      <g id="Group_96664" data-name="Group 96664" transform="translate(-583.86 655.023)">
        <path id="Path_142416" data-name="Path 142416" d="M-536.186,681c.148.413.315.81.5,1.2l-3.7,3.7,7.269,7.269,3.7-3.7c.393.183.794.35,1.2.5v5.23h10.277v-5.23c.409-.148.809-.315,1.2-.5l3.7,3.7,7.269-7.269-3.7-3.7c.183-.393.35-.79.5-1.2h5.23V670.722h-5.23c-.148-.409-.315-.809-.5-1.2l3.7-3.7-7.269-7.269-3.7,3.7c-.393-.183-.794-.354-1.2-.5v-5.226h-10.277v5.226c-.409.148-.81.319-1.2.5l-3.7-3.7-7.269,7.269,3.7,3.7c-.183.393-.35.794-.5,1.2h-5.227V681Z" transform="translate(542.125 -655.813)" fill="#4dd0e1"/>
        <g id="Group_96661" data-name="Group 96661" transform="translate(0.712 2.741)">
          <path id="Path_142417" data-name="Path 142417" d="M-529.739,709.291c-.183-.393-.35-.79-.5-1.2h-3.7c.148.413.315.81.5,1.2l-3.7,3.7,7.269,7.269,1.853-1.853-5.417-5.416Z" transform="translate(539.168 -685.643)" fill="#039be5"/>
          <rect id="Rectangle_8595" data-name="Rectangle 8595" width="3.705" height="10.277" transform="translate(0 12.168)" fill="#039be5"/>
          <path id="Path_142418" data-name="Path 142418" d="M-529.739,671.764l-3.7-3.7,5.416-5.416-1.852-1.853-7.269,7.269,3.7,3.7c-.183.393-.35.794-.5,1.2h3.7C-530.089,672.557-529.922,672.157-529.739,671.764Z" transform="translate(539.168 -660.798)" fill="#039be5"/>
        </g>
        <circle id="Ellipse_4364" data-name="Ellipse 4364" cx="6.545" cy="6.545" r="6.545" transform="translate(13.504 13.504)" fill="#9e9e9e"/>
        <g id="Group_96662" data-name="Group 96662" transform="translate(0)">
          <path id="Path_142419" data-name="Path 142419" d="M-517.725,695.12H-528a.712.712,0,0,1-.712-.712V689.67q-.165-.067-.333-.14l-3.351,3.351a.712.712,0,0,1-1.007,0l-7.268-7.268a.71.71,0,0,1-.209-.5.71.71,0,0,1,.209-.5l3.351-3.351c-.048-.112-.095-.223-.14-.333H-542.2a.712.712,0,0,1-.712-.712V669.932a.712.712,0,0,1,.712-.712h4.738q.067-.166.139-.333l-3.351-3.352a.712.712,0,0,1,0-1.007l7.268-7.268a.712.712,0,0,1,1.007,0l3.351,3.351q.168-.073.333-.14v-4.738a.712.712,0,0,1,.712-.712h10.279a.712.712,0,0,1,.712.712v4.738q.165.067.333.14l3.351-3.351a.712.712,0,0,1,1.007,0l7.268,7.268a.712.712,0,0,1,0,1.007l-3.351,3.352q.072.167.139.333h4.738a.712.712,0,0,1,.712.712v10.279a.712.712,0,0,1-.712.712h-4.738c-.045.11-.091.221-.14.333l3.351,3.351a.71.71,0,0,1,.209.5.71.71,0,0,1-.209.5l-7.268,7.268a.711.711,0,0,1-1.007,0l-3.351-3.351q-.167.073-.333.14v4.738A.712.712,0,0,1-517.725,695.12Zm-9.567-1.424h8.855v-4.515a.712.712,0,0,1,.468-.669c.374-.136.748-.292,1.144-.477a.713.713,0,0,1,.8.141l3.2,3.2,6.261-6.261-3.195-3.195a.711.711,0,0,1-.142-.8c.186-.4.342-.772.477-1.145a.712.712,0,0,1,.669-.468h4.515v-8.855h-4.515a.712.712,0,0,1-.669-.468c-.136-.373-.292-.747-.477-1.144a.712.712,0,0,1,.142-.8l3.2-3.2-6.261-6.261-3.2,3.2a.71.71,0,0,1-.8.142c-.4-.185-.77-.341-1.144-.477a.713.713,0,0,1-.468-.669v-4.515h-8.855v4.515a.713.713,0,0,1-.468.669c-.374.136-.748.292-1.144.477a.713.713,0,0,1-.8-.142l-3.2-3.2-6.261,6.261,3.2,3.2a.712.712,0,0,1,.142.8c-.185.4-.341.771-.478,1.144a.712.712,0,0,1-.669.468h-4.515V679.5h4.515a.712.712,0,0,1,.669.468c.136.373.292.747.478,1.145a.711.711,0,0,1-.142.8l-3.195,3.195,6.261,6.261,3.2-3.2a.712.712,0,0,1,.8-.141c.4.185.77.341,1.144.477a.712.712,0,0,1,.468.669Z" transform="translate(542.913 -655.023)" fill="#12263f"/>
        </g>
        <g id="Group_96663" data-name="Group 96663" transform="translate(12.792 12.792)">
          <path id="Path_142420" data-name="Path 142420" d="M-508.7,696.487a7.264,7.264,0,0,1-7.257-7.257,7.264,7.264,0,0,1,7.257-7.257,7.264,7.264,0,0,1,7.256,7.257A7.264,7.264,0,0,1-508.7,696.487Zm0-13.089a5.839,5.839,0,0,0-5.833,5.833,5.839,5.839,0,0,0,5.833,5.833,5.839,5.839,0,0,0,5.832-5.833A5.839,5.839,0,0,0-508.7,683.4Z" transform="translate(515.961 -681.974)" fill="#12263f"/>
        </g>
      </g>
      <rect id="Rectangle_8596" data-name="Rectangle 8596" width="56.165" height="22.251" rx="5" transform="translate(-591.894 676.36)" fill="#ffca28"/>
      <g id="Group_96665" data-name="Group 96665" transform="translate(-592.606 675.648)">
        <path id="Path_142421" data-name="Path 142421" d="M-506.836,722.153h-51.418a3.089,3.089,0,0,1-3.085-3.085v-17.5a3.089,3.089,0,0,1,3.085-3.085h51.418a3.089,3.089,0,0,1,3.085,3.085v17.5A3.089,3.089,0,0,1-506.836,722.153ZM-558.254,699.9a1.663,1.663,0,0,0-1.661,1.661v17.5a1.663,1.663,0,0,0,1.661,1.661h51.418a1.663,1.663,0,0,0,1.661-1.661v-17.5a1.663,1.663,0,0,0-1.661-1.661Z" transform="translate(561.339 -698.478)" fill="#12263f"/>
      </g>
      <g id="Group_96673" data-name="Group 96673" transform="translate(-619.151 678.546)">
        <g id="Group_96669" data-name="Group 96669" transform="translate(2.571 2.571)">
          <g id="Group_96666" data-name="Group 96666" transform="translate(9.696)">
            <path id="Path_142422" data-name="Path 142422" d="M-576.432,711.425H-590.71a.712.712,0,0,1-.712-.712.712.712,0,0,1,.712-.712h14.278a.712.712,0,0,1,.712.712A.712.712,0,0,1-576.432,711.425Z" transform="translate(591.422 -710.001)" fill="#12263f"/>
          </g>
          <g id="Group_96667" data-name="Group 96667" transform="translate(0 5.656)">
            <path id="Path_142423" data-name="Path 142423" d="M-587.165,723.341h-23.975a.712.712,0,0,1-.712-.712.712.712,0,0,1,.712-.712h23.975a.712.712,0,0,1,.712.712A.712.712,0,0,1-587.165,723.341Z" transform="translate(611.851 -721.917)" fill="#12263f"/>
          </g>
          <g id="Group_96668" data-name="Group 96668" transform="translate(9.696 11.312)">
            <path id="Path_142424" data-name="Path 142424" d="M-576.432,735.258H-590.71a.712.712,0,0,1-.712-.712.712.712,0,0,1,.712-.712h14.278a.712.712,0,0,1,.712.712A.712.712,0,0,1-576.432,735.258Z" transform="translate(591.422 -733.834)" fill="#12263f"/>
          </g>
        </g>
        <circle id="Ellipse_4365" data-name="Ellipse 4365" cx="2.571" cy="2.571" r="2.571" transform="translate(10.128 0.712)" fill="#4dd0e1"/>
        <circle id="Ellipse_4366" data-name="Ellipse 4366" cx="2.571" cy="2.571" r="2.571" transform="translate(10.128 12.024)" fill="#4dd0e1"/>
        <circle id="Ellipse_4367" data-name="Ellipse 4367" cx="2.571" cy="2.571" r="2.571" transform="translate(0.712 6.368)" fill="#4dd0e1"/>
        <g id="Group_96670" data-name="Group 96670" transform="translate(9.417)">
          <path id="Path_142425" data-name="Path 142425" d="M-594.145,711.15a3.286,3.286,0,0,1-3.283-3.283,3.286,3.286,0,0,1,3.283-3.283,3.287,3.287,0,0,1,3.283,3.283A3.286,3.286,0,0,1-594.145,711.15Zm0-5.142A1.861,1.861,0,0,0-596,707.867a1.861,1.861,0,0,0,1.859,1.859,1.861,1.861,0,0,0,1.859-1.859A1.861,1.861,0,0,0-594.145,706.008Z" transform="translate(597.428 -704.584)" fill="#12263f"/>
        </g>
        <g id="Group_96671" data-name="Group 96671" transform="translate(9.417 11.312)">
          <path id="Path_142426" data-name="Path 142426" d="M-594.145,734.983a3.286,3.286,0,0,1-3.283-3.283,3.286,3.286,0,0,1,3.283-3.283,3.287,3.287,0,0,1,3.283,3.283A3.287,3.287,0,0,1-594.145,734.983Zm0-5.142A1.861,1.861,0,0,0-596,731.7a1.861,1.861,0,0,0,1.859,1.859,1.861,1.861,0,0,0,1.859-1.859A1.861,1.861,0,0,0-594.145,729.841Z" transform="translate(597.428 -728.417)" fill="#12263f"/>
        </g>
        <g id="Group_96672" data-name="Group 96672" transform="translate(0 5.656)">
          <path id="Path_142427" data-name="Path 142427" d="M-613.985,723.067a3.286,3.286,0,0,1-3.283-3.283,3.287,3.287,0,0,1,3.283-3.283,3.287,3.287,0,0,1,3.283,3.283A3.286,3.286,0,0,1-613.985,723.067Zm0-5.142a1.861,1.861,0,0,0-1.859,1.859,1.861,1.861,0,0,0,1.859,1.859,1.861,1.861,0,0,0,1.859-1.859A1.861,1.861,0,0,0-613.985,717.925Z" transform="translate(617.268 -716.501)" fill="#12263f"/>
        </g>
      </g>
      <g id="Group_96681" data-name="Group 96681" transform="translate(-536.442 678.546)">
        <g id="Group_96677" data-name="Group 96677" transform="translate(0 2.571)">
          <g id="Group_96674" data-name="Group 96674">
            <path id="Path_142428" data-name="Path 142428" d="M-428.015,711.425h-14.279a.712.712,0,0,1-.712-.712.712.712,0,0,1,.712-.712h14.279a.712.712,0,0,1,.712.712A.712.712,0,0,1-428.015,711.425Z" transform="translate(443.006 -710.001)" fill="#12263f"/>
          </g>
          <g id="Group_96675" data-name="Group 96675" transform="translate(0 5.656)">
            <path id="Path_142429" data-name="Path 142429" d="M-418.32,723.341h-23.975a.712.712,0,0,1-.712-.712.712.712,0,0,1,.712-.712h23.975a.712.712,0,0,1,.712.712A.712.712,0,0,1-418.32,723.341Z" transform="translate(443.006 -721.917)" fill="#12263f"/>
          </g>
          <g id="Group_96676" data-name="Group 96676" transform="translate(0 11.312)">
            <path id="Path_142430" data-name="Path 142430" d="M-428.015,735.258h-14.279a.712.712,0,0,1-.712-.712.712.712,0,0,1,.712-.712h14.279a.712.712,0,0,1,.712.712A.712.712,0,0,1-428.015,735.258Z" transform="translate(443.006 -733.834)" fill="#12263f"/>
          </g>
        </g>
        <circle id="Ellipse_4368" data-name="Ellipse 4368" cx="2.571" cy="2.571" r="2.571" transform="translate(12.699 0.712)" fill="#4dd0e1"/>
        <circle id="Ellipse_4369" data-name="Ellipse 4369" cx="2.571" cy="2.571" r="2.571" transform="translate(12.699 12.024)" fill="#4dd0e1"/>
        <circle id="Ellipse_4370" data-name="Ellipse 4370" cx="2.571" cy="2.571" r="2.571" transform="translate(22.116 6.368)" fill="#4dd0e1"/>
        <g id="Group_96678" data-name="Group 96678" transform="translate(11.987)">
          <path id="Path_142431" data-name="Path 142431" d="M-414.467,711.15a3.286,3.286,0,0,1-3.283-3.283,3.287,3.287,0,0,1,3.283-3.283,3.286,3.286,0,0,1,3.283,3.283A3.286,3.286,0,0,1-414.467,711.15Zm0-5.142a1.861,1.861,0,0,0-1.859,1.859,1.861,1.861,0,0,0,1.859,1.859,1.861,1.861,0,0,0,1.859-1.859A1.861,1.861,0,0,0-414.467,706.008Z" transform="translate(417.75 -704.584)" fill="#12263f"/>
        </g>
        <g id="Group_96679" data-name="Group 96679" transform="translate(11.987 11.312)">
          <path id="Path_142432" data-name="Path 142432" d="M-414.467,734.983a3.286,3.286,0,0,1-3.283-3.283,3.287,3.287,0,0,1,3.283-3.283,3.286,3.286,0,0,1,3.283,3.283A3.286,3.286,0,0,1-414.467,734.983Zm0-5.142a1.861,1.861,0,0,0-1.859,1.859,1.861,1.861,0,0,0,1.859,1.859,1.861,1.861,0,0,0,1.859-1.859A1.861,1.861,0,0,0-414.467,729.841Z" transform="translate(417.75 -728.417)" fill="#12263f"/>
        </g>
        <g id="Group_96680" data-name="Group 96680" transform="translate(21.403 5.656)">
          <path id="Path_142433" data-name="Path 142433" d="M-394.628,723.067a3.286,3.286,0,0,1-3.283-3.283,3.287,3.287,0,0,1,3.283-3.283,3.287,3.287,0,0,1,3.283,3.283A3.286,3.286,0,0,1-394.628,723.067Zm0-5.142a1.861,1.861,0,0,0-1.859,1.859,1.861,1.861,0,0,0,1.859,1.859,1.861,1.861,0,0,0,1.859-1.859A1.861,1.861,0,0,0-394.628,717.925Z" transform="translate(397.911 -716.501)" fill="#12263f"/>
        </g>
      </g>
      <g id="Group_96687" data-name="Group 96687" transform="translate(-620.853 763.391)">
        <g id="Group_96684" data-name="Group 96684" transform="translate(0 5.208)">
          <g id="Group_96682" data-name="Group 96682">
            <path id="Path_142434" data-name="Path 142434" d="M-611.6,895.741h-8.545a.712.712,0,0,1-.712-.712.712.712,0,0,1,.712-.712h8.545a.712.712,0,0,1,.712.712A.712.712,0,0,1-611.6,895.741Z" transform="translate(620.853 -894.317)" fill="#12263f"/>
          </g>
          <g id="Group_96683" data-name="Group 96683" transform="translate(104.113)">
            <path id="Path_142435" data-name="Path 142435" d="M-392.239,895.741h-8.545a.712.712,0,0,1-.712-.712.712.712,0,0,1,.712-.712h8.545a.712.712,0,0,1,.712.712A.712.712,0,0,1-392.239,895.741Z" transform="translate(401.496 -894.317)" fill="#12263f"/>
          </g>
        </g>
        <g id="Group_96685" data-name="Group 96685" transform="translate(13.385 5.208)">
          <path id="Path_142436" data-name="Path 142436" d="M-506.051,895.741H-591.94a.712.712,0,0,1-.712-.712.712.712,0,0,1,.712-.712h85.889a.712.712,0,0,1,.712.712A.712.712,0,0,1-506.051,895.741Z" transform="translate(592.652 -894.317)" fill="#12263f"/>
        </g>
        <g id="Group_96686" data-name="Group 96686" transform="translate(0 0)">
          <path id="Path_142437" data-name="Path 142437" d="M-507.483,884.768H-620.141a.712.712,0,0,1-.712-.712.712.712,0,0,1,.712-.712h112.659a.712.712,0,0,1,.712.712A.712.712,0,0,1-507.483,884.768Z" transform="translate(620.853 -883.344)" fill="#12263f"/>
        </g>
      </g>
      <g id="Group_96712" data-name="Group 96712" transform="translate(-598.038 702.028)">
        <g id="Group_96688" data-name="Group 96688" transform="translate(0.712 21.166)">
          <rect id="Rectangle_8597" data-name="Rectangle 8597" width="67.028" height="20.454" rx="4.919" fill="#cecece"/>
        </g>
        <g id="Group_96689" data-name="Group 96689" transform="translate(0.712 41.621)">
          <rect id="Rectangle_8598" data-name="Rectangle 8598" width="67.028" height="20.454" rx="4.919" fill="#cecece"/>
        </g>
        <g id="Group_96690" data-name="Group 96690" transform="translate(0.712 0.712)">
          <rect id="Rectangle_8599" data-name="Rectangle 8599" width="67.028" height="20.454" rx="4.919" fill="#cecece"/>
        </g>
        <g id="Group_96691" data-name="Group 96691" transform="translate(0.712 0.712)">
          <path id="Path_142438" data-name="Path 142438" d="M-567.472,774.6v-17.64a1.408,1.408,0,0,1,1.407-1.407h-3.811a1.408,1.408,0,0,0-1.407,1.407V774.6a1.407,1.407,0,0,0,1.407,1.407h3.811A1.407,1.407,0,0,1-567.472,774.6Z" transform="translate(571.283 -755.558)" fill="#9e9e9e"/>
        </g>
        <g id="Group_96692" data-name="Group 96692" transform="translate(62.521 0.712)">
          <path id="Path_142439" data-name="Path 142439" d="M-439.65,774.6v-17.64a1.408,1.408,0,0,0-1.407-1.407h3.811a1.407,1.407,0,0,1,1.407,1.407V774.6a1.407,1.407,0,0,1-1.407,1.407h-3.811A1.407,1.407,0,0,0-439.65,774.6Z" transform="translate(441.057 -755.558)" fill="#e2e2e2"/>
        </g>
        <g id="Group_96693" data-name="Group 96693" transform="translate(62.521 21.167)">
          <path id="Path_142440" data-name="Path 142440" d="M-439.65,817.7V800.061a1.407,1.407,0,0,0-1.407-1.407h3.811a1.407,1.407,0,0,1,1.407,1.407V817.7a1.408,1.408,0,0,1-1.407,1.408h-3.811A1.408,1.408,0,0,0-439.65,817.7Z" transform="translate(441.057 -798.654)" fill="#e2e2e2"/>
        </g>
        <g id="Group_96694" data-name="Group 96694" transform="translate(62.521 41.621)">
          <path id="Path_142441" data-name="Path 142441" d="M-439.65,860.8v-17.64a1.407,1.407,0,0,0-1.407-1.407h3.811a1.407,1.407,0,0,1,1.407,1.407V860.8a1.408,1.408,0,0,1-1.407,1.407h-3.811A1.408,1.408,0,0,0-439.65,860.8Z" transform="translate(441.057 -841.749)" fill="#e2e2e2"/>
        </g>
        <g id="Group_96695" data-name="Group 96695" transform="translate(0.712 21.167)">
          <path id="Path_142442" data-name="Path 142442" d="M-567.472,817.7V800.061a1.407,1.407,0,0,1,1.407-1.407h-3.811a1.407,1.407,0,0,0-1.407,1.407V817.7a1.408,1.408,0,0,0,1.407,1.408h3.811A1.408,1.408,0,0,1-567.472,817.7Z" transform="translate(571.283 -798.654)" fill="#9e9e9e"/>
        </g>
        <g id="Group_96696" data-name="Group 96696" transform="translate(0.712 41.621)">
          <path id="Path_142443" data-name="Path 142443" d="M-567.472,860.8v-17.64a1.407,1.407,0,0,1,1.407-1.407h-3.811a1.407,1.407,0,0,0-1.407,1.407V860.8a1.408,1.408,0,0,0,1.407,1.407h3.811A1.408,1.408,0,0,1-567.472,860.8Z" transform="translate(571.283 -841.749)" fill="#9e9e9e"/>
        </g>
        <g id="Group_96698" data-name="Group 96698" transform="translate(0)">
          <g id="Group_96697" data-name="Group 96697">
            <path id="Path_142444" data-name="Path 142444" d="M-507.378,775.937h-62.358a3.05,3.05,0,0,1-3.047-3.047V757.1a3.05,3.05,0,0,1,3.047-3.047h62.358a3.05,3.05,0,0,1,3.047,3.047V772.89A3.05,3.05,0,0,1-507.378,775.937Zm-62.358-20.455a1.625,1.625,0,0,0-1.623,1.623V772.89a1.625,1.625,0,0,0,1.623,1.623h62.358a1.625,1.625,0,0,0,1.623-1.623V757.1a1.625,1.625,0,0,0-1.623-1.623Z" transform="translate(572.783 -754.058)" fill="#12263f"/>
          </g>
        </g>
        <g id="Group_96700" data-name="Group 96700" transform="translate(0 20.455)">
          <g id="Group_96699" data-name="Group 96699">
            <path id="Path_142445" data-name="Path 142445" d="M-507.378,819.032h-62.358a3.05,3.05,0,0,1-3.047-3.046V800.2a3.05,3.05,0,0,1,3.047-3.047h62.358a3.05,3.05,0,0,1,3.047,3.047v15.785A3.05,3.05,0,0,1-507.378,819.032Zm-62.358-20.454a1.625,1.625,0,0,0-1.623,1.623v15.785a1.624,1.624,0,0,0,1.623,1.622h62.358a1.624,1.624,0,0,0,1.623-1.622V800.2a1.625,1.625,0,0,0-1.623-1.623Z" transform="translate(572.783 -797.154)" fill="#12263f"/>
          </g>
        </g>
        <g id="Group_96702" data-name="Group 96702" transform="translate(0 40.908)">
          <g id="Group_96701" data-name="Group 96701">
            <path id="Path_142446" data-name="Path 142446" d="M-507.378,862.127h-62.358a3.05,3.05,0,0,1-3.047-3.047V843.295a3.05,3.05,0,0,1,3.047-3.047h62.358a3.05,3.05,0,0,1,3.047,3.047V859.08A3.05,3.05,0,0,1-507.378,862.127Zm-62.358-20.455a1.625,1.625,0,0,0-1.623,1.623V859.08a1.625,1.625,0,0,0,1.623,1.623h62.358a1.625,1.625,0,0,0,1.623-1.623V843.295a1.625,1.625,0,0,0-1.623-1.623Z" transform="translate(572.783 -840.248)" fill="#12263f"/>
          </g>
        </g>
        <rect id="Rectangle_8600" data-name="Rectangle 8600" width="38.857" height="4.405" rx="2.203" transform="translate(6.914 8.737)" fill="#ffca28"/>
        <rect id="Rectangle_8601" data-name="Rectangle 8601" width="38.857" height="4.405" rx="2.203" transform="translate(6.914 29.191)" fill="#ffca28"/>
        <rect id="Rectangle_8602" data-name="Rectangle 8602" width="38.857" height="4.405" rx="2.203" transform="translate(6.914 49.645)" fill="#ffca28"/>
        <g id="Group_96703" data-name="Group 96703" transform="translate(6.202 8.025)">
          <path id="Path_142447" data-name="Path 142447" d="M-521.294,776.794h-36.564a1.86,1.86,0,0,1-1.858-1.858v-2.113a1.86,1.86,0,0,1,1.858-1.858h36.564a1.86,1.86,0,0,1,1.858,1.858v2.113A1.86,1.86,0,0,1-521.294,776.794Zm-36.564-4.4a.44.44,0,0,0-.434.434v2.113a.44.44,0,0,0,.434.434h36.564a.44.44,0,0,0,.434-.434v-2.113a.44.44,0,0,0-.434-.434Z" transform="translate(559.716 -770.965)" fill="#12263f"/>
        </g>
        <g id="Group_96704" data-name="Group 96704" transform="translate(6.202 28.479)">
          <path id="Path_142448" data-name="Path 142448" d="M-521.294,819.889h-36.564a1.86,1.86,0,0,1-1.858-1.858v-2.113a1.86,1.86,0,0,1,1.858-1.858h36.564a1.86,1.86,0,0,1,1.858,1.858v2.113A1.86,1.86,0,0,1-521.294,819.889Zm-36.564-4.4a.44.44,0,0,0-.434.434v2.113a.44.44,0,0,0,.434.434h36.564a.44.44,0,0,0,.434-.434v-2.113a.435.435,0,0,0-.434-.434Z" transform="translate(559.716 -814.061)" fill="#12263f"/>
        </g>
        <g id="Group_96705" data-name="Group 96705" transform="translate(6.202 48.933)">
          <path id="Path_142449" data-name="Path 142449" d="M-521.294,862.985h-36.564a1.86,1.86,0,0,1-1.858-1.858v-2.113a1.86,1.86,0,0,1,1.858-1.858h36.564a1.86,1.86,0,0,1,1.858,1.858v2.113A1.86,1.86,0,0,1-521.294,862.985Zm-36.564-4.405a.44.44,0,0,0-.434.434v2.113a.44.44,0,0,0,.434.434h36.564a.44.44,0,0,0,.434-.434v-2.113a.44.44,0,0,0-.434-.434Z" transform="translate(559.716 -857.156)" fill="#12263f"/>
        </g>
        <g id="Group_96707" data-name="Group 96707" transform="translate(54.44 8.025)">
          <rect id="Rectangle_8603" data-name="Rectangle 8603" width="4.405" height="4.405" rx="2.203" transform="translate(0.712 0.712)" fill="#ffca28"/>
          <g id="Group_96706" data-name="Group 96706">
            <path id="Path_142450" data-name="Path 142450" d="M-454.112,776.794h-2.113a1.86,1.86,0,0,1-1.858-1.858v-2.113a1.86,1.86,0,0,1,1.858-1.858h2.113a1.86,1.86,0,0,1,1.858,1.858v2.113A1.86,1.86,0,0,1-454.112,776.794Zm-2.113-4.4a.44.44,0,0,0-.434.434v2.113a.44.44,0,0,0,.434.434h2.113a.44.44,0,0,0,.434-.434v-2.113a.44.44,0,0,0-.434-.434Z" transform="translate(458.083 -770.965)" fill="#12263f"/>
          </g>
        </g>
        <g id="Group_96709" data-name="Group 96709" transform="translate(54.44 28.479)">
          <rect id="Rectangle_8604" data-name="Rectangle 8604" width="4.405" height="4.405" rx="2.203" transform="translate(0.712 0.712)" fill="#ffca28"/>
          <g id="Group_96708" data-name="Group 96708">
            <path id="Path_142451" data-name="Path 142451" d="M-454.112,819.889h-2.113a1.86,1.86,0,0,1-1.858-1.858v-2.113a1.86,1.86,0,0,1,1.858-1.858h2.113a1.86,1.86,0,0,1,1.858,1.858v2.113A1.86,1.86,0,0,1-454.112,819.889Zm-2.113-4.4a.434.434,0,0,0-.434.434v2.113a.44.44,0,0,0,.434.434h2.113a.44.44,0,0,0,.434-.434v-2.113a.435.435,0,0,0-.434-.434Z" transform="translate(458.083 -814.061)" fill="#12263f"/>
          </g>
        </g>
        <g id="Group_96711" data-name="Group 96711" transform="translate(54.44 48.933)">
          <rect id="Rectangle_8605" data-name="Rectangle 8605" width="4.405" height="4.405" rx="2.203" transform="translate(0.712 0.712)" fill="#ffca28"/>
          <g id="Group_96710" data-name="Group 96710">
            <path id="Path_142452" data-name="Path 142452" d="M-454.112,862.985h-2.113a1.86,1.86,0,0,1-1.858-1.858v-2.113a1.86,1.86,0,0,1,1.858-1.858h2.113a1.86,1.86,0,0,1,1.858,1.858v2.113A1.86,1.86,0,0,1-454.112,862.985Zm-2.113-4.405a.44.44,0,0,0-.434.434v2.113a.44.44,0,0,0,.434.434h2.113a.44.44,0,0,0,.434-.434v-2.113a.44.44,0,0,0-.434-.434Z" transform="translate(458.083 -857.156)" fill="#12263f"/>
          </g>
        </g>
      </g>
      <g id="Group_96713" data-name="Group 96713" transform="translate(-581.995 681.276)">
        <path id="Path_142453" data-name="Path 142453" d="M-530.518,722.772h-2.354v-5h-3.747v5h-2.363V710.7h2.363v5.189h3.747V710.7h2.354Z" transform="translate(538.982 -710.529)" fill="#12263f"/>
        <path id="Path_142454" data-name="Path 142454" d="M-512.426,720.194h-3.183l-.647,2.578h-2.379l3.4-12.069h2.453l3.39,12.069h-2.379Zm-2.7-1.881h2.221l-1.086-4.269h-.05Z" transform="translate(528.292 -710.529)" fill="#12263f"/>
        <path id="Path_142455" data-name="Path 142455" d="M-490.142,718.692l.025.05a4.147,4.147,0,0,1-.945,3,3.731,3.731,0,0,1-2.835,1.011,3.987,3.987,0,0,1-2.992-1.148,4.468,4.468,0,0,1-1.119-3.254v-3.606a4.581,4.581,0,0,1,1.082-3.254,3.776,3.776,0,0,1,2.9-1.157,3.834,3.834,0,0,1,2.905,1.028,4.354,4.354,0,0,1,1.016,3.042l-.025.049h-2.271a2.816,2.816,0,0,0-.323-1.714,1.489,1.489,0,0,0-1.3-.524,1.383,1.383,0,0,0-1.218.622,3.38,3.38,0,0,0-.423,1.884v3.625a3.241,3.241,0,0,0,.452,1.9,1.529,1.529,0,0,0,1.322.622,1.336,1.336,0,0,0,1.19-.493,2.949,2.949,0,0,0,.294-1.687Z" transform="translate(517.456 -710.336)" fill="#12263f"/>
        <path id="Path_142456" data-name="Path 142456" d="M-471.141,718.692l.025.05a4.149,4.149,0,0,1-.945,3,3.732,3.732,0,0,1-2.835,1.011,3.989,3.989,0,0,1-2.992-1.148,4.47,4.47,0,0,1-1.119-3.254v-3.606a4.579,4.579,0,0,1,1.082-3.254,3.776,3.776,0,0,1,2.9-1.157,3.835,3.835,0,0,1,2.905,1.028,4.355,4.355,0,0,1,1.016,3.042l-.025.049H-473.4a2.816,2.816,0,0,0-.323-1.714,1.489,1.489,0,0,0-1.3-.524,1.384,1.384,0,0,0-1.219.622,3.385,3.385,0,0,0-.422,1.884v3.625a3.241,3.241,0,0,0,.452,1.9,1.53,1.53,0,0,0,1.322.622,1.335,1.335,0,0,0,1.189-.493,2.941,2.941,0,0,0,.294-1.687Z" transform="translate(507.473 -710.336)" fill="#12263f"/>
      </g>
    </g>
  </g>
</svg>
