<svg xmlns="http://www.w3.org/2000/svg" width="90" height="87.024" viewBox="0 0 90 87.024">
  <g id="t1-ic6" transform="translate(1546.061 -1062.719)">
    <g id="Group_96425" data-name="Group 96425" transform="translate(-1546.061 1144.511)">
      <g id="Group_96422" data-name="Group 96422" transform="translate(0 4.109)">
        <g id="Group_96420" data-name="Group 96420">
          <path id="Path_142298" data-name="Path 142298" d="M-1538.758,1293.254h-6.741a.562.562,0,0,1-.562-.562.562.562,0,0,1,.562-.562h6.741a.562.562,0,0,1,.562.562A.562.562,0,0,1-1538.758,1293.254Z" transform="translate(1546.061 -1292.131)" fill="#12263f"/>
        </g>
        <g id="Group_96421" data-name="Group 96421" transform="translate(82.136)">
          <path id="Path_142299" data-name="Path 142299" d="M-1319.4,1293.254h-6.741a.562.562,0,0,1-.562-.562.562.562,0,0,1,.562-.562h6.741a.562.562,0,0,1,.562.562A.562.562,0,0,1-1319.4,1293.254Z" transform="translate(1326.704 -1292.131)" fill="#12263f"/>
        </g>
      </g>
      <g id="Group_96423" data-name="Group 96423" transform="translate(10.56 4.109)">
        <path id="Path_142300" data-name="Path 142300" d="M-1449.54,1293.254H-1517.3a.562.562,0,0,1-.562-.562.562.562,0,0,1,.562-.562h67.758a.562.562,0,0,1,.562.562A.562.562,0,0,1-1449.54,1293.254Z" transform="translate(1517.86 -1292.131)" fill="#12263f"/>
      </g>
      <g id="Group_96424" data-name="Group 96424" transform="translate(0 0)">
        <path id="Path_142301" data-name="Path 142301" d="M-1456.623,1282.281H-1545.5a.562.562,0,0,1-.562-.562.562.562,0,0,1,.562-.562h88.877a.562.562,0,0,1,.562.562A.562.562,0,0,1-1456.623,1282.281Z" transform="translate(1546.061 -1281.158)" fill="#12263f"/>
      </g>
    </g>
    <g id="Group_96453" data-name="Group 96453" transform="translate(-1527.55 1094.395)">
      <g id="Group_96427" data-name="Group 96427" transform="translate(0.562 17.267)">
        <g id="Group_96426" data-name="Group 96426">
          <rect id="Rectangle_8524" data-name="Rectangle 8524" width="48.99" height="16.705" rx="2" fill="#afafaf"/>
        </g>
      </g>
      <g id="Group_96429" data-name="Group 96429" transform="translate(0.562 33.972)">
        <g id="Group_96428" data-name="Group 96428">
          <rect id="Rectangle_8525" data-name="Rectangle 8525" width="48.99" height="16.705" rx="3" fill="#afafaf"/>
        </g>
      </g>
      <g id="Group_96431" data-name="Group 96431" transform="translate(0.562 0.562)">
        <g id="Group_96430" data-name="Group 96430">
          <rect id="Rectangle_8526" data-name="Rectangle 8526" width="48.99" height="16.705" rx="2" fill="#afafaf"/>
        </g>
      </g>
      <g id="Group_96433" data-name="Group 96433" transform="translate(0 0)">
        <g id="Group_96432" data-name="Group 96432">
          <path id="Path_142302" data-name="Path 142302" d="M-1448.913,1165.145h-45.307a2.406,2.406,0,0,1-2.4-2.4V1149.72a2.406,2.406,0,0,1,2.4-2.4h45.307a2.406,2.406,0,0,1,2.4,2.4v13.022A2.406,2.406,0,0,1-1448.913,1165.145Zm-45.307-16.706a1.282,1.282,0,0,0-1.28,1.28v13.022a1.282,1.282,0,0,0,1.28,1.28h45.307a1.282,1.282,0,0,0,1.28-1.28V1149.72a1.282,1.282,0,0,0-1.28-1.28Z" transform="translate(1496.623 -1147.316)" fill="#12263f"/>
        </g>
      </g>
      <g id="Group_96435" data-name="Group 96435" transform="translate(0 16.706)">
        <g id="Group_96434" data-name="Group 96434">
          <path id="Path_142303" data-name="Path 142303" d="M-1448.913,1209.759h-45.307a2.406,2.406,0,0,1-2.4-2.4v-13.021a2.406,2.406,0,0,1,2.4-2.4h45.307a2.406,2.406,0,0,1,2.4,2.4v13.021A2.406,2.406,0,0,1-1448.913,1209.759Zm-45.307-16.7a1.282,1.282,0,0,0-1.28,1.28v13.021a1.282,1.282,0,0,0,1.28,1.28h45.307a1.281,1.281,0,0,0,1.28-1.28v-13.021a1.281,1.281,0,0,0-1.28-1.28Z" transform="translate(1496.623 -1191.931)" fill="#12263f"/>
        </g>
      </g>
      <g id="Group_96437" data-name="Group 96437" transform="translate(0 33.41)">
        <g id="Group_96436" data-name="Group 96436">
          <path id="Path_142304" data-name="Path 142304" d="M-1448.913,1254.372h-45.307a2.406,2.406,0,0,1-2.4-2.4v-13.021a2.406,2.406,0,0,1,2.4-2.4h45.307a2.406,2.406,0,0,1,2.4,2.4v13.021A2.406,2.406,0,0,1-1448.913,1254.372Zm-45.307-16.705a1.282,1.282,0,0,0-1.28,1.28v13.021a1.282,1.282,0,0,0,1.28,1.28h45.307a1.281,1.281,0,0,0,1.28-1.28v-13.021a1.282,1.282,0,0,0-1.28-1.28Z" transform="translate(1496.623 -1236.544)" fill="#12263f"/>
        </g>
      </g>
      <g id="Group_96438" data-name="Group 96438" transform="translate(5.627 7.116)">
        <rect id="Rectangle_8527" data-name="Rectangle 8527" width="25.983" height="3.598" rx="1.799" fill="#ffca28"/>
      </g>
      <g id="Group_96439" data-name="Group 96439" transform="translate(5.627 23.821)">
        <rect id="Rectangle_8528" data-name="Rectangle 8528" width="25.983" height="3.598" rx="1.799" fill="#ffca28"/>
      </g>
      <g id="Group_96440" data-name="Group 96440" transform="translate(5.627 40.526)">
        <rect id="Rectangle_8529" data-name="Rectangle 8529" width="25.983" height="3.598" rx="1.799" fill="#ffca28"/>
      </g>
      <g id="Group_96441" data-name="Group 96441" transform="translate(5.065 6.554)">
        <path id="Path_142305" data-name="Path 142305" d="M-1457.455,1169.54h-24.175a1.468,1.468,0,0,1-1.466-1.466v-1.789a1.468,1.468,0,0,1,1.466-1.466h24.175a1.467,1.467,0,0,1,1.466,1.466v1.789A1.467,1.467,0,0,1-1457.455,1169.54Zm-24.175-3.6a.347.347,0,0,0-.343.343v1.789a.347.347,0,0,0,.343.343h24.175a.347.347,0,0,0,.343-.343v-1.789a.347.347,0,0,0-.343-.343Z" transform="translate(1483.096 -1164.819)" fill="#12263f"/>
      </g>
      <g id="Group_96442" data-name="Group 96442" transform="translate(5.065 23.259)">
        <path id="Path_142306" data-name="Path 142306" d="M-1457.455,1214.155h-24.175a1.468,1.468,0,0,1-1.466-1.466V1210.9a1.467,1.467,0,0,1,1.466-1.466h24.175a1.467,1.467,0,0,1,1.466,1.466v1.789A1.467,1.467,0,0,1-1457.455,1214.155Zm-24.175-3.6a.347.347,0,0,0-.343.343v1.789a.347.347,0,0,0,.343.342h24.175a.347.347,0,0,0,.343-.342V1210.9a.347.347,0,0,0-.343-.343Z" transform="translate(1483.096 -1209.434)" fill="#12263f"/>
      </g>
      <g id="Group_96443" data-name="Group 96443" transform="translate(5.065 39.964)">
        <path id="Path_142307" data-name="Path 142307" d="M-1457.455,1258.768h-24.175a1.468,1.468,0,0,1-1.466-1.466v-1.789a1.468,1.468,0,0,1,1.466-1.466h24.175a1.467,1.467,0,0,1,1.466,1.466v1.789A1.467,1.467,0,0,1-1457.455,1258.768Zm-24.175-3.6a.347.347,0,0,0-.343.343v1.789a.347.347,0,0,0,.343.343h24.175a.347.347,0,0,0,.343-.343v-1.789a.347.347,0,0,0-.343-.343Z" transform="translate(1483.096 -1254.047)" fill="#12263f"/>
      </g>
      <g id="Group_96446" data-name="Group 96446" transform="translate(38.71 6.554)">
        <g id="Group_96444" data-name="Group 96444" transform="translate(0.561 0.562)">
          <rect id="Rectangle_8530" data-name="Rectangle 8530" width="3.598" height="3.598" rx="1.799" fill="#ffca28"/>
        </g>
        <g id="Group_96445" data-name="Group 96445">
          <path id="Path_142308" data-name="Path 142308" d="M-1389.986,1169.54h-1.789a1.467,1.467,0,0,1-1.466-1.466v-1.789a1.467,1.467,0,0,1,1.466-1.466h1.789a1.468,1.468,0,0,1,1.466,1.466v1.789A1.468,1.468,0,0,1-1389.986,1169.54Zm-1.789-3.6a.347.347,0,0,0-.342.343v1.789a.347.347,0,0,0,.342.343h1.789a.347.347,0,0,0,.343-.343v-1.789a.347.347,0,0,0-.343-.343Z" transform="translate(1393.241 -1164.819)" fill="#12263f"/>
        </g>
      </g>
      <g id="Group_96449" data-name="Group 96449" transform="translate(38.71 23.259)">
        <g id="Group_96447" data-name="Group 96447" transform="translate(0.561 0.561)">
          <rect id="Rectangle_8531" data-name="Rectangle 8531" width="3.598" height="3.598" rx="1.799" fill="#ffca28"/>
        </g>
        <g id="Group_96448" data-name="Group 96448">
          <path id="Path_142309" data-name="Path 142309" d="M-1389.986,1214.155h-1.789a1.467,1.467,0,0,1-1.466-1.466V1210.9a1.467,1.467,0,0,1,1.466-1.466h1.789a1.468,1.468,0,0,1,1.466,1.466v1.789A1.468,1.468,0,0,1-1389.986,1214.155Zm-1.789-3.6a.347.347,0,0,0-.342.343v1.789a.347.347,0,0,0,.342.342h1.789a.347.347,0,0,0,.343-.342V1210.9a.347.347,0,0,0-.343-.343Z" transform="translate(1393.241 -1209.434)" fill="#12263f"/>
        </g>
      </g>
      <g id="Group_96452" data-name="Group 96452" transform="translate(38.71 39.964)">
        <g id="Group_96450" data-name="Group 96450" transform="translate(0.561 0.562)">
          <rect id="Rectangle_8532" data-name="Rectangle 8532" width="3.598" height="3.598" rx="1.799" fill="#ffca28"/>
        </g>
        <g id="Group_96451" data-name="Group 96451">
          <path id="Path_142310" data-name="Path 142310" d="M-1389.986,1258.768h-1.789a1.467,1.467,0,0,1-1.466-1.466v-1.789a1.467,1.467,0,0,1,1.466-1.466h1.789a1.468,1.468,0,0,1,1.466,1.466v1.789A1.468,1.468,0,0,1-1389.986,1258.768Zm-1.789-3.6a.347.347,0,0,0-.342.343v1.789a.347.347,0,0,0,.342.343h1.789a.347.347,0,0,0,.343-.343v-1.789a.347.347,0,0,0-.343-.343Z" transform="translate(1393.241 -1254.047)" fill="#12263f"/>
        </g>
      </g>
    </g>
    <g id="Group_96454" data-name="Group 96454" transform="translate(-1521.14 1063.152)">
      <circle id="Ellipse_4353" data-name="Ellipse 4353" cx="18.647" cy="18.647" r="18.647" transform="translate(0 0)" fill="#ffca28"/>
    </g>
    <g id="Group_96456" data-name="Group 96456" transform="translate(-1521.14 1063.152)">
      <g id="Group_96455" data-name="Group 96455" transform="translate(0 0)">
        <path id="Path_142311" data-name="Path 142311" d="M-1476.62,1082.522a18.645,18.645,0,0,1,17.2-18.586c-.477-.036-.957-.061-1.442-.061a18.647,18.647,0,0,0-18.647,18.647,18.647,18.647,0,0,0,18.647,18.647c.486,0,.966-.024,1.442-.061A18.645,18.645,0,0,1-1476.62,1082.522Z" transform="translate(1479.505 -1063.875)" fill="#ffa726"/>
      </g>
    </g>
    <g id="Group_96458" data-name="Group 96458" transform="translate(-1503.935 1063.152)">
      <g id="Group_96457" data-name="Group 96457" transform="translate(0 0)">
        <path id="Path_142312" data-name="Path 142312" d="M-1416.352,1082.522a18.645,18.645,0,0,0-17.2-18.586c.477-.036.957-.061,1.443-.061a18.647,18.647,0,0,1,18.647,18.647,18.647,18.647,0,0,1-18.647,18.647c-.486,0-.966-.024-1.443-.061A18.644,18.644,0,0,0-1416.352,1082.522Z" transform="translate(1433.557 -1063.875)" fill="#ffd34d"/>
      </g>
    </g>
    <g id="Group_96459" data-name="Group 96459" transform="translate(-1521.573 1062.719)">
      <path id="Path_142313" data-name="Path 142313" d="M-1461.581,1100.88a19.1,19.1,0,0,1-19.08-19.08,19.1,19.1,0,0,1,19.08-19.08,19.1,19.1,0,0,1,19.08,19.08A19.1,19.1,0,0,1-1461.581,1100.88Zm0-37.295A18.235,18.235,0,0,0-1479.8,1081.8a18.235,18.235,0,0,0,18.214,18.214,18.235,18.235,0,0,0,18.215-18.214A18.236,18.236,0,0,0-1461.581,1063.585Z" transform="translate(1480.661 -1062.719)" fill="#12263f"/>
    </g>
    <g id="Group_96468" data-name="Group 96468" transform="translate(-1514.164 1070.128)">
      <g id="Group_96460" data-name="Group 96460" transform="translate(9.309 1.346)">
        <path id="Path_142314" data-name="Path 142314" d="M-1424.186,1086.962l-.859-.859-2.11,2.109-.335.784h0l-8.524,8.524,1.269,1.269,8.524-8.524.784-.335,2.11-2.109Z" transform="translate(1436.014 -1086.103)" fill="#cecece"/>
      </g>
      <g id="Group_96461" data-name="Group 96461" transform="translate(8.876 0.913)">
        <path id="Path_142315" data-name="Path 142315" d="M-1435.468,1098.5a.432.432,0,0,1-.306-.127l-1.269-1.269a.433.433,0,0,1-.127-.306.433.433,0,0,1,.127-.306l8.465-8.465.3-.707a.434.434,0,0,1,.092-.136l2.109-2.109a.433.433,0,0,1,.612,0l.859.859h0l.859.859a.432.432,0,0,1,0,.612l-2.11,2.109a.424.424,0,0,1-.136.092l-.707.3-8.465,8.465A.432.432,0,0,1-1435.468,1098.5Zm-.657-1.7.657.657,8.219-8.219a.435.435,0,0,1,.136-.092l.707-.3,1.745-1.744-1.106-1.106-1.745,1.745-.3.707a.424.424,0,0,1-.092.136Z" transform="translate(1437.17 -1084.947)" fill="#12263f"/>
      </g>
      <g id="Group_96462" data-name="Group 96462" transform="translate(0.398 9.632)">
        <rect id="Rectangle_8533" data-name="Rectangle 8533" width="4.566" height="14.26" rx="2.283" transform="translate(10.083) rotate(45)" fill="#afafaf"/>
      </g>
      <g id="Group_96463" data-name="Group 96463" transform="translate(0.726 9.959)">
        <path id="Path_142316" data-name="Path 142316" d="M-1456.034,1121.762a2.258,2.258,0,0,1-1.6-.662l-.638-.638a2.249,2.249,0,0,1-.661-1.6,2.248,2.248,0,0,1,.661-1.6l7.493-7.493a2.267,2.267,0,0,1,3.2,0l.638.639a2.248,2.248,0,0,1,.661,1.6,2.248,2.248,0,0,1-.661,1.6l-7.493,7.493A2.258,2.258,0,0,1-1456.034,1121.762Zm6.854-11.793a1.394,1.394,0,0,0-.989.409l-7.493,7.493a1.39,1.39,0,0,0-.407.989,1.389,1.389,0,0,0,.407.989l.639.638a1.4,1.4,0,0,0,1.978,0l7.493-7.493a1.388,1.388,0,0,0,.407-.989,1.388,1.388,0,0,0-.407-.989h0l-.639-.639A1.393,1.393,0,0,0-1449.18,1109.969Z" transform="translate(1458.935 -1109.104)" fill="#12263f"/>
      </g>
      <g id="Group_96465" data-name="Group 96465" transform="translate(0.433 0.433)">
        <g id="Group_96464" data-name="Group 96464">
          <path id="Path_142317" data-name="Path 142317" d="M-1441.445,1099.172l-11.305-11.305a3.513,3.513,0,0,0-.963-3.173,3.514,3.514,0,0,0-3.173-.963l2.445,2.445a.491.491,0,0,1,.118.5l-.521,1.549a.491.491,0,0,1-.309.309l-1.548.52a.491.491,0,0,1-.5-.118l-2.445-2.445a3.514,3.514,0,0,0,.963,3.173,3.515,3.515,0,0,0,3.173.963l11.305,11.305a3.514,3.514,0,0,0,.963,3.173,3.517,3.517,0,0,0,4.974,0,3.518,3.518,0,0,0,0-4.975A3.514,3.514,0,0,0-1441.445,1099.172Zm2.573,3.955-1.381,1.381-1.887-.505-.505-1.887,1.381-1.381,1.887.505Z" transform="translate(1459.718 -1083.663)" fill="#cecece"/>
        </g>
      </g>
      <g id="Group_96467" data-name="Group 96467" transform="translate(0)">
        <g id="Group_96466" data-name="Group 96466">
          <path id="Path_142318" data-name="Path 142318" d="M-1441.483,1105.849a3.925,3.925,0,0,1-2.793-1.157,3.947,3.947,0,0,1-1.12-3.331l-10.99-10.99a3.944,3.944,0,0,1-3.331-1.12,3.946,3.946,0,0,1-1.081-3.563.433.433,0,0,1,.3-.33.435.435,0,0,1,.432.108l2.445,2.444a.059.059,0,0,0,.061.014l1.548-.521a.06.06,0,0,0,.037-.037l.52-1.548a.057.057,0,0,0-.014-.06l-2.444-2.445a.433.433,0,0,1-.108-.432.433.433,0,0,1,.33-.3,3.947,3.947,0,0,1,3.563,1.081,3.946,3.946,0,0,1,1.12,3.331l10.99,10.991a3.95,3.95,0,0,1,3.331,1.12,3.955,3.955,0,0,1,0,5.587A3.925,3.925,0,0,1-1441.483,1105.849Zm-14.755-16.374a.432.432,0,0,1,.306.127l11.305,11.306a.432.432,0,0,1,.119.39,3.083,3.083,0,0,0,.844,2.783,3.065,3.065,0,0,0,2.181.9,3.065,3.065,0,0,0,2.181-.9,3.088,3.088,0,0,0,0-4.363,3.082,3.082,0,0,0-2.783-.844.436.436,0,0,1-.39-.119l-11.305-11.305a.433.433,0,0,1-.119-.39,3.083,3.083,0,0,0-.844-2.783,3.082,3.082,0,0,0-1.875-.888l1.758,1.758a.919.919,0,0,1,.223.948l-.52,1.548a.929.929,0,0,1-.582.582l-1.548.521a.921.921,0,0,1-.948-.223l-1.758-1.758a3.08,3.08,0,0,0,.888,1.875,3.08,3.08,0,0,0,2.783.844A.428.428,0,0,1-1456.238,1089.475Zm15.261,14.744a.44.44,0,0,1-.112-.015l-1.886-.506a.432.432,0,0,1-.306-.306l-.506-1.887a.433.433,0,0,1,.112-.418l1.381-1.381a.435.435,0,0,1,.418-.112l1.887.506a.432.432,0,0,1,.306.306l.506,1.887a.433.433,0,0,1-.112.418l-1.381,1.381A.433.433,0,0,1-1440.977,1104.218Zm-1.533-1.292,1.4.376,1.028-1.028-.376-1.4-1.4-.376-1.028,1.028Z" transform="translate(1460.875 -1082.507)" fill="#12263f"/>
        </g>
      </g>
    </g>
  </g>
</svg>
