<svg xmlns="http://www.w3.org/2000/svg" width="60" height="60" viewBox="0 0 60 60">
  <g id="t1-ic2" transform="translate(929.841 -978.374)">
    <g id="Group_96648" data-name="Group 96648" transform="translate(-929.161 979.055)">
      <circle id="Ellipse_4363" data-name="Ellipse 4363" cx="29.32" cy="29.32" r="29.32" transform="translate(0 0)" fill="#4dd0e1"/>
    </g>
    <g id="Group_96650" data-name="Group 96650" transform="translate(-929.161 979.055)">
      <g id="Group_96649" data-name="Group 96649" transform="translate(0 0)">
        <path id="Path_142411" data-name="Path 142411" d="M-923.8,1009.194a29.316,29.316,0,0,1,27.051-29.224c-.749-.057-1.5-.1-2.268-.1a29.32,29.32,0,0,0-29.32,29.32,29.32,29.32,0,0,0,29.32,29.32c.764,0,1.519-.039,2.268-.1A29.316,29.316,0,0,1-923.8,1009.194Z" transform="translate(928.341 -979.874)" fill="#039be5"/>
      </g>
    </g>
    <g id="Group_96652" data-name="Group 96652" transform="translate(-902.109 979.055)">
      <g id="Group_96651" data-name="Group 96651" transform="translate(0 0)">
        <path id="Path_142412" data-name="Path 142412" d="M-841.66,1009.194a29.316,29.316,0,0,0-27.051-29.224c.749-.057,1.5-.1,2.268-.1a29.319,29.319,0,0,1,29.319,29.32,29.319,29.319,0,0,1-29.319,29.32c-.764,0-1.519-.039-2.268-.1A29.316,29.316,0,0,0-841.66,1009.194Z" transform="translate(868.711 -979.874)" fill="#7cd5e1"/>
      </g>
    </g>
    <g id="Group_96653" data-name="Group 96653" transform="translate(-929.841 978.374)">
      <path id="Path_142413" data-name="Path 142413" d="M-899.841,1038.375a30.034,30.034,0,0,1-30-30,30.034,30.034,0,0,1,30-30,30.034,30.034,0,0,1,30,30A30.034,30.034,0,0,1-899.841,1038.375Zm0-58.64a28.672,28.672,0,0,0-28.639,28.639,28.672,28.672,0,0,0,28.639,28.639,28.672,28.672,0,0,0,28.639-28.639A28.671,28.671,0,0,0-899.841,979.735Z" transform="translate(929.841 -978.374)" fill="#12263f"/>
    </g>
    <g id="Group_96655" data-name="Group 96655" transform="translate(-919.72 995.121)">
      <g id="Group_96654" data-name="Group 96654" transform="translate(0 0)">
        <path id="Path_142414" data-name="Path 142414" d="M-895.835,1041.8a4.67,4.67,0,0,1-3.568-1.65l-7.016-8.264a4.677,4.677,0,0,1,.539-6.593,4.677,4.677,0,0,1,6.593.538l4.2,4.943,19.875-14.575a4.677,4.677,0,0,1,6.538,1.006,4.678,4.678,0,0,1-1.006,6.538l-23.387,17.151A4.661,4.661,0,0,1-895.835,1041.8Z" transform="translate(907.531 -1015.29)" fill="#ffca28"/>
      </g>
    </g>
    <g id="Group_96657" data-name="Group 96657" transform="translate(-920.398 994.441)">
      <g id="Group_96656" data-name="Group 96656" transform="translate(0 0)">
        <path id="Path_142415" data-name="Path 142415" d="M-896.651,1041.657a5.353,5.353,0,0,1-4.087-1.89l-7.017-8.264a5.365,5.365,0,0,1,.617-7.552,5.327,5.327,0,0,1,3.9-1.256,5.326,5.326,0,0,1,3.648,1.873l3.787,4.46,19.363-14.2a5.336,5.336,0,0,1,3.983-.975,5.322,5.322,0,0,1,3.506,2.128,5.365,5.365,0,0,1-1.152,7.489l-23.387,17.151A5.32,5.32,0,0,1-896.651,1041.657Zm-7.025-17.619a3.963,3.963,0,0,0-2.58.95,4,4,0,0,0-.461,5.634l7.016,8.263a4,4,0,0,0,3.049,1.41,3.965,3.965,0,0,0,2.361-.774l23.387-17.15a4,4,0,0,0,.86-5.587,3.968,3.968,0,0,0-2.616-1.587,3.964,3.964,0,0,0-2.971.727L-895.5,1030.5a.68.68,0,0,1-.921-.108l-4.2-4.943a3.972,3.972,0,0,0-2.721-1.4C-903.456,1024.043-903.567,1024.039-903.677,1024.039Z" transform="translate(909.025 -1013.79)" fill="#12263f"/>
      </g>
    </g>
  </g>
</svg>
