<svg xmlns="http://www.w3.org/2000/svg" width="90" height="87.024" viewBox="0 0 90 87.024">
  <g id="t1-ic9" transform="translate(989.601 -1062.719)">
    <g id="Group_96475" data-name="Group 96475" transform="translate(-989.601 1144.511)">
      <g id="Group_96472" data-name="Group 96472" transform="translate(0 4.109)">
        <g id="Group_96470" data-name="Group 96470">
          <path id="Path_142319" data-name="Path 142319" d="M-982.3,1293.254h-6.741a.562.562,0,0,1-.562-.562.562.562,0,0,1,.562-.562h6.741a.562.562,0,0,1,.562.562A.562.562,0,0,1-982.3,1293.254Z" transform="translate(989.601 -1292.131)" fill="#12263f"/>
        </g>
        <g id="Group_96471" data-name="Group 96471" transform="translate(82.136)">
          <path id="Path_142320" data-name="Path 142320" d="M-762.941,1293.254h-6.741a.562.562,0,0,1-.562-.562.562.562,0,0,1,.562-.562h6.741a.562.562,0,0,1,.562.562A.562.562,0,0,1-762.941,1293.254Z" transform="translate(770.244 -1292.131)" fill="#12263f"/>
        </g>
      </g>
      <g id="Group_96473" data-name="Group 96473" transform="translate(10.559 4.109)">
        <path id="Path_142321" data-name="Path 142321" d="M-893.081,1293.254h-67.758a.562.562,0,0,1-.562-.562.562.562,0,0,1,.562-.562h67.758a.562.562,0,0,1,.562.562A.562.562,0,0,1-893.081,1293.254Z" transform="translate(961.401 -1292.131)" fill="#12263f"/>
      </g>
      <g id="Group_96474" data-name="Group 96474" transform="translate(0 0)">
        <path id="Path_142322" data-name="Path 142322" d="M-900.163,1282.281h-88.877a.562.562,0,0,1-.562-.562.562.562,0,0,1,.562-.562h88.877a.562.562,0,0,1,.562.562A.562.562,0,0,1-900.163,1282.281Z" transform="translate(989.601 -1281.158)" fill="#12263f"/>
      </g>
    </g>
    <g id="Group_96503" data-name="Group 96503" transform="translate(-971.09 1094.395)">
      <g id="Group_96477" data-name="Group 96477" transform="translate(0.562 17.267)">
        <g id="Group_96476" data-name="Group 96476">
          <rect id="Rectangle_8534" data-name="Rectangle 8534" width="48.99" height="16.705" rx="2" fill="#afafaf"/>
        </g>
      </g>
      <g id="Group_96479" data-name="Group 96479" transform="translate(0.562 33.972)">
        <g id="Group_96478" data-name="Group 96478">
          <rect id="Rectangle_8535" data-name="Rectangle 8535" width="48.99" height="16.705" rx="2" fill="#afafaf"/>
        </g>
      </g>
      <g id="Group_96481" data-name="Group 96481" transform="translate(0.562 0.562)">
        <g id="Group_96480" data-name="Group 96480">
          <rect id="Rectangle_8536" data-name="Rectangle 8536" width="48.99" height="16.705" rx="2" fill="#afafaf"/>
        </g>
      </g>
      <g id="Group_96483" data-name="Group 96483" transform="translate(0 0)">
        <g id="Group_96482" data-name="Group 96482">
          <path id="Path_142323" data-name="Path 142323" d="M-892.453,1165.145H-937.76a2.406,2.406,0,0,1-2.4-2.4V1149.72a2.406,2.406,0,0,1,2.4-2.4h45.307a2.406,2.406,0,0,1,2.4,2.4v13.022A2.406,2.406,0,0,1-892.453,1165.145Zm-45.307-16.706a1.282,1.282,0,0,0-1.28,1.28v13.022a1.282,1.282,0,0,0,1.28,1.28h45.307a1.282,1.282,0,0,0,1.28-1.28V1149.72a1.282,1.282,0,0,0-1.28-1.28Z" transform="translate(940.163 -1147.316)" fill="#12263f"/>
        </g>
      </g>
      <g id="Group_96485" data-name="Group 96485" transform="translate(0 16.706)">
        <g id="Group_96484" data-name="Group 96484">
          <path id="Path_142324" data-name="Path 142324" d="M-892.453,1209.759H-937.76a2.406,2.406,0,0,1-2.4-2.4v-13.021a2.406,2.406,0,0,1,2.4-2.4h45.307a2.406,2.406,0,0,1,2.4,2.4v13.021A2.406,2.406,0,0,1-892.453,1209.759Zm-45.307-16.7a1.282,1.282,0,0,0-1.28,1.28v13.021a1.281,1.281,0,0,0,1.28,1.28h45.307a1.282,1.282,0,0,0,1.28-1.28v-13.021a1.282,1.282,0,0,0-1.28-1.28Z" transform="translate(940.163 -1191.931)" fill="#12263f"/>
        </g>
      </g>
      <g id="Group_96487" data-name="Group 96487" transform="translate(0 33.41)">
        <g id="Group_96486" data-name="Group 96486">
          <path id="Path_142325" data-name="Path 142325" d="M-892.453,1254.372H-937.76a2.406,2.406,0,0,1-2.4-2.4v-13.021a2.406,2.406,0,0,1,2.4-2.4h45.307a2.406,2.406,0,0,1,2.4,2.4v13.021A2.406,2.406,0,0,1-892.453,1254.372Zm-45.307-16.705a1.282,1.282,0,0,0-1.28,1.28v13.021a1.282,1.282,0,0,0,1.28,1.28h45.307a1.282,1.282,0,0,0,1.28-1.28v-13.021a1.282,1.282,0,0,0-1.28-1.28Z" transform="translate(940.163 -1236.544)" fill="#12263f"/>
        </g>
      </g>
      <g id="Group_96488" data-name="Group 96488" transform="translate(5.627 7.116)">
        <rect id="Rectangle_8537" data-name="Rectangle 8537" width="25.983" height="3.598" rx="1.799" fill="#ffca28"/>
      </g>
      <g id="Group_96489" data-name="Group 96489" transform="translate(5.627 23.821)">
        <rect id="Rectangle_8538" data-name="Rectangle 8538" width="25.983" height="3.598" rx="1.799" fill="#ffca28"/>
      </g>
      <g id="Group_96490" data-name="Group 96490" transform="translate(5.627 40.526)">
        <rect id="Rectangle_8539" data-name="Rectangle 8539" width="25.983" height="3.598" rx="1.799" fill="#ffca28"/>
      </g>
      <g id="Group_96491" data-name="Group 96491" transform="translate(5.065 6.554)">
        <path id="Path_142326" data-name="Path 142326" d="M-901,1169.54H-925.17a1.467,1.467,0,0,1-1.466-1.466v-1.789a1.467,1.467,0,0,1,1.466-1.466H-901a1.468,1.468,0,0,1,1.466,1.466v1.789A1.468,1.468,0,0,1-901,1169.54Zm-24.175-3.6a.347.347,0,0,0-.343.343v1.789a.347.347,0,0,0,.343.343H-901a.347.347,0,0,0,.343-.343v-1.789a.347.347,0,0,0-.343-.343Z" transform="translate(926.636 -1164.819)" fill="#12263f"/>
      </g>
      <g id="Group_96492" data-name="Group 96492" transform="translate(5.065 23.259)">
        <path id="Path_142327" data-name="Path 142327" d="M-901,1214.155H-925.17a1.467,1.467,0,0,1-1.466-1.466V1210.9a1.467,1.467,0,0,1,1.466-1.466H-901a1.467,1.467,0,0,1,1.466,1.466v1.789A1.468,1.468,0,0,1-901,1214.155Zm-24.175-3.6a.347.347,0,0,0-.343.343v1.789a.347.347,0,0,0,.343.342H-901a.347.347,0,0,0,.343-.342V1210.9a.347.347,0,0,0-.343-.343Z" transform="translate(926.636 -1209.434)" fill="#12263f"/>
      </g>
      <g id="Group_96493" data-name="Group 96493" transform="translate(5.065 39.964)">
        <path id="Path_142328" data-name="Path 142328" d="M-901,1258.768H-925.17a1.467,1.467,0,0,1-1.466-1.466v-1.789a1.467,1.467,0,0,1,1.466-1.466H-901a1.468,1.468,0,0,1,1.466,1.466v1.789A1.468,1.468,0,0,1-901,1258.768Zm-24.175-3.6a.347.347,0,0,0-.343.343v1.789a.347.347,0,0,0,.343.343H-901a.347.347,0,0,0,.343-.343v-1.789a.347.347,0,0,0-.343-.343Z" transform="translate(926.636 -1254.047)" fill="#12263f"/>
      </g>
      <g id="Group_96496" data-name="Group 96496" transform="translate(38.71 6.554)">
        <g id="Group_96494" data-name="Group 96494" transform="translate(0.561 0.562)">
          <rect id="Rectangle_8540" data-name="Rectangle 8540" width="3.598" height="3.598" rx="1.799" fill="#ffca28"/>
        </g>
        <g id="Group_96495" data-name="Group 96495">
          <path id="Path_142329" data-name="Path 142329" d="M-833.526,1169.54h-1.789a1.467,1.467,0,0,1-1.466-1.466v-1.789a1.467,1.467,0,0,1,1.466-1.466h1.789a1.468,1.468,0,0,1,1.466,1.466v1.789A1.468,1.468,0,0,1-833.526,1169.54Zm-1.789-3.6a.347.347,0,0,0-.342.343v1.789a.347.347,0,0,0,.342.343h1.789a.347.347,0,0,0,.343-.343v-1.789a.347.347,0,0,0-.343-.343Z" transform="translate(836.781 -1164.819)" fill="#12263f"/>
        </g>
      </g>
      <g id="Group_96499" data-name="Group 96499" transform="translate(38.71 23.259)">
        <g id="Group_96497" data-name="Group 96497" transform="translate(0.561 0.561)">
          <rect id="Rectangle_8541" data-name="Rectangle 8541" width="3.598" height="3.598" rx="1.799" fill="#ffca28"/>
        </g>
        <g id="Group_96498" data-name="Group 96498">
          <path id="Path_142330" data-name="Path 142330" d="M-833.526,1214.155h-1.789a1.467,1.467,0,0,1-1.466-1.466V1210.9a1.467,1.467,0,0,1,1.466-1.466h1.789a1.468,1.468,0,0,1,1.466,1.466v1.789A1.468,1.468,0,0,1-833.526,1214.155Zm-1.789-3.6a.347.347,0,0,0-.342.343v1.789a.347.347,0,0,0,.342.342h1.789a.347.347,0,0,0,.343-.342V1210.9a.347.347,0,0,0-.343-.343Z" transform="translate(836.781 -1209.434)" fill="#12263f"/>
        </g>
      </g>
      <g id="Group_96502" data-name="Group 96502" transform="translate(38.71 39.964)">
        <g id="Group_96500" data-name="Group 96500" transform="translate(0.561 0.562)">
          <rect id="Rectangle_8542" data-name="Rectangle 8542" width="3.598" height="3.598" rx="1.799" fill="#ffca28"/>
        </g>
        <g id="Group_96501" data-name="Group 96501">
          <path id="Path_142331" data-name="Path 142331" d="M-833.526,1258.768h-1.789a1.467,1.467,0,0,1-1.466-1.466v-1.789a1.467,1.467,0,0,1,1.466-1.466h1.789a1.468,1.468,0,0,1,1.466,1.466v1.789A1.468,1.468,0,0,1-833.526,1258.768Zm-1.789-3.6a.347.347,0,0,0-.342.343v1.789a.347.347,0,0,0,.342.343h1.789a.347.347,0,0,0,.343-.343v-1.789a.347.347,0,0,0-.343-.343Z" transform="translate(836.781 -1254.047)" fill="#12263f"/>
        </g>
      </g>
    </g>
    <g id="Group_96504" data-name="Group 96504" transform="translate(-964.68 1063.152)">
      <circle id="Ellipse_4354" data-name="Ellipse 4354" cx="18.647" cy="18.647" r="18.647" transform="translate(0 0)" fill="#ffca28"/>
    </g>
    <g id="Group_96506" data-name="Group 96506" transform="translate(-964.68 1063.152)">
      <g id="Group_96505" data-name="Group 96505" transform="translate(0 0)">
        <path id="Path_142332" data-name="Path 142332" d="M-920.16,1082.522a18.645,18.645,0,0,1,17.2-18.586c-.477-.036-.957-.061-1.443-.061a18.647,18.647,0,0,0-18.647,18.647A18.647,18.647,0,0,0-904.4,1101.17c.486,0,.966-.024,1.443-.061A18.644,18.644,0,0,1-920.16,1082.522Z" transform="translate(923.045 -1063.875)" fill="#ffa726"/>
      </g>
    </g>
    <g id="Group_96508" data-name="Group 96508" transform="translate(-947.475 1063.152)">
      <g id="Group_96507" data-name="Group 96507" transform="translate(0 0)">
        <path id="Path_142333" data-name="Path 142333" d="M-859.892,1082.522a18.645,18.645,0,0,0-17.2-18.586c.477-.036.956-.061,1.442-.061a18.647,18.647,0,0,1,18.647,18.647,18.647,18.647,0,0,1-18.647,18.647c-.486,0-.966-.024-1.442-.061A18.645,18.645,0,0,0-859.892,1082.522Z" transform="translate(877.097 -1063.875)" fill="#ffd34d"/>
      </g>
    </g>
    <g id="Group_96509" data-name="Group 96509" transform="translate(-965.113 1062.719)">
      <path id="Path_142334" data-name="Path 142334" d="M-905.121,1100.88a19.1,19.1,0,0,1-19.08-19.08,19.1,19.1,0,0,1,19.08-19.08,19.1,19.1,0,0,1,19.08,19.08A19.1,19.1,0,0,1-905.121,1100.88Zm0-37.295a18.235,18.235,0,0,0-18.214,18.215,18.235,18.235,0,0,0,18.214,18.214,18.235,18.235,0,0,0,18.215-18.214A18.235,18.235,0,0,0-905.121,1063.585Z" transform="translate(924.201 -1062.719)" fill="#12263f"/>
    </g>
    <g id="Group_96518" data-name="Group 96518" transform="translate(-954.078 1070.405)">
      <g id="Group_96510" data-name="Group 96510" transform="translate(0.434 7.039)">
        <rect id="Rectangle_8543" data-name="Rectangle 8543" width="15.222" height="15.315" fill="#4dd0e1"/>
      </g>
      <g id="Group_96511" data-name="Group 96511" transform="translate(2.31 0.434)">
        <path id="Path_142335" data-name="Path 142335" d="M-877.091,1090.141a5.742,5.742,0,0,0-5.736-5.736,5.742,5.742,0,0,0-5.735,5.736v.87h1.754v-.87a3.982,3.982,0,0,1,3.982-3.982,3.982,3.982,0,0,1,3.982,3.982v.87h1.754Z" transform="translate(888.562 -1084.405)" fill="#4dd0e1"/>
      </g>
      <g id="Group_96512" data-name="Group 96512" transform="translate(1.876)">
        <path id="Path_142336" data-name="Path 142336" d="M-877.817,1090.719h-1.753a.435.435,0,0,1-.435-.434v-.87a3.551,3.551,0,0,0-3.547-3.547,3.551,3.551,0,0,0-3.547,3.547v.87a.434.434,0,0,1-.434.434h-1.753a.434.434,0,0,1-.434-.434v-.87a6.177,6.177,0,0,1,6.17-6.17,6.177,6.177,0,0,1,6.17,6.17v.87A.434.434,0,0,1-877.817,1090.719Zm-1.319-.869h.884v-.435a5.307,5.307,0,0,0-5.3-5.3,5.307,5.307,0,0,0-5.3,5.3v.435h.884v-.435a4.421,4.421,0,0,1,4.416-4.416,4.421,4.421,0,0,1,4.417,4.416Z" transform="translate(889.722 -1083.245)" fill="#12263f"/>
      </g>
      <g id="Group_96513" data-name="Group 96513" transform="translate(0 6.605)">
        <path id="Path_142337" data-name="Path 142337" d="M-879.075,1117.068H-894.3a.434.434,0,0,1-.434-.434v-15.315a.435.435,0,0,1,.434-.435h15.223a.435.435,0,0,1,.434.435v15.315A.434.434,0,0,1-879.075,1117.068Zm-14.788-.869h14.353v-14.447h-14.353Z" transform="translate(894.732 -1100.884)" fill="#12263f"/>
      </g>
      <g id="Group_96514" data-name="Group 96514" transform="translate(3.644 9.481)">
        <path id="Rectangle_8544" data-name="Rectangle 8544" d="M4.4,0h0A4.4,4.4,0,0,1,8.8,4.4v5.9a0,0,0,0,1,0,0H0a0,0,0,0,1,0,0V4.4A4.4,4.4,0,0,1,4.4,0Z" fill="#cecece"/>
      </g>
      <g id="Group_96515" data-name="Group 96515" transform="translate(3.209 9.047)">
        <path id="Path_142338" data-name="Path 142338" d="M-876.923,1118.58h-8.8a.434.434,0,0,1-.435-.434v-7.954a2.789,2.789,0,0,1,2.786-2.785h4.1a2.789,2.789,0,0,1,2.786,2.785v7.954A.434.434,0,0,1-876.923,1118.58Zm-8.369-.869h7.935v-7.52a1.919,1.919,0,0,0-1.917-1.916h-4.1a1.919,1.919,0,0,0-1.917,1.916Z" transform="translate(886.161 -1107.406)" fill="#12263f"/>
      </g>
      <g id="Group_96516" data-name="Group 96516" transform="translate(6.586 12.319)">
        <path id="Path_142339" data-name="Path 142339" d="M-874.146,1120.6l-.55-2.274h0a1.285,1.285,0,0,0,.356-.89,1.291,1.291,0,0,0-1.291-1.29,1.29,1.29,0,0,0-1.29,1.29,1.285,1.285,0,0,0,.356.89l-.551,2.274a.965.965,0,0,0,.938,1.192h1.095A.965.965,0,0,0-874.146,1120.6Z" transform="translate(877.143 -1116.146)" fill="#afafaf"/>
      </g>
      <g id="Group_96517" data-name="Group 96517" transform="translate(6.151 11.885)">
        <path id="Path_142340" data-name="Path 142340" d="M-875.81,1121.5H-876.9a1.391,1.391,0,0,1-1.1-.534,1.392,1.392,0,0,1-.261-1.194l.5-2.064a1.716,1.716,0,0,1-.318-1,1.727,1.727,0,0,1,1.725-1.725,1.727,1.727,0,0,1,1.725,1.725,1.714,1.714,0,0,1-.318,1l.5,2.064a1.392,1.392,0,0,1-.26,1.195A1.391,1.391,0,0,1-875.81,1121.5Zm-.547-5.646a.857.857,0,0,0-.856.856.85.85,0,0,0,.236.59.436.436,0,0,1,.107.4l-.55,2.274a.527.527,0,0,0,.1.452.528.528,0,0,0,.417.2h1.095a.529.529,0,0,0,.417-.2.527.527,0,0,0,.1-.452h0l-.551-2.274a.436.436,0,0,1,.108-.4.85.85,0,0,0,.236-.59A.857.857,0,0,0-876.357,1115.854Z" transform="translate(878.304 -1114.985)" fill="#12263f"/>
      </g>
    </g>
  </g>
</svg>
