<svg xmlns="http://www.w3.org/2000/svg" width="90" height="87.024" viewBox="0 0 90 87.024">
  <g id="t1-ic8" transform="translate(1258.73 -1062.719)">
    <g id="Group_96368" data-name="Group 96368" transform="translate(-1258.73 1144.511)">
      <g id="Group_96365" data-name="Group 96365" transform="translate(0 4.109)">
        <g id="Group_96363" data-name="Group 96363">
          <path id="Path_142271" data-name="Path 142271" d="M-1251.427,1293.254h-6.741a.562.562,0,0,1-.562-.562.562.562,0,0,1,.562-.562h6.741a.562.562,0,0,1,.562.562A.562.562,0,0,1-1251.427,1293.254Z" transform="translate(1258.73 -1292.131)" fill="#12263f"/>
        </g>
        <g id="Group_96364" data-name="Group 96364" transform="translate(82.136)">
          <path id="Path_142272" data-name="Path 142272" d="M-1032.07,1293.254h-6.741a.562.562,0,0,1-.562-.562.562.562,0,0,1,.562-.562h6.741a.562.562,0,0,1,.562.562A.562.562,0,0,1-1032.07,1293.254Z" transform="translate(1039.373 -1292.131)" fill="#12263f"/>
        </g>
      </g>
      <g id="Group_96366" data-name="Group 96366" transform="translate(10.559 4.109)">
        <path id="Path_142273" data-name="Path 142273" d="M-1162.21,1293.254h-67.758a.562.562,0,0,1-.562-.562.562.562,0,0,1,.562-.562h67.758a.562.562,0,0,1,.562.562A.562.562,0,0,1-1162.21,1293.254Z" transform="translate(1230.53 -1292.131)" fill="#12263f"/>
      </g>
      <g id="Group_96367" data-name="Group 96367" transform="translate(0 0)">
        <path id="Path_142274" data-name="Path 142274" d="M-1169.292,1282.281h-88.877a.562.562,0,0,1-.562-.562.562.562,0,0,1,.562-.562h88.877a.562.562,0,0,1,.562.562A.562.562,0,0,1-1169.292,1282.281Z" transform="translate(1258.73 -1281.158)" fill="#12263f"/>
      </g>
    </g>
    <g id="Group_96396" data-name="Group 96396" transform="translate(-1240.219 1094.395)">
      <g id="Group_96370" data-name="Group 96370" transform="translate(0.562 17.267)">
        <g id="Group_96369" data-name="Group 96369">
          <rect id="Rectangle_8515" data-name="Rectangle 8515" width="48.99" height="16.705" rx="3" fill="#afafaf"/>
        </g>
      </g>
      <g id="Group_96372" data-name="Group 96372" transform="translate(0.562 33.972)">
        <g id="Group_96371" data-name="Group 96371">
          <rect id="Rectangle_8516" data-name="Rectangle 8516" width="48.99" height="16.705" rx="3" fill="#afafaf"/>
        </g>
      </g>
      <g id="Group_96374" data-name="Group 96374" transform="translate(0.562 0.562)">
        <g id="Group_96373" data-name="Group 96373">
          <rect id="Rectangle_8517" data-name="Rectangle 8517" width="48.99" height="16.705" rx="2" fill="#afafaf"/>
        </g>
      </g>
      <g id="Group_96376" data-name="Group 96376" transform="translate(0 0)">
        <g id="Group_96375" data-name="Group 96375">
          <path id="Path_142275" data-name="Path 142275" d="M-1161.582,1165.145h-45.307a2.406,2.406,0,0,1-2.4-2.4V1149.72a2.406,2.406,0,0,1,2.4-2.4h45.307a2.406,2.406,0,0,1,2.4,2.4v13.022A2.406,2.406,0,0,1-1161.582,1165.145Zm-45.307-16.706a1.282,1.282,0,0,0-1.28,1.28v13.022a1.282,1.282,0,0,0,1.28,1.28h45.307a1.282,1.282,0,0,0,1.28-1.28V1149.72a1.282,1.282,0,0,0-1.28-1.28Z" transform="translate(1209.292 -1147.316)" fill="#12263f"/>
        </g>
      </g>
      <g id="Group_96378" data-name="Group 96378" transform="translate(0 16.706)">
        <g id="Group_96377" data-name="Group 96377">
          <path id="Path_142276" data-name="Path 142276" d="M-1161.582,1209.759h-45.307a2.406,2.406,0,0,1-2.4-2.4v-13.021a2.406,2.406,0,0,1,2.4-2.4h45.307a2.406,2.406,0,0,1,2.4,2.4v13.021A2.406,2.406,0,0,1-1161.582,1209.759Zm-45.307-16.7a1.281,1.281,0,0,0-1.28,1.28v13.021a1.281,1.281,0,0,0,1.28,1.28h45.307a1.281,1.281,0,0,0,1.28-1.28v-13.021a1.282,1.282,0,0,0-1.28-1.28Z" transform="translate(1209.292 -1191.931)" fill="#12263f"/>
        </g>
      </g>
      <g id="Group_96380" data-name="Group 96380" transform="translate(0 33.41)">
        <g id="Group_96379" data-name="Group 96379">
          <path id="Path_142277" data-name="Path 142277" d="M-1161.582,1254.372h-45.307a2.406,2.406,0,0,1-2.4-2.4v-13.021a2.406,2.406,0,0,1,2.4-2.4h45.307a2.406,2.406,0,0,1,2.4,2.4v13.021A2.406,2.406,0,0,1-1161.582,1254.372Zm-45.307-16.705a1.282,1.282,0,0,0-1.28,1.28v13.021a1.281,1.281,0,0,0,1.28,1.28h45.307a1.282,1.282,0,0,0,1.28-1.28v-13.021a1.282,1.282,0,0,0-1.28-1.28Z" transform="translate(1209.292 -1236.544)" fill="#12263f"/>
        </g>
      </g>
      <g id="Group_96381" data-name="Group 96381" transform="translate(5.627 7.116)">
        <rect id="Rectangle_8518" data-name="Rectangle 8518" width="25.983" height="3.598" rx="1.799" fill="#ffca28"/>
      </g>
      <g id="Group_96382" data-name="Group 96382" transform="translate(5.627 23.821)">
        <rect id="Rectangle_8519" data-name="Rectangle 8519" width="25.983" height="3.598" rx="1.799" fill="#ffca28"/>
      </g>
      <g id="Group_96383" data-name="Group 96383" transform="translate(5.627 40.526)">
        <rect id="Rectangle_8520" data-name="Rectangle 8520" width="25.983" height="3.598" rx="1.799" fill="#ffca28"/>
      </g>
      <g id="Group_96384" data-name="Group 96384" transform="translate(5.065 6.554)">
        <path id="Path_142278" data-name="Path 142278" d="M-1170.124,1169.54H-1194.3a1.467,1.467,0,0,1-1.466-1.466v-1.789a1.467,1.467,0,0,1,1.466-1.466h24.175a1.468,1.468,0,0,1,1.466,1.466v1.789A1.468,1.468,0,0,1-1170.124,1169.54Zm-24.175-3.6a.347.347,0,0,0-.343.343v1.789a.347.347,0,0,0,.343.343h24.175a.347.347,0,0,0,.343-.343v-1.789a.347.347,0,0,0-.343-.343Z" transform="translate(1195.765 -1164.819)" fill="#12263f"/>
      </g>
      <g id="Group_96385" data-name="Group 96385" transform="translate(5.065 23.259)">
        <path id="Path_142279" data-name="Path 142279" d="M-1170.124,1214.155H-1194.3a1.467,1.467,0,0,1-1.466-1.466V1210.9a1.467,1.467,0,0,1,1.466-1.466h24.175a1.467,1.467,0,0,1,1.466,1.466v1.789A1.468,1.468,0,0,1-1170.124,1214.155Zm-24.175-3.6a.347.347,0,0,0-.343.343v1.789a.347.347,0,0,0,.343.342h24.175a.347.347,0,0,0,.343-.342V1210.9a.347.347,0,0,0-.343-.343Z" transform="translate(1195.765 -1209.434)" fill="#12263f"/>
      </g>
      <g id="Group_96386" data-name="Group 96386" transform="translate(5.065 39.964)">
        <path id="Path_142280" data-name="Path 142280" d="M-1170.124,1258.768H-1194.3a1.467,1.467,0,0,1-1.466-1.466v-1.789a1.467,1.467,0,0,1,1.466-1.466h24.175a1.468,1.468,0,0,1,1.466,1.466v1.789A1.468,1.468,0,0,1-1170.124,1258.768Zm-24.175-3.6a.347.347,0,0,0-.343.343v1.789a.347.347,0,0,0,.343.343h24.175a.347.347,0,0,0,.343-.343v-1.789a.347.347,0,0,0-.343-.343Z" transform="translate(1195.765 -1254.047)" fill="#12263f"/>
      </g>
      <g id="Group_96389" data-name="Group 96389" transform="translate(38.71 6.554)">
        <g id="Group_96387" data-name="Group 96387" transform="translate(0.561 0.562)">
          <rect id="Rectangle_8521" data-name="Rectangle 8521" width="3.598" height="3.598" rx="1.799" fill="#ffca28"/>
        </g>
        <g id="Group_96388" data-name="Group 96388">
          <path id="Path_142281" data-name="Path 142281" d="M-1102.655,1169.54h-1.789a1.467,1.467,0,0,1-1.466-1.466v-1.789a1.467,1.467,0,0,1,1.466-1.466h1.789a1.467,1.467,0,0,1,1.466,1.466v1.789A1.467,1.467,0,0,1-1102.655,1169.54Zm-1.789-3.6a.347.347,0,0,0-.342.343v1.789a.347.347,0,0,0,.342.343h1.789a.347.347,0,0,0,.343-.343v-1.789a.347.347,0,0,0-.343-.343Z" transform="translate(1105.91 -1164.819)" fill="#12263f"/>
        </g>
      </g>
      <g id="Group_96392" data-name="Group 96392" transform="translate(38.71 23.259)">
        <g id="Group_96390" data-name="Group 96390" transform="translate(0.561 0.561)">
          <rect id="Rectangle_8522" data-name="Rectangle 8522" width="3.598" height="3.598" rx="1.799" fill="#ffca28"/>
        </g>
        <g id="Group_96391" data-name="Group 96391">
          <path id="Path_142282" data-name="Path 142282" d="M-1102.655,1214.155h-1.789a1.467,1.467,0,0,1-1.466-1.466V1210.9a1.467,1.467,0,0,1,1.466-1.466h1.789a1.467,1.467,0,0,1,1.466,1.466v1.789A1.467,1.467,0,0,1-1102.655,1214.155Zm-1.789-3.6a.347.347,0,0,0-.342.343v1.789a.347.347,0,0,0,.342.342h1.789a.347.347,0,0,0,.343-.342V1210.9a.347.347,0,0,0-.343-.343Z" transform="translate(1105.91 -1209.434)" fill="#12263f"/>
        </g>
      </g>
      <g id="Group_96395" data-name="Group 96395" transform="translate(38.71 39.964)">
        <g id="Group_96393" data-name="Group 96393" transform="translate(0.561 0.562)">
          <rect id="Rectangle_8523" data-name="Rectangle 8523" width="3.598" height="3.598" rx="1.799" fill="#ffca28"/>
        </g>
        <g id="Group_96394" data-name="Group 96394">
          <path id="Path_142283" data-name="Path 142283" d="M-1102.655,1258.768h-1.789a1.467,1.467,0,0,1-1.466-1.466v-1.789a1.467,1.467,0,0,1,1.466-1.466h1.789a1.467,1.467,0,0,1,1.466,1.466v1.789A1.467,1.467,0,0,1-1102.655,1258.768Zm-1.789-3.6a.347.347,0,0,0-.342.343v1.789a.347.347,0,0,0,.342.343h1.789a.347.347,0,0,0,.343-.343v-1.789a.347.347,0,0,0-.343-.343Z" transform="translate(1105.91 -1254.047)" fill="#12263f"/>
        </g>
      </g>
    </g>
    <g id="Group_96418" data-name="Group 96418" transform="translate(-1240.937 1062.719)">
      <g id="Group_96397" data-name="Group 96397" transform="translate(0.446 0.446)">
        <path id="Path_142284" data-name="Path 142284" d="M-1210.018,1089.24a25.329,25.329,0,0,1,25.328-25.329,25.329,25.329,0,0,1,25.329,25.329Z" transform="translate(1210.018 -1063.911)" fill="#ffca28"/>
      </g>
      <g id="Group_96399" data-name="Group 96399" transform="translate(0.446 0.446)">
        <g id="Group_96398" data-name="Group 96398">
          <path id="Path_142285" data-name="Path 142285" d="M-1183.2,1063.958c-.492-.029-.987-.047-1.487-.047a25.329,25.329,0,0,0-25.328,25.329h2.974A25.327,25.327,0,0,1-1183.2,1063.958Z" transform="translate(1210.018 -1063.911)" fill="#ffa726"/>
        </g>
      </g>
      <g id="Group_96401" data-name="Group 96401" transform="translate(24.288 0.446)">
        <g id="Group_96400" data-name="Group 96400">
          <path id="Path_142286" data-name="Path 142286" d="M-1146.345,1063.958c.492-.029.987-.047,1.487-.047a25.329,25.329,0,0,1,25.329,25.329h-2.974A25.327,25.327,0,0,0-1146.345,1063.958Z" transform="translate(1146.345 -1063.911)" fill="#ffd34d"/>
        </g>
      </g>
      <g id="Group_96402" data-name="Group 96402" transform="translate(0 0)">
        <path id="Path_142287" data-name="Path 142287" d="M-1160.106,1088.94h-50.657a.446.446,0,0,1-.446-.446,25.8,25.8,0,0,1,25.775-25.775,25.8,25.8,0,0,1,25.775,25.775A.446.446,0,0,1-1160.106,1088.94Zm-50.208-.892h49.758a24.912,24.912,0,0,0-24.878-24.437A24.912,24.912,0,0,0-1210.314,1088.048Z" transform="translate(1211.21 -1062.719)" fill="#12263f"/>
      </g>
      <g id="Group_96407" data-name="Group 96407" transform="translate(13.39 13.391)">
        <g id="Group_96403" data-name="Group 96403" transform="translate(0.446 0.446)">
          <path id="Path_142288" data-name="Path 142288" d="M-1171.031,1114.782c.091.255.195.5.308.742l-2.283,2.283,4.488,4.488,2.283-2.283c.243.113.49.216.743.308v3.229h6.346v-3.229c.252-.091.5-.195.742-.308l2.283,2.283,4.488-4.488-2.282-2.283c.113-.243.216-.488.307-.742h3.229v-6.345h-3.229c-.091-.252-.195-.5-.307-.743l2.282-2.283-4.488-4.488-2.283,2.285c-.243-.113-.49-.219-.742-.31v-3.227h-6.346v3.227c-.252.091-.5.2-.743.31l-2.283-2.285-4.488,4.488,2.283,2.283c-.113.243-.216.49-.308.743h-3.227v6.345Z" transform="translate(1174.258 -1099.672)" fill="#afafaf"/>
        </g>
        <g id="Group_96404" data-name="Group 96404">
          <path id="Path_142289" data-name="Path 142289" d="M-1159.894,1123.251h-6.345a.446.446,0,0,1-.446-.446v-2.922q-.1-.04-.2-.082l-2.065,2.066a.446.446,0,0,1-.631,0l-4.489-4.488a.448.448,0,0,1-.131-.316.446.446,0,0,1,.131-.315l2.065-2.065c-.029-.067-.056-.133-.082-.2H-1175a.446.446,0,0,1-.446-.446v-6.346a.446.446,0,0,1,.446-.446h2.92q.039-.1.082-.2l-2.066-2.066a.446.446,0,0,1-.131-.315.446.446,0,0,1,.131-.315l4.489-4.488a.446.446,0,0,1,.315-.131h0a.446.446,0,0,1,.315.131l2.065,2.067.2-.083v-2.92a.446.446,0,0,1,.446-.446h6.345a.446.446,0,0,1,.446.446v2.92l.2.083,2.065-2.067a.459.459,0,0,1,.631,0l4.488,4.488a.446.446,0,0,1,0,.631l-2.065,2.066q.042.1.082.2h2.922a.446.446,0,0,1,.446.446v6.346a.446.446,0,0,1-.446.446h-2.922q-.039.1-.082.2l2.065,2.065a.446.446,0,0,1,0,.631l-4.488,4.488a.446.446,0,0,1-.631,0l-2.066-2.066q-.1.043-.2.082v2.922A.446.446,0,0,1-1159.894,1123.251Zm-5.9-.892h5.453v-2.783a.446.446,0,0,1,.294-.419c.233-.085.471-.183.706-.292a.446.446,0,0,1,.5.089l1.967,1.967,3.857-3.857-1.967-1.967a.446.446,0,0,1-.089-.5c.115-.248.211-.479.292-.705a.446.446,0,0,1,.42-.3h2.783v-5.453h-2.783a.446.446,0,0,1-.419-.294c-.084-.231-.182-.469-.293-.706a.446.446,0,0,1,.089-.5l1.967-1.967-3.857-3.857-1.967,1.969a.445.445,0,0,1-.5.089c-.256-.119-.487-.216-.705-.294a.447.447,0,0,1-.295-.42v-2.781h-5.453v2.781a.446.446,0,0,1-.294.419c-.219.079-.449.176-.706.295a.445.445,0,0,1-.5-.089l-1.967-1.969-3.857,3.857,1.967,1.967a.446.446,0,0,1,.089.5c-.111.239-.209.476-.292.706a.446.446,0,0,1-.419.294h-2.781v5.453h2.781a.446.446,0,0,1,.42.3c.081.225.176.455.292.705a.446.446,0,0,1-.089.5l-1.967,1.967,3.857,3.857,1.967-1.967a.445.445,0,0,1,.5-.089c.235.109.473.208.706.292a.446.446,0,0,1,.294.419Z" transform="translate(1175.45 -1098.481)" fill="#12263f"/>
        </g>
        <g id="Group_96405" data-name="Group 96405" transform="translate(8.344 8.343)">
          <circle id="Ellipse_4352" data-name="Ellipse 4352" cx="4.041" cy="4.041" r="4.041" fill="#cecece"/>
        </g>
        <g id="Group_96406" data-name="Group 96406" transform="translate(7.898 7.897)">
          <path id="Path_142290" data-name="Path 142290" d="M-1149.87,1128.546a4.492,4.492,0,0,1-4.487-4.487,4.492,4.492,0,0,1,4.487-4.487,4.492,4.492,0,0,1,4.486,4.487A4.492,4.492,0,0,1-1149.87,1128.546Zm0-8.082a3.6,3.6,0,0,0-3.595,3.595,3.6,3.6,0,0,0,3.595,3.595,3.6,3.6,0,0,0,3.595-3.595A3.6,3.6,0,0,0-1149.87,1120.464Z" transform="translate(1154.357 -1119.572)" fill="#12263f"/>
        </g>
      </g>
      <g id="Group_96408" data-name="Group 96408" transform="translate(25.329 1.617)">
        <path id="Path_142291" data-name="Path 142291" d="M-1143.119,1072.292a.446.446,0,0,1-.446-.446v-4.362a.446.446,0,0,1,.446-.446.446.446,0,0,1,.446.446v4.362A.446.446,0,0,1-1143.119,1072.292Z" transform="translate(1143.565 -1067.038)" fill="#12263f"/>
      </g>
      <g id="Group_96411" data-name="Group 96411" transform="translate(6.303 13.391)">
        <g id="Group_96409" data-name="Group 96409" transform="translate(34.126)">
          <path id="Path_142292" data-name="Path 142292" d="M-1102.792,1101.274a.446.446,0,0,1-.4-.252.446.446,0,0,1,.208-.6l3.926-1.9a.446.446,0,0,1,.6.207.446.446,0,0,1-.207.6l-3.926,1.9A.443.443,0,0,1-1102.792,1101.274Z" transform="translate(1103.238 -1098.481)" fill="#12263f"/>
        </g>
        <g id="Group_96410" data-name="Group 96410">
          <path id="Path_142293" data-name="Path 142293" d="M-1190.006,1101.274a.445.445,0,0,1-.194-.045l-3.926-1.9a.446.446,0,0,1-.208-.6.447.447,0,0,1,.6-.207l3.926,1.9a.446.446,0,0,1,.208.6A.446.446,0,0,1-1190.006,1101.274Z" transform="translate(1194.378 -1098.481)" fill="#12263f"/>
        </g>
      </g>
      <g id="Group_96414" data-name="Group 96414" transform="translate(13.308 5.979)">
        <g id="Group_96412" data-name="Group 96412" transform="translate(20.957)">
          <path id="Path_142294" data-name="Path 142294" d="M-1119.252,1082.663a.446.446,0,0,1-.315-.131.446.446,0,0,1,0-.631l3.084-3.085a.446.446,0,0,1,.631,0,.446.446,0,0,1,0,.631l-3.084,3.085A.446.446,0,0,1-1119.252,1082.663Z" transform="translate(1119.698 -1078.686)" fill="#12263f"/>
        </g>
        <g id="Group_96413" data-name="Group 96413">
          <path id="Path_142295" data-name="Path 142295" d="M-1172.138,1082.663a.446.446,0,0,1-.316-.131l-3.084-3.085a.446.446,0,0,1,0-.631.446.446,0,0,1,.631,0l3.084,3.085a.446.446,0,0,1,0,.631A.446.446,0,0,1-1172.138,1082.663Z" transform="translate(1175.669 -1078.686)" fill="#12263f"/>
        </g>
      </g>
      <g id="Group_96417" data-name="Group 96417" transform="translate(23.044 13.923)">
        <g id="Group_96415" data-name="Group 96415" transform="translate(0.446 0.445)">
          <path id="Path_142296" data-name="Path 142296" d="M-1134.831,1101.155l-12.763,9.62a2.213,2.213,0,0,0-.264,3.3h0a2.213,2.213,0,0,0,3.307-.129l10.134-12.359A.3.3,0,0,0-1134.831,1101.155Z" transform="translate(1148.475 -1101.091)" fill="#039be5"/>
        </g>
        <g id="Group_96416" data-name="Group 96416">
          <path id="Path_142297" data-name="Path 142297" d="M-1147.007,1114.457a2.662,2.662,0,0,1-1.918-.817,2.662,2.662,0,0,1-.732-2.054,2.66,2.66,0,0,1,1.05-1.911l12.763-9.62a.738.738,0,0,1,.988.079.738.738,0,0,1,.039.991l-10.134,12.359a2.662,2.662,0,0,1-1.952.971Zm10.729-12.959-11.793,8.889a1.767,1.767,0,0,0-.7,1.269,1.77,1.77,0,0,0,.487,1.365,1.76,1.76,0,0,0,1.344.542,1.766,1.766,0,0,0,1.3-.645Zm.7-1.087h0Z" transform="translate(1149.667 -1099.902)" fill="#12263f"/>
        </g>
      </g>
    </g>
  </g>
</svg>
