<svg xmlns="http://www.w3.org/2000/svg" width="89.554" height="91.542" viewBox="0 0 89.554 91.542">
  <g id="t2-ix1" transform="translate(882.33 -1113.209)">
    <g id="Group_96836" data-name="Group 96836">
      <g id="Group_96835" data-name="Group 96835">
        <rect id="Rectangle_8657" data-name="Rectangle 8657" width="86.554" height="29.514" rx="4.919" transform="translate(-880.83 1144.223)" fill="#cecece"/>
      </g>
    </g>
    <g id="Group_96838" data-name="Group 96838">
      <g id="Group_96837" data-name="Group 96837">
        <rect id="Rectangle_8658" data-name="Rectangle 8658" width="86.554" height="29.514" rx="4.919" transform="translate(-880.83 1173.737)" fill="#cecece"/>
      </g>
    </g>
    <g id="Group_96840" data-name="Group 96840">
      <g id="Group_96839" data-name="Group 96839">
        <rect id="Rectangle_8659" data-name="Rectangle 8659" width="86.554" height="29.514" rx="4.919" transform="translate(-880.83 1114.709)" fill="#cecece"/>
      </g>
    </g>
    <g id="Group_96842" data-name="Group 96842">
      <g id="Group_96841" data-name="Group 96841">
        <path id="Path_142532" data-name="Path 142532" d="M-799.194,1114.709h-10a4.919,4.919,0,0,1,4.918,4.919V1139.3a4.918,4.918,0,0,1-4.918,4.919h10a4.918,4.918,0,0,0,4.918-4.919v-19.676A4.919,4.919,0,0,0-799.194,1114.709Z" fill="#e2e2e2"/>
      </g>
    </g>
    <g id="Group_96844" data-name="Group 96844">
      <g id="Group_96843" data-name="Group 96843">
        <path id="Path_142533" data-name="Path 142533" d="M-875.911,1114.709h10a4.92,4.92,0,0,0-4.919,4.919V1139.3a4.919,4.919,0,0,0,4.919,4.919h-10a4.919,4.919,0,0,1-4.919-4.919v-19.676A4.92,4.92,0,0,1-875.911,1114.709Z" fill="#9e9e9e"/>
      </g>
    </g>
    <g id="Group_96846" data-name="Group 96846">
      <g id="Group_96845" data-name="Group 96845">
        <path id="Path_142534" data-name="Path 142534" d="M-875.911,1144.223h10a4.919,4.919,0,0,0-4.919,4.919v19.676a4.919,4.919,0,0,0,4.919,4.919h-10a4.919,4.919,0,0,1-4.919-4.919v-19.676A4.919,4.919,0,0,1-875.911,1144.223Z" fill="#9e9e9e"/>
      </g>
    </g>
    <g id="Group_96848" data-name="Group 96848">
      <g id="Group_96847" data-name="Group 96847">
        <path id="Path_142535" data-name="Path 142535" d="M-875.911,1173.737h10a4.919,4.919,0,0,0-4.919,4.919v19.676a4.919,4.919,0,0,0,4.919,4.919h-10a4.919,4.919,0,0,1-4.919-4.919v-19.676A4.919,4.919,0,0,1-875.911,1173.737Z" fill="#9e9e9e"/>
      </g>
    </g>
    <g id="Group_96850" data-name="Group 96850">
      <g id="Group_96849" data-name="Group 96849">
        <path id="Path_142536" data-name="Path 142536" d="M-799.194,1144.223h-10a4.918,4.918,0,0,1,4.918,4.919v19.676a4.918,4.918,0,0,1-4.918,4.919h10a4.918,4.918,0,0,0,4.918-4.919v-19.676A4.918,4.918,0,0,0-799.194,1144.223Z" fill="#e2e2e2"/>
      </g>
    </g>
    <g id="Group_96852" data-name="Group 96852">
      <g id="Group_96851" data-name="Group 96851">
        <path id="Path_142537" data-name="Path 142537" d="M-799.194,1173.737h-10a4.918,4.918,0,0,1,4.918,4.919v19.676a4.918,4.918,0,0,1-4.918,4.919h10a4.918,4.918,0,0,0,4.918-4.919v-19.676A4.918,4.918,0,0,0-799.194,1173.737Z" fill="#e2e2e2"/>
      </g>
    </g>
    <g id="Group_96854" data-name="Group 96854">
      <g id="Group_96853" data-name="Group 96853">
        <path id="Path_142538" data-name="Path 142538" d="M-799.194,1145.723h-76.717a6.426,6.426,0,0,1-6.419-6.418v-19.677a6.427,6.427,0,0,1,6.419-6.419h76.717a6.426,6.426,0,0,1,6.418,6.419v19.677A6.425,6.425,0,0,1-799.194,1145.723Zm-76.717-29.514a3.423,3.423,0,0,0-3.419,3.419v19.677a3.423,3.423,0,0,0,3.419,3.418h76.717a3.423,3.423,0,0,0,3.418-3.418v-19.677a3.423,3.423,0,0,0-3.418-3.419Z" fill="#12263f"/>
      </g>
    </g>
    <g id="Group_96856" data-name="Group 96856">
      <g id="Group_96855" data-name="Group 96855">
        <path id="Path_142539" data-name="Path 142539" d="M-799.194,1175.237h-76.717a6.427,6.427,0,0,1-6.419-6.419v-19.676a6.427,6.427,0,0,1,6.419-6.419h76.717a6.426,6.426,0,0,1,6.418,6.419v19.676A6.426,6.426,0,0,1-799.194,1175.237Zm-76.717-29.514a3.423,3.423,0,0,0-3.419,3.419v19.676a3.423,3.423,0,0,0,3.419,3.419h76.717a3.423,3.423,0,0,0,3.418-3.419v-19.676a3.423,3.423,0,0,0-3.418-3.419Z" fill="#12263f"/>
      </g>
    </g>
    <g id="Group_96858" data-name="Group 96858">
      <g id="Group_96857" data-name="Group 96857">
        <path id="Path_142540" data-name="Path 142540" d="M-799.194,1204.751h-76.717a6.427,6.427,0,0,1-6.419-6.419v-19.677a6.426,6.426,0,0,1,6.419-6.418h76.717a6.425,6.425,0,0,1,6.418,6.418v19.677A6.426,6.426,0,0,1-799.194,1204.751Zm-76.717-29.514a3.423,3.423,0,0,0-3.419,3.418v19.677a3.423,3.423,0,0,0,3.419,3.419h76.717a3.423,3.423,0,0,0,3.418-3.419v-19.677a3.423,3.423,0,0,0-3.418-3.418Z" fill="#12263f"/>
      </g>
    </g>
    <g id="Group_96859" data-name="Group 96859">
      <rect id="Rectangle_8660" data-name="Rectangle 8660" width="45.906" height="6.356" rx="2.415" transform="translate(-871.881 1126.288)" fill="#ffca28"/>
    </g>
    <g id="Group_96860" data-name="Group 96860">
      <rect id="Rectangle_8661" data-name="Rectangle 8661" width="45.906" height="6.356" rx="2.415" transform="translate(-871.881 1155.802)" fill="#ffca28"/>
    </g>
    <g id="Group_96861" data-name="Group 96861">
      <rect id="Rectangle_8662" data-name="Rectangle 8662" width="45.906" height="6.356" rx="2.415" transform="translate(-871.881 1185.316)" fill="#ffca28"/>
    </g>
    <g id="Group_96862" data-name="Group 96862">
      <path id="Path_142541" data-name="Path 142541" d="M-828.39,1134.145h-41.076a3.919,3.919,0,0,1-3.915-3.916V1128.7a3.919,3.919,0,0,1,3.915-3.915h41.076a3.919,3.919,0,0,1,3.915,3.915v1.526A3.919,3.919,0,0,1-828.39,1134.145Zm-41.076-6.357a.927.927,0,0,0-.915.915v1.526a.927.927,0,0,0,.915.916h41.076a.927.927,0,0,0,.915-.916V1128.7a.927.927,0,0,0-.915-.915Z" fill="#12263f"/>
    </g>
    <g id="Group_96863" data-name="Group 96863">
      <path id="Path_142542" data-name="Path 142542" d="M-828.39,1163.658h-41.076a3.919,3.919,0,0,1-3.915-3.915v-1.526a3.919,3.919,0,0,1,3.915-3.915h41.076a3.919,3.919,0,0,1,3.915,3.915v1.526A3.919,3.919,0,0,1-828.39,1163.658Zm-41.076-6.356a.927.927,0,0,0-.915.915v1.526a.927.927,0,0,0,.915.915h41.076a.927.927,0,0,0,.915-.915v-1.526a.927.927,0,0,0-.915-.915Z" fill="#12263f"/>
    </g>
    <g id="Group_96864" data-name="Group 96864">
      <path id="Path_142543" data-name="Path 142543" d="M-828.39,1193.172h-41.076a3.919,3.919,0,0,1-3.915-3.915v-1.527a3.919,3.919,0,0,1,3.915-3.915h41.076a3.919,3.919,0,0,1,3.915,3.915v1.527A3.919,3.919,0,0,1-828.39,1193.172Zm-41.076-6.357a.927.927,0,0,0-.915.915v1.527a.927.927,0,0,0,.915.915h41.076a.927.927,0,0,0,.915-.915v-1.527a.927.927,0,0,0-.915-.915Z" fill="#12263f"/>
    </g>
    <g id="Group_96865" data-name="Group 96865">
      <rect id="Rectangle_8663" data-name="Rectangle 8663" width="6.356" height="6.356" rx="2.415" transform="translate(-812.439 1126.288)" fill="#ffca28"/>
    </g>
    <g id="Group_96866" data-name="Group 96866">
      <path id="Path_142544" data-name="Path 142544" d="M-808.5,1134.145h-1.526a3.918,3.918,0,0,1-3.914-3.916V1128.7a3.918,3.918,0,0,1,3.914-3.915h1.526a3.919,3.919,0,0,1,3.915,3.915v1.526A3.919,3.919,0,0,1-808.5,1134.145Zm-1.526-6.357a.926.926,0,0,0-.914.915v1.526a.927.927,0,0,0,.914.916h1.526a.927.927,0,0,0,.915-.916V1128.7a.927.927,0,0,0-.915-.915Z" fill="#12263f"/>
    </g>
    <g id="Group_96867" data-name="Group 96867">
      <rect id="Rectangle_8664" data-name="Rectangle 8664" width="6.356" height="6.356" rx="2.415" transform="translate(-812.439 1155.802)" fill="#ffca28"/>
    </g>
    <g id="Group_96868" data-name="Group 96868">
      <path id="Path_142545" data-name="Path 142545" d="M-808.5,1163.658h-1.526a3.918,3.918,0,0,1-3.914-3.915v-1.526a3.918,3.918,0,0,1,3.914-3.915h1.526a3.919,3.919,0,0,1,3.915,3.915v1.526A3.919,3.919,0,0,1-808.5,1163.658Zm-1.526-6.356a.926.926,0,0,0-.914.915v1.526a.926.926,0,0,0,.914.915h1.526a.926.926,0,0,0,.915-.915v-1.526a.927.927,0,0,0-.915-.915Z" fill="#12263f"/>
    </g>
    <g id="Group_96869" data-name="Group 96869">
      <rect id="Rectangle_8665" data-name="Rectangle 8665" width="6.356" height="6.356" rx="2.415" transform="translate(-812.439 1185.316)" fill="#ffca28"/>
    </g>
    <g id="Group_96870" data-name="Group 96870">
      <path id="Path_142546" data-name="Path 142546" d="M-808.5,1193.172h-1.526a3.918,3.918,0,0,1-3.914-3.915v-1.527a3.918,3.918,0,0,1,3.914-3.915h1.526a3.919,3.919,0,0,1,3.915,3.915v1.527A3.919,3.919,0,0,1-808.5,1193.172Zm-1.526-6.357a.926.926,0,0,0-.914.915v1.527a.926.926,0,0,0,.914.915h1.526a.927.927,0,0,0,.915-.915v-1.527a.927.927,0,0,0-.915-.915Z" fill="#12263f"/>
    </g>
  </g>
</svg>
