<svg xmlns="http://www.w3.org/2000/svg" width="163.094" height="155" viewBox="0 0 163.094 155">
  <g id="t2-ic1" transform="translate(981.233 -1290.529)">
    <g id="Group_96615" data-name="Group 96615" transform="translate(-981.233 1436.048)">
      <g id="Group_96612" data-name="Group 96612" transform="translate(0 7.446)">
        <g id="Group_96610" data-name="Group 96610">
          <path id="Path_142385" data-name="Path 142385" d="M-968,1518h-12.216a1.018,1.018,0,0,1-1.018-1.018,1.018,1.018,0,0,1,1.018-1.018H-968a1.018,1.018,0,0,1,1.018,1.018A1.018,1.018,0,0,1-968,1518Z" transform="translate(981.233 -1515.96)" fill="#12263f"/>
        </g>
        <g id="Group_96611" data-name="Group 96611" transform="translate(148.843)">
          <path id="Path_142386" data-name="Path 142386" d="M-748.643,1518h-12.215a1.018,1.018,0,0,1-1.018-1.018,1.018,1.018,0,0,1,1.018-1.018h12.215a1.018,1.018,0,0,1,1.018,1.018A1.018,1.018,0,0,1-748.643,1518Z" transform="translate(761.876 -1515.96)" fill="#12263f"/>
        </g>
      </g>
      <g id="Group_96613" data-name="Group 96613" transform="translate(19.135 7.446)">
        <path id="Path_142387" data-name="Path 142387" d="M-829.227,1518H-952.015a1.018,1.018,0,0,1-1.018-1.018,1.018,1.018,0,0,1,1.018-1.018h122.788a1.018,1.018,0,0,1,1.018,1.018A1.018,1.018,0,0,1-829.227,1518Z" transform="translate(953.033 -1515.96)" fill="#12263f"/>
      </g>
      <g id="Group_96614" data-name="Group 96614" transform="translate(0 0)">
        <path id="Path_142388" data-name="Path 142388" d="M-819.157,1507.023H-980.215a1.018,1.018,0,0,1-1.018-1.018,1.018,1.018,0,0,1,1.018-1.018h161.058a1.018,1.018,0,0,1,1.018,1.018A1.018,1.018,0,0,1-819.157,1507.023Z" transform="translate(981.233 -1504.987)" fill="#12263f"/>
      </g>
    </g>
    <g id="Group_96644" data-name="Group 96644" transform="translate(-976.878 1290.529)">
      <g id="Group_96616" data-name="Group 96616" transform="translate(30.519 49.524)">
        <rect id="Rectangle_8554" data-name="Rectangle 8554" width="122.847" height="48.506" rx="4.919" fill="#cecece"/>
      </g>
      <g id="Group_96617" data-name="Group 96617" transform="translate(30.519 98.031)">
        <rect id="Rectangle_8555" data-name="Rectangle 8555" width="122.847" height="48.506" rx="4.919" fill="#cecece"/>
      </g>
      <g id="Group_96618" data-name="Group 96618" transform="translate(30.519 1.018)">
        <rect id="Rectangle_8556" data-name="Rectangle 8556" width="122.847" height="48.506" rx="4.919" fill="#cecece"/>
      </g>
      <g id="Group_96619" data-name="Group 96619" transform="translate(30.519 1.018)">
        <path id="Path_142389" data-name="Path 142389" d="M-923.053,1337.2v-41.831a3.337,3.337,0,0,1,3.338-3.337H-926.5a3.337,3.337,0,0,0-3.338,3.337V1337.2a3.338,3.338,0,0,0,3.338,3.337h6.785A3.338,3.338,0,0,1-923.053,1337.2Z" transform="translate(929.838 -1292.03)" fill="#9e9e9e"/>
      </g>
      <g id="Group_96620" data-name="Group 96620" transform="translate(143.243 1.018)">
        <path id="Path_142390" data-name="Path 142390" d="M-760.373,1337.2v-41.831a3.337,3.337,0,0,0-3.338-3.337h6.785a3.337,3.337,0,0,1,3.338,3.337V1337.2a3.337,3.337,0,0,1-3.338,3.337h-6.785A3.337,3.337,0,0,0-760.373,1337.2Z" transform="translate(763.711 -1292.03)" fill="#e2e2e2"/>
      </g>
      <g id="Group_96621" data-name="Group 96621" transform="translate(143.243 49.525)">
        <path id="Path_142391" data-name="Path 142391" d="M-760.373,1408.684v-41.831a3.337,3.337,0,0,0-3.338-3.337h6.785a3.337,3.337,0,0,1,3.338,3.337v41.831a3.337,3.337,0,0,1-3.338,3.337h-6.785A3.337,3.337,0,0,0-760.373,1408.684Z" transform="translate(763.711 -1363.516)" fill="#e2e2e2"/>
      </g>
      <g id="Group_96622" data-name="Group 96622" transform="translate(143.243 98.031)">
        <path id="Path_142392" data-name="Path 142392" d="M-760.373,1480.17v-41.831a3.337,3.337,0,0,0-3.338-3.337h6.785a3.337,3.337,0,0,1,3.338,3.337v41.831a3.337,3.337,0,0,1-3.338,3.337h-6.785A3.337,3.337,0,0,0-760.373,1480.17Z" transform="translate(763.711 -1435.002)" fill="#e2e2e2"/>
      </g>
      <g id="Group_96623" data-name="Group 96623" transform="translate(30.519 49.525)">
        <path id="Path_142393" data-name="Path 142393" d="M-923.053,1408.684v-41.831a3.337,3.337,0,0,1,3.338-3.337H-926.5a3.337,3.337,0,0,0-3.338,3.337v41.831a3.338,3.338,0,0,0,3.338,3.337h6.785A3.338,3.338,0,0,1-923.053,1408.684Z" transform="translate(929.838 -1363.516)" fill="#9e9e9e"/>
      </g>
      <g id="Group_96625" data-name="Group 96625" transform="translate(29.501)">
        <g id="Group_96624" data-name="Group 96624">
          <path id="Path_142394" data-name="Path 142394" d="M-810.811,1341.072H-926.982a4.361,4.361,0,0,1-4.356-4.355v-41.832a4.361,4.361,0,0,1,4.356-4.355h116.172a4.36,4.36,0,0,1,4.356,4.355v41.832A4.36,4.36,0,0,1-810.811,1341.072Zm-116.172-48.507a2.323,2.323,0,0,0-2.32,2.32v41.832a2.323,2.323,0,0,0,2.32,2.32h116.172a2.323,2.323,0,0,0,2.32-2.32v-41.832a2.323,2.323,0,0,0-2.32-2.32Z" transform="translate(931.338 -1290.529)" fill="#12263f"/>
        </g>
      </g>
      <g id="Group_96627" data-name="Group 96627" transform="translate(29.501 48.507)">
        <g id="Group_96626" data-name="Group 96626">
          <path id="Path_142395" data-name="Path 142395" d="M-810.811,1412.558H-926.982a4.361,4.361,0,0,1-4.356-4.356v-41.831a4.361,4.361,0,0,1,4.356-4.356h116.172a4.361,4.361,0,0,1,4.356,4.356V1408.2A4.36,4.36,0,0,1-810.811,1412.558Zm-116.172-48.506a2.323,2.323,0,0,0-2.32,2.32V1408.2a2.323,2.323,0,0,0,2.32,2.32h116.172a2.323,2.323,0,0,0,2.32-2.32v-41.831a2.323,2.323,0,0,0-2.32-2.32Z" transform="translate(931.338 -1362.016)" fill="#12263f"/>
        </g>
      </g>
      <g id="Group_96629" data-name="Group 96629" transform="translate(29.501 97.013)">
        <g id="Group_96628" data-name="Group 96628">
          <path id="Path_142396" data-name="Path 142396" d="M-810.811,1484.043H-926.982a4.361,4.361,0,0,1-4.356-4.356v-41.831a4.36,4.36,0,0,1,4.356-4.355h116.172a4.36,4.36,0,0,1,4.356,4.355v41.831A4.36,4.36,0,0,1-810.811,1484.043Zm-116.172-48.506a2.322,2.322,0,0,0-2.32,2.319v41.831a2.323,2.323,0,0,0,2.32,2.32h116.172a2.323,2.323,0,0,0,2.32-2.32v-41.831a2.322,2.322,0,0,0-2.32-2.319Z" transform="translate(931.338 -1433.502)" fill="#12263f"/>
        </g>
      </g>
      <rect id="Rectangle_8557" data-name="Rectangle 8557" width="56.042" height="10.446" rx="2.415" transform="translate(45.226 20.048)" fill="#ffca28"/>
      <rect id="Rectangle_8558" data-name="Rectangle 8558" width="56.042" height="10.446" rx="2.415" transform="translate(45.226 68.554)" fill="#ffca28"/>
      <rect id="Rectangle_8559" data-name="Rectangle 8559" width="56.042" height="10.446" rx="2.415" transform="translate(45.226 117.06)" fill="#ffca28"/>
      <g id="Group_96630" data-name="Group 96630" transform="translate(44.208 19.03)">
        <path id="Path_142397" data-name="Path 142397" d="M-854.242,1331.057h-52.765a2.659,2.659,0,0,1-2.656-2.656v-7.169a2.659,2.659,0,0,1,2.656-2.656h52.765a2.66,2.66,0,0,1,2.657,2.656v7.169A2.66,2.66,0,0,1-854.242,1331.057Zm-52.765-10.447a.629.629,0,0,0-.621.621v7.169a.629.629,0,0,0,.621.621h52.765a.629.629,0,0,0,.621-.621v-7.169a.629.629,0,0,0-.621-.621Z" transform="translate(909.663 -1318.575)" fill="#12263f"/>
      </g>
      <g id="Group_96631" data-name="Group 96631" transform="translate(44.208 67.537)">
        <path id="Path_142398" data-name="Path 142398" d="M-854.242,1402.543h-52.765a2.659,2.659,0,0,1-2.656-2.656v-7.169a2.659,2.659,0,0,1,2.656-2.656h52.765a2.659,2.659,0,0,1,2.657,2.656v7.169A2.66,2.66,0,0,1-854.242,1402.543Zm-52.765-10.446a.629.629,0,0,0-.621.621v7.169a.629.629,0,0,0,.621.621h52.765a.629.629,0,0,0,.621-.621v-7.169a.629.629,0,0,0-.621-.621Z" transform="translate(909.663 -1390.061)" fill="#12263f"/>
      </g>
      <g id="Group_96632" data-name="Group 96632" transform="translate(44.208 116.043)">
        <path id="Path_142399" data-name="Path 142399" d="M-854.242,1474.029h-52.765a2.659,2.659,0,0,1-2.656-2.656V1464.2a2.659,2.659,0,0,1,2.656-2.656h52.765a2.66,2.66,0,0,1,2.657,2.656v7.169A2.659,2.659,0,0,1-854.242,1474.029Zm-52.765-10.446a.629.629,0,0,0-.621.621v7.169a.629.629,0,0,0,.621.621h52.765a.629.629,0,0,0,.621-.621V1464.2a.629.629,0,0,0-.621-.621Z" transform="translate(909.663 -1461.547)" fill="#12263f"/>
      </g>
      <g id="Group_96634" data-name="Group 96634" transform="translate(122.497 19.03)">
        <rect id="Rectangle_8560" data-name="Rectangle 8560" width="10.446" height="10.446" rx="2.415" transform="translate(1.018 1.018)" fill="#ffca28"/>
        <g id="Group_96633" data-name="Group 96633">
          <path id="Path_142400" data-name="Path 142400" d="M-784.46,1331.057h-7.169a2.659,2.659,0,0,1-2.656-2.656v-7.169a2.659,2.659,0,0,1,2.656-2.656h7.169a2.659,2.659,0,0,1,2.656,2.656v7.169A2.659,2.659,0,0,1-784.46,1331.057Zm-7.169-10.447a.629.629,0,0,0-.621.621v7.169a.629.629,0,0,0,.621.621h7.169a.629.629,0,0,0,.621-.621v-7.169a.621.621,0,0,0-.621-.621Z" transform="translate(794.285 -1318.575)" fill="#12263f"/>
        </g>
      </g>
      <g id="Group_96636" data-name="Group 96636" transform="translate(122.497 67.537)">
        <rect id="Rectangle_8561" data-name="Rectangle 8561" width="10.446" height="10.446" rx="2.415" transform="translate(1.018 1.018)" fill="#ffca28"/>
        <g id="Group_96635" data-name="Group 96635">
          <path id="Path_142401" data-name="Path 142401" d="M-784.46,1402.543h-7.169a2.659,2.659,0,0,1-2.656-2.656v-7.169a2.659,2.659,0,0,1,2.656-2.656h7.169a2.659,2.659,0,0,1,2.656,2.656v7.169A2.659,2.659,0,0,1-784.46,1402.543Zm-7.169-10.446a.629.629,0,0,0-.621.621v7.169a.629.629,0,0,0,.621.621h7.169a.629.629,0,0,0,.621-.621v-7.169a.629.629,0,0,0-.621-.621Z" transform="translate(794.285 -1390.061)" fill="#12263f"/>
        </g>
      </g>
      <g id="Group_96638" data-name="Group 96638" transform="translate(122.497 116.043)">
        <rect id="Rectangle_8562" data-name="Rectangle 8562" width="10.446" height="10.446" rx="2.415" transform="translate(1.018 1.018)" fill="#ffca28"/>
        <g id="Group_96637" data-name="Group 96637">
          <path id="Path_142402" data-name="Path 142402" d="M-784.46,1474.029h-7.169a2.659,2.659,0,0,1-2.656-2.656V1464.2a2.659,2.659,0,0,1,2.656-2.656h7.169a2.659,2.659,0,0,1,2.656,2.656v7.169A2.659,2.659,0,0,1-784.46,1474.029Zm-7.169-10.446a.629.629,0,0,0-.621.621v7.169a.629.629,0,0,0,.621.621h7.169a.629.629,0,0,0,.621-.621V1464.2a.629.629,0,0,0-.621-.621Z" transform="translate(794.285 -1461.547)" fill="#12263f"/>
        </g>
      </g>
      <rect id="Rectangle_8563" data-name="Rectangle 8563" width="82.721" height="18.78" rx="5" transform="translate(1.018 90.197)" fill="#4dd0e1"/>
      <rect id="Rectangle_8564" data-name="Rectangle 8564" width="82.721" height="18.78" rx="5" transform="translate(1.018 71.417)" fill="#4dd0e1"/>
      <path id="Path_142403" data-name="Path 142403" d="M-966.53,1411.167v-11.995a3.393,3.393,0,0,1,3.393-3.393h-6.785a3.393,3.393,0,0,0-3.393,3.393v11.995a3.393,3.393,0,0,0,3.393,3.393h6.785A3.393,3.393,0,0,1-966.53,1411.167Z" transform="translate(974.333 -1324.363)" fill="#039be5"/>
      <path id="Path_142404" data-name="Path 142404" d="M-966.53,1438.844V1426.85a3.393,3.393,0,0,1,3.393-3.393h-6.785a3.393,3.393,0,0,0-3.393,3.393v11.995a3.393,3.393,0,0,0,3.393,3.393h6.785A3.393,3.393,0,0,1-966.53,1438.844Z" transform="translate(974.333 -1333.26)" fill="#039be5"/>
      <rect id="Rectangle_8565" data-name="Rectangle 8565" width="82.721" height="18.78" rx="5" transform="translate(1.018 108.977)" fill="#4dd0e1"/>
      <rect id="Rectangle_8566" data-name="Rectangle 8566" width="82.721" height="18.78" rx="5" transform="translate(1.018 127.757)" fill="#4dd0e1"/>
      <path id="Path_142405" data-name="Path 142405" d="M-966.53,1466.521v-11.995a3.393,3.393,0,0,1,3.393-3.393h-6.785a3.393,3.393,0,0,0-3.393,3.393v11.995a3.393,3.393,0,0,0,3.393,3.393h6.785A3.393,3.393,0,0,1-966.53,1466.521Z" transform="translate(974.333 -1342.157)" fill="#039be5"/>
      <path id="Path_142406" data-name="Path 142406" d="M-966.53,1494.2V1482.2a3.393,3.393,0,0,1,3.393-3.393h-6.785a3.393,3.393,0,0,0-3.393,3.393V1494.2a3.393,3.393,0,0,0,3.393,3.393h6.785A3.393,3.393,0,0,1-966.53,1494.2Z" transform="translate(974.333 -1351.054)" fill="#039be5"/>
      <g id="Group_96643" data-name="Group 96643" transform="translate(0 70.399)">
        <g id="Group_96639" data-name="Group 96639" transform="translate(0 18.78)">
          <path id="Path_142407" data-name="Path 142407" d="M-894.469,1442.773H-970.4a4.416,4.416,0,0,1-4.411-4.411v-11.995a4.416,4.416,0,0,1,4.411-4.411h75.936a4.416,4.416,0,0,1,4.41,4.411v11.995A4.416,4.416,0,0,1-894.469,1442.773Zm-75.936-18.78a2.377,2.377,0,0,0-2.375,2.375v11.995a2.378,2.378,0,0,0,2.375,2.375h75.936a2.378,2.378,0,0,0,2.375-2.375v-11.995a2.377,2.377,0,0,0-2.375-2.375Z" transform="translate(974.815 -1421.957)" fill="#12263f"/>
        </g>
        <g id="Group_96640" data-name="Group 96640">
          <path id="Path_142408" data-name="Path 142408" d="M-894.469,1415.1H-970.4a4.416,4.416,0,0,1-4.411-4.411V1398.69a4.416,4.416,0,0,1,4.411-4.41h75.936a4.416,4.416,0,0,1,4.41,4.41v11.995A4.416,4.416,0,0,1-894.469,1415.1Zm-75.936-18.78a2.378,2.378,0,0,0-2.375,2.375v11.995a2.377,2.377,0,0,0,2.375,2.375h75.936a2.377,2.377,0,0,0,2.375-2.375V1398.69a2.378,2.378,0,0,0-2.375-2.375Z" transform="translate(974.815 -1394.28)" fill="#12263f"/>
        </g>
        <g id="Group_96641" data-name="Group 96641" transform="translate(0 37.56)">
          <path id="Path_142409" data-name="Path 142409" d="M-894.469,1470.45H-970.4a4.416,4.416,0,0,1-4.411-4.411v-11.995a4.416,4.416,0,0,1,4.411-4.411h75.936a4.416,4.416,0,0,1,4.41,4.411v11.995A4.416,4.416,0,0,1-894.469,1470.45Zm-75.936-18.78a2.377,2.377,0,0,0-2.375,2.375v11.995a2.378,2.378,0,0,0,2.375,2.375h75.936a2.378,2.378,0,0,0,2.375-2.375v-11.995a2.377,2.377,0,0,0-2.375-2.375Z" transform="translate(974.815 -1449.634)" fill="#12263f"/>
        </g>
        <g id="Group_96642" data-name="Group 96642" transform="translate(0 56.34)">
          <path id="Path_142410" data-name="Path 142410" d="M-894.469,1498.126H-970.4a4.416,4.416,0,0,1-4.411-4.411v-11.994a4.416,4.416,0,0,1,4.411-4.411h75.936a4.416,4.416,0,0,1,4.41,4.411v11.994A4.415,4.415,0,0,1-894.469,1498.126Zm-75.936-18.779a2.377,2.377,0,0,0-2.375,2.375v11.994a2.378,2.378,0,0,0,2.375,2.375h75.936a2.378,2.378,0,0,0,2.375-2.375v-11.994a2.377,2.377,0,0,0-2.375-2.375Z" transform="translate(974.815 -1477.311)" fill="#12263f"/>
        </g>
      </g>
    </g>
  </g>
</svg>
