<svg xmlns="http://www.w3.org/2000/svg" width="181" height="182" viewBox="0 0 181 182">
  <g id="t2-ic3" transform="translate(-1028 -1563)">
    <ellipse id="Ellipse_4214" data-name="Ellipse 4214" cx="90.5" cy="91" rx="90.5" ry="91" transform="translate(1028 1563)" fill="#fff"/>
    <g id="save-energy" transform="translate(1073.999 1609)">
      <g id="Group_98792" data-name="Group 98792" transform="translate(0.002 1.319)">
        <g id="Group_98788" data-name="Group 98788" transform="translate(22.412)">
          <g id="Group_98787" data-name="Group 98787">
            <path id="Path_143970" data-name="Path 143970" d="M193.854,16.65l-6.842,1.189a10.524,10.524,0,0,1-2.839-.2c-.033-.005-.065-.012-.1-.019a10.421,10.421,0,0,1-1.761-.548l-22.3-9.17a5.266,5.266,0,0,0-4.382.169l-26.4,13.319a3.159,3.159,0,0,0,1.417,5.978,3.2,3.2,0,0,0,.775-.1l20.626-5,.077-.019,42.957,13.7V17.689a1.055,1.055,0,0,0-1.235-1.039Z" transform="translate(-127.502 -7.501)" fill="#fed2a4"/>
            <path id="Path_143971" data-name="Path 143971" d="M193.854,16.65l-6.842,1.189a10.524,10.524,0,0,1-2.839-.2c-.033-.005-.065-.012-.1-.019a10.421,10.421,0,0,1-1.761-.548l-22.3-9.17a5.266,5.266,0,0,0-4.382.169l-26.4,13.319a3.157,3.157,0,0,0-.312,5.456,3.142,3.142,0,0,1,.312-.183l26.4-13.319a5.266,5.266,0,0,1,4.382-.169l22.3,9.17a10.421,10.421,0,0,0,1.761.548c.033.007.065.014.1.019a10.524,10.524,0,0,0,2.839.2l6.842-1.189a1.055,1.055,0,0,1,1.235,1.039V17.689a1.055,1.055,0,0,0-1.235-1.039Z" transform="translate(-127.502 -7.501)" fill="#ffbd86"/>
            <path id="Path_143972" data-name="Path 143972" d="M283.4,62.508a3.542,3.542,0,0,0-2.525-3.393l-3.125-.936-2-.6-6.168-1.847a3.529,3.529,0,0,0-2.223-.225,3.928,3.928,0,0,0-1.826,1.132,5.043,5.043,0,0,0-.494,5.128q19.385,13.91,22.023,11.244Q288.788,71.275,283.4,62.508Z" transform="translate(-240.493 -46.998)" fill="#ffbd86"/>
            <path id="Path_143973" data-name="Path 143973" d="M285.028,74.871l-5.65-1.693-2-.6-6.168-1.847a3.4,3.4,0,0,0-4.048.907,1.774,1.774,0,0,0-.109.148,2.745,2.745,0,0,0-.385,2.343,2.915,2.915,0,0,0,1.3,1.709L286.878,88.7a17.007,17.007,0,0,0,12.774,2.64l9.2-1.806a1.055,1.055,0,0,0,.852-1.035V87.349Z" transform="translate(-242.119 -59.362)" fill="#fed2a4"/>
          </g>
        </g>
        <g id="Group_98790" data-name="Group 98790" transform="translate(0 55.075)">
          <g id="Group_98789" data-name="Group 98789">
            <path id="Path_143974" data-name="Path 143974" d="M1.237,361.945l6.842-1.189a10.523,10.523,0,0,1,2.839.2c.033.005.065.012.1.019a10.421,10.421,0,0,1,1.761.548l22.3,9.17a5.266,5.266,0,0,0,4.382-.169l26.4-13.319a3.159,3.159,0,0,0-1.417-5.978,3.2,3.2,0,0,0-.775.1l-20.626,5-.077.019L0,342.642v18.264a1.055,1.055,0,0,0,1.235,1.039Z" transform="translate(-0.002 -338.805)" fill="#fed2a4"/>
            <path id="Path_143975" data-name="Path 143975" d="M66.167,394.471a3.143,3.143,0,0,1-.312.183l-26.4,13.319a5.266,5.266,0,0,1-4.382.169l-22.3-9.17a10.419,10.419,0,0,0-1.761-.548c-.033-.007-.065-.014-.1-.019a10.525,10.525,0,0,0-2.839-.2L1.237,399.39A1.055,1.055,0,0,1,0,398.351v5.273a1.055,1.055,0,0,0,1.235,1.039l6.842-1.189a10.523,10.523,0,0,1,2.839.2c.033.005.065.012.1.019a10.424,10.424,0,0,1,1.761.548l22.3,9.17a5.266,5.266,0,0,0,4.382-.169l26.4-13.319a3.157,3.157,0,0,0,.312-5.456Z" transform="translate(-0.002 -381.524)" fill="#ffbd86"/>
            <path id="Path_143976" data-name="Path 143976" d="M121.252,365.011a3.542,3.542,0,0,0,2.525,3.393l3.124.936,2,.6,6.168,1.847a3.529,3.529,0,0,0,2.223.225,3.928,3.928,0,0,0,1.826-1.132,5.043,5.043,0,0,0,.494-5.128q-19.385-13.91-22.023-11.244Q115.867,356.244,121.252,365.011Z" transform="translate(-96.574 -348.232)" fill="#ffbd86"/>
            <path id="Path_143977" data-name="Path 143977" d="M24.68,337.594l5.65,1.693,2,.6,6.168,1.847a3.4,3.4,0,0,0,4.048-.907,1.77,1.77,0,0,0,.109-.148,2.745,2.745,0,0,0,.385-2.343,2.914,2.914,0,0,0-1.3-1.709L22.831,323.76a17.007,17.007,0,0,0-12.774-2.64l-9.2,1.806A1.055,1.055,0,0,0,0,323.961v1.155Z" transform="translate(-0.002 -320.815)" fill="#fed2a4"/>
          </g>
        </g>
        <g id="Group_98791" data-name="Group 98791" transform="translate(18.671 17.362)">
          <circle id="Ellipse_4387" data-name="Ellipse 4387" cx="18.614" cy="18.614" r="18.614" transform="translate(0 26.32) rotate(-45)" fill="#ffca28"/>
          <path id="Path_143978" data-name="Path 143978" d="M210.719,154.941A18.619,18.619,0,0,1,194.3,187.834a18.616,18.616,0,1,0,16.418-32.893Z" transform="translate(-178.818 -146.386)" fill="#ffa726"/>
          <path id="Path_143979" data-name="Path 143979" d="M219.922,184.062a1.4,1.4,0,0,1,1.4,1.868c-.937,2.42-1.975,4.809-2.986,7.2-.061.145-.017.2.1.274,1.894,1.094,3.784,2.194,5.68,3.285a1.426,1.426,0,0,1,.3,2.37q-5.151,4.887-10.312,9.763a1.44,1.44,0,0,1-1.736.383,1.361,1.361,0,0,1-.7-1.724c.359-.927.752-1.841,1.133-2.759q.924-2.221,1.856-4.439c.064-.151.01-.2-.106-.271-1.918-1.1-3.855-2.184-5.748-3.327a1.42,1.42,0,0,1-.234-2.33q5.154-4.884,10.312-9.764a1.644,1.644,0,0,1,1.03-.528Z" transform="translate(-190.173 -170.388)" fill="#fff"/>
          <path id="Path_143980" data-name="Path 143980" d="M240.573,196.689c-1.9-1.09-3.786-2.191-5.68-3.285-.12-.069-.164-.13-.1-.274,1.012-2.39,2.049-4.779,2.986-7.2a1.4,1.4,0,0,0-1.4-1.868,1.643,1.643,0,0,0-1.03.528q-1.854,1.764-3.714,3.521c-.192.611-1.391,3.1-1.849,4.452a1.006,1.006,0,0,0,.45,1.194q2.534,1.465,5.068,2.931a1.426,1.426,0,0,1,.3,2.37q-3.283,3.114-6.572,6.222c-.306.731-.614,1.462-.9,2.2a1.362,1.362,0,0,0,.7,1.724,1.44,1.44,0,0,0,1.736-.383q5.157-4.88,10.312-9.763A1.426,1.426,0,0,0,240.573,196.689Z" transform="translate(-206.625 -170.389)" fill="#e8e8e8"/>
        </g>
      </g>
      <path id="Path_143981" data-name="Path 143981" d="M51.053,34.7a2.65,2.65,0,0,0-.291-2.466,2.756,2.756,0,0,0-4.279-.306c-3.454,3.286-6.872,6.5-10.31,9.762a2.806,2.806,0,0,0-.9,2.343,2.771,2.771,0,0,0,1.358,2.073c1.642.992,3.3,1.926,4.939,2.863-.928,2.214-1.781,4.154-2.622,6.328A2.672,2.672,0,0,0,40.3,58.683a2.72,2.72,0,0,0,3.217-.612c3.413-3.249,6.9-6.525,10.313-9.764a2.789,2.789,0,0,0,.895-2.358,2.831,2.831,0,0,0-1.448-2.111q-2.425-1.395-4.844-2.8c.88-2.066,1.793-4.2,2.62-6.338Zm-5.43,6.209a1.488,1.488,0,0,0,.657,1.93c1.895,1.094,3.785,2.2,5.682,3.286.194.112.2.131.053.27-2.777,2.634-10.3,9.838-10.535,9.929-.026-.01-.089-.033-.073-.075.935-2.416,1.924-4.675,2.974-7.161a1.488,1.488,0,0,0-.663-1.927c-1.905-1.1-3.832-2.169-5.724-3.312-.141-.085-.135-.125-.009-.244,3.669-3.476,10.188-9.721,10.512-9.925.07.015.1.053.1.068-.933,2.406-1.971,4.8-2.971,7.161Zm44.354-9.535a1.319,1.319,0,0,0-1.544-1.046L79.7,32.008a15.8,15.8,0,0,1-11.784-2.435l-5.166-3.515a1.318,1.318,0,0,0-1.483,2.18l5.166,3.515A18.464,18.464,0,0,0,80.2,34.6l8.736-1.681a1.318,1.318,0,0,0,1.046-1.544ZM26.651,22.367l19.584-4.745A4.23,4.23,0,0,0,47.548,18.9l9.916,6.747a1.318,1.318,0,1,0,1.483-2.18l-9.942-6.764a1.68,1.68,0,0,1-.77-.978,1.551,1.551,0,0,1,.22-1.261.631.631,0,0,1,.039-.05,2.208,2.208,0,0,1,2.637-.464l13.814,4.138a1.318,1.318,0,1,0,.757-2.526L51.963,11.45a4.69,4.69,0,0,0-5.524,1.314,4.131,4.131,0,0,0-.893,2.312L26.021,19.807a1.839,1.839,0,0,1-1.278-3.426l26.4-13.319a3.949,3.949,0,0,1,3.286-.126l22.295,9.17a11.636,11.636,0,0,0,2,.622,9.86,9.86,0,0,0,3.419.228L88.9,11.8a1.318,1.318,0,1,0-.445-2.6l-6.688,1.145a9.2,9.2,0,0,1-2.416-.181,9.012,9.012,0,0,1-1.629-.5L55.432.5a6.581,6.581,0,0,0-5.478.211l-26.4,13.319a4.457,4.457,0,0,0-2.458,4,4.5,4.5,0,0,0,5.556,4.344ZM33.89,59.994a1.318,1.318,0,0,0,.4,1.82,19.947,19.947,0,1,0-4.285-3.681A1.318,1.318,0,0,0,31.99,56.4a17.27,17.27,0,1,1,3.721,3.2A1.318,1.318,0,0,0,33.89,59.994Zm29.462,7.64L43.768,72.379A4.23,4.23,0,0,0,42.455,71.1L23.572,58.249A18.448,18.448,0,0,0,9.808,55.4L1.071,57.085a1.318,1.318,0,1,0,.5,2.589l8.736-1.681a15.794,15.794,0,0,1,11.784,2.436c.034.023,18.93,12.88,18.966,12.9a1.492,1.492,0,0,1,.518,2.166,2.228,2.228,0,0,1-2.7.55L30.707,73.6,25.058,71.91a1.318,1.318,0,1,0-.757,2.525l5.65,1.693,8.089,2.422a4.726,4.726,0,0,0,5.524-1.315,4.037,4.037,0,0,0,.892-2.311l19.526-4.731a1.839,1.839,0,0,1,1.278,3.426l-26.4,13.319a3.947,3.947,0,0,1-3.286.126L13.28,77.9a16.877,16.877,0,0,0-2-.622,8.834,8.834,0,0,0-3.419-.228L1.1,78.2a1.318,1.318,0,0,0,.445,2.6l6.688-1.145a9.25,9.25,0,0,1,2.506.2,9.113,9.113,0,0,1,1.539.48l22.3,9.17a6.583,6.583,0,0,0,5.478-.211l26.4-13.319a4.476,4.476,0,0,0-3.1-8.34Z" transform="translate(0 0)"/>
    </g>
  </g>
</svg>
