<svg xmlns="http://www.w3.org/2000/svg" width="733.466" height="280" viewBox="0 0 733.466 280">
  <g id="t2-i2" transform="translate(1337.144 2410.657)">
    <rect id="Rectángulo_8636" data-name="Rectángulo 8636" width="733.466" height="280" transform="translate(-1337.144 -2410.657)" fill="none"/>
    <g id="Group_97174" data-name="Group 97174">
      <rect id="Rectangle_8715" data-name="Rectangle 8715" width="60.437" height="60.437" transform="translate(-1272.54 -2225.553) rotate(-45)" fill="#cecece"/>
      <rect id="Rectangle_8716" data-name="Rectangle 8716" width="60.437" height="60.437" transform="translate(-828.968 -2229.094) rotate(-45)" fill="#cecece"/>
      <rect id="Rectangle_8717" data-name="Rectangle 8717" width="110.217" height="110.217" transform="translate(-1181.071 -2296.689) rotate(-45)" fill="#cecece"/>
      <rect id="Rectangle_8718" data-name="Rectangle 8718" width="115.077" height="115.077" transform="translate(-1311.176 -2285.33) rotate(-45)" fill="#4dd0e1"/>
      <rect id="Rectangle_8719" data-name="Rectangle 8719" width="115.077" height="115.077" transform="translate(-792.39 -2234.839) rotate(-45)" fill="#4dd0e1"/>
      <rect id="Rectangle_8720" data-name="Rectangle 8720" width="91.328" height="91.328" transform="translate(-998.952 -2313.54) rotate(-45)" fill="#cecece"/>
      <rect id="Rectangle_8721" data-name="Rectangle 8721" width="91.328" height="91.328" transform="translate(-1089.779 -2211.759) rotate(-45)" fill="#cecece"/>
      <rect id="Rectangle_8722" data-name="Rectangle 8722" width="129.239" height="129.239" transform="translate(-1220.799 -2223.918) rotate(-45)" fill="#ffca28"/>
      <rect id="Rectangle_8723" data-name="Rectangle 8723" width="115.166" height="115.166" transform="translate(-981.799 -2212.092) rotate(-45)" fill="#4dd0e1"/>
      <rect id="Rectangle_8724" data-name="Rectangle 8724" width="138.974" height="138.974" transform="translate(-914.798 -2292.686) rotate(-45)" fill="#ffca28"/>
      <g id="Group_97166" data-name="Group 97166">
        <path id="Path_142699" data-name="Path 142699" d="M-1259.667-2295.2h-4.5v3.062h5.281v1.883h-7.625v-11.375h7.609v1.9h-5.265v2.71h4.5Z" fill="#12263f"/>
        <path id="Path_142700" data-name="Path 142700" d="M-1255.542-2298.707l.07.945a2.97,2.97,0,0,1,2.43-1.1,2.254,2.254,0,0,1,2.242,1.289,2.9,2.9,0,0,1,2.539-1.289,2.522,2.522,0,0,1,2.047.8,3.682,3.682,0,0,1,.672,2.411v5.4h-2.266v-5.4a1.617,1.617,0,0,0-.281-1.053,1.243,1.243,0,0,0-.993-.333,1.41,1.41,0,0,0-1.406.971l.008,5.818h-2.258v-5.4a1.6,1.6,0,0,0-.289-1.065,1.252,1.252,0,0,0-.984-.329,1.461,1.461,0,0,0-1.391.8v5.99h-2.258v-8.453Z" fill="#12263f"/>
        <path id="Path_142701" data-name="Path 142701" d="M-1236.2-2294.4a5.083,5.083,0,0,1-.886,3.129,2.843,2.843,0,0,1-2.4,1.175,2.635,2.635,0,0,1-2.07-.89V-2287h-2.258v-11.7h2.094l.078.828a2.655,2.655,0,0,1,2.14-.984,2.862,2.862,0,0,1,2.43,1.156,5.2,5.2,0,0,1,.867,3.187Zm-2.258-.172a3.34,3.34,0,0,0-.418-1.826,1.357,1.357,0,0,0-1.214-.643,1.479,1.479,0,0,0-1.461.814v3.472a1.5,1.5,0,0,0,1.476.839Q-1238.457-2291.918-1238.457-2294.574Z" fill="#12263f"/>
        <path id="Path_142702" data-name="Path 142702" d="M-1232.417-2290.254h-2.266v-12h2.266Z" fill="#12263f"/>
        <path id="Path_142703" data-name="Path 142703" d="M-1226.667-2290.1a4.151,4.151,0,0,1-3.028-1.14,4.058,4.058,0,0,1-1.168-3.039v-.219a5.105,5.105,0,0,1,.492-2.277,3.618,3.618,0,0,1,1.4-1.547,3.9,3.9,0,0,1,2.059-.543,3.507,3.507,0,0,1,2.73,1.093,4.446,4.446,0,0,1,1,3.1v.922h-5.383a2.1,2.1,0,0,0,.66,1.328,2,2,0,0,0,1.395.5,2.436,2.436,0,0,0,2.039-.945l1.109,1.242a3.388,3.388,0,0,1-1.375,1.121A4.51,4.51,0,0,1-1226.667-2290.1Zm-.258-6.945a1.406,1.406,0,0,0-1.09.455,2.36,2.36,0,0,0-.535,1.3h3.14v-.181a1.677,1.677,0,0,0-.406-1.165A1.455,1.455,0,0,0-1226.925-2297.043Z" fill="#12263f"/>
        <path id="Path_142704" data-name="Path 142704" d="M-1222.261-2294.559a5.012,5.012,0,0,1,.484-2.242,3.543,3.543,0,0,1,1.4-1.523,4.058,4.058,0,0,1,2.113-.539,3.846,3.846,0,0,1,2.793,1.047,4.2,4.2,0,0,1,1.207,2.843l.016.578a4.427,4.427,0,0,1-1.086,3.122,3.775,3.775,0,0,1-2.914,1.175,3.79,3.79,0,0,1-2.918-1.172,4.492,4.492,0,0,1-1.09-3.187Zm2.258.161a3.157,3.157,0,0,0,.453,1.842,1.494,1.494,0,0,0,1.3.638,1.5,1.5,0,0,0,1.281-.63,3.46,3.46,0,0,0,.461-2.015,3.13,3.13,0,0,0-.461-1.831,1.5,1.5,0,0,0-1.3-.649,1.471,1.471,0,0,0-1.281.646A3.514,3.514,0,0,0-1220-2294.4Z" fill="#12263f"/>
        <path id="Path_142705" data-name="Path 142705" d="M-1209.23-2294.543a5.1,5.1,0,0,1,.887-3.148,2.875,2.875,0,0,1,2.426-1.172,2.588,2.588,0,0,1,2.039.922v-4.313h2.265v12h-2.039l-.109-.9a2.657,2.657,0,0,1-2.172,1.054,2.87,2.87,0,0,1-2.4-1.175A5.266,5.266,0,0,1-1209.23-2294.543Zm2.258.16a3.356,3.356,0,0,0,.414,1.829,1.347,1.347,0,0,0,1.2.636,1.512,1.512,0,0,0,1.477-.887v-3.351a1.49,1.49,0,0,0-1.461-.887Q-1206.972-2297.043-1206.972-2294.383Z" fill="#12263f"/>
        <path id="Path_142706" data-name="Path 142706" d="M-1195.972-2290.1a4.154,4.154,0,0,1-3.028-1.14,4.058,4.058,0,0,1-1.167-3.039v-.219a5.105,5.105,0,0,1,.492-2.277,3.617,3.617,0,0,1,1.394-1.547,3.906,3.906,0,0,1,2.059-.543,3.508,3.508,0,0,1,2.73,1.093,4.447,4.447,0,0,1,1,3.1v.922h-5.382a2.1,2.1,0,0,0,.66,1.328,2,2,0,0,0,1.394.5,2.436,2.436,0,0,0,2.039-.945l1.11,1.242a3.4,3.4,0,0,1-1.375,1.121A4.514,4.514,0,0,1-1195.972-2290.1Zm-.258-6.945a1.407,1.407,0,0,0-1.09.455,2.359,2.359,0,0,0-.535,1.3h3.141v-.181a1.682,1.682,0,0,0-.407-1.165A1.452,1.452,0,0,0-1196.23-2297.043Z" fill="#12263f"/>
        <path id="Path_142707" data-name="Path 142707" d="M-1274.742-2272.718a1.479,1.479,0,0,0,1.016-.344,1.2,1.2,0,0,0,.406-.914h2.117a2.9,2.9,0,0,1-.468,1.575,3.1,3.1,0,0,1-1.262,1.109,3.952,3.952,0,0,1-1.77.4,3.667,3.667,0,0,1-2.859-1.153,4.558,4.558,0,0,1-1.047-3.183v-.149a4.511,4.511,0,0,1,1.039-3.117,3.629,3.629,0,0,1,2.852-1.164,3.558,3.558,0,0,1,2.543.9,3.2,3.2,0,0,1,.972,2.4h-2.117a1.555,1.555,0,0,0-.406-1.073,1.359,1.359,0,0,0-1.031-.412,1.362,1.362,0,0,0-1.192.575,3.335,3.335,0,0,0-.4,1.867v.234a3.381,3.381,0,0,0,.4,1.878A1.376,1.376,0,0,0-1274.742-2272.718Z" fill="#12263f"/>
        <path id="Path_142708" data-name="Path 142708" d="M-1270.265-2275.358a5.017,5.017,0,0,1,.484-2.243,3.544,3.544,0,0,1,1.4-1.523,4.07,4.07,0,0,1,2.113-.539,3.85,3.85,0,0,1,2.793,1.047,4.2,4.2,0,0,1,1.207,2.844l.016.578a4.422,4.422,0,0,1-1.086,3.121,3.775,3.775,0,0,1-2.914,1.176,3.794,3.794,0,0,1-2.918-1.172,4.5,4.5,0,0,1-1.09-3.188Zm2.258.16a3.162,3.162,0,0,0,.453,1.843,1.5,1.5,0,0,0,1.3.637,1.5,1.5,0,0,0,1.281-.63,3.451,3.451,0,0,0,.461-2.014,3.121,3.121,0,0,0-.461-1.831,1.5,1.5,0,0,0-1.3-.65,1.473,1.473,0,0,0-1.281.646A3.514,3.514,0,0,0-1268.007-2275.2Z" fill="#12263f"/>
        <path id="Path_142709" data-name="Path 142709" d="M-1258.789-2279.507l.071.977a2.952,2.952,0,0,1,2.429-1.133,2.452,2.452,0,0,1,2,.789,3.675,3.675,0,0,1,.672,2.359v5.461h-2.258v-5.419a1.471,1.471,0,0,0-.312-1.045,1.4,1.4,0,0,0-1.039-.325,1.553,1.553,0,0,0-1.43.815v5.974h-2.258v-8.453Z" fill="#12263f"/>
        <path id="Path_142710" data-name="Path 142710" d="M-1249.2-2281.585v2.078h1.446v1.656h-1.446v4.219a1.007,1.007,0,0,0,.18.672.9.9,0,0,0,.688.2,3.544,3.544,0,0,0,.664-.055v1.711a4.667,4.667,0,0,1-1.368.2,2.156,2.156,0,0,1-2.421-2.4v-4.555h-1.235v-1.656h1.235v-2.078Z" fill="#12263f"/>
        <path id="Path_142711" data-name="Path 142711" d="M-1242.609-2270.9a4.147,4.147,0,0,1-3.027-1.141,4.054,4.054,0,0,1-1.168-3.039v-.219a5.105,5.105,0,0,1,.492-2.277,3.612,3.612,0,0,1,1.4-1.547,3.914,3.914,0,0,1,2.058-.543,3.507,3.507,0,0,1,2.731,1.094,4.442,4.442,0,0,1,1,3.1v.922h-5.383a2.1,2.1,0,0,0,.66,1.328,2,2,0,0,0,1.4.5,2.437,2.437,0,0,0,2.039-.945l1.109,1.242a3.385,3.385,0,0,1-1.375,1.121A4.514,4.514,0,0,1-1242.609-2270.9Zm-.258-6.946a1.413,1.413,0,0,0-1.09.455,2.364,2.364,0,0,0-.535,1.3h3.141v-.181a1.686,1.686,0,0,0-.406-1.165A1.455,1.455,0,0,0-1242.867-2277.843Z" fill="#12263f"/>
        <path id="Path_142712" data-name="Path 142712" d="M-1235.773-2279.507l.07.977a2.954,2.954,0,0,1,2.43-1.133,2.452,2.452,0,0,1,2,.789,3.682,3.682,0,0,1,.672,2.359v5.461h-2.258v-5.419a1.471,1.471,0,0,0-.312-1.045,1.4,1.4,0,0,0-1.039-.325,1.552,1.552,0,0,0-1.43.815v5.974h-2.258v-8.453Z" fill="#12263f"/>
        <path id="Path_142713" data-name="Path 142713" d="M-1225-2270.9a4.147,4.147,0,0,1-3.027-1.141,4.058,4.058,0,0,1-1.168-3.039v-.219a5.105,5.105,0,0,1,.492-2.277,3.612,3.612,0,0,1,1.4-1.547,3.914,3.914,0,0,1,2.058-.543,3.505,3.505,0,0,1,2.731,1.094,4.442,4.442,0,0,1,1,3.1v.922h-5.383a2.1,2.1,0,0,0,.66,1.328,2,2,0,0,0,1.4.5,2.436,2.436,0,0,0,2.039-.945l1.109,1.242a3.385,3.385,0,0,1-1.375,1.121A4.511,4.511,0,0,1-1225-2270.9Zm-.257-6.946a1.41,1.41,0,0,0-1.09.455,2.364,2.364,0,0,0-.535,1.3h3.14v-.181a1.676,1.676,0,0,0-.406-1.165A1.454,1.454,0,0,0-1225.257-2277.843Z" fill="#12263f"/>
        <path id="Path_142714" data-name="Path 142714" d="M-1220.593-2275.343a5.1,5.1,0,0,1,.886-3.148,2.878,2.878,0,0,1,2.426-1.172,2.59,2.59,0,0,1,2.039.922v-4.313h2.266v12h-2.039l-.11-.9a2.656,2.656,0,0,1-2.171,1.055,2.869,2.869,0,0,1-2.4-1.176A5.264,5.264,0,0,1-1220.593-2275.343Zm2.258.16a3.345,3.345,0,0,0,.414,1.829,1.346,1.346,0,0,0,1.2.636,1.51,1.51,0,0,0,1.476-.886v-3.352a1.489,1.489,0,0,0-1.461-.887Q-1218.336-2277.843-1218.335-2275.183Z" fill="#12263f"/>
        <path id="Path_142715" data-name="Path 142715" d="M-1211.578-2275.358a5,5,0,0,1,.485-2.243,3.548,3.548,0,0,1,1.394-1.523,4.077,4.077,0,0,1,2.114-.539,3.851,3.851,0,0,1,2.793,1.047,4.2,4.2,0,0,1,1.207,2.844l.015.578a4.418,4.418,0,0,1-1.086,3.121,3.773,3.773,0,0,1-2.914,1.176,3.8,3.8,0,0,1-2.918-1.172,4.5,4.5,0,0,1-1.09-3.188Zm2.258.16a3.17,3.17,0,0,0,.453,1.843,1.5,1.5,0,0,0,1.3.637,1.5,1.5,0,0,0,1.281-.63,3.451,3.451,0,0,0,.461-2.014,3.121,3.121,0,0,0-.461-1.831,1.5,1.5,0,0,0-1.3-.65,1.474,1.474,0,0,0-1.282.646A3.522,3.522,0,0,0-1209.32-2275.2Z" fill="#12263f"/>
        <path id="Path_142716" data-name="Path 142716" d="M-1197.429-2277.39a6.08,6.08,0,0,0-.813-.062,1.652,1.652,0,0,0-1.679.867v5.531h-2.258v-8.453h2.133l.062,1.008a2.093,2.093,0,0,1,1.883-1.164,2.393,2.393,0,0,1,.7.1Z" fill="#12263f"/>
        <path id="Path_142717" data-name="Path 142717" d="M-1192.6-2270.9a4.147,4.147,0,0,1-3.027-1.141,4.055,4.055,0,0,1-1.168-3.039v-.219a5.106,5.106,0,0,1,.492-2.277,3.617,3.617,0,0,1,1.394-1.547,3.918,3.918,0,0,1,2.059-.543,3.5,3.5,0,0,1,2.73,1.094,4.443,4.443,0,0,1,1,3.1v.922h-5.382a2.1,2.1,0,0,0,.66,1.328,2,2,0,0,0,1.394.5,2.436,2.436,0,0,0,2.039-.945l1.11,1.242a3.385,3.385,0,0,1-1.375,1.121A4.514,4.514,0,0,1-1192.6-2270.9Zm-.258-6.946a1.413,1.413,0,0,0-1.09.455,2.363,2.363,0,0,0-.535,1.3h3.141v-.181a1.681,1.681,0,0,0-.407-1.165A1.451,1.451,0,0,0-1192.859-2277.843Z" fill="#12263f"/>
        <path id="Path_142718" data-name="Path 142718" d="M-1183.265-2273.39a.728.728,0,0,0-.41-.652,4.656,4.656,0,0,0-1.317-.426q-3.015-.633-3.015-2.562a2.323,2.323,0,0,1,.933-1.879,3.764,3.764,0,0,1,2.442-.754,4.056,4.056,0,0,1,2.574.758,2.388,2.388,0,0,1,.965,1.968h-2.258a1.093,1.093,0,0,0-.313-.8,1.322,1.322,0,0,0-.976-.317,1.35,1.35,0,0,0-.883.258.815.815,0,0,0-.312.656.7.7,0,0,0,.355.606,3.682,3.682,0,0,0,1.2.4,10.036,10.036,0,0,1,1.422.379,2.337,2.337,0,0,1,1.789,2.274,2.207,2.207,0,0,1-.992,1.871,4.284,4.284,0,0,1-2.563.715,4.479,4.479,0,0,1-1.886-.379,3.165,3.165,0,0,1-1.293-1.039,2.413,2.413,0,0,1-.469-1.426h2.141a1.176,1.176,0,0,0,.445.922,1.761,1.761,0,0,0,1.109.32,1.636,1.636,0,0,0,.981-.246A.764.764,0,0,0-1183.265-2273.39Z" fill="#12263f"/>
      </g>
      <g id="Group_97167" data-name="Group 97167">
        <path id="Path_142719" data-name="Path 142719" d="M-743.308-2239.763v-11.375h3.985a5.233,5.233,0,0,1,3.14.793,2.712,2.712,0,0,1,1.071,2.324,2.573,2.573,0,0,1-.43,1.473,2.485,2.485,0,0,1-1.2.934,2.4,2.4,0,0,1,1.379.883,2.607,2.607,0,0,1,.5,1.625,3,3,0,0,1-1.047,2.484,4.717,4.717,0,0,1-2.985.859Zm2.344-6.609h1.735q1.773-.031,1.773-1.414a1.3,1.3,0,0,0-.449-1.113,2.362,2.362,0,0,0-1.418-.34h-1.641Zm0,1.656v3.07h2.008a1.938,1.938,0,0,0,1.293-.394,1.355,1.355,0,0,0,.465-1.09,1.428,1.428,0,0,0-1.617-1.586Z" fill="#12263f"/>
        <path id="Path_142720" data-name="Path 142720" d="M-728.347-2239.763a2.518,2.518,0,0,1-.226-.758,2.731,2.731,0,0,1-2.133.915,3,3,0,0,1-2.059-.719,2.313,2.313,0,0,1-.816-1.813,2.389,2.389,0,0,1,1-2.062,4.907,4.907,0,0,1,2.879-.727h1.039v-.484a1.4,1.4,0,0,0-.3-.938,1.182,1.182,0,0,0-.949-.351,1.349,1.349,0,0,0-.9.273.935.935,0,0,0-.324.75h-2.258a2.27,2.27,0,0,1,.454-1.359,3,3,0,0,1,1.281-.981,4.672,4.672,0,0,1,1.859-.355,3.693,3.693,0,0,1,2.481.785,2.747,2.747,0,0,1,.918,2.207v3.664a4.032,4.032,0,0,0,.336,1.82v.133Zm-1.867-1.57a1.94,1.94,0,0,0,.922-.223,1.465,1.465,0,0,0,.625-.6v-1.453h-.844q-1.7,0-1.8,1.171l-.008.133a.9.9,0,0,0,.3.7A1.153,1.153,0,0,0-730.214-2241.333Z" fill="#12263f"/>
        <path id="Path_142721" data-name="Path 142721" d="M-722.284-2239.763h-2.266v-12h2.266Z" fill="#12263f"/>
        <path id="Path_142722" data-name="Path 142722" d="M-715.526-2239.763a2.49,2.49,0,0,1-.227-.758,2.731,2.731,0,0,1-2.133.915,3,3,0,0,1-2.058-.719,2.314,2.314,0,0,1-.817-1.813,2.389,2.389,0,0,1,1-2.062,4.907,4.907,0,0,1,2.879-.727h1.039v-.484a1.4,1.4,0,0,0-.3-.938,1.186,1.186,0,0,0-.95-.351,1.346,1.346,0,0,0-.894.273.932.932,0,0,0-.324.75h-2.258a2.269,2.269,0,0,1,.453-1.359,3,3,0,0,1,1.281-.981,4.673,4.673,0,0,1,1.86-.355,3.69,3.69,0,0,1,2.48.785,2.747,2.747,0,0,1,.918,2.207v3.664a4.032,4.032,0,0,0,.336,1.82v.133Zm-1.868-1.57a1.94,1.94,0,0,0,.922-.223,1.454,1.454,0,0,0,.625-.6v-1.453h-.843q-1.7,0-1.8,1.171l-.008.133a.907.907,0,0,0,.3.7A1.155,1.155,0,0,0-717.394-2241.333Z" fill="#12263f"/>
        <path id="Path_142723" data-name="Path 142723" d="M-709.769-2248.216l.071.977a2.952,2.952,0,0,1,2.429-1.133,2.452,2.452,0,0,1,2,.789,3.675,3.675,0,0,1,.672,2.359v5.461h-2.257v-5.419a1.47,1.47,0,0,0-.313-1.045,1.4,1.4,0,0,0-1.039-.325,1.553,1.553,0,0,0-1.43.815v5.974h-2.258v-8.453Z" fill="#12263f"/>
        <path id="Path_142724" data-name="Path 142724" d="M-699.37-2241.427a1.478,1.478,0,0,0,1.016-.344,1.207,1.207,0,0,0,.406-.914h2.117a2.889,2.889,0,0,1-.469,1.575,3.087,3.087,0,0,1-1.262,1.109,3.951,3.951,0,0,1-1.769.4,3.667,3.667,0,0,1-2.859-1.153,4.553,4.553,0,0,1-1.047-3.183v-.149a4.506,4.506,0,0,1,1.039-3.117,3.626,3.626,0,0,1,2.851-1.164,3.555,3.555,0,0,1,2.543.9,3.2,3.2,0,0,1,.973,2.4h-2.117a1.559,1.559,0,0,0-.406-1.073,1.36,1.36,0,0,0-1.032-.412,1.36,1.36,0,0,0-1.191.575,3.327,3.327,0,0,0-.4,1.867v.234a3.373,3.373,0,0,0,.4,1.878A1.376,1.376,0,0,0-699.37-2241.427Z" fill="#12263f"/>
        <path id="Path_142725" data-name="Path 142725" d="M-690.651-2239.606a4.149,4.149,0,0,1-3.028-1.141,4.058,4.058,0,0,1-1.168-3.039V-2244a5.093,5.093,0,0,1,.493-2.277,3.61,3.61,0,0,1,1.394-1.547,3.918,3.918,0,0,1,2.059-.543,3.5,3.5,0,0,1,2.73,1.094,4.442,4.442,0,0,1,1,3.1v.922h-5.383a2.1,2.1,0,0,0,.661,1.328,2,2,0,0,0,1.394.5,2.436,2.436,0,0,0,2.039-.945l1.11,1.242a3.385,3.385,0,0,1-1.375,1.121A4.518,4.518,0,0,1-690.651-2239.606Zm-.258-6.946a1.412,1.412,0,0,0-1.09.455,2.364,2.364,0,0,0-.535,1.3h3.14v-.181a1.676,1.676,0,0,0-.406-1.165A1.454,1.454,0,0,0-690.909-2246.552Z" fill="#12263f"/>
        <path id="Path_142726" data-name="Path 142726" d="M-686.245-2244.067a5.017,5.017,0,0,1,.484-2.243,3.543,3.543,0,0,1,1.395-1.523,4.071,4.071,0,0,1,2.113-.539,3.849,3.849,0,0,1,2.793,1.047,4.2,4.2,0,0,1,1.207,2.844l.016.578a4.422,4.422,0,0,1-1.086,3.121,3.776,3.776,0,0,1-2.914,1.176,3.793,3.793,0,0,1-2.918-1.172,4.5,4.5,0,0,1-1.09-3.188Zm2.258.16a3.162,3.162,0,0,0,.453,1.843,1.5,1.5,0,0,0,1.3.637,1.5,1.5,0,0,0,1.281-.63,3.451,3.451,0,0,0,.461-2.014,3.121,3.121,0,0,0-.461-1.831,1.5,1.5,0,0,0-1.3-.65,1.473,1.473,0,0,0-1.281.646A3.514,3.514,0,0,0-683.987-2243.907Z" fill="#12263f"/>
        <path id="Path_142727" data-name="Path 142727" d="M-741.487-2224.852A5.1,5.1,0,0,1-740.6-2228a2.878,2.878,0,0,1,2.426-1.172,2.59,2.59,0,0,1,2.039.922v-4.313h2.266v12h-2.039l-.11-.9a2.656,2.656,0,0,1-2.171,1.055,2.869,2.869,0,0,1-2.4-1.176A5.257,5.257,0,0,1-741.487-2224.852Zm2.258.161a3.349,3.349,0,0,0,.414,1.829,1.345,1.345,0,0,0,1.2.635,1.509,1.509,0,0,0,1.476-.886v-3.352a1.489,1.489,0,0,0-1.461-.887Q-739.23-2227.352-739.229-2224.691Z" fill="#12263f"/>
        <path id="Path_142728" data-name="Path 142728" d="M-728.229-2220.406a4.147,4.147,0,0,1-3.028-1.141,4.057,4.057,0,0,1-1.168-3.039v-.219a5.108,5.108,0,0,1,.492-2.277,3.617,3.617,0,0,1,1.395-1.547,3.913,3.913,0,0,1,2.059-.543,3.5,3.5,0,0,1,2.73,1.094,4.443,4.443,0,0,1,1,3.1v.922h-5.383a2.1,2.1,0,0,0,.66,1.328,2,2,0,0,0,1.4.5,2.436,2.436,0,0,0,2.039-.945l1.109,1.242a3.37,3.37,0,0,1-1.375,1.121A4.51,4.51,0,0,1-728.229-2220.406Zm-.258-6.946a1.408,1.408,0,0,0-1.09.456,2.357,2.357,0,0,0-.535,1.3h3.14v-.18a1.675,1.675,0,0,0-.406-1.165A1.451,1.451,0,0,0-728.487-2227.352Z" fill="#12263f"/>
        <path id="Path_142729" data-name="Path 142729" d="M-715.972-2222.227a1.483,1.483,0,0,0,1.016-.343,1.205,1.205,0,0,0,.406-.914h2.117a2.9,2.9,0,0,1-.468,1.574,3.094,3.094,0,0,1-1.262,1.109,3.952,3.952,0,0,1-1.77.4,3.667,3.667,0,0,1-2.859-1.153,4.557,4.557,0,0,1-1.047-3.183v-.149a4.515,4.515,0,0,1,1.039-3.117,3.629,3.629,0,0,1,2.852-1.164,3.558,3.558,0,0,1,2.543.9,3.2,3.2,0,0,1,.972,2.4h-2.117a1.551,1.551,0,0,0-.406-1.072,1.356,1.356,0,0,0-1.031-.413,1.36,1.36,0,0,0-1.192.576,3.33,3.33,0,0,0-.4,1.866v.234a3.381,3.381,0,0,0,.4,1.878A1.376,1.376,0,0,0-715.972-2222.227Z" fill="#12263f"/>
        <path id="Path_142730" data-name="Path 142730" d="M-706.245-2220.563a2.492,2.492,0,0,1-.227-.757,2.731,2.731,0,0,1-2.132.914,3,3,0,0,1-2.059-.719,2.312,2.312,0,0,1-.816-1.813,2.389,2.389,0,0,1,1-2.062,4.916,4.916,0,0,1,2.879-.727h1.039v-.484a1.393,1.393,0,0,0-.3-.937,1.18,1.18,0,0,0-.949-.352,1.349,1.349,0,0,0-.9.273.931.931,0,0,0-.324.75h-2.258a2.269,2.269,0,0,1,.453-1.359,3,3,0,0,1,1.281-.98,4.652,4.652,0,0,1,1.86-.356,3.69,3.69,0,0,1,2.48.785,2.744,2.744,0,0,1,.918,2.207v3.664a4.037,4.037,0,0,0,.336,1.821v.132Zm-1.867-1.57a1.953,1.953,0,0,0,.922-.222,1.47,1.47,0,0,0,.625-.6v-1.453h-.844q-1.7,0-1.8,1.172l-.008.132a.905.905,0,0,0,.3.7A1.156,1.156,0,0,0-708.112-2222.133Z" fill="#12263f"/>
        <path id="Path_142731" data-name="Path 142731" d="M-697.815-2226.9a6.107,6.107,0,0,0-.813-.063,1.655,1.655,0,0,0-1.68.867v5.531h-2.257v-8.453h2.132l.063,1.008a2.093,2.093,0,0,1,1.883-1.164,2.361,2.361,0,0,1,.7.1Z" fill="#12263f"/>
        <path id="Path_142732" data-name="Path 142732" d="M-697.206-2224.852a4.955,4.955,0,0,1,.926-3.132,3,3,0,0,1,2.5-1.188,2.632,2.632,0,0,1,2.164.953l.094-.8h2.047v8.172a3.612,3.612,0,0,1-.5,1.93,3.24,3.24,0,0,1-1.418,1.25,5,5,0,0,1-2.141.43,4.636,4.636,0,0,1-1.812-.371,3.221,3.221,0,0,1-1.336-.958l1-1.375a2.646,2.646,0,0,0,2.046.946,1.935,1.935,0,0,0,1.4-.481,1.8,1.8,0,0,0,.5-1.363v-.453a2.611,2.611,0,0,1-2.055.883,3,3,0,0,1-2.465-1.192,4.949,4.949,0,0,1-.941-3.16Zm2.258.161a3.1,3.1,0,0,0,.461,1.809,1.464,1.464,0,0,0,1.265.655,1.565,1.565,0,0,0,1.477-.777v-3.571a1.563,1.563,0,0,0-1.461-.777,1.474,1.474,0,0,0-1.277.667A3.5,3.5,0,0,0-694.948-2224.691Z" fill="#12263f"/>
        <path id="Path_142733" data-name="Path 142733" d="M-682.847-2220.563a2.52,2.52,0,0,1-.226-.757,2.733,2.733,0,0,1-2.133.914,3,3,0,0,1-2.059-.719,2.312,2.312,0,0,1-.816-1.813,2.389,2.389,0,0,1,1-2.062,4.916,4.916,0,0,1,2.879-.727h1.039v-.484a1.393,1.393,0,0,0-.3-.937,1.179,1.179,0,0,0-.949-.352,1.349,1.349,0,0,0-.9.273.935.935,0,0,0-.324.75h-2.258a2.27,2.27,0,0,1,.454-1.359,2.984,2.984,0,0,1,1.281-.98,4.651,4.651,0,0,1,1.859-.356,3.7,3.7,0,0,1,2.481.785,2.747,2.747,0,0,1,.918,2.207v3.664a4.037,4.037,0,0,0,.336,1.821v.132Zm-1.867-1.57a1.95,1.95,0,0,0,.922-.222,1.47,1.47,0,0,0,.625-.6v-1.453h-.844q-1.7,0-1.8,1.172l-.008.132a.9.9,0,0,0,.3.7A1.153,1.153,0,0,0-684.714-2222.133Z" fill="#12263f"/>
      </g>
      <g id="Group_97168" data-name="Group 97168">
        <path id="Path_142734" data-name="Path 142734" d="M-1182.92-2225.182h-4.109l-.782,2.344h-2.492l4.235-11.375h2.172l4.257,11.375h-2.492Zm-3.476-1.9h2.843l-1.429-4.257Z" fill="#12263f"/>
        <path id="Path_142735" data-name="Path 142735" d="M-1176.342-2222.838h-2.265v-12h2.265Z" fill="#12263f"/>
        <path id="Path_142736" data-name="Path 142736" d="M-1172.365-2231.292l.07.946a2.97,2.97,0,0,1,2.43-1.1,2.254,2.254,0,0,1,2.242,1.289,2.9,2.9,0,0,1,2.539-1.289,2.521,2.521,0,0,1,2.047.8,3.68,3.68,0,0,1,.672,2.41v5.4h-2.266v-5.4a1.614,1.614,0,0,0-.281-1.052,1.242,1.242,0,0,0-.992-.333,1.41,1.41,0,0,0-1.407.97l.008,5.819h-2.258v-5.4a1.591,1.591,0,0,0-.289-1.064,1.252,1.252,0,0,0-.984-.329,1.463,1.463,0,0,0-1.391.8v5.991h-2.257v-8.454Z" fill="#12263f"/>
        <path id="Path_142737" data-name="Path 142737" d="M-1155.732-2222.838a2.5,2.5,0,0,1-.227-.758,2.734,2.734,0,0,1-2.133.914,3,3,0,0,1-2.058-.719,2.312,2.312,0,0,1-.817-1.812,2.39,2.39,0,0,1,1-2.063,4.914,4.914,0,0,1,2.879-.726h1.039v-.485a1.39,1.39,0,0,0-.3-.937,1.179,1.179,0,0,0-.949-.352,1.34,1.34,0,0,0-.894.274.928.928,0,0,0-.324.75h-2.258a2.27,2.27,0,0,1,.453-1.36,3,3,0,0,1,1.281-.98,4.668,4.668,0,0,1,1.859-.356,3.693,3.693,0,0,1,2.481.785,2.749,2.749,0,0,1,.918,2.207v3.664a4.035,4.035,0,0,0,.336,1.821v.133Zm-1.868-1.571a1.948,1.948,0,0,0,.922-.222,1.459,1.459,0,0,0,.625-.6v-1.453h-.843q-1.7,0-1.805,1.172l-.008.133a.9.9,0,0,0,.3.7A1.155,1.155,0,0,0-1157.6-2224.409Z" fill="#12263f"/>
        <path id="Path_142738" data-name="Path 142738" d="M-1148.537-2224.5a1.483,1.483,0,0,0,1.016-.344,1.207,1.207,0,0,0,.406-.914H-1145a2.889,2.889,0,0,1-.469,1.574,3.075,3.075,0,0,1-1.262,1.109,3.951,3.951,0,0,1-1.769.4,3.67,3.67,0,0,1-2.859-1.152,4.558,4.558,0,0,1-1.047-3.184v-.149a4.509,4.509,0,0,1,1.039-3.117,3.625,3.625,0,0,1,2.851-1.164,3.551,3.551,0,0,1,2.543.9,3.2,3.2,0,0,1,.973,2.4h-2.117a1.556,1.556,0,0,0-.406-1.072,1.357,1.357,0,0,0-1.032-.412,1.357,1.357,0,0,0-1.191.575,3.325,3.325,0,0,0-.4,1.866v.234a3.374,3.374,0,0,0,.4,1.878A1.378,1.378,0,0,0-1148.537-2224.5Z" fill="#12263f"/>
        <path id="Path_142739" data-name="Path 142739" d="M-1139.818-2222.682a4.149,4.149,0,0,1-3.028-1.141,4.055,4.055,0,0,1-1.168-3.039v-.219a5.1,5.1,0,0,1,.493-2.277,3.614,3.614,0,0,1,1.394-1.547,3.915,3.915,0,0,1,2.059-.543,3.508,3.508,0,0,1,2.73,1.094,4.444,4.444,0,0,1,1,3.1v.921h-5.383a2.1,2.1,0,0,0,.661,1.329,2,2,0,0,0,1.394.5,2.434,2.434,0,0,0,2.039-.946l1.11,1.242a3.4,3.4,0,0,1-1.375,1.122A4.517,4.517,0,0,1-1139.818-2222.682Zm-.258-6.945a1.408,1.408,0,0,0-1.09.455,2.358,2.358,0,0,0-.535,1.3h3.14v-.18a1.675,1.675,0,0,0-.406-1.165A1.455,1.455,0,0,0-1140.076-2229.627Z" fill="#12263f"/>
        <path id="Path_142740" data-name="Path 142740" d="M-1132.982-2231.292l.07.977a2.951,2.951,0,0,1,2.43-1.133,2.454,2.454,0,0,1,2,.789,3.685,3.685,0,0,1,.671,2.36v5.461h-2.257v-5.419a1.47,1.47,0,0,0-.313-1.045,1.4,1.4,0,0,0-1.039-.325,1.552,1.552,0,0,0-1.43.814v5.975h-2.257v-8.454Z" fill="#12263f"/>
        <path id="Path_142741" data-name="Path 142741" d="M-1121.2-2222.838a2.5,2.5,0,0,1-.227-.758,2.734,2.734,0,0,1-2.133.914,3,3,0,0,1-2.058-.719,2.312,2.312,0,0,1-.817-1.812,2.389,2.389,0,0,1,1-2.063,4.913,4.913,0,0,1,2.878-.726h1.04v-.485a1.4,1.4,0,0,0-.3-.937,1.181,1.181,0,0,0-.949-.352,1.343,1.343,0,0,0-.9.274.928.928,0,0,0-.324.75h-2.258a2.27,2.27,0,0,1,.453-1.36,3.006,3.006,0,0,1,1.281-.98,4.669,4.669,0,0,1,1.86-.356,3.69,3.69,0,0,1,2.48.785,2.749,2.749,0,0,1,.918,2.207v3.664a4.035,4.035,0,0,0,.336,1.821v.133Zm-1.867-1.571a1.951,1.951,0,0,0,.922-.222,1.47,1.47,0,0,0,.625-.6v-1.453h-.844q-1.7,0-1.805,1.172l-.008.133a.9.9,0,0,0,.3.7A1.156,1.156,0,0,0-1123.068-2224.409Z" fill="#12263f"/>
        <path id="Path_142742" data-name="Path 142742" d="M-1115.4-2231.292l.07.946a2.969,2.969,0,0,1,2.43-1.1,2.254,2.254,0,0,1,2.242,1.289,2.9,2.9,0,0,1,2.539-1.289,2.521,2.521,0,0,1,2.047.8,3.68,3.68,0,0,1,.672,2.41v5.4h-2.266v-5.4a1.614,1.614,0,0,0-.281-1.052,1.242,1.242,0,0,0-.992-.333,1.41,1.41,0,0,0-1.407.97l.008,5.819h-2.258v-5.4a1.591,1.591,0,0,0-.289-1.064,1.252,1.252,0,0,0-.984-.329,1.462,1.462,0,0,0-1.391.8v5.991h-2.257v-8.454Z" fill="#12263f"/>
        <path id="Path_142743" data-name="Path 142743" d="M-1103.686-2233.479a1.115,1.115,0,0,1,.34-.836,1.276,1.276,0,0,1,.926-.328,1.279,1.279,0,0,1,.922.328,1.108,1.108,0,0,1,.344.836,1.112,1.112,0,0,1-.348.844,1.285,1.285,0,0,1-.918.328,1.287,1.287,0,0,1-.918-.328A1.112,1.112,0,0,1-1103.686-2233.479Zm2.4,10.641h-2.266v-8.454h2.266Z" fill="#12263f"/>
        <path id="Path_142744" data-name="Path 142744" d="M-1095.537-2222.682a4.147,4.147,0,0,1-3.027-1.141,4.052,4.052,0,0,1-1.168-3.039v-.219a5.111,5.111,0,0,1,.492-2.277,3.621,3.621,0,0,1,1.394-1.547,3.915,3.915,0,0,1,2.059-.543,3.508,3.508,0,0,1,2.73,1.094,4.444,4.444,0,0,1,1,3.1v.921h-5.382a2.1,2.1,0,0,0,.66,1.329,2,2,0,0,0,1.394.5,2.434,2.434,0,0,0,2.039-.946l1.11,1.242a3.4,3.4,0,0,1-1.375,1.122A4.514,4.514,0,0,1-1095.537-2222.682Zm-.258-6.945a1.41,1.41,0,0,0-1.09.455,2.358,2.358,0,0,0-.535,1.3h3.141v-.18a1.68,1.68,0,0,0-.407-1.165A1.452,1.452,0,0,0-1095.8-2229.627Z" fill="#12263f"/>
        <path id="Path_142745" data-name="Path 142745" d="M-1088.7-2231.292l.07.977a2.953,2.953,0,0,1,2.43-1.133,2.454,2.454,0,0,1,2,.789,3.691,3.691,0,0,1,.672,2.36v5.461h-2.258v-5.419a1.47,1.47,0,0,0-.313-1.045,1.394,1.394,0,0,0-1.039-.325,1.551,1.551,0,0,0-1.429.814v5.975h-2.258v-8.454Z" fill="#12263f"/>
        <path id="Path_142746" data-name="Path 142746" d="M-1079.115-2233.37v2.078h1.445v1.657h-1.445v4.218a1,1,0,0,0,.179.672.9.9,0,0,0,.688.2,3.65,3.65,0,0,0,.664-.054v1.711a4.656,4.656,0,0,1-1.367.2,2.156,2.156,0,0,1-2.422-2.4v-4.554h-1.234v-1.657h1.234v-2.078Z" fill="#12263f"/>
        <path id="Path_142747" data-name="Path 142747" d="M-1077-2227.143a5.012,5.012,0,0,1,.484-2.242,3.553,3.553,0,0,1,1.4-1.524,4.068,4.068,0,0,1,2.113-.539,3.849,3.849,0,0,1,2.793,1.047,4.2,4.2,0,0,1,1.207,2.844l.016.578a4.423,4.423,0,0,1-1.086,3.121,3.774,3.774,0,0,1-2.914,1.176,3.793,3.793,0,0,1-2.918-1.172,4.494,4.494,0,0,1-1.09-3.188Zm2.258.16a3.16,3.16,0,0,0,.453,1.843,1.5,1.5,0,0,0,1.3.638,1.5,1.5,0,0,0,1.281-.63,3.453,3.453,0,0,0,.461-2.015,3.123,3.123,0,0,0-.461-1.831,1.5,1.5,0,0,0-1.3-.649,1.473,1.473,0,0,0-1.281.645A3.518,3.518,0,0,0-1074.74-2226.983Z" fill="#12263f"/>
        <path id="Path_142748" data-name="Path 142748" d="M-1164.732-2209.974a6.107,6.107,0,0,0-.813-.063,1.654,1.654,0,0,0-1.68.868v5.531h-2.257v-8.453h2.132l.063,1.008a2.093,2.093,0,0,1,1.883-1.165,2.393,2.393,0,0,1,.7.1Z" fill="#12263f"/>
        <path id="Path_142749" data-name="Path 142749" d="M-1159.9-2203.482a4.149,4.149,0,0,1-3.028-1.141,4.056,4.056,0,0,1-1.168-3.039v-.218a5.1,5.1,0,0,1,.493-2.278,3.623,3.623,0,0,1,1.394-1.547,3.927,3.927,0,0,1,2.059-.543,3.508,3.508,0,0,1,2.73,1.094,4.447,4.447,0,0,1,1,3.1v.922h-5.383a2.1,2.1,0,0,0,.661,1.328,2,2,0,0,0,1.394.5,2.434,2.434,0,0,0,2.039-.946l1.11,1.243a3.393,3.393,0,0,1-1.375,1.121A4.517,4.517,0,0,1-1159.9-2203.482Zm-.258-6.945a1.411,1.411,0,0,0-1.09.455,2.363,2.363,0,0,0-.535,1.3h3.141v-.181a1.679,1.679,0,0,0-.407-1.165A1.453,1.453,0,0,0-1160.162-2210.427Z" fill="#12263f"/>
        <path id="Path_142750" data-name="Path 142750" d="M-1155.5-2207.927a5.1,5.1,0,0,1,.887-3.149,2.875,2.875,0,0,1,2.425-1.172,2.592,2.592,0,0,1,2.04.922v-4.312h2.265v12h-2.039l-.109-.9a2.655,2.655,0,0,1-2.172,1.055,2.87,2.87,0,0,1-2.395-1.176A5.258,5.258,0,0,1-1155.5-2207.927Zm2.258.16a3.347,3.347,0,0,0,.414,1.829,1.347,1.347,0,0,0,1.2.636,1.512,1.512,0,0,0,1.477-.887v-3.352a1.491,1.491,0,0,0-1.461-.886Q-1153.241-2210.427-1153.24-2207.767Z" fill="#12263f"/>
        <path id="Path_142751" data-name="Path 142751" d="M-1141.068-2204.5a2.83,2.83,0,0,1-2.313,1.016,2.669,2.669,0,0,1-2.074-.781,3.336,3.336,0,0,1-.731-2.289v-5.539h2.258v5.467q0,1.322,1.2,1.322a1.632,1.632,0,0,0,1.579-.8v-5.991h2.265v8.453h-2.125Z" fill="#12263f"/>
        <path id="Path_142752" data-name="Path 142752" d="M-1135.1-2212.091l.071.976a2.951,2.951,0,0,1,2.429-1.133,2.453,2.453,0,0,1,2,.79,3.675,3.675,0,0,1,.672,2.359v5.461h-2.258v-5.419a1.47,1.47,0,0,0-.312-1.045,1.4,1.4,0,0,0-1.039-.325,1.552,1.552,0,0,0-1.43.814v5.975h-2.258v-8.453Z" fill="#12263f"/>
        <path id="Path_142753" data-name="Path 142753" d="M-1128.568-2207.927a5.1,5.1,0,0,1,.886-3.149,2.878,2.878,0,0,1,2.426-1.172,2.59,2.59,0,0,1,2.039.922v-4.312h2.266v12h-2.039l-.11-.9a2.653,2.653,0,0,1-2.171,1.055,2.869,2.869,0,0,1-2.4-1.176A5.252,5.252,0,0,1-1128.568-2207.927Zm2.257.16a3.347,3.347,0,0,0,.415,1.829,1.346,1.346,0,0,0,1.2.636,1.509,1.509,0,0,0,1.476-.887v-3.352a1.489,1.489,0,0,0-1.461-.886Q-1126.311-2210.427-1126.311-2207.767Z" fill="#12263f"/>
        <path id="Path_142754" data-name="Path 142754" d="M-1114.3-2203.638a2.518,2.518,0,0,1-.226-.758,2.734,2.734,0,0,1-2.133.914,3,3,0,0,1-2.059-.719,2.311,2.311,0,0,1-.816-1.812,2.391,2.391,0,0,1,1-2.063,4.915,4.915,0,0,1,2.879-.726h1.039v-.485a1.4,1.4,0,0,0-.3-.937,1.183,1.183,0,0,0-.949-.352,1.349,1.349,0,0,0-.895.274.931.931,0,0,0-.324.75h-2.258a2.271,2.271,0,0,1,.454-1.36,3,3,0,0,1,1.281-.98,4.672,4.672,0,0,1,1.859-.356,3.688,3.688,0,0,1,2.481.786,2.746,2.746,0,0,1,.918,2.207v3.664a4.019,4.019,0,0,0,.336,1.82v.133Zm-1.867-1.57a1.951,1.951,0,0,0,.922-.223,1.472,1.472,0,0,0,.625-.6v-1.453h-.844q-1.7,0-1.8,1.172l-.008.133a.9.9,0,0,0,.3.7A1.149,1.149,0,0,0-1116.17-2205.208Z" fill="#12263f"/>
        <path id="Path_142755" data-name="Path 142755" d="M-1108.545-2212.091l.07.976a2.953,2.953,0,0,1,2.43-1.133,2.453,2.453,0,0,1,2,.79,3.681,3.681,0,0,1,.672,2.359v5.461h-2.258v-5.419a1.47,1.47,0,0,0-.312-1.045,1.4,1.4,0,0,0-1.039-.325,1.551,1.551,0,0,0-1.43.814v5.975h-2.258v-8.453Z" fill="#12263f"/>
        <path id="Path_142756" data-name="Path 142756" d="M-1098.959-2214.169v2.078h1.445v1.656h-1.445v4.219a1.009,1.009,0,0,0,.18.672.9.9,0,0,0,.687.2,3.538,3.538,0,0,0,.664-.055v1.711a4.656,4.656,0,0,1-1.367.2,2.156,2.156,0,0,1-2.422-2.4v-4.555h-1.234v-1.656h1.234v-2.078Z" fill="#12263f"/>
        <path id="Path_142757" data-name="Path 142757" d="M-1092.365-2203.482a4.151,4.151,0,0,1-3.028-1.141,4.055,4.055,0,0,1-1.168-3.039v-.218a5.113,5.113,0,0,1,.493-2.278,3.622,3.622,0,0,1,1.394-1.547,3.926,3.926,0,0,1,2.059-.543,3.508,3.508,0,0,1,2.73,1.094,4.446,4.446,0,0,1,1,3.1v.922h-5.382a2.092,2.092,0,0,0,.66,1.328,2,2,0,0,0,1.394.5,2.434,2.434,0,0,0,2.039-.946l1.11,1.243a3.393,3.393,0,0,1-1.375,1.121A4.514,4.514,0,0,1-1092.365-2203.482Zm-.258-6.945a1.411,1.411,0,0,0-1.09.455,2.364,2.364,0,0,0-.535,1.3h3.141v-.181a1.679,1.679,0,0,0-.407-1.165A1.453,1.453,0,0,0-1092.623-2210.427Z" fill="#12263f"/>
      </g>
      <g id="Group_97169" data-name="Group 97169">
        <path id="Path_142758" data-name="Path 142758" d="M-944.977-2214.738l2.578-8.555h2.609l-3.96,11.375H-946.2l-3.945-11.375h2.6Z" fill="#12263f"/>
        <path id="Path_142759" data-name="Path 142759" d="M-938.883-2222.559a1.112,1.112,0,0,1,.34-.836,1.278,1.278,0,0,1,.925-.328,1.282,1.282,0,0,1,.922.328,1.1,1.1,0,0,1,.344.836,1.109,1.109,0,0,1-.348.844,1.281,1.281,0,0,1-.918.328,1.282,1.282,0,0,1-.918-.328A1.111,1.111,0,0,1-938.883-2222.559Zm2.4,10.641h-2.265v-8.453h2.265Z" fill="#12263f"/>
        <path id="Path_142760" data-name="Path 142760" d="M-929.875-2218.254a6.258,6.258,0,0,0-.813-.062,1.655,1.655,0,0,0-1.68.867v5.531h-2.257v-8.453h2.132l.063,1.008a2.093,2.093,0,0,1,1.883-1.164,2.393,2.393,0,0,1,.7.1Z" fill="#12263f"/>
        <path id="Path_142761" data-name="Path 142761" d="M-925.7-2222.449v2.078h1.446v1.656H-925.7v4.219a1.007,1.007,0,0,0,.18.672.9.9,0,0,0,.687.2,3.538,3.538,0,0,0,.664-.055v1.711a4.656,4.656,0,0,1-1.367.2,2.156,2.156,0,0,1-2.422-2.4v-4.555h-1.234v-1.656h1.234v-2.078Z" fill="#12263f"/>
        <path id="Path_142762" data-name="Path 142762" d="M-917.93-2212.777a2.832,2.832,0,0,1-2.313,1.015,2.67,2.67,0,0,1-2.074-.781,3.334,3.334,0,0,1-.73-2.289v-5.539h2.257v5.467q0,1.323,1.2,1.322a1.63,1.63,0,0,0,1.578-.8v-5.991h2.265v8.453h-2.125Z" fill="#12263f"/>
        <path id="Path_142763" data-name="Path 142763" d="M-909.141-2211.918a2.49,2.49,0,0,1-.227-.758,2.728,2.728,0,0,1-2.132.914,3,3,0,0,1-2.059-.718,2.312,2.312,0,0,1-.816-1.813,2.389,2.389,0,0,1,1-2.062,4.916,4.916,0,0,1,2.879-.727h1.039v-.484a1.4,1.4,0,0,0-.3-.938,1.183,1.183,0,0,0-.949-.351,1.349,1.349,0,0,0-.9.273.931.931,0,0,0-.324.75h-2.258a2.269,2.269,0,0,1,.453-1.359,3,3,0,0,1,1.281-.981,4.673,4.673,0,0,1,1.86-.355,3.683,3.683,0,0,1,2.48.785,2.743,2.743,0,0,1,.918,2.207v3.664a4.032,4.032,0,0,0,.336,1.82v.133Zm-1.867-1.57a1.954,1.954,0,0,0,.922-.223,1.465,1.465,0,0,0,.625-.6v-1.453h-.844q-1.7,0-1.8,1.172l-.008.133a.9.9,0,0,0,.3.7A1.152,1.152,0,0,0-911.008-2213.488Z" fill="#12263f"/>
        <path id="Path_142764" data-name="Path 142764" d="M-903.079-2211.918h-2.265v-12h2.265Z" fill="#12263f"/>
        <path id="Path_142765" data-name="Path 142765" d="M-901.235-2222.559a1.112,1.112,0,0,1,.34-.836,1.28,1.28,0,0,1,.926-.328,1.283,1.283,0,0,1,.922.328,1.107,1.107,0,0,1,.343.836,1.111,1.111,0,0,1-.347.844,1.282,1.282,0,0,1-.918.328,1.281,1.281,0,0,1-.918-.328A1.108,1.108,0,0,1-901.235-2222.559Zm2.4,10.641H-901.1v-8.453h2.266Z" fill="#12263f"/>
        <path id="Path_142766" data-name="Path 142766" d="M-894.383-2213.738h4.133v1.82h-7.016v-1.375l3.976-5.258h-3.859v-1.82h6.774v1.33Z" fill="#12263f"/>
        <path id="Path_142767" data-name="Path 142767" d="M-883.938-2211.918a2.517,2.517,0,0,1-.227-.758,2.727,2.727,0,0,1-2.132.914,3,3,0,0,1-2.059-.718,2.312,2.312,0,0,1-.816-1.813,2.389,2.389,0,0,1,1-2.062,4.916,4.916,0,0,1,2.879-.727h1.039v-.484a1.4,1.4,0,0,0-.3-.938,1.183,1.183,0,0,0-.949-.351,1.349,1.349,0,0,0-.9.273.931.931,0,0,0-.324.75h-2.258a2.275,2.275,0,0,1,.453-1.359,3,3,0,0,1,1.282-.981,4.665,4.665,0,0,1,1.859-.355,3.683,3.683,0,0,1,2.48.785,2.743,2.743,0,0,1,.918,2.207v3.664a4.046,4.046,0,0,0,.336,1.82v.133Zm-1.867-1.57a1.954,1.954,0,0,0,.922-.223,1.465,1.465,0,0,0,.625-.6v-1.453h-.844q-1.7,0-1.8,1.172l-.008.133a.9.9,0,0,0,.3.7A1.153,1.153,0,0,0-885.8-2213.488Z" fill="#12263f"/>
        <path id="Path_142768" data-name="Path 142768" d="M-876.743-2213.582a1.478,1.478,0,0,0,1.016-.344,1.2,1.2,0,0,0,.406-.914h2.117a2.885,2.885,0,0,1-.468,1.574,3.1,3.1,0,0,1-1.262,1.11,3.964,3.964,0,0,1-1.77.394,3.67,3.67,0,0,1-2.859-1.152,4.558,4.558,0,0,1-1.047-3.184v-.148a4.511,4.511,0,0,1,1.039-3.117,3.629,3.629,0,0,1,2.852-1.164,3.554,3.554,0,0,1,2.543.9,3.2,3.2,0,0,1,.972,2.4h-2.117a1.552,1.552,0,0,0-.406-1.072,1.359,1.359,0,0,0-1.031-.412,1.362,1.362,0,0,0-1.192.575,3.336,3.336,0,0,0-.4,1.866v.235a3.381,3.381,0,0,0,.4,1.878A1.376,1.376,0,0,0-876.743-2213.582Z" fill="#12263f"/>
        <path id="Path_142769" data-name="Path 142769" d="M-871.93-2222.559a1.112,1.112,0,0,1,.34-.836,1.278,1.278,0,0,1,.925-.328,1.282,1.282,0,0,1,.922.328,1.1,1.1,0,0,1,.344.836,1.109,1.109,0,0,1-.348.844,1.281,1.281,0,0,1-.918.328,1.284,1.284,0,0,1-.918-.328A1.111,1.111,0,0,1-871.93-2222.559Zm2.4,10.641H-871.8v-8.453h2.265Z" fill="#12263f"/>
        <path id="Path_142770" data-name="Path 142770" d="M-868.024-2216.223a5.012,5.012,0,0,1,.484-2.242,3.557,3.557,0,0,1,1.395-1.523,4.064,4.064,0,0,1,2.113-.539,3.848,3.848,0,0,1,2.793,1.047,4.2,4.2,0,0,1,1.207,2.843l.016.578a4.416,4.416,0,0,1-1.086,3.121,3.771,3.771,0,0,1-2.914,1.176,3.79,3.79,0,0,1-2.918-1.172,4.492,4.492,0,0,1-1.09-3.187Zm2.258.16a3.16,3.16,0,0,0,.453,1.843,1.492,1.492,0,0,0,1.3.638,1.5,1.5,0,0,0,1.281-.63,3.452,3.452,0,0,0,.461-2.015,3.125,3.125,0,0,0-.461-1.831,1.5,1.5,0,0,0-1.3-.649,1.475,1.475,0,0,0-1.281.645A3.518,3.518,0,0,0-865.766-2216.063Zm2.18-7.855h2.461l-2.165,2.422h-1.835Z" fill="#12263f"/>
        <path id="Path_142771" data-name="Path 142771" d="M-856.547-2220.371l.07.976a2.954,2.954,0,0,1,2.43-1.132,2.455,2.455,0,0,1,2,.789,3.687,3.687,0,0,1,.672,2.359v5.461h-2.258v-5.419a1.471,1.471,0,0,0-.313-1.045,1.394,1.394,0,0,0-1.039-.325,1.552,1.552,0,0,0-1.43.814v5.975h-2.257v-8.453Z" fill="#12263f"/>
        <path id="Path_142772" data-name="Path 142772" d="M-943.375-2197.007a5.1,5.1,0,0,1,.886-3.148,2.876,2.876,0,0,1,2.426-1.172,2.587,2.587,0,0,1,2.039.922v-4.313h2.266v12H-937.8l-.11-.9a2.656,2.656,0,0,1-2.172,1.054,2.866,2.866,0,0,1-2.394-1.175A5.257,5.257,0,0,1-943.375-2197.007Zm2.257.161a3.351,3.351,0,0,0,.414,1.828,1.349,1.349,0,0,0,1.2.636,1.508,1.508,0,0,0,1.476-.887v-3.351a1.489,1.489,0,0,0-1.461-.887Q-941.118-2199.507-941.118-2196.846Z" fill="#12263f"/>
        <path id="Path_142773" data-name="Path 142773" d="M-930.118-2192.562a4.146,4.146,0,0,1-3.027-1.14,4.058,4.058,0,0,1-1.168-3.039v-.219a5.105,5.105,0,0,1,.492-2.277,3.611,3.611,0,0,1,1.395-1.547,3.912,3.912,0,0,1,2.058-.543,3.509,3.509,0,0,1,2.731,1.094,4.444,4.444,0,0,1,1,3.1v.922h-5.383a2.1,2.1,0,0,0,.66,1.328,1.993,1.993,0,0,0,1.4.5,2.436,2.436,0,0,0,2.039-.945l1.109,1.242a3.383,3.383,0,0,1-1.375,1.121A4.514,4.514,0,0,1-930.118-2192.562Zm-.257-6.945a1.41,1.41,0,0,0-1.09.455,2.356,2.356,0,0,0-.535,1.3h3.14v-.181a1.681,1.681,0,0,0-.406-1.165A1.454,1.454,0,0,0-930.375-2199.507Z" fill="#12263f"/>
        <path id="Path_142774" data-name="Path 142774" d="M-916.8-2195.054a.727.727,0,0,0-.411-.652,4.637,4.637,0,0,0-1.316-.426q-3.016-.633-3.016-2.562a2.325,2.325,0,0,1,.934-1.879,3.765,3.765,0,0,1,2.441-.754,4.057,4.057,0,0,1,2.575.758,2.388,2.388,0,0,1,.965,1.968h-2.258a1.093,1.093,0,0,0-.313-.8,1.321,1.321,0,0,0-.976-.317,1.35,1.35,0,0,0-.883.258.815.815,0,0,0-.313.656.7.7,0,0,0,.356.606,3.654,3.654,0,0,0,1.2.4,9.745,9.745,0,0,1,1.422.379,2.337,2.337,0,0,1,1.789,2.274,2.206,2.206,0,0,1-.992,1.871,4.285,4.285,0,0,1-2.563.714,4.477,4.477,0,0,1-1.886-.378,3.165,3.165,0,0,1-1.293-1.039,2.413,2.413,0,0,1-.469-1.426h2.14a1.178,1.178,0,0,0,.446.922,1.768,1.768,0,0,0,1.109.32,1.638,1.638,0,0,0,.981-.246A.767.767,0,0,0-916.8-2195.054Z" fill="#12263f"/>
        <path id="Path_142775" data-name="Path 142775" d="M-913.165-2203.358a1.112,1.112,0,0,1,.34-.836,1.276,1.276,0,0,1,.926-.328,1.279,1.279,0,0,1,.922.328,1.1,1.1,0,0,1,.344.836,1.11,1.11,0,0,1-.348.843,1.28,1.28,0,0,1-.918.328,1.282,1.282,0,0,1-.918-.328A1.11,1.11,0,0,1-913.165-2203.358Zm2.4,10.64h-2.266v-8.453h2.266Z" fill="#12263f"/>
        <path id="Path_142776" data-name="Path 142776" d="M-904.329-2195.054a.726.726,0,0,0-.41-.652,4.648,4.648,0,0,0-1.316-.426q-3.016-.633-3.016-2.562a2.325,2.325,0,0,1,.934-1.879,3.763,3.763,0,0,1,2.441-.754,4.054,4.054,0,0,1,2.574.758,2.385,2.385,0,0,1,.965,1.968h-2.258a1.093,1.093,0,0,0-.312-.8,1.322,1.322,0,0,0-.977-.317,1.349,1.349,0,0,0-.882.258.815.815,0,0,0-.313.656.7.7,0,0,0,.356.606,3.645,3.645,0,0,0,1.2.4,9.779,9.779,0,0,1,1.422.379,2.337,2.337,0,0,1,1.789,2.274,2.206,2.206,0,0,1-.992,1.871,4.287,4.287,0,0,1-2.563.714,4.484,4.484,0,0,1-1.887-.378,3.171,3.171,0,0,1-1.293-1.039,2.418,2.418,0,0,1-.468-1.426h2.14a1.178,1.178,0,0,0,.446.922,1.768,1.768,0,0,0,1.109.32,1.633,1.633,0,0,0,.98-.246A.765.765,0,0,0-904.329-2195.054Z" fill="#12263f"/>
        <path id="Path_142777" data-name="Path 142777" d="M-897.977-2203.249v2.078h1.445v1.656h-1.445v4.219a1,1,0,0,0,.18.672.9.9,0,0,0,.687.2,3.536,3.536,0,0,0,.664-.055v1.711a4.623,4.623,0,0,1-1.367.2,2.156,2.156,0,0,1-2.422-2.4v-4.555h-1.234v-1.656h1.234v-2.078Z" fill="#12263f"/>
        <path id="Path_142778" data-name="Path 142778" d="M-891.383-2192.562a4.148,4.148,0,0,1-3.028-1.14,4.057,4.057,0,0,1-1.168-3.039v-.219a5.093,5.093,0,0,1,.493-2.277,3.615,3.615,0,0,1,1.394-1.547,3.916,3.916,0,0,1,2.059-.543,3.508,3.508,0,0,1,2.73,1.094,4.444,4.444,0,0,1,1,3.1v.922h-5.383a2.1,2.1,0,0,0,.661,1.328,1.992,1.992,0,0,0,1.394.5,2.436,2.436,0,0,0,2.039-.945l1.11,1.242a3.383,3.383,0,0,1-1.375,1.121A4.517,4.517,0,0,1-891.383-2192.562Zm-.258-6.945a1.412,1.412,0,0,0-1.09.455,2.364,2.364,0,0,0-.535,1.3h3.141v-.181a1.681,1.681,0,0,0-.407-1.165A1.453,1.453,0,0,0-891.641-2199.507Z" fill="#12263f"/>
        <path id="Path_142779" data-name="Path 142779" d="M-884.508-2201.171l.07.945a2.972,2.972,0,0,1,2.43-1.1,2.254,2.254,0,0,1,2.242,1.289,2.9,2.9,0,0,1,2.539-1.289,2.52,2.52,0,0,1,2.047.8,3.68,3.68,0,0,1,.672,2.41v5.4h-2.266v-5.4a1.619,1.619,0,0,0-.281-1.053,1.246,1.246,0,0,0-.992-.333,1.411,1.411,0,0,0-1.407.971l.008,5.818H-881.7v-5.4a1.594,1.594,0,0,0-.289-1.065,1.255,1.255,0,0,0-.984-.329,1.462,1.462,0,0,0-1.391.8v5.99h-2.257v-8.453Z" fill="#12263f"/>
        <path id="Path_142780" data-name="Path 142780" d="M-867.875-2192.718a2.479,2.479,0,0,1-.227-.758,2.73,2.73,0,0,1-2.133.914,3,3,0,0,1-2.058-.718,2.313,2.313,0,0,1-.817-1.813,2.389,2.389,0,0,1,1-2.062,4.924,4.924,0,0,1,2.879-.727h1.039v-.484a1.392,1.392,0,0,0-.3-.938,1.182,1.182,0,0,0-.949-.351,1.344,1.344,0,0,0-.894.273.932.932,0,0,0-.325.75h-2.257a2.269,2.269,0,0,1,.453-1.359,3,3,0,0,1,1.281-.981,4.685,4.685,0,0,1,1.859-.355,3.692,3.692,0,0,1,2.481.785,2.746,2.746,0,0,1,.918,2.207v3.664a4.031,4.031,0,0,0,.336,1.82v.133Zm-1.868-1.57a1.94,1.94,0,0,0,.922-.223,1.463,1.463,0,0,0,.625-.6v-1.454h-.844q-1.694,0-1.8,1.172l-.008.133a.9.9,0,0,0,.3.7A1.15,1.15,0,0,0-869.743-2194.288Z" fill="#12263f"/>
        <path id="Path_142781" data-name="Path 142781" d="M-859.618-2195.054a.726.726,0,0,0-.41-.652,4.648,4.648,0,0,0-1.316-.426q-3.016-.633-3.016-2.562a2.325,2.325,0,0,1,.934-1.879,3.763,3.763,0,0,1,2.441-.754,4.054,4.054,0,0,1,2.574.758,2.385,2.385,0,0,1,.965,1.968H-859.7a1.093,1.093,0,0,0-.312-.8,1.322,1.322,0,0,0-.977-.317,1.347,1.347,0,0,0-.882.258.815.815,0,0,0-.313.656.7.7,0,0,0,.355.606,3.662,3.662,0,0,0,1.2.4,9.779,9.779,0,0,1,1.422.379,2.337,2.337,0,0,1,1.789,2.274,2.2,2.2,0,0,1-.993,1.871,4.282,4.282,0,0,1-2.562.714,4.484,4.484,0,0,1-1.887-.378,3.171,3.171,0,0,1-1.293-1.039,2.418,2.418,0,0,1-.468-1.426h2.14a1.18,1.18,0,0,0,.445.922,1.773,1.773,0,0,0,1.11.32,1.635,1.635,0,0,0,.98-.246A.765.765,0,0,0-859.618-2195.054Z" fill="#12263f"/>
      </g>
      <g id="Group_97170" data-name="Group 97170">
        <path id="Path_142782" data-name="Path 142782" d="M-846.205-2298.33a7.711,7.711,0,0,1-.668,3.313,5.028,5.028,0,0,1-1.912,2.2,5.289,5.289,0,0,1-2.851.773,5.321,5.321,0,0,1-2.839-.765,5.078,5.078,0,0,1-1.934-2.184,7.5,7.5,0,0,1-.694-3.265v-.633a7.676,7.676,0,0,1,.682-3.327,5.063,5.063,0,0,1,1.923-2.206,5.306,5.306,0,0,1,2.844-.768,5.3,5.3,0,0,1,2.844.768,5.078,5.078,0,0,1,1.924,2.206,7.669,7.669,0,0,1,.681,3.319Zm-2.671-.58a5.392,5.392,0,0,0-.721-3.059,2.35,2.35,0,0,0-2.057-1.046,2.349,2.349,0,0,0-2.048,1.033,5.329,5.329,0,0,0-.729,3.028v.624a5.448,5.448,0,0,0,.721,3.041,2.34,2.34,0,0,0,2.074,1.081,2.323,2.323,0,0,0,2.039-1.042,5.425,5.425,0,0,0,.721-3.036Z" fill="#12263f"/>
        <path id="Path_142783" data-name="Path 142783" d="M-835.9-2296.889a5.711,5.711,0,0,1-1,3.52,3.2,3.2,0,0,1-2.694,1.323,2.964,2.964,0,0,1-2.33-1v4.483h-2.54v-13.166h2.356l.088.931a2.985,2.985,0,0,1,2.408-1.107,3.217,3.217,0,0,1,2.733,1.3,5.851,5.851,0,0,1,.976,3.585Zm-2.54-.194a3.761,3.761,0,0,0-.471-2.054,1.529,1.529,0,0,0-1.366-.722,1.662,1.662,0,0,0-1.644.917v3.9a1.692,1.692,0,0,0,1.662.943Q-838.436-2294.094-838.435-2297.083Z" fill="#12263f"/>
        <path id="Path_142784" data-name="Path 142784" d="M-829.945-2292.046a4.668,4.668,0,0,1-3.4-1.283,4.558,4.558,0,0,1-1.315-3.419v-.246a5.752,5.752,0,0,1,.554-2.563,4.06,4.06,0,0,1,1.569-1.74,4.4,4.4,0,0,1,2.316-.61,3.944,3.944,0,0,1,3.071,1.23,5,5,0,0,1,1.121,3.489v1.038h-6.055a2.355,2.355,0,0,0,.743,1.494,2.24,2.24,0,0,0,1.568.562,2.741,2.741,0,0,0,2.294-1.063l1.248,1.4a3.812,3.812,0,0,1-1.547,1.261A5.07,5.07,0,0,1-829.945-2292.046Zm-.29-7.813a1.59,1.59,0,0,0-1.226.511,2.65,2.65,0,0,0-.6,1.466h3.533v-.2a1.892,1.892,0,0,0-.457-1.311A1.637,1.637,0,0,0-830.235-2299.859Z" fill="#12263f"/>
        <path id="Path_142785" data-name="Path 142785" d="M-819.249-2299.35a7.047,7.047,0,0,0-.914-.07,1.859,1.859,0,0,0-1.889.976v6.222h-2.54v-9.509h2.4l.07,1.133a2.354,2.354,0,0,1,2.119-1.309,2.67,2.67,0,0,1,.791.114Z" fill="#12263f"/>
        <path id="Path_142786" data-name="Path 142786" d="M-812.78-2292.222a2.825,2.825,0,0,1-.255-.852,3.074,3.074,0,0,1-2.4,1.028,3.375,3.375,0,0,1-2.316-.808,2.6,2.6,0,0,1-.918-2.04,2.686,2.686,0,0,1,1.121-2.32,5.528,5.528,0,0,1,3.238-.817h1.169v-.545a1.566,1.566,0,0,0-.339-1.055,1.329,1.329,0,0,0-1.067-.395,1.514,1.514,0,0,0-1.007.307,1.046,1.046,0,0,0-.364.844h-2.541a2.548,2.548,0,0,1,.51-1.529,3.377,3.377,0,0,1,1.442-1.1,5.263,5.263,0,0,1,2.091-.4,4.151,4.151,0,0,1,2.791.883,3.091,3.091,0,0,1,1.033,2.483v4.122a4.551,4.551,0,0,0,.378,2.048v.149Zm-2.1-1.766a2.189,2.189,0,0,0,1.037-.251,1.645,1.645,0,0,0,.7-.672v-1.635h-.949q-1.908,0-2.031,1.318l-.008.15a1.016,1.016,0,0,0,.334.782A1.3,1.3,0,0,0-814.88-2293.988Z" fill="#12263f"/>
        <path id="Path_142787" data-name="Path 142787" d="M-804.685-2294.094a1.67,1.67,0,0,0,1.143-.386,1.361,1.361,0,0,0,.457-1.029h2.381a3.246,3.246,0,0,1-.527,1.771,3.48,3.48,0,0,1-1.42,1.248,4.439,4.439,0,0,1-1.99.444,4.131,4.131,0,0,1-3.217-1.3,5.128,5.128,0,0,1-1.178-3.581v-.167a5.072,5.072,0,0,1,1.169-3.507,4.082,4.082,0,0,1,3.208-1.309,4.006,4.006,0,0,1,2.862,1.014,3.6,3.6,0,0,1,1.093,2.7h-2.381a1.751,1.751,0,0,0-.457-1.207,1.525,1.525,0,0,0-1.161-.463,1.529,1.529,0,0,0-1.34.646,3.751,3.751,0,0,0-.453,2.1v.263a3.8,3.8,0,0,0,.449,2.114A1.548,1.548,0,0,0-804.685-2294.094Z" fill="#12263f"/>
        <path id="Path_142788" data-name="Path 142788" d="M-799.271-2304.192a1.255,1.255,0,0,1,.382-.941,1.439,1.439,0,0,1,1.042-.369,1.441,1.441,0,0,1,1.037.369,1.244,1.244,0,0,1,.387.941,1.247,1.247,0,0,1-.392.949,1.442,1.442,0,0,1-1.032.369,1.439,1.439,0,0,1-1.032-.369A1.244,1.244,0,0,1-799.271-2304.192Zm2.7,11.97h-2.549v-9.509h2.549Z" fill="#12263f"/>
        <path id="Path_142789" data-name="Path 142789" d="M-794.876-2297.064a5.641,5.641,0,0,1,.544-2.523,4,4,0,0,1,1.569-1.714,4.578,4.578,0,0,1,2.378-.606,4.324,4.324,0,0,1,3.141,1.178,4.725,4.725,0,0,1,1.359,3.2l.017.65a4.972,4.972,0,0,1-1.221,3.511,4.249,4.249,0,0,1-3.279,1.323,4.266,4.266,0,0,1-3.282-1.318,5.055,5.055,0,0,1-1.226-3.586Zm2.54.179a3.551,3.551,0,0,0,.509,2.073,1.682,1.682,0,0,0,1.459.718,1.685,1.685,0,0,0,1.442-.709,3.892,3.892,0,0,0,.518-2.266,3.524,3.524,0,0,0-.518-2.06,1.685,1.685,0,0,0-1.459-.73,1.661,1.661,0,0,0-1.442.725A3.96,3.96,0,0,0-792.336-2296.885Zm2.452-8.837h2.768L-789.55-2303h-2.066Z" fill="#12263f"/>
        <path id="Path_142790" data-name="Path 142790" d="M-781.965-2301.731l.079,1.1a3.321,3.321,0,0,1,2.733-1.274,2.761,2.761,0,0,1,2.25.887,4.147,4.147,0,0,1,.756,2.655v6.143h-2.54v-6.1a1.652,1.652,0,0,0-.352-1.176,1.573,1.573,0,0,0-1.169-.365,1.747,1.747,0,0,0-1.608.916v6.721h-2.54v-9.509Z" fill="#12263f"/>
        <path id="Path_142791" data-name="Path 142791" d="M-875.072-2282.593a1.252,1.252,0,0,1,.382-.94,1.44,1.44,0,0,1,1.042-.369,1.439,1.439,0,0,1,1.037.369,1.241,1.241,0,0,1,.387.94,1.245,1.245,0,0,1-.392.949,1.436,1.436,0,0,1-1.032.37,1.436,1.436,0,0,1-1.032-.37A1.242,1.242,0,0,1-875.072-2282.593Zm2.7,11.971h-2.548v-9.51h2.548Z" fill="#12263f"/>
        <path id="Path_142792" data-name="Path 142792" d="M-867.944-2280.132l.079,1.1a3.32,3.32,0,0,1,2.734-1.275,2.761,2.761,0,0,1,2.25.888,4.145,4.145,0,0,1,.756,2.654v6.144h-2.541v-6.1a1.657,1.657,0,0,0-.351-1.176,1.57,1.57,0,0,0-1.169-.366,1.747,1.747,0,0,0-1.608.916v6.722h-2.54v-9.51Z" fill="#12263f"/>
        <path id="Path_142793" data-name="Path 142793" d="M-860.218-2282.593a1.252,1.252,0,0,1,.382-.94,1.437,1.437,0,0,1,1.042-.369,1.441,1.441,0,0,1,1.037.369,1.244,1.244,0,0,1,.386.94,1.245,1.245,0,0,1-.391.949,1.439,1.439,0,0,1-1.032.37,1.439,1.439,0,0,1-1.033-.37A1.245,1.245,0,0,1-860.218-2282.593Zm2.7,11.971h-2.549v-9.51h2.549Z" fill="#12263f"/>
        <path id="Path_142794" data-name="Path 142794" d="M-853.09-2280.132l.079,1.1a3.319,3.319,0,0,1,2.733-1.275,2.758,2.758,0,0,1,2.25.888,4.145,4.145,0,0,1,.756,2.654v6.144h-2.54v-6.1a1.652,1.652,0,0,0-.352-1.176,1.57,1.57,0,0,0-1.169-.366,1.749,1.749,0,0,0-1.608.916v6.722h-2.54v-9.51Z" fill="#12263f"/>
        <path id="Path_142795" data-name="Path 142795" d="M-842.306-2282.47v2.338h1.626v1.863h-1.626v4.747a1.129,1.129,0,0,0,.2.755,1.013,1.013,0,0,0,.773.229,4.054,4.054,0,0,0,.748-.062v1.925a5.213,5.213,0,0,1-1.539.229,2.425,2.425,0,0,1-2.724-2.7v-5.124h-1.389v-1.863h1.389v-2.338Z" fill="#12263f"/>
        <path id="Path_142796" data-name="Path 142796" d="M-834.888-2270.446a4.666,4.666,0,0,1-3.405-1.283,4.56,4.56,0,0,1-1.315-3.419v-.247a5.744,5.744,0,0,1,.554-2.561,4.053,4.053,0,0,1,1.569-1.74,4.394,4.394,0,0,1,2.316-.612,3.946,3.946,0,0,1,3.071,1.231,4.994,4.994,0,0,1,1.121,3.489v1.037h-6.056a2.356,2.356,0,0,0,.743,1.494,2.245,2.245,0,0,0,1.569.563,2.743,2.743,0,0,0,2.294-1.064l1.248,1.4a3.822,3.822,0,0,1-1.547,1.262A5.084,5.084,0,0,1-834.888-2270.446Zm-.29-7.814a1.588,1.588,0,0,0-1.227.513,2.651,2.651,0,0,0-.6,1.465h3.533v-.2a1.891,1.891,0,0,0-.457-1.311A1.638,1.638,0,0,0-835.178-2278.26Z" fill="#12263f"/>
        <path id="Path_142797" data-name="Path 142797" d="M-824.192-2277.75a6.854,6.854,0,0,0-.914-.07,1.861,1.861,0,0,0-1.89.975v6.223h-2.54v-9.51h2.4l.07,1.134a2.354,2.354,0,0,1,2.118-1.31,2.639,2.639,0,0,1,.791.115Z" fill="#12263f"/>
        <path id="Path_142798" data-name="Path 142798" d="M-817.626-2277.75a6.868,6.868,0,0,0-.915-.07,1.861,1.861,0,0,0-1.889.975v6.223h-2.54v-9.51h2.4l.071,1.134a2.352,2.352,0,0,1,2.118-1.31,2.639,2.639,0,0,1,.791.115Z" fill="#12263f"/>
        <path id="Path_142799" data-name="Path 142799" d="M-810.709-2271.589a3.186,3.186,0,0,1-2.6,1.143,3,3,0,0,1-2.333-.879,3.745,3.745,0,0,1-.822-2.575v-6.232h2.54v6.152q0,1.486,1.353,1.486a1.834,1.834,0,0,0,1.776-.9v-6.74h2.548v9.51h-2.39Z" fill="#12263f"/>
        <path id="Path_142800" data-name="Path 142800" d="M-803.951-2280.132l.079,1.064a3.341,3.341,0,0,1,2.734-1.24,2.536,2.536,0,0,1,2.522,1.451,3.266,3.266,0,0,1,2.857-1.451,2.833,2.833,0,0,1,2.3.9,4.138,4.138,0,0,1,.756,2.711v6.073h-2.549v-6.078a1.818,1.818,0,0,0-.316-1.185,1.4,1.4,0,0,0-1.116-.375,1.585,1.585,0,0,0-1.582,1.093l.009,6.545h-2.54v-6.069a1.8,1.8,0,0,0-.326-1.2,1.415,1.415,0,0,0-1.107-.37,1.645,1.645,0,0,0-1.564.9v6.739h-2.541v-9.51Z" fill="#12263f"/>
        <path id="Path_142801" data-name="Path 142801" d="M-782.189-2275.289a5.708,5.708,0,0,1-1,3.52,3.2,3.2,0,0,1-2.694,1.323,2.961,2.961,0,0,1-2.329-1v4.482h-2.541v-13.166h2.356l.088.932a2.986,2.986,0,0,1,2.408-1.108,3.22,3.22,0,0,1,2.733,1.3,5.855,5.855,0,0,1,.976,3.586Zm-2.54-.193a3.761,3.761,0,0,0-.471-2.055,1.528,1.528,0,0,0-1.366-.723,1.661,1.661,0,0,0-1.643.917v3.905a1.69,1.69,0,0,0,1.661.944Q-784.729-2272.494-784.729-2275.482Z" fill="#12263f"/>
        <path id="Path_142802" data-name="Path 142802" d="M-780.633-2282.593a1.252,1.252,0,0,1,.382-.94,1.437,1.437,0,0,1,1.042-.369,1.441,1.441,0,0,1,1.037.369,1.244,1.244,0,0,1,.386.94,1.248,1.248,0,0,1-.391.949,1.439,1.439,0,0,1-1.032.37,1.438,1.438,0,0,1-1.033-.37A1.245,1.245,0,0,1-780.633-2282.593Zm2.7,11.971h-2.549v-9.51h2.549Z" fill="#12263f"/>
        <path id="Path_142803" data-name="Path 142803" d="M-776.239-2275.447a5.724,5.724,0,0,1,1-3.542,3.235,3.235,0,0,1,2.729-1.319,2.915,2.915,0,0,1,2.294,1.037v-4.851h2.549v13.5h-2.294l-.123-1.011a2.991,2.991,0,0,1-2.444,1.187,3.225,3.225,0,0,1-2.693-1.323A5.906,5.906,0,0,1-776.239-2275.447Zm2.54.18a3.782,3.782,0,0,0,.466,2.058,1.517,1.517,0,0,0,1.354.715,1.7,1.7,0,0,0,1.661-1v-3.771a1.676,1.676,0,0,0-1.644-1Q-773.7-2278.26-773.7-2275.267Z" fill="#12263f"/>
        <path id="Path_142804" data-name="Path 142804" d="M-760.19-2270.622a2.838,2.838,0,0,1-.255-.853,3.072,3.072,0,0,1-2.4,1.029,3.381,3.381,0,0,1-2.317-.809,2.6,2.6,0,0,1-.918-2.039,2.685,2.685,0,0,1,1.121-2.32,5.53,5.53,0,0,1,3.239-.818h1.169v-.545a1.568,1.568,0,0,0-.339-1.054,1.33,1.33,0,0,0-1.068-.4,1.514,1.514,0,0,0-1.006.308,1.042,1.042,0,0,0-.365.844h-2.54a2.553,2.553,0,0,1,.51-1.53,3.368,3.368,0,0,1,1.441-1.1,5.25,5.25,0,0,1,2.092-.4,4.153,4.153,0,0,1,2.791.884,3.092,3.092,0,0,1,1.033,2.483v4.122a4.54,4.54,0,0,0,.377,2.048v.149Zm-2.1-1.767a2.193,2.193,0,0,0,1.038-.25,1.648,1.648,0,0,0,.7-.673v-1.634h-.95q-1.906,0-2.03,1.318l-.009.149a1.02,1.02,0,0,0,.334.783A1.3,1.3,0,0,0-762.291-2272.389Z" fill="#12263f"/>
      </g>
      <g id="Group_97173" data-name="Group 97173">
        <g id="Group_97171" data-name="Group 97171">
          <rect id="Rectangle_8725" data-name="Rectangle 8725" width="161.175" height="161.175" transform="translate(-1117.098 -2296.689) rotate(-45)" fill="#fff"/>
        </g>
        <g id="Group_97172" data-name="Group 97172">
          <path id="Path_142805" data-name="Path 142805" d="M-1056.937-2315.03v-12.8H-1053a5.985,5.985,0,0,1,3.02.761,5.3,5.3,0,0,1,2.078,2.162,6.665,6.665,0,0,1,.747,3.185v.589a6.691,6.691,0,0,1-.734,3.173,5.253,5.253,0,0,1-2.07,2.153,6.025,6.025,0,0,1-3.015.774Zm2.637-10.661v8.543h1.275a2.863,2.863,0,0,0,2.364-1.011,4.57,4.57,0,0,0,.835-2.892v-.677a4.64,4.64,0,0,0-.809-2.957,2.856,2.856,0,0,0-2.364-1.006Z" fill="#12263f"/>
          <path id="Path_142806" data-name="Path 142806" d="M-1039.71-2316a3.185,3.185,0,0,1-2.6,1.143,3,3,0,0,1-2.333-.879,3.752,3.752,0,0,1-.822-2.576v-6.231h2.54v6.151q0,1.488,1.354,1.487a1.833,1.833,0,0,0,1.775-.9v-6.74h2.549v9.51h-2.391Z" fill="#12263f"/>
          <path id="Path_142807" data-name="Path 142807" d="M-1026.772-2319.7a5.7,5.7,0,0,1-1,3.52,3.2,3.2,0,0,1-2.694,1.323,2.962,2.962,0,0,1-2.329-1v4.482h-2.54v-13.166h2.355l.088.932a2.985,2.985,0,0,1,2.409-1.108,3.221,3.221,0,0,1,2.733,1.3,5.859,5.859,0,0,1,.976,3.586Zm-2.541-.194a3.769,3.769,0,0,0-.47-2.054,1.531,1.531,0,0,0-1.366-.723,1.663,1.663,0,0,0-1.644.917v3.905a1.691,1.691,0,0,0,1.661.944Q-1029.312-2316.9-1029.313-2319.891Z" fill="#12263f"/>
          <path id="Path_142808" data-name="Path 142808" d="M-1022.519-2315.03h-2.548v-13.5h2.548Z" fill="#12263f"/>
          <path id="Path_142809" data-name="Path 142809" d="M-1020.444-2327a1.255,1.255,0,0,1,.381-.94,1.436,1.436,0,0,1,1.042-.37,1.438,1.438,0,0,1,1.038.37,1.244,1.244,0,0,1,.386.94,1.249,1.249,0,0,1-.391.949,1.444,1.444,0,0,1-1.033.369,1.441,1.441,0,0,1-1.032-.369A1.245,1.245,0,0,1-1020.444-2327Zm2.7,11.971h-2.549v-9.51h2.549Z" fill="#12263f"/>
          <path id="Path_142810" data-name="Path 142810" d="M-1011.7-2316.9a1.663,1.663,0,0,0,1.142-.387,1.353,1.353,0,0,0,.457-1.028h2.382a3.258,3.258,0,0,1-.527,1.771,3.482,3.482,0,0,1-1.42,1.248,4.439,4.439,0,0,1-1.99.444,4.128,4.128,0,0,1-3.217-1.3,5.134,5.134,0,0,1-1.178-3.582v-.167a5.073,5.073,0,0,1,1.169-3.507,4.081,4.081,0,0,1,3.208-1.31,4,4,0,0,1,2.861,1.016,3.593,3.593,0,0,1,1.094,2.7h-2.382a1.743,1.743,0,0,0-.457-1.206,1.524,1.524,0,0,0-1.16-.464,1.532,1.532,0,0,0-1.341.647,3.755,3.755,0,0,0-.452,2.1v.265a3.8,3.8,0,0,0,.448,2.112A1.549,1.549,0,0,0-1011.7-2316.9Z" fill="#12263f"/>
          <path id="Path_142811" data-name="Path 142811" d="M-1006.285-2327a1.252,1.252,0,0,1,.382-.94,1.435,1.435,0,0,1,1.042-.37,1.437,1.437,0,0,1,1.037.37,1.241,1.241,0,0,1,.386.94,1.245,1.245,0,0,1-.391.949,1.443,1.443,0,0,1-1.032.369,1.442,1.442,0,0,1-1.033-.369A1.245,1.245,0,0,1-1006.285-2327Zm2.7,11.971h-2.549v-9.51h2.549Z" fill="#12263f"/>
          <path id="Path_142812" data-name="Path 142812" d="M-1001.891-2319.855a5.722,5.722,0,0,1,1-3.542,3.236,3.236,0,0,1,2.729-1.319,2.914,2.914,0,0,1,2.294,1.037v-4.851h2.549v13.5h-2.294l-.123-1.011a2.991,2.991,0,0,1-2.444,1.187,3.225,3.225,0,0,1-2.693-1.323A5.908,5.908,0,0,1-1001.891-2319.855Zm2.54.18a3.783,3.783,0,0,0,.466,2.058,1.519,1.519,0,0,0,1.354.715,1.7,1.7,0,0,0,1.661-1v-3.771a1.676,1.676,0,0,0-1.644-1Q-999.35-2322.668-999.351-2319.675Z" fill="#12263f"/>
          <path id="Path_142813" data-name="Path 142813" d="M-985.842-2315.03a2.838,2.838,0,0,1-.255-.853,3.072,3.072,0,0,1-2.4,1.029,3.38,3.38,0,0,1-2.317-.809,2.6,2.6,0,0,1-.917-2.039,2.685,2.685,0,0,1,1.121-2.32,5.519,5.519,0,0,1,3.238-.818h1.169v-.545a1.563,1.563,0,0,0-.339-1.054,1.33,1.33,0,0,0-1.067-.4,1.516,1.516,0,0,0-1.007.308,1.044,1.044,0,0,0-.364.843h-2.541a2.552,2.552,0,0,1,.51-1.529,3.364,3.364,0,0,1,1.442-1.1,5.242,5.242,0,0,1,2.091-.4,4.153,4.153,0,0,1,2.791.884,3.091,3.091,0,0,1,1.033,2.482v4.122a4.55,4.55,0,0,0,.378,2.048v.15Zm-2.1-1.767a2.186,2.186,0,0,0,1.037-.25,1.642,1.642,0,0,0,.7-.673v-1.634h-.949q-1.908,0-2.031,1.318l-.008.149a1.018,1.018,0,0,0,.334.783A1.3,1.3,0,0,0-987.942-2316.8Z" fill="#12263f"/>
          <path id="Path_142814" data-name="Path 142814" d="M-982.1-2319.855a5.722,5.722,0,0,1,1-3.542,3.236,3.236,0,0,1,2.729-1.319,2.914,2.914,0,0,1,2.294,1.037v-4.851h2.549v13.5h-2.294l-.123-1.011a2.991,2.991,0,0,1-2.444,1.187,3.225,3.225,0,0,1-2.693-1.323A5.908,5.908,0,0,1-982.1-2319.855Zm2.54.18a3.783,3.783,0,0,0,.466,2.058,1.519,1.519,0,0,0,1.354.715,1.7,1.7,0,0,0,1.661-1v-3.771a1.676,1.676,0,0,0-1.644-1Q-979.557-2322.668-979.558-2319.675Z" fill="#12263f"/>
          <path id="Path_142815" data-name="Path 142815" d="M-967.473-2319.855a5.722,5.722,0,0,1,1-3.542,3.236,3.236,0,0,1,2.729-1.319,2.914,2.914,0,0,1,2.294,1.037v-4.851h2.549v13.5H-961.2l-.123-1.011a2.991,2.991,0,0,1-2.444,1.187,3.225,3.225,0,0,1-2.693-1.323A5.908,5.908,0,0,1-967.473-2319.855Zm2.54.18a3.783,3.783,0,0,0,.466,2.058,1.519,1.519,0,0,0,1.354.715,1.7,1.7,0,0,0,1.661-1v-3.771a1.676,1.676,0,0,0-1.644-1Q-964.932-2322.668-964.933-2319.675Z" fill="#12263f"/>
          <path id="Path_142816" data-name="Path 142816" d="M-952.558-2314.854a4.664,4.664,0,0,1-3.405-1.284,4.557,4.557,0,0,1-1.314-3.419v-.246a5.742,5.742,0,0,1,.553-2.561,4.062,4.062,0,0,1,1.57-1.74,4.39,4.39,0,0,1,2.315-.612,3.942,3.942,0,0,1,3.071,1.231,5,5,0,0,1,1.122,3.489v1.037H-954.7a2.355,2.355,0,0,0,.743,1.494,2.243,2.243,0,0,0,1.568.563,2.741,2.741,0,0,0,2.294-1.064l1.248,1.4a3.8,3.8,0,0,1-1.547,1.261A5.07,5.07,0,0,1-952.558-2314.854Zm-.29-7.814a1.585,1.585,0,0,0-1.226.513,2.645,2.645,0,0,0-.6,1.465h3.533v-.2a1.885,1.885,0,0,0-.457-1.31A1.635,1.635,0,0,0-952.848-2322.668Z" fill="#12263f"/>
          <path id="Path_142817" data-name="Path 142817" d="M-1036.182-2293.43h-2.548v-13.5h2.548Z" fill="#12263f"/>
          <path id="Path_142818" data-name="Path 142818" d="M-1028.579-2293.43a2.821,2.821,0,0,1-.255-.852,3.074,3.074,0,0,1-2.4,1.028,3.374,3.374,0,0,1-2.317-.809,2.6,2.6,0,0,1-.918-2.039,2.686,2.686,0,0,1,1.121-2.32,5.53,5.53,0,0,1,3.239-.817h1.169v-.545a1.571,1.571,0,0,0-.339-1.055,1.33,1.33,0,0,0-1.068-.395,1.518,1.518,0,0,0-1.007.307,1.046,1.046,0,0,0-.364.844h-2.54a2.547,2.547,0,0,1,.51-1.529,3.373,3.373,0,0,1,1.441-1.1,5.268,5.268,0,0,1,2.092-.4,4.151,4.151,0,0,1,2.791.883,3.09,3.09,0,0,1,1.032,2.483v4.122a4.549,4.549,0,0,0,.378,2.048v.149Zm-2.1-1.766a2.187,2.187,0,0,0,1.037-.251,1.649,1.649,0,0,0,.7-.672v-1.635h-.95q-1.906,0-2.03,1.318l-.009.15a1.019,1.019,0,0,0,.334.782A1.3,1.3,0,0,0-1030.68-2295.2Z" fill="#12263f"/>
          <path id="Path_142819" data-name="Path 142819" d="M-1019.289-2296.058a.818.818,0,0,0-.462-.734,5.242,5.242,0,0,0-1.48-.479q-3.393-.711-3.393-2.882a2.614,2.614,0,0,1,1.051-2.115,4.235,4.235,0,0,1,2.746-.847,4.562,4.562,0,0,1,2.9.852,2.689,2.689,0,0,1,1.085,2.215h-2.54a1.23,1.23,0,0,0-.351-.9,1.487,1.487,0,0,0-1.1-.356,1.52,1.52,0,0,0-.993.29.919.919,0,0,0-.352.739.78.78,0,0,0,.4.68,4.1,4.1,0,0,0,1.348.449,11.069,11.069,0,0,1,1.6.426,2.628,2.628,0,0,1,2.013,2.558,2.477,2.477,0,0,1-1.117,2.1,4.807,4.807,0,0,1-2.882.805,5.011,5.011,0,0,1-2.122-.427,3.55,3.55,0,0,1-1.456-1.169,2.716,2.716,0,0,1-.527-1.6h2.408a1.329,1.329,0,0,0,.5,1.037,1.99,1.99,0,0,0,1.248.36,1.834,1.834,0,0,0,1.1-.277A.862.862,0,0,0-1019.289-2296.058Z" fill="#12263f"/>
          <path id="Path_142820" data-name="Path 142820" d="M-1005.358-2300.558a7.073,7.073,0,0,0-.914-.07,1.861,1.861,0,0,0-1.89.976v6.222h-2.54v-9.509h2.4l.071,1.133a2.351,2.351,0,0,1,2.118-1.309,2.67,2.67,0,0,1,.791.114Z" fill="#12263f"/>
          <path id="Path_142821" data-name="Path 142821" d="M-999.927-2293.254a4.667,4.667,0,0,1-3.4-1.283,4.558,4.558,0,0,1-1.314-3.419v-.246a5.751,5.751,0,0,1,.553-2.563,4.054,4.054,0,0,1,1.57-1.74,4.4,4.4,0,0,1,2.315-.61,3.944,3.944,0,0,1,3.071,1.23,5,5,0,0,1,1.121,3.489v1.038h-6.055a2.355,2.355,0,0,0,.743,1.494,2.24,2.24,0,0,0,1.568.562,2.741,2.741,0,0,0,2.294-1.063l1.248,1.4a3.812,3.812,0,0,1-1.547,1.261A5.07,5.07,0,0,1-999.927-2293.254Zm-.29-7.813a1.59,1.59,0,0,0-1.226.511,2.65,2.65,0,0,0-.6,1.466h3.533v-.2a1.888,1.888,0,0,0-.457-1.311A1.637,1.637,0,0,0-1000.217-2301.067Z" fill="#12263f"/>
          <path id="Path_142822" data-name="Path 142822" d="M-994.97-2298.255a5.726,5.726,0,0,1,1-3.542,3.235,3.235,0,0,1,2.729-1.318,2.911,2.911,0,0,1,2.294,1.037v-4.852h2.549v13.5h-2.294l-.123-1.01a2.99,2.99,0,0,1-2.444,1.186,3.226,3.226,0,0,1-2.693-1.323A5.908,5.908,0,0,1-994.97-2298.255Zm2.54.181a3.774,3.774,0,0,0,.466,2.056,1.515,1.515,0,0,0,1.354.716,1.7,1.7,0,0,0,1.661-1v-3.77a1.675,1.675,0,0,0-1.644-1Q-992.429-2301.067-992.43-2298.074Z" fill="#12263f"/>
          <path id="Path_142823" data-name="Path 142823" d="M-980.055-2293.254a4.667,4.667,0,0,1-3.405-1.283,4.558,4.558,0,0,1-1.314-3.419v-.246a5.75,5.75,0,0,1,.553-2.563,4.054,4.054,0,0,1,1.57-1.74,4.4,4.4,0,0,1,2.315-.61,3.944,3.944,0,0,1,3.071,1.23,5,5,0,0,1,1.121,3.489v1.038H-982.2a2.355,2.355,0,0,0,.743,1.494,2.24,2.24,0,0,0,1.568.562,2.741,2.741,0,0,0,2.294-1.063l1.248,1.4a3.812,3.812,0,0,1-1.547,1.261A5.07,5.07,0,0,1-980.055-2293.254Zm-.29-7.813a1.59,1.59,0,0,0-1.226.511,2.649,2.649,0,0,0-.6,1.466h3.533v-.2a1.888,1.888,0,0,0-.457-1.311A1.637,1.637,0,0,0-980.345-2301.067Z" fill="#12263f"/>
          <path id="Path_142824" data-name="Path 142824" d="M-969.552-2296.058a.818.818,0,0,0-.462-.734,5.22,5.22,0,0,0-1.48-.479q-3.393-.711-3.393-2.882a2.614,2.614,0,0,1,1.051-2.115,4.235,4.235,0,0,1,2.746-.847,4.567,4.567,0,0,1,2.9.852,2.692,2.692,0,0,1,1.085,2.215h-2.54a1.231,1.231,0,0,0-.352-.9,1.485,1.485,0,0,0-1.1-.356,1.524,1.524,0,0,0-.993.29.918.918,0,0,0-.351.739.779.779,0,0,0,.4.68,4.1,4.1,0,0,0,1.349.449,11.054,11.054,0,0,1,1.6.426,2.628,2.628,0,0,1,2.013,2.558,2.479,2.479,0,0,1-1.116,2.1,4.808,4.808,0,0,1-2.883.805,5.011,5.011,0,0,1-2.122-.427,3.546,3.546,0,0,1-1.455-1.169,2.71,2.71,0,0,1-.528-1.6h2.409a1.323,1.323,0,0,0,.5,1.037,1.986,1.986,0,0,0,1.248.36,1.833,1.833,0,0,0,1.1-.277A.862.862,0,0,0-969.552-2296.058Z" fill="#12263f"/>
          <path id="Path_142825" data-name="Path 142825" d="M-1080.526-2283.678v2.338h1.626v1.863h-1.626v4.747a1.129,1.129,0,0,0,.2.755,1.011,1.011,0,0,0,.773.229,4.051,4.051,0,0,0,.747-.062v1.925a5.2,5.2,0,0,1-1.538.229,2.425,2.425,0,0,1-2.724-2.7v-5.124h-1.389v-1.863h1.389v-2.338Z" fill="#12263f"/>
          <path id="Path_142826" data-name="Path 142826" d="M-1073.108-2271.654a4.665,4.665,0,0,1-3.406-1.284,4.556,4.556,0,0,1-1.314-3.418v-.247a5.73,5.73,0,0,1,.554-2.561,4.053,4.053,0,0,1,1.569-1.74,4.392,4.392,0,0,1,2.315-.612,3.947,3.947,0,0,1,3.072,1.231,4.993,4.993,0,0,1,1.121,3.489v1.037h-6.056a2.356,2.356,0,0,0,.743,1.494,2.244,2.244,0,0,0,1.569.563,2.743,2.743,0,0,0,2.294-1.064l1.248,1.4a3.822,3.822,0,0,1-1.547,1.262A5.087,5.087,0,0,1-1073.108-2271.654Zm-.29-7.814a1.587,1.587,0,0,0-1.227.513,2.652,2.652,0,0,0-.6,1.465h3.534v-.2a1.892,1.892,0,0,0-.457-1.311A1.637,1.637,0,0,0-1073.4-2279.468Z" fill="#12263f"/>
          <path id="Path_142827" data-name="Path 142827" d="M-1065.075-2271.83h-2.549v-13.5h2.549Z" fill="#12263f"/>
          <path id="Path_142828" data-name="Path 142828" d="M-1058.606-2271.654a4.665,4.665,0,0,1-3.406-1.284,4.556,4.556,0,0,1-1.314-3.418v-.247a5.73,5.73,0,0,1,.554-2.561,4.054,4.054,0,0,1,1.569-1.74,4.393,4.393,0,0,1,2.315-.612,3.948,3.948,0,0,1,3.072,1.231,4.994,4.994,0,0,1,1.121,3.489v1.037h-6.056a2.356,2.356,0,0,0,.743,1.494,2.244,2.244,0,0,0,1.569.563,2.74,2.74,0,0,0,2.293-1.064l1.249,1.4a3.822,3.822,0,0,1-1.547,1.262A5.087,5.087,0,0,1-1058.606-2271.654Zm-.29-7.814a1.587,1.587,0,0,0-1.227.513,2.645,2.645,0,0,0-.6,1.465h3.534v-.2a1.891,1.891,0,0,0-.457-1.311A1.638,1.638,0,0,0-1058.9-2279.468Z" fill="#12263f"/>
          <path id="Path_142829" data-name="Path 142829" d="M-1049.3-2273.7a1.666,1.666,0,0,0,1.143-.387,1.355,1.355,0,0,0,.457-1.028h2.382a3.259,3.259,0,0,1-.528,1.771,3.477,3.477,0,0,1-1.42,1.248,4.436,4.436,0,0,1-1.99.444,4.13,4.13,0,0,1-3.217-1.3,5.133,5.133,0,0,1-1.177-3.582v-.167a5.068,5.068,0,0,1,1.169-3.507,4.079,4.079,0,0,1,3.208-1.31,4,4,0,0,1,2.861,1.016,3.6,3.6,0,0,1,1.094,2.7h-2.382a1.749,1.749,0,0,0-.457-1.206,1.525,1.525,0,0,0-1.16-.464,1.53,1.53,0,0,0-1.341.648,3.744,3.744,0,0,0-.452,2.1v.265a3.791,3.791,0,0,0,.448,2.112A1.548,1.548,0,0,0-1049.3-2273.7Z" fill="#12263f"/>
          <path id="Path_142830" data-name="Path 142830" d="M-1044.263-2276.673a5.642,5.642,0,0,1,.545-2.522,3.986,3.986,0,0,1,1.569-1.714,4.579,4.579,0,0,1,2.378-.607,4.328,4.328,0,0,1,3.141,1.178,4.726,4.726,0,0,1,1.359,3.2l.017.651a4.966,4.966,0,0,1-1.222,3.511,4.245,4.245,0,0,1-3.278,1.323,4.265,4.265,0,0,1-3.282-1.319,5.056,5.056,0,0,1-1.227-3.586Zm2.54.181a3.555,3.555,0,0,0,.51,2.073,1.682,1.682,0,0,0,1.459.717,1.685,1.685,0,0,0,1.441-.708,3.892,3.892,0,0,0,.519-2.267,3.518,3.518,0,0,0-.519-2.06,1.685,1.685,0,0,0-1.458-.731,1.657,1.657,0,0,0-1.442.727A3.951,3.951,0,0,0-1041.723-2276.492Z" fill="#12263f"/>
          <path id="Path_142831" data-name="Path 142831" d="M-1031.308-2281.34l.079,1.064a3.341,3.341,0,0,1,2.734-1.24,2.537,2.537,0,0,1,2.522,1.451,3.266,3.266,0,0,1,2.857-1.451,2.837,2.837,0,0,1,2.3.9,4.144,4.144,0,0,1,.755,2.711v6.073h-2.548v-6.078a1.818,1.818,0,0,0-.317-1.185,1.4,1.4,0,0,0-1.116-.375,1.585,1.585,0,0,0-1.582,1.093l.009,6.545h-2.54v-6.069a1.8,1.8,0,0,0-.326-1.2,1.413,1.413,0,0,0-1.107-.37,1.645,1.645,0,0,0-1.564.9v6.739h-2.54v-9.51Z" fill="#12263f"/>
          <path id="Path_142832" data-name="Path 142832" d="M-1012.411-2272.8a3.184,3.184,0,0,1-2.6,1.143,3,3,0,0,1-2.333-.879,3.75,3.75,0,0,1-.822-2.575v-6.232h2.54v6.152q0,1.486,1.354,1.486a1.832,1.832,0,0,0,1.775-.9v-6.74h2.549v9.51h-2.391Z" fill="#12263f"/>
          <path id="Path_142833" data-name="Path 142833" d="M-1005.7-2281.34l.079,1.1a3.319,3.319,0,0,1,2.733-1.275,2.758,2.758,0,0,1,2.25.888,4.146,4.146,0,0,1,.756,2.654v6.144h-2.54v-6.1a1.652,1.652,0,0,0-.352-1.176,1.569,1.569,0,0,0-1.168-.366,1.749,1.749,0,0,0-1.609.916v6.722h-2.54v-9.51Z" fill="#12263f"/>
          <path id="Path_142834" data-name="Path 142834" d="M-997.971-2283.8a1.252,1.252,0,0,1,.382-.94,1.44,1.44,0,0,1,1.042-.369,1.439,1.439,0,0,1,1.037.369,1.242,1.242,0,0,1,.387.94,1.246,1.246,0,0,1-.392.949,1.436,1.436,0,0,1-1.032.37,1.436,1.436,0,0,1-1.032-.37A1.242,1.242,0,0,1-997.971-2283.8Zm2.7,11.971h-2.549v-9.51h2.549Z" fill="#12263f"/>
          <path id="Path_142835" data-name="Path 142835" d="M-989.226-2273.7a1.666,1.666,0,0,0,1.143-.387,1.354,1.354,0,0,0,.457-1.028h2.382a3.266,3.266,0,0,1-.527,1.771,3.491,3.491,0,0,1-1.42,1.248,4.444,4.444,0,0,1-1.991.444,4.128,4.128,0,0,1-3.216-1.3,5.128,5.128,0,0,1-1.178-3.582v-.167a5.068,5.068,0,0,1,1.169-3.507,4.079,4.079,0,0,1,3.208-1.31,4,4,0,0,1,2.861,1.016,3.6,3.6,0,0,1,1.094,2.7h-2.382a1.749,1.749,0,0,0-.457-1.206,1.525,1.525,0,0,0-1.16-.464,1.53,1.53,0,0,0-1.341.648,3.744,3.744,0,0,0-.452,2.1v.265a3.79,3.79,0,0,0,.448,2.112A1.548,1.548,0,0,0-989.226-2273.7Z" fill="#12263f"/>
          <path id="Path_142836" data-name="Path 142836" d="M-978.283-2271.83a2.84,2.84,0,0,1-.255-.853,3.072,3.072,0,0,1-2.4,1.029,3.379,3.379,0,0,1-2.316-.809,2.6,2.6,0,0,1-.918-2.039,2.685,2.685,0,0,1,1.121-2.32,5.525,5.525,0,0,1,3.238-.818h1.169v-.545a1.568,1.568,0,0,0-.338-1.054,1.33,1.33,0,0,0-1.068-.4,1.516,1.516,0,0,0-1.007.308,1.044,1.044,0,0,0-.364.844h-2.54a2.553,2.553,0,0,1,.51-1.53,3.368,3.368,0,0,1,1.441-1.1,5.247,5.247,0,0,1,2.092-.4,4.152,4.152,0,0,1,2.791.884,3.091,3.091,0,0,1,1.032,2.483v4.122a4.551,4.551,0,0,0,.378,2.048v.149Zm-2.1-1.767a2.186,2.186,0,0,0,1.037-.25,1.637,1.637,0,0,0,.7-.673v-1.634h-.949q-1.906,0-2.03,1.318l-.009.149a1.016,1.016,0,0,0,.334.783A1.3,1.3,0,0,0-980.384-2273.6Z" fill="#12263f"/>
          <path id="Path_142837" data-name="Path 142837" d="M-970.188-2273.7a1.665,1.665,0,0,0,1.142-.387,1.354,1.354,0,0,0,.457-1.028h2.382a3.266,3.266,0,0,1-.527,1.771,3.491,3.491,0,0,1-1.42,1.248,4.444,4.444,0,0,1-1.991.444,4.128,4.128,0,0,1-3.216-1.3,5.133,5.133,0,0,1-1.178-3.582v-.167a5.073,5.073,0,0,1,1.169-3.507,4.081,4.081,0,0,1,3.208-1.31,4,4,0,0,1,2.861,1.016,3.6,3.6,0,0,1,1.094,2.7h-2.382a1.749,1.749,0,0,0-.457-1.206,1.525,1.525,0,0,0-1.16-.464,1.53,1.53,0,0,0-1.341.648,3.744,3.744,0,0,0-.452,2.1v.265a3.791,3.791,0,0,0,.448,2.112A1.549,1.549,0,0,0-970.188-2273.7Z" fill="#12263f"/>
          <path id="Path_142838" data-name="Path 142838" d="M-964.774-2283.8a1.255,1.255,0,0,1,.381-.94,1.44,1.44,0,0,1,1.042-.369,1.441,1.441,0,0,1,1.038.369,1.245,1.245,0,0,1,.386.94,1.248,1.248,0,0,1-.391.949,1.44,1.44,0,0,1-1.033.37,1.438,1.438,0,0,1-1.032-.37A1.241,1.241,0,0,1-964.774-2283.8Zm2.7,11.971h-2.549v-9.51h2.549Z" fill="#12263f"/>
          <path id="Path_142839" data-name="Path 142839" d="M-960.38-2276.673a5.643,5.643,0,0,1,.545-2.522,3.984,3.984,0,0,1,1.568-1.714,4.584,4.584,0,0,1,2.378-.607,4.33,4.33,0,0,1,3.142,1.178,4.726,4.726,0,0,1,1.358,3.2l.018.651a4.966,4.966,0,0,1-1.222,3.511,4.244,4.244,0,0,1-3.278,1.323,4.265,4.265,0,0,1-3.282-1.319,5.052,5.052,0,0,1-1.227-3.586Zm2.54.181a3.555,3.555,0,0,0,.51,2.073,1.682,1.682,0,0,0,1.459.717,1.685,1.685,0,0,0,1.441-.708,3.891,3.891,0,0,0,.519-2.267,3.518,3.518,0,0,0-.519-2.06,1.685,1.685,0,0,0-1.459-.731,1.656,1.656,0,0,0-1.441.727A3.951,3.951,0,0,0-957.84-2276.492Z" fill="#12263f"/>
          <path id="Path_142840" data-name="Path 142840" d="M-947.469-2281.34l.079,1.1a3.32,3.32,0,0,1,2.734-1.275,2.758,2.758,0,0,1,2.25.888,4.145,4.145,0,0,1,.756,2.654v6.144h-2.54v-6.1a1.657,1.657,0,0,0-.352-1.176,1.57,1.57,0,0,0-1.169-.366,1.746,1.746,0,0,0-1.608.916v6.722h-2.54v-9.51Z" fill="#12263f"/>
          <path id="Path_142841" data-name="Path 142841" d="M-935.349-2271.654a4.665,4.665,0,0,1-3.405-1.284,4.556,4.556,0,0,1-1.314-3.418v-.247a5.743,5.743,0,0,1,.553-2.561,4.056,4.056,0,0,1,1.57-1.74,4.39,4.39,0,0,1,2.315-.612,3.944,3.944,0,0,1,3.071,1.231,4.994,4.994,0,0,1,1.121,3.489v1.037h-6.055a2.355,2.355,0,0,0,.743,1.494,2.243,2.243,0,0,0,1.568.563,2.74,2.74,0,0,0,2.294-1.064l1.248,1.4a3.816,3.816,0,0,1-1.547,1.262A5.084,5.084,0,0,1-935.349-2271.654Zm-.29-7.814a1.585,1.585,0,0,0-1.226.513,2.644,2.644,0,0,0-.6,1.465h3.533v-.2a1.887,1.887,0,0,0-.457-1.311A1.638,1.638,0,0,0-935.639-2279.468Z" fill="#12263f"/>
          <path id="Path_142842" data-name="Path 142842" d="M-924.846-2274.458a.814.814,0,0,0-.462-.733,5.2,5.2,0,0,0-1.48-.48q-3.393-.713-3.393-2.883a2.611,2.611,0,0,1,1.051-2.113,4.236,4.236,0,0,1,2.746-.849,4.569,4.569,0,0,1,2.9.853,2.691,2.691,0,0,1,1.085,2.215h-2.54a1.231,1.231,0,0,0-.352-.9,1.49,1.49,0,0,0-1.1-.356,1.525,1.525,0,0,0-.993.29.915.915,0,0,0-.351.738.783.783,0,0,0,.4.682,4.1,4.1,0,0,0,1.349.448,11.049,11.049,0,0,1,1.6.426,2.629,2.629,0,0,1,2.013,2.558,2.481,2.481,0,0,1-1.116,2.1,4.816,4.816,0,0,1-2.883.8,5.022,5.022,0,0,1-2.122-.426,3.552,3.552,0,0,1-1.455-1.169,2.713,2.713,0,0,1-.527-1.6h2.408a1.325,1.325,0,0,0,.5,1.038,1.986,1.986,0,0,0,1.248.36,1.842,1.842,0,0,0,1.1-.276A.864.864,0,0,0-924.846-2274.458Z" fill="#12263f"/>
        </g>
      </g>
    </g>
  </g>
</svg>
