<svg xmlns="http://www.w3.org/2000/svg" width="181" height="182" viewBox="0 0 181 182">
  <g id="t2-ic2" transform="translate(-395 -1568)">
    <ellipse id="Ellipse_4064" data-name="Ellipse 4064" cx="90.5" cy="91" rx="90.5" ry="91" transform="translate(395 1568)" fill="#fff"/>
    <g id="water-energy" transform="translate(441 1614)">
      <g id="Group_98798" data-name="Group 98798" transform="translate(0 1.319)">
        <g id="Group_98793" data-name="Group 98793" transform="translate(54.865 20.957)">
          <path id="Path_143982" data-name="Path 143982" d="M345.937,153.7a16.908,16.908,0,1,1-33.817,0c0-8.093,12.7-22.826,16.087-26.612a1.1,1.1,0,0,1,1.643,0C333.237,130.878,345.937,145.612,345.937,153.7Z" transform="translate(-312.12 -126.726)" fill="#92edf9"/>
          <path id="Path_143983" data-name="Path 143983" d="M396.769,127.093a1.1,1.1,0,0,0-1.643,0c-.455.508-1.078,1.215-1.815,2.075,4.753,5.547,14.272,17.53,14.272,24.537a16.912,16.912,0,0,1-14.272,16.7,16.92,16.92,0,0,0,19.545-16.7C412.856,145.612,400.156,130.878,396.769,127.093Z" transform="translate(-379.039 -126.726)" fill="#4dd0e1"/>
        </g>
        <g id="Group_98794" data-name="Group 98794" transform="translate(1.319 20.957)">
          <path id="Path_143985" data-name="Path 143985" d="M41.318,153.7a16.908,16.908,0,1,1-33.817,0c0-8.093,12.7-22.826,16.087-26.612a1.1,1.1,0,0,1,1.643,0c3.387,3.785,16.087,18.519,16.087,26.612Z" transform="translate(-7.501 -126.726)" fill="#92edf9"/>
          <path id="Path_143986" data-name="Path 143986" d="M92.149,127.093a1.1,1.1,0,0,0-1.643,0c-.455.508-1.078,1.215-1.815,2.075,4.753,5.547,14.272,17.53,14.272,24.537a16.912,16.912,0,0,1-14.272,16.7,16.92,16.92,0,0,0,19.545-16.7c0-8.093-12.7-22.826-16.087-26.612Z" transform="translate(-74.419 -126.726)" fill="#4dd0e1"/>
        </g>
        <g id="Group_98795" data-name="Group 98795" transform="translate(26.146)">
          <path id="Path_143988" data-name="Path 143988" d="M186.451,37.584a18.854,18.854,0,1,1-37.708,0c0-9.024,14.161-25.453,17.938-29.674a1.23,1.23,0,0,1,1.833,0C172.29,12.131,186.451,28.56,186.451,37.584Z" transform="translate(-148.743 -7.501)" fill="#92edf9"/>
          <path id="Path_143989" data-name="Path 143989" d="M244.554,7.91a1.23,1.23,0,0,0-1.833,0c-.443.5-1.031,1.161-1.72,1.961,5.186,6.016,16.217,19.748,16.217,27.713A18.857,18.857,0,0,1,241,56.253a18.86,18.86,0,0,0,21.491-18.67c0-9.024-14.161-25.453-17.938-29.673Z" transform="translate(-224.784 -7.501)" fill="#4dd0e1"/>
        </g>
        <g id="Group_98797" data-name="Group 98797" transform="translate(0 71.191)">
          <g id="Group_98796" data-name="Group 98796">
            <path id="Path_143991" data-name="Path 143991" d="M0,413.818A1.318,1.318,0,0,1,1.318,412.5c7.28,0,7.28,3.516,14.56,3.516s7.28-3.516,14.56-3.516,7.28,3.516,14.56,3.516,7.28-3.516,14.56-3.516,7.28,3.516,14.561,3.516S81.4,412.5,88.682,412.5A1.318,1.318,0,0,1,90,413.818v14.414a1.758,1.758,0,0,1-1.758,1.758H1.758A1.758,1.758,0,0,1,0,428.233V413.818Z" transform="translate(0 -412.5)" fill="#4dd0e1"/>
          </g>
        </g>
      </g>
      <path id="Path_143992" data-name="Path 143992" d="M88.681,71.191a15.864,15.864,0,0,0-7.854,1.889,14.641,14.641,0,0,1-13.415,0,15.863,15.863,0,0,0-7.854-1.889,15.863,15.863,0,0,0-7.854,1.889A13.265,13.265,0,0,1,45,74.707a13.265,13.265,0,0,1-6.707-1.627,15.862,15.862,0,0,0-7.853-1.889,15.863,15.863,0,0,0-7.854,1.889,13.264,13.264,0,0,1-6.707,1.627A13.264,13.264,0,0,1,9.172,73.08a15.862,15.862,0,0,0-7.853-1.889,1.318,1.318,0,1,0,0,2.637,13.264,13.264,0,0,1,6.707,1.627,15.863,15.863,0,0,0,7.853,1.889,15.863,15.863,0,0,0,7.853-1.889,13.265,13.265,0,0,1,6.707-1.627,13.264,13.264,0,0,1,6.707,1.627A15.862,15.862,0,0,0,45,77.344a15.863,15.863,0,0,0,7.854-1.889,13.265,13.265,0,0,1,6.707-1.627,13.266,13.266,0,0,1,6.707,1.627,17.272,17.272,0,0,0,15.708,0,13.266,13.266,0,0,1,6.707-1.627,1.318,1.318,0,1,0,0-2.637Zm0,12.656a15.864,15.864,0,0,0-7.854,1.889,14.641,14.641,0,0,1-13.415,0,15.863,15.863,0,0,0-7.854-1.889,15.863,15.863,0,0,0-7.854,1.889A13.265,13.265,0,0,1,45,87.363a13.265,13.265,0,0,1-6.707-1.627,15.862,15.862,0,0,0-7.853-1.889,15.863,15.863,0,0,0-7.854,1.889,13.264,13.264,0,0,1-6.707,1.627,13.264,13.264,0,0,1-6.707-1.627,15.862,15.862,0,0,0-7.853-1.889,1.318,1.318,0,1,0,0,2.637,13.264,13.264,0,0,1,6.707,1.627A15.863,15.863,0,0,0,15.878,90a15.863,15.863,0,0,0,7.853-1.889,13.265,13.265,0,0,1,6.707-1.627,13.264,13.264,0,0,1,6.707,1.627A15.862,15.862,0,0,0,45,90a15.863,15.863,0,0,0,7.854-1.889c1.732-.837,11.682-.837,13.414,0a17.272,17.272,0,0,0,15.708,0,13.266,13.266,0,0,1,6.707-1.627,1.318,1.318,0,1,0,0-2.637ZM18.227,67.482A18.248,18.248,0,0,0,36.448,49.669a20.166,20.166,0,0,0,28.72-17.943c2.673-3.526,5.214-6.462,6.605-8.021a129.309,129.309,0,0,1,9.053,11.384c4.277,6.142,6.537,11.041,6.537,14.168A15.592,15.592,0,0,1,56.66,53.1a1.318,1.318,0,1,0-2.556.648A18.229,18.229,0,0,0,90,49.256c0-3.721-2.358-8.994-7.01-15.675a132.326,132.326,0,0,0-9.412-11.815,2.418,2.418,0,0,0-3.607,0C68.862,23,66.9,25.25,64.693,28.035c-.972-3.738-3.418-8.435-7.31-14.025A147.591,147.591,0,0,0,46.9.849a2.548,2.548,0,0,0-3.8,0A147.638,147.638,0,0,0,32.617,14.01c-5.168,7.423-7.789,13.275-7.789,17.391a20.168,20.168,0,0,0,8.9,16.721,7.98,7.98,0,0,1,.089,1.133,15.59,15.59,0,1,1-31.18,0c0-3.127,2.261-8.026,6.537-14.168A129.355,129.355,0,0,1,18.227,23.7c.6.672,1.485,1.682,2.535,2.931a1.318,1.318,0,1,0,2.019-1.7c-1.17-1.393-2.142-2.5-2.749-3.172a2.418,2.418,0,0,0-3.608,0A132.359,132.359,0,0,0,7.01,33.581C2.358,40.261,0,45.535,0,49.256A18.247,18.247,0,0,0,18.227,67.482ZM27.464,31.4c0-6.708,9.045-19.219,17.535-28.72,8.49,9.5,17.535,22.012,17.535,28.72a17.535,17.535,0,1,1-35.071,0Z"/>
    </g>
  </g>
</svg>
