<svg xmlns="http://www.w3.org/2000/svg" width="153.231" height="150" viewBox="0 0 153.231 150">
  <g id="t2-p4" transform="translate(1656.437 -792.962)">
    <g id="Group_97095" data-name="Group 97095" transform="translate(-1649.712 818.69)">
      <rect id="Rectangle_8700" data-name="Rectangle 8700" width="139.78" height="96.331" rx="13.665" fill="#cecece"/>
    </g>
    <g id="Group_97097" data-name="Group 97097" transform="translate(-1649.711 818.69)">
      <g id="Group_97096" data-name="Group 97096">
        <path id="Path_142668" data-name="Path 142668" d="M-1639.512,920.939V842.031a8.721,8.721,0,0,1,8.711-8.712h-6.375a8.721,8.721,0,0,0-8.711,8.712v78.908a8.721,8.721,0,0,0,8.711,8.712h6.375A8.721,8.721,0,0,1-1639.512,920.939Z" transform="translate(1645.887 -833.319)" fill="#afafaf"/>
      </g>
    </g>
    <g id="Group_97099" data-name="Group 97099" transform="translate(-1525.018 818.69)">
      <g id="Group_97098" data-name="Group 97098">
        <path id="Path_142669" data-name="Path 142669" d="M-1441.58,920.939V842.031a8.721,8.721,0,0,0-8.712-8.712h6.375a8.721,8.721,0,0,1,8.712,8.712v78.908a8.721,8.721,0,0,1-8.712,8.712h-6.375A8.721,8.721,0,0,0-1441.58,920.939Z" transform="translate(1450.292 -833.319)" fill="#e2e2e2"/>
      </g>
    </g>
    <g id="Group_97101" data-name="Group 97101" transform="translate(-1650.668 817.734)">
      <g id="Group_97100" data-name="Group 97100">
        <path id="Path_142670" data-name="Path 142670" d="M-1515.361,930.063H-1637.72a9.679,9.679,0,0,1-9.667-9.668V841.486a9.679,9.679,0,0,1,9.667-9.667h122.359a9.678,9.678,0,0,1,9.667,9.667V920.4A9.679,9.679,0,0,1-1515.361,930.063Zm-122.359-96.331a7.764,7.764,0,0,0-7.754,7.755V920.4a7.764,7.764,0,0,0,7.754,7.755h122.359a7.764,7.764,0,0,0,7.755-7.755V841.486a7.764,7.764,0,0,0-7.755-7.755Z" transform="translate(1647.387 -831.819)" fill="#12263f"/>
      </g>
    </g>
    <g id="Group_97102" data-name="Group 97102" transform="translate(-1644.351 824.051)">
      <rect id="Rectangle_8701" data-name="Rectangle 8701" width="129.059" height="77.96" rx="5.256" fill="#4dd0e1"/>
    </g>
    <g id="Group_97104" data-name="Group 97104" transform="translate(-1644.35 824.051)">
      <g id="Group_97103" data-name="Group 97103">
        <path id="Path_142671" data-name="Path 142671" d="M-1631.1,916.337V845.078a3.36,3.36,0,0,1,3.35-3.35h-6.375a3.36,3.36,0,0,0-3.35,3.35v71.259a3.36,3.36,0,0,0,3.35,3.351h6.375A3.36,3.36,0,0,1-1631.1,916.337Z" transform="translate(1637.478 -841.728)" fill="#7cd5e1"/>
      </g>
    </g>
    <g id="Group_97106" data-name="Group 97106" transform="translate(-1525.018 824.051)">
      <g id="Group_97105" data-name="Group 97105">
        <path id="Path_142672" data-name="Path 142672" d="M-1446.941,916.337V845.078a3.36,3.36,0,0,0-3.351-3.35h6.375a3.36,3.36,0,0,1,3.351,3.35v71.259a3.36,3.36,0,0,1-3.351,3.351h-6.375A3.36,3.36,0,0,0-1446.941,916.337Z" transform="translate(1450.292 -841.728)" fill="#7cd5e1"/>
      </g>
    </g>
    <g id="Group_97108" data-name="Group 97108" transform="translate(-1645.307 823.095)">
      <g id="Group_97107" data-name="Group 97107">
        <path id="Path_142673" data-name="Path 142673" d="M-1512.313,920.1h-122.358a4.312,4.312,0,0,1-4.306-4.307V844.534a4.311,4.311,0,0,1,4.306-4.306h122.358a4.311,4.311,0,0,1,4.306,4.306v71.259A4.311,4.311,0,0,1-1512.313,920.1Zm-122.358-77.96a2.4,2.4,0,0,0-2.394,2.394v71.259a2.4,2.4,0,0,0,2.394,2.394h122.358a2.4,2.4,0,0,0,2.393-2.394V844.534a2.4,2.4,0,0,0-2.393-2.394Z" transform="translate(1638.978 -840.228)" fill="#12263f"/>
      </g>
    </g>
    <g id="Group_97109" data-name="Group 97109" transform="translate(-1604.169 929.147)">
      <rect id="Rectangle_8702" data-name="Rectangle 8702" width="48.695" height="5.863" fill="#9e9e9e"/>
    </g>
    <g id="Group_97111" data-name="Group 97111" transform="translate(-1604.169 929.147)">
      <g id="Group_97110" data-name="Group 97110">
        <rect id="Rectangle_8703" data-name="Rectangle 8703" width="6.375" height="5.863" fill="#12263f"/>
      </g>
    </g>
    <g id="Group_97112" data-name="Group 97112" transform="translate(-1597.244 915.021)">
      <rect id="Rectangle_8704" data-name="Rectangle 8704" width="34.846" height="14.126" fill="#cecece"/>
    </g>
    <g id="Group_97114" data-name="Group 97114" transform="translate(-1597.244 915.021)">
      <g id="Group_97113" data-name="Group 97113">
        <rect id="Rectangle_8705" data-name="Rectangle 8705" width="6.375" height="14.126" fill="#afafaf"/>
      </g>
    </g>
    <g id="Group_97116" data-name="Group 97116" transform="translate(-1605.125 928.191)">
      <g id="Group_97115" data-name="Group 97115">
        <path id="Path_142674" data-name="Path 142674" d="M-1526.3,1012.859h-48.695a.956.956,0,0,1-.956-.956v-5.863a.956.956,0,0,1,.956-.956h48.695a.956.956,0,0,1,.956.956v5.863A.956.956,0,0,1-1526.3,1012.859Zm-47.739-1.913h46.782V1007h-46.782Z" transform="translate(1575.949 -1005.083)" fill="#12263f"/>
      </g>
    </g>
    <g id="Group_97118" data-name="Group 97118" transform="translate(-1598.2 914.065)">
      <g id="Group_97117" data-name="Group 97117">
        <path id="Path_142675" data-name="Path 142675" d="M-1529.285,998.963h-34.845a.956.956,0,0,1-.956-.956V983.881a.956.956,0,0,1,.956-.956h34.845a.956.956,0,0,1,.956.956v14.126A.956.956,0,0,1-1529.285,998.963Zm-33.889-1.913h32.932V984.837h-32.932Z" transform="translate(1565.086 -982.925)" fill="#12263f"/>
      </g>
    </g>
    <g id="Group_97122" data-name="Group 97122" transform="translate(-1583.646 904.69)">
      <g id="Group_97119" data-name="Group 97119" transform="translate(0.956 0.956)">
        <circle id="Ellipse_4385" data-name="Ellipse 4385" cx="2.869" cy="2.869" r="2.869" fill="#9e9e9e"/>
      </g>
      <g id="Group_97121" data-name="Group 97121">
        <g id="Group_97120" data-name="Group 97120">
          <path id="Path_142676" data-name="Path 142676" d="M-1538.432,975.87a3.829,3.829,0,0,1-3.825-3.825,3.829,3.829,0,0,1,3.825-3.825,3.83,3.83,0,0,1,3.825,3.825A3.829,3.829,0,0,1-1538.432,975.87Zm0-5.737a1.915,1.915,0,0,0-1.913,1.913,1.914,1.914,0,0,0,1.913,1.912,1.914,1.914,0,0,0,1.913-1.912A1.915,1.915,0,0,0-1538.432,970.133Z" transform="translate(1542.257 -968.22)" fill="#12263f"/>
        </g>
      </g>
    </g>
    <g id="Group_97132" data-name="Group 97132" transform="translate(-1656.437 934.054)">
      <g id="Group_97127" data-name="Group 97127" transform="translate(0 6.995)">
        <g id="Group_97124" data-name="Group 97124">
          <g id="Group_97123" data-name="Group 97123">
            <path id="Path_142677" data-name="Path 142677" d="M-1644,1027.166h-11.477a.956.956,0,0,1-.956-.956.957.957,0,0,1,.956-.956H-1644a.957.957,0,0,1,.956.956A.956.956,0,0,1-1644,1027.166Z" transform="translate(1656.437 -1025.253)" fill="#12263f"/>
          </g>
        </g>
        <g id="Group_97126" data-name="Group 97126" transform="translate(139.842)">
          <g id="Group_97125" data-name="Group 97125">
            <path id="Path_142678" data-name="Path 142678" d="M-1424.647,1027.166h-11.477a.956.956,0,0,1-.956-.956.956.956,0,0,1,.956-.956h11.477a.956.956,0,0,1,.956.956A.956.956,0,0,1-1424.647,1027.166Z" transform="translate(1437.08 -1025.253)" fill="#12263f"/>
          </g>
        </g>
      </g>
      <g id="Group_97129" data-name="Group 97129" transform="translate(17.978 6.995)">
        <g id="Group_97128" data-name="Group 97128">
          <path id="Path_142679" data-name="Path 142679" d="M-1511.918,1027.166h-115.363a.956.956,0,0,1-.956-.956.957.957,0,0,1,.956-.956h115.363a.956.956,0,0,1,.956.956A.956.956,0,0,1-1511.918,1027.166Z" transform="translate(1628.237 -1025.253)" fill="#12263f"/>
        </g>
      </g>
      <g id="Group_97131" data-name="Group 97131">
        <g id="Group_97130" data-name="Group 97130">
          <path id="Path_142680" data-name="Path 142680" d="M-1504.162,1016.193h-151.318a.956.956,0,0,1-.956-.956.957.957,0,0,1,.956-.956h151.318a.956.956,0,0,1,.956.956A.956.956,0,0,1-1504.162,1016.193Z" transform="translate(1656.437 -1014.28)" fill="#12263f"/>
        </g>
      </g>
    </g>
    <g id="Group_97157" data-name="Group 97157" transform="translate(-1626.855 792.962)">
      <g id="Group_97133" data-name="Group 97133" transform="translate(0.979 29.087)">
        <rect id="Rectangle_8706" data-name="Rectangle 8706" width="92.11" height="28.108" rx="4.919" fill="#cecece"/>
      </g>
      <g id="Group_97134" data-name="Group 97134" transform="translate(0.979 57.195)">
        <rect id="Rectangle_8707" data-name="Rectangle 8707" width="92.11" height="28.108" rx="4.919" fill="#cecece"/>
      </g>
      <g id="Group_97135" data-name="Group 97135" transform="translate(0.979 0.979)">
        <rect id="Rectangle_8708" data-name="Rectangle 8708" width="92.11" height="28.108" rx="4.919" fill="#cecece"/>
      </g>
      <g id="Group_97136" data-name="Group 97136" transform="translate(0.979 0.979)">
        <path id="Path_142681" data-name="Path 142681" d="M-1603.262,820.671v-24.24a1.934,1.934,0,0,1,1.934-1.934h-5.237a1.934,1.934,0,0,0-1.934,1.934v24.24a1.934,1.934,0,0,0,1.934,1.934h5.237A1.934,1.934,0,0,1-1603.262,820.671Z" transform="translate(1608.499 -794.497)" fill="#9e9e9e"/>
      </g>
      <g id="Group_97137" data-name="Group 97137" transform="translate(85.917 0.979)">
        <path id="Path_142682" data-name="Path 142682" d="M-1473.33,820.671v-24.24a1.934,1.934,0,0,0-1.934-1.934h5.237a1.934,1.934,0,0,1,1.934,1.934v24.24a1.934,1.934,0,0,1-1.934,1.934h-5.237A1.934,1.934,0,0,0-1473.33,820.671Z" transform="translate(1475.264 -794.497)" fill="#e2e2e2"/>
      </g>
      <g id="Group_97138" data-name="Group 97138" transform="translate(85.917 29.087)">
        <path id="Path_142683" data-name="Path 142683" d="M-1473.33,864.762v-24.24a1.934,1.934,0,0,0-1.934-1.934h5.237a1.934,1.934,0,0,1,1.934,1.934v24.24a1.934,1.934,0,0,1-1.934,1.934h-5.237A1.934,1.934,0,0,0-1473.33,864.762Z" transform="translate(1475.264 -838.588)" fill="#e2e2e2"/>
      </g>
      <g id="Group_97139" data-name="Group 97139" transform="translate(85.917 57.195)">
        <path id="Path_142684" data-name="Path 142684" d="M-1473.33,908.853v-24.24a1.934,1.934,0,0,0-1.934-1.934h5.237a1.934,1.934,0,0,1,1.934,1.934v24.24a1.934,1.934,0,0,1-1.934,1.934h-5.237A1.934,1.934,0,0,0-1473.33,908.853Z" transform="translate(1475.264 -882.679)" fill="#e2e2e2"/>
      </g>
      <g id="Group_97140" data-name="Group 97140" transform="translate(0.979 29.087)">
        <path id="Path_142685" data-name="Path 142685" d="M-1603.262,864.762v-24.24a1.934,1.934,0,0,1,1.934-1.934h-5.237a1.934,1.934,0,0,0-1.934,1.934v24.24a1.934,1.934,0,0,0,1.934,1.934h5.237A1.934,1.934,0,0,1-1603.262,864.762Z" transform="translate(1608.499 -838.588)" fill="#9e9e9e"/>
      </g>
      <g id="Group_97141" data-name="Group 97141" transform="translate(0.979 57.195)">
        <path id="Path_142686" data-name="Path 142686" d="M-1603.262,908.853v-24.24a1.934,1.934,0,0,1,1.934-1.934h-5.237a1.934,1.934,0,0,0-1.934,1.934v24.24a1.934,1.934,0,0,0,1.934,1.934h5.237A1.934,1.934,0,0,1-1603.262,908.853Z" transform="translate(1608.499 -882.679)" fill="#9e9e9e"/>
      </g>
      <g id="Group_97143" data-name="Group 97143">
        <g id="Group_97142" data-name="Group 97142">
          <path id="Path_142687" data-name="Path 142687" d="M-1520.154,823.028h-85.693a4.192,4.192,0,0,1-4.187-4.186V797.148a4.191,4.191,0,0,1,4.187-4.187h85.693a4.191,4.191,0,0,1,4.187,4.187v21.693A4.192,4.192,0,0,1-1520.154,823.028Zm-85.693-28.109a2.233,2.233,0,0,0-2.229,2.23v21.693a2.232,2.232,0,0,0,2.229,2.229h85.693a2.232,2.232,0,0,0,2.23-2.229V797.148a2.233,2.233,0,0,0-2.23-2.23Z" transform="translate(1610.034 -792.962)" fill="#12263f"/>
        </g>
      </g>
      <g id="Group_97145" data-name="Group 97145" transform="translate(0 28.108)">
        <g id="Group_97144" data-name="Group 97144">
          <path id="Path_142688" data-name="Path 142688" d="M-1520.154,867.118h-85.693a4.191,4.191,0,0,1-4.187-4.186V841.24a4.192,4.192,0,0,1,4.187-4.187h85.693a4.192,4.192,0,0,1,4.187,4.187v21.692A4.191,4.191,0,0,1-1520.154,867.118Zm-85.693-28.108a2.232,2.232,0,0,0-2.229,2.23v21.692a2.232,2.232,0,0,0,2.229,2.229h85.693a2.232,2.232,0,0,0,2.23-2.229V841.24a2.232,2.232,0,0,0-2.23-2.23Z" transform="translate(1610.034 -837.053)" fill="#12263f"/>
        </g>
      </g>
      <g id="Group_97147" data-name="Group 97147" transform="translate(0 56.217)">
        <g id="Group_97146" data-name="Group 97146">
          <path id="Path_142689" data-name="Path 142689" d="M-1520.154,911.21h-85.693a4.192,4.192,0,0,1-4.187-4.187V885.331a4.191,4.191,0,0,1,4.187-4.187h85.693a4.191,4.191,0,0,1,4.187,4.187v21.692A4.192,4.192,0,0,1-1520.154,911.21Zm-85.693-28.109a2.233,2.233,0,0,0-2.229,2.23v21.692a2.232,2.232,0,0,0,2.229,2.23h85.693a2.232,2.232,0,0,0,2.23-2.23V885.331a2.233,2.233,0,0,0-2.23-2.23Z" transform="translate(1610.034 -881.144)" fill="#12263f"/>
        </g>
      </g>
      <rect id="Rectangle_8709" data-name="Rectangle 8709" width="53.397" height="6.054" rx="2.415" transform="translate(9.501 12.006)" fill="#ffca28"/>
      <rect id="Rectangle_8710" data-name="Rectangle 8710" width="53.397" height="6.054" rx="2.415" transform="translate(9.501 40.114)" fill="#ffca28"/>
      <rect id="Rectangle_8711" data-name="Rectangle 8711" width="53.397" height="6.054" rx="2.415" transform="translate(9.501 68.223)" fill="#ffca28"/>
      <g id="Group_97148" data-name="Group 97148" transform="translate(8.523 11.028)">
        <path id="Path_142690" data-name="Path 142690" d="M-1543.865,818.27h-50.246a2.557,2.557,0,0,1-2.554-2.554v-2.9a2.556,2.556,0,0,1,2.554-2.553h50.246a2.556,2.556,0,0,1,2.553,2.553v2.9A2.557,2.557,0,0,1-1543.865,818.27Zm-50.246-6.054a.605.605,0,0,0-.6.6v2.9a.605.605,0,0,0,.6.6h50.246a.605.605,0,0,0,.6-.6v-2.9a.605.605,0,0,0-.6-.6Z" transform="translate(1596.665 -810.26)" fill="#12263f"/>
      </g>
      <g id="Group_97149" data-name="Group 97149" transform="translate(8.523 39.136)">
        <path id="Path_142691" data-name="Path 142691" d="M-1543.865,862.361h-50.246a2.556,2.556,0,0,1-2.554-2.553v-2.9a2.557,2.557,0,0,1,2.554-2.554h50.246a2.557,2.557,0,0,1,2.553,2.554v2.9A2.556,2.556,0,0,1-1543.865,862.361Zm-50.246-6.052a.6.6,0,0,0-.6.6v2.9a.6.6,0,0,0,.6.6h50.246a.6.6,0,0,0,.6-.6v-2.9a.6.6,0,0,0-.6-.6Z" transform="translate(1596.665 -854.351)" fill="#12263f"/>
      </g>
      <g id="Group_97150" data-name="Group 97150" transform="translate(8.523 67.244)">
        <path id="Path_142692" data-name="Path 142692" d="M-1543.865,906.452h-50.246a2.557,2.557,0,0,1-2.554-2.554V901a2.556,2.556,0,0,1,2.554-2.553h50.246a2.556,2.556,0,0,1,2.553,2.553v2.9A2.557,2.557,0,0,1-1543.865,906.452Zm-50.246-6.054a.6.6,0,0,0-.6.6v2.9a.605.605,0,0,0,.6.6h50.246a.605.605,0,0,0,.6-.6V901a.605.605,0,0,0-.6-.6Z" transform="translate(1596.665 -898.442)" fill="#12263f"/>
      </g>
      <g id="Group_97152" data-name="Group 97152" transform="translate(74.812 11.028)">
        <rect id="Rectangle_8712" data-name="Rectangle 8712" width="6.054" height="6.054" rx="2.415" transform="translate(0.978 0.978)" fill="#ffca28"/>
        <g id="Group_97151" data-name="Group 97151">
          <path id="Path_142693" data-name="Path 142693" d="M-1487.227,818.27h-2.9a2.557,2.557,0,0,1-2.553-2.554v-2.9a2.556,2.556,0,0,1,2.553-2.553h2.9a2.556,2.556,0,0,1,2.553,2.553v2.9A2.557,2.557,0,0,1-1487.227,818.27Zm-2.9-6.054a.6.6,0,0,0-.6.6v2.9a.6.6,0,0,0,.6.6h2.9a.6.6,0,0,0,.6-.6v-2.9a.6.6,0,0,0-.6-.6Z" transform="translate(1492.684 -810.26)" fill="#12263f"/>
        </g>
      </g>
      <g id="Group_97154" data-name="Group 97154" transform="translate(74.812 39.136)">
        <rect id="Rectangle_8713" data-name="Rectangle 8713" width="6.054" height="6.054" rx="2.415" transform="translate(0.978 0.978)" fill="#ffca28"/>
        <g id="Group_97153" data-name="Group 97153">
          <path id="Path_142694" data-name="Path 142694" d="M-1487.227,862.361h-2.9a2.556,2.556,0,0,1-2.553-2.553v-2.9a2.557,2.557,0,0,1,2.553-2.554h2.9a2.557,2.557,0,0,1,2.553,2.554v2.9A2.556,2.556,0,0,1-1487.227,862.361Zm-2.9-6.052a.6.6,0,0,0-.6.6v2.9a.6.6,0,0,0,.6.6h2.9a.6.6,0,0,0,.6-.6v-2.9a.6.6,0,0,0-.6-.6Z" transform="translate(1492.684 -854.351)" fill="#12263f"/>
        </g>
      </g>
      <g id="Group_97156" data-name="Group 97156" transform="translate(74.812 67.244)">
        <rect id="Rectangle_8714" data-name="Rectangle 8714" width="6.054" height="6.054" rx="2.415" transform="translate(0.978 0.978)" fill="#ffca28"/>
        <g id="Group_97155" data-name="Group 97155">
          <path id="Path_142695" data-name="Path 142695" d="M-1487.227,906.452h-2.9a2.557,2.557,0,0,1-2.553-2.554V901a2.556,2.556,0,0,1,2.553-2.553h2.9a2.556,2.556,0,0,1,2.553,2.553v2.9A2.557,2.557,0,0,1-1487.227,906.452Zm-2.9-6.054a.6.6,0,0,0-.6.6v2.9a.6.6,0,0,0,.6.6h2.9a.6.6,0,0,0,.6-.6V901a.6.6,0,0,0-.6-.6Z" transform="translate(1492.684 -898.442)" fill="#12263f"/>
        </g>
      </g>
    </g>
    <g id="Group_97164" data-name="Group 97164" transform="translate(-1598.114 859.995)">
      <g id="Group_97158" data-name="Group 97158" transform="translate(0.956 0.958)">
        <path id="Path_142696" data-name="Path 142696" d="M-1558.766,921.554c.133.37.283.725.447,1.078l-3.314,3.314,6.517,6.517,3.314-3.314c.353.164.711.314,1.078.446v4.689h9.214V929.6c.367-.133.726-.282,1.078-.446l3.314,3.314,6.517-6.517-3.314-3.314c.164-.352.314-.708.447-1.078h4.689v-9.215h-4.689c-.132-.366-.282-.726-.447-1.078l3.314-3.314-6.517-6.517-3.314,3.318c-.352-.164-.711-.318-1.078-.45v-4.686h-9.214V904.3c-.367.133-.725.286-1.078.45l-3.314-3.318-6.517,6.517,3.314,3.314c-.164.353-.314.712-.447,1.078h-4.686v9.215Z" transform="translate(1563.452 -899.612)" fill="#039be5"/>
      </g>
      <g id="Group_97159" data-name="Group 97159" transform="translate(12.425 12.425)">
        <circle id="Ellipse_4386" data-name="Ellipse 4386" cx="5.868" cy="5.868" r="5.868" fill="#ffca28"/>
      </g>
      <g id="Group_97161" data-name="Group 97161">
        <g id="Group_97160" data-name="Group 97160">
          <path id="Path_142697" data-name="Path 142697" d="M-1542.051,934.7h-9.215a.957.957,0,0,1-.956-.956v-3.9l-2.76,2.76a.984.984,0,0,1-1.352,0l-6.516-6.517a.956.956,0,0,1,0-1.352l2.76-2.76h-3.9a.956.956,0,0,1-.956-.956v-9.215a.957.957,0,0,1,.956-.956h3.9l-2.76-2.76a.956.956,0,0,1,0-1.352l6.516-6.517a.957.957,0,0,1,.676-.28h0a.959.959,0,0,1,.676.28l2.76,2.76v-3.9a.956.956,0,0,1,.956-.956h9.215a.956.956,0,0,1,.956.956v3.9l2.761-2.76a.984.984,0,0,1,1.352,0l6.517,6.517a.956.956,0,0,1,0,1.352l-2.76,2.76h3.9a.957.957,0,0,1,.956.956v9.215a.956.956,0,0,1-.956.956h-3.9l2.76,2.76a.956.956,0,0,1,0,1.352l-6.517,6.517a.957.957,0,0,1-.676.281h0a.957.957,0,0,1-.676-.281l-2.761-2.76v3.9A.957.957,0,0,1-1542.051,934.7Zm-8.259-1.913h7.3v-3.73a.956.956,0,0,1,.629-.9c.321-.117.648-.253,1-.417a.955.955,0,0,1,1.08.19l2.639,2.64,5.164-5.164-2.64-2.64a.955.955,0,0,1-.19-1.08c.162-.348.3-.676.417-1a.955.955,0,0,1,.9-.629h3.731v-7.3h-3.731a.956.956,0,0,1-.9-.628c-.119-.325-.255-.652-.417-1a.955.955,0,0,1,.19-1.08l2.64-2.639-5.164-5.164-2.639,2.64a.955.955,0,0,1-1.08.191c-.352-.164-.679-.3-1-.417a.956.956,0,0,1-.629-.9v-3.73h-7.3v3.73a.957.957,0,0,1-.63.9c-.32.117-.647.253-1,.417a.956.956,0,0,1-1.08-.191l-2.64-2.64-5.164,5.164,2.639,2.639a.956.956,0,0,1,.191,1.08c-.162.349-.3.676-.417,1a.956.956,0,0,1-.9.628h-3.73v7.3h3.73a.956.956,0,0,1,.9.629c.118.324.255.652.417,1a.955.955,0,0,1-.191,1.08l-2.639,2.64,5.164,5.164,2.64-2.64a.954.954,0,0,1,1.08-.19c.352.164.679.3,1,.417a.956.956,0,0,1,.63.9Z" transform="translate(1564.951 -898.11)" fill="#12263f"/>
        </g>
      </g>
      <g id="Group_97163" data-name="Group 97163" transform="translate(11.468 11.469)">
        <g id="Group_97162" data-name="Group 97162">
          <path id="Path_142698" data-name="Path 142698" d="M-1540.138,929.748a6.832,6.832,0,0,1-6.824-6.824,6.832,6.832,0,0,1,6.824-6.824,6.831,6.831,0,0,1,6.824,6.824A6.831,6.831,0,0,1-1540.138,929.748Zm0-11.735a4.917,4.917,0,0,0-4.911,4.911,4.917,4.917,0,0,0,4.911,4.911,4.917,4.917,0,0,0,4.912-4.911A4.917,4.917,0,0,0-1540.138,918.013Z" transform="translate(1546.962 -916.1)" fill="#12263f"/>
        </g>
      </g>
    </g>
  </g>
</svg>
