<svg xmlns="http://www.w3.org/2000/svg" width="166.28" height="150" viewBox="0 0 166.28 150">
  <g id="t2-p3" transform="translate(1318.613 -1321.292)">
    <g id="Group_97031" data-name="Group 97031" transform="translate(-1317.451 1461.76)">
      <g id="Group_97028" data-name="Group 97028" transform="translate(0 7.485)">
        <g id="Group_97026" data-name="Group 97026">
          <path id="Path_142626" data-name="Path 142626" d="M-1303.606,1540.24h-12.281a1.024,1.024,0,0,1-1.023-1.023,1.024,1.024,0,0,1,1.023-1.023h12.281a1.024,1.024,0,0,1,1.023,1.023A1.024,1.024,0,0,1-1303.606,1540.24Z" transform="translate(1316.91 -1538.193)" fill="#12263f"/>
        </g>
        <g id="Group_97027" data-name="Group 97027" transform="translate(149.629)">
          <path id="Path_142627" data-name="Path 142627" d="M-1084.249,1540.24h-12.281a1.024,1.024,0,0,1-1.023-1.023,1.024,1.024,0,0,1,1.023-1.023h12.281a1.024,1.024,0,0,1,1.023,1.023A1.024,1.024,0,0,1-1084.249,1540.24Z" transform="translate(1097.553 -1538.193)" fill="#12263f"/>
        </g>
      </g>
      <g id="Group_97029" data-name="Group 97029" transform="translate(19.237 7.485)">
        <path id="Path_142628" data-name="Path 142628" d="M-1164.249,1540.24h-123.437a1.023,1.023,0,0,1-1.023-1.023,1.023,1.023,0,0,1,1.023-1.023h123.437a1.023,1.023,0,0,1,1.023,1.023A1.023,1.023,0,0,1-1164.249,1540.24Z" transform="translate(1288.709 -1538.193)" fill="#12263f"/>
      </g>
      <g id="Group_97030" data-name="Group 97030">
        <path id="Path_142629" data-name="Path 142629" d="M-1153.977,1529.266h-161.91a1.023,1.023,0,0,1-1.023-1.023,1.024,1.024,0,0,1,1.023-1.023h161.91a1.024,1.024,0,0,1,1.023,1.023A1.023,1.023,0,0,1-1153.977,1529.266Z" transform="translate(1316.91 -1527.22)" fill="#12263f"/>
      </g>
    </g>
    <g id="Group_97093" data-name="Group 97093" transform="translate(-1318.613 1321.292)">
      <g id="Group_97032" data-name="Group 97032" transform="translate(44.259 76.821)">
        <path id="Rectangle_8695" data-name="Rectangle 8695" d="M38.881,0h0A38.881,38.881,0,0,1,77.762,38.881v25.79a0,0,0,0,1,0,0H0a0,0,0,0,1,0,0V38.881A38.881,38.881,0,0,1,38.881,0Z" fill="#cecece"/>
      </g>
      <g id="Group_97034" data-name="Group 97034" transform="translate(44.259 76.82)">
        <g id="Group_97033" data-name="Group 97033">
          <path id="Path_142630" data-name="Path 142630" d="M-1217.812,1433.911h-6.821a29.1,29.1,0,0,0-29.1,29.1v35.575h6.821v-35.575A29.1,29.1,0,0,1-1217.812,1433.911Z" transform="translate(1253.729 -1433.911)" fill="#afafaf"/>
        </g>
      </g>
      <g id="Group_97036" data-name="Group 97036" transform="translate(86.104 76.82)">
        <g id="Group_97035" data-name="Group 97035">
          <path id="Path_142631" data-name="Path 142631" d="M-1192.384,1433.911h6.821a29.1,29.1,0,0,1,29.1,29.1v35.575h-6.821v-35.575A29.1,29.1,0,0,0-1192.384,1433.911Z" transform="translate(1192.384 -1433.911)" fill="#e2e2e2"/>
        </g>
      </g>
      <g id="Group_97037" data-name="Group 97037" transform="translate(43.236 75.797)">
        <path id="Path_142632" data-name="Path 142632" d="M-1176.444,1499.129h-77.762a1.023,1.023,0,0,1-1.023-1.023V1462.53a30.153,30.153,0,0,1,30.119-30.118h19.571a30.153,30.153,0,0,1,30.119,30.118v35.576A1.024,1.024,0,0,1-1176.444,1499.129Zm-76.739-2.046h75.716V1462.53a28.1,28.1,0,0,0-28.073-28.072h-19.571a28.1,28.1,0,0,0-28.072,28.072Z" transform="translate(1255.229 -1432.411)" fill="#12263f"/>
      </g>
      <g id="Group_97038" data-name="Group 97038" transform="translate(75.978 59.995)">
        <rect id="Rectangle_8696" data-name="Rectangle 8696" width="14.325" height="22.51" rx="7.162" fill="#ffca28"/>
      </g>
      <g id="Group_97039" data-name="Group 97039" transform="translate(75.978 60.563)">
        <path id="Path_142633" data-name="Path 142633" d="M-1207.229,1416.672v8.186a7.163,7.163,0,0,0,4.363,6.594v-21.374A7.163,7.163,0,0,0-1207.229,1416.672Z" transform="translate(1207.229 -1410.078)" fill="#ffa726"/>
      </g>
      <g id="Group_97040" data-name="Group 97040" transform="translate(74.955 58.972)">
        <path id="Path_142634" data-name="Path 142634" d="M-1200.543,1432.3a8.2,8.2,0,0,1-8.186-8.186v-8.185a8.2,8.2,0,0,1,8.186-8.186,8.2,8.2,0,0,1,8.185,8.186v8.185A8.2,8.2,0,0,1-1200.543,1432.3Zm0-22.51a6.146,6.146,0,0,0-6.139,6.139v8.185a6.146,6.146,0,0,0,6.139,6.139,6.146,6.146,0,0,0,6.139-6.139v-8.185A6.146,6.146,0,0,0-1200.543,1409.792Z" transform="translate(1208.729 -1407.745)" fill="#12263f"/>
      </g>
      <g id="Group_97041" data-name="Group 97041" transform="translate(60.8 42.179)">
        <circle id="Ellipse_4381" data-name="Ellipse 4381" cx="3.922" cy="3.922" r="3.922" fill="#ffa726"/>
      </g>
      <g id="Group_97042" data-name="Group 97042" transform="translate(97.635 42.179)">
        <circle id="Ellipse_4382" data-name="Ellipse 4382" cx="3.922" cy="3.922" r="3.922" fill="#ffca28"/>
      </g>
      <g id="Group_97043" data-name="Group 97043" transform="translate(59.777 41.155)">
        <path id="Path_142635" data-name="Path 142635" d="M-1226.034,1391.517a4.951,4.951,0,0,1-4.945-4.945,4.951,4.951,0,0,1,4.945-4.945,4.951,4.951,0,0,1,4.945,4.945A4.951,4.951,0,0,1-1226.034,1391.517Zm0-7.844a2.9,2.9,0,0,0-2.9,2.9,2.9,2.9,0,0,0,2.9,2.9,2.9,2.9,0,0,0,2.9-2.9A2.9,2.9,0,0,0-1226.034,1383.672Z" transform="translate(1230.979 -1381.626)" fill="#12263f"/>
      </g>
      <g id="Group_97044" data-name="Group 97044" transform="translate(96.612 41.155)">
        <path id="Path_142636" data-name="Path 142636" d="M-1172.034,1391.517a4.951,4.951,0,0,1-4.945-4.945,4.951,4.951,0,0,1,4.945-4.945,4.951,4.951,0,0,1,4.945,4.945A4.951,4.951,0,0,1-1172.034,1391.517Zm0-7.844a2.9,2.9,0,0,0-2.9,2.9,2.9,2.9,0,0,0,2.9,2.9,2.9,2.9,0,0,0,2.9-2.9A2.9,2.9,0,0,0-1172.034,1383.672Z" transform="translate(1176.979 -1381.626)" fill="#12263f"/>
      </g>
      <g id="Group_97045" data-name="Group 97045" transform="translate(64.722 23.82)">
        <rect id="Rectangle_8697" data-name="Rectangle 8697" width="36.835" height="48.088" rx="18.417" fill="#ffca28"/>
      </g>
      <g id="Group_97047" data-name="Group 97047" transform="translate(64.723 23.821)">
        <g id="Group_97046" data-name="Group 97046">
          <path id="Path_142637" data-name="Path 142637" d="M-1216.908,1385.883V1374.63a18.419,18.419,0,0,1,15.007-18.1,18.484,18.484,0,0,0-3.411-.32,18.417,18.417,0,0,0-18.417,18.417v11.253a18.418,18.418,0,0,0,18.417,18.417,18.484,18.484,0,0,0,3.411-.321A18.419,18.419,0,0,1-1216.908,1385.883Z" transform="translate(1223.729 -1356.213)" fill="#ffa726"/>
        </g>
      </g>
      <g id="Group_97048" data-name="Group 97048" transform="translate(63.7 22.797)">
        <path id="Path_142638" data-name="Path 142638" d="M-1205.788,1404.847a19.462,19.462,0,0,1-19.441-19.441v-11.253a19.463,19.463,0,0,1,19.441-19.441,19.463,19.463,0,0,1,19.441,19.441v11.253A19.463,19.463,0,0,1-1205.788,1404.847Zm0-48.088a17.414,17.414,0,0,0-17.394,17.394v11.253a17.414,17.414,0,0,0,17.394,17.394,17.414,17.414,0,0,0,17.394-17.394v-11.253A17.414,17.414,0,0,0-1205.788,1356.76Z" transform="translate(1225.229 -1354.713)" fill="#12263f"/>
      </g>
      <g id="Group_97049" data-name="Group 97049" transform="translate(97.444 35.41)">
        <path id="Path_142639" data-name="Path 142639" d="M-1175.76,1375.436l1.9,7.954h2.217V1373.2h-4.113Z" transform="translate(1175.76 -1373.203)" fill="#cecece"/>
      </g>
      <g id="Group_97050" data-name="Group 97050" transform="translate(96.42 34.387)">
        <path id="Path_142640" data-name="Path 142640" d="M-1172.123,1383.937h-2.217a1.023,1.023,0,0,1-.995-.786l-1.9-7.954a1.028,1.028,0,0,1-.028-.237v-2.233a1.024,1.024,0,0,1,1.023-1.023h4.114a1.023,1.023,0,0,1,1.023,1.023v10.188A1.024,1.024,0,0,1-1172.123,1383.937Zm-1.409-2.047h.386v-8.141h-2.068v1.089Z" transform="translate(1177.26 -1371.703)" fill="#12263f"/>
      </g>
      <g id="Group_97051" data-name="Group 97051" transform="translate(60.82 13.115)">
        <path id="Path_142641" data-name="Path 142641" d="M-1225.548,1373h2.151l6.25-6.721s24.88,3.5,33.174-6.549a10.07,10.07,0,0,0,2.074-9.68,13.545,13.545,0,0,0-16.762-9.007l-24.35,6.891a5.581,5.581,0,0,0-3.881,3.962h0a4.813,4.813,0,0,0-2.424,5.373Z" transform="translate(1229.45 -1340.519)" fill="#cecece"/>
      </g>
      <g id="Group_97053" data-name="Group 97053" transform="translate(60.82 13.122)">
        <g id="Group_97052" data-name="Group 97052">
          <path id="Path_142642" data-name="Path 142642" d="M-1220.072,1351.9a5.582,5.582,0,0,1,3.881-3.962l24.35-6.892c.121-.035.243-.053.365-.085a13.851,13.851,0,0,0-7.186.085l-24.35,6.892a5.581,5.581,0,0,0-3.881,3.962,4.813,4.813,0,0,0-2.424,5.373l3.769,15.731h2.151l3.713-3.993-2.812-11.738A4.813,4.813,0,0,1-1220.072,1351.9Z" transform="translate(1229.45 -1340.53)" fill="#9e9e9e"/>
        </g>
      </g>
      <g id="Group_97054" data-name="Group 97054" transform="translate(59.797 12.085)">
        <path id="Path_142643" data-name="Path 142643" d="M-1223.874,1373.544h-2.151a1.022,1.022,0,0,1-.995-.785l-3.769-15.731a5.837,5.837,0,0,1,2.555-6.292,6.638,6.638,0,0,1,4.467-4.266l24.35-6.891a14.543,14.543,0,0,1,18.024,9.708,11.051,11.051,0,0,1-2.267,10.615c-7.973,9.662-29.777,7.45-33.573,6.98l-5.892,6.335A1.022,1.022,0,0,1-1223.874,1373.544Zm-1.344-2.046h.9l5.947-6.394a1.017,1.017,0,0,1,.891-.317c.244.035,24.41,3.306,32.243-6.187a9.1,9.1,0,0,0,1.879-8.745,12.5,12.5,0,0,0-15.5-8.307l-24.351,6.892a4.578,4.578,0,0,0-3.169,3.236,1.023,1.023,0,0,1-.511.645,3.791,3.791,0,0,0-1.909,4.231Z" transform="translate(1230.95 -1339.009)" fill="#12263f"/>
      </g>
      <g id="Group_97055" data-name="Group 97055" transform="translate(62.355 23.47)">
        <path id="Path_142644" data-name="Path 142644" d="M-1216.431,1372.129a1.021,1.021,0,0,1-.848-.449l-9.745-14.383a1.023,1.023,0,0,1,.273-1.421,1.024,1.024,0,0,1,1.421.273l9.746,14.383a1.023,1.023,0,0,1-.273,1.422A1.023,1.023,0,0,1-1216.431,1372.129Z" transform="translate(1227.201 -1355.7)" fill="#12263f"/>
      </g>
      <g id="Group_97056" data-name="Group 97056" transform="translate(73.015 46.821)">
        <circle id="Ellipse_4383" data-name="Ellipse 4383" cx="2.281" cy="2.281" r="2.281" fill="#12263f"/>
      </g>
      <g id="Group_97057" data-name="Group 97057" transform="translate(88.703 46.821)">
        <circle id="Ellipse_4384" data-name="Ellipse 4384" cx="2.281" cy="2.281" r="2.281" fill="#12263f"/>
      </g>
      <g id="Group_97058" data-name="Group 97058" transform="translate(71.172 42.673)">
        <path id="Path_142645" data-name="Path 142645" d="M-1213.251,1387.857a1.024,1.024,0,0,1-.975-.715,1.023,1.023,0,0,1,.667-1.284l6.2-1.959a1.025,1.025,0,0,1,1.284.667,1.023,1.023,0,0,1-.667,1.284l-6.2,1.959A1.035,1.035,0,0,1-1213.251,1387.857Z" transform="translate(1214.274 -1383.851)" fill="#12263f"/>
      </g>
      <g id="Group_97059" data-name="Group 97059" transform="translate(86.861 42.673)">
        <path id="Path_142646" data-name="Path 142646" d="M-1184.051,1387.857a1.035,1.035,0,0,1-.308-.048l-6.2-1.959a1.023,1.023,0,0,1-.667-1.284,1.025,1.025,0,0,1,1.284-.667l6.2,1.959a1.023,1.023,0,0,1,.667,1.284A1.024,1.024,0,0,1-1184.051,1387.857Z" transform="translate(1191.274 -1383.851)" fill="#12263f"/>
      </g>
      <g id="Group_97060" data-name="Group 97060" transform="translate(82.117 50.31)">
        <path id="Path_142647" data-name="Path 142647" d="M-1197.206,1403.595a1.023,1.023,0,0,1-1.023-1.023v-6.5a1.023,1.023,0,0,1,1.023-1.023,1.024,1.024,0,0,1,1.023,1.023v6.5A1.024,1.024,0,0,1-1197.206,1403.595Z" transform="translate(1198.229 -1395.047)" fill="#12263f"/>
      </g>
      <g id="Group_97061" data-name="Group 97061" transform="translate(79.318 61.834)">
        <path id="Path_142648" data-name="Path 142648" d="M-1198.51,1415.024a5.333,5.333,0,0,1-3.465-1.283,1.023,1.023,0,0,1-.111-1.443,1.024,1.024,0,0,1,1.443-.112,3.357,3.357,0,0,0,4.267,0,1.023,1.023,0,0,1,1.443.112,1.023,1.023,0,0,1-.111,1.443A5.333,5.333,0,0,1-1198.51,1415.024Z" transform="translate(1202.333 -1411.941)" fill="#12263f"/>
      </g>
      <g id="Group_97062" data-name="Group 97062" transform="translate(82.117 81.482)">
        <path id="Path_142649" data-name="Path 142649" d="M-1197.206,1500.565a1.023,1.023,0,0,1-1.023-1.023v-57.774a1.023,1.023,0,0,1,1.023-1.023,1.024,1.024,0,0,1,1.023,1.023v57.774A1.023,1.023,0,0,1-1197.206,1500.565Z" transform="translate(1198.229 -1440.745)" fill="#12263f"/>
      </g>
      <g id="Group_97067" data-name="Group 97067" transform="translate(32.999 77.858)">
        <g id="Group_97063" data-name="Group 97063" transform="translate(1.023 1.023)">
          <path id="Rectangle_8698" data-name="Rectangle 8698" d="M0,0H20.15a0,0,0,0,1,0,0V52.536A10.075,10.075,0,0,1,10.075,62.611h0A10.075,10.075,0,0,1,0,52.536V0A0,0,0,0,1,0,0Z" fill="#cecece"/>
        </g>
        <g id="Group_97065" data-name="Group 97065" transform="translate(1.023 1.023)">
          <g id="Group_97064" data-name="Group 97064">
            <path id="Path_142650" data-name="Path 142650" d="M-1261.916,1489.468v-52.536h-6.821v52.536a10.075,10.075,0,0,0,10.075,10.075h0a10.02,10.02,0,0,0,3.411-.6A10.07,10.07,0,0,1-1261.916,1489.468Z" transform="translate(1268.737 -1436.932)" fill="#afafaf"/>
          </g>
        </g>
        <g id="Group_97066" data-name="Group 97066">
          <path id="Path_142651" data-name="Path 142651" d="M-1259.139,1500.089a11.111,11.111,0,0,1-11.1-11.1v-52.535a1.023,1.023,0,0,1,1.023-1.023h20.15a1.023,1.023,0,0,1,1.023,1.023v52.535A11.111,11.111,0,0,1-1259.139,1500.089Zm-9.052-62.61v51.512a9.062,9.062,0,0,0,9.052,9.052,9.062,9.062,0,0,0,9.052-9.052v-51.512Z" transform="translate(1270.237 -1435.433)" fill="#12263f"/>
        </g>
      </g>
      <g id="Group_97068" data-name="Group 97068" transform="translate(21.215 66.187)">
        <path id="Path_142652" data-name="Path 142652" d="M-1256.8,1431.016v-3.694a7.56,7.56,0,0,0-7.56-7.561h-12.108l-7.307-1.382a3.148,3.148,0,0,0-3.564,4.11h0a12.6,12.6,0,0,0,11.924,8.527Z" transform="translate(1287.512 -1418.322)" fill="#ffca28"/>
      </g>
      <g id="Group_97070" data-name="Group 97070" transform="translate(21.215 66.187)">
        <g id="Group_97069" data-name="Group 97069">
          <path id="Path_142653" data-name="Path 142653" d="M-1280.518,1422.49h0a3.124,3.124,0,0,1,.849-3.333l-4.106-.777a3.148,3.148,0,0,0-3.564,4.11h0a12.6,12.6,0,0,0,11.924,8.527h6.821A12.6,12.6,0,0,1-1280.518,1422.49Z" transform="translate(1287.512 -1418.322)" fill="#ffa726"/>
        </g>
      </g>
      <g id="Group_97071" data-name="Group 97071" transform="translate(20.191 65.163)">
        <path id="Path_142654" data-name="Path 142654" d="M-1257.276,1431.563h-18.616a13.623,13.623,0,0,1-12.892-9.219,4.132,4.132,0,0,1,.8-4.081,4.125,4.125,0,0,1,3.927-1.366l7.213,1.365h12.012a8.593,8.593,0,0,1,8.584,8.583v3.7A1.023,1.023,0,0,1-1257.276,1431.563Zm-27.569-12.694a2.1,2.1,0,0,0-1.6.734,2.107,2.107,0,0,0-.405,2.079,11.576,11.576,0,0,0,10.956,7.835h17.593v-2.672a6.544,6.544,0,0,0-6.537-6.537h-12.108a.985.985,0,0,1-.19-.018l-7.307-1.383A2.206,2.206,0,0,0-1284.846,1418.869Z" transform="translate(1289.013 -1416.821)" fill="#12263f"/>
      </g>
      <g id="Group_97076" data-name="Group 97076" transform="translate(111.085 77.858)">
        <g id="Group_97072" data-name="Group 97072" transform="translate(1.023 1.023)">
          <path id="Rectangle_8699" data-name="Rectangle 8699" d="M10.075,0h0A10.075,10.075,0,0,1,20.15,10.075V62.611a0,0,0,0,1,0,0H0a0,0,0,0,1,0,0V10.075A10.075,10.075,0,0,1,10.075,0Z" transform="translate(20.15 62.611) rotate(-180)" fill="#cecece"/>
        </g>
        <g id="Group_97074" data-name="Group 97074" transform="translate(7.688 1.023)">
          <g id="Group_97073" data-name="Group 97073">
            <path id="Path_142655" data-name="Path 142655" d="M-1137.828,1489.468v-52.536h6.821v52.536a10.075,10.075,0,0,1-10.075,10.075h0a10.021,10.021,0,0,1-3.411-.6A10.07,10.07,0,0,0-1137.828,1489.468Z" transform="translate(1144.492 -1436.932)" fill="#e2e2e2"/>
          </g>
        </g>
        <g id="Group_97075" data-name="Group 97075">
          <path id="Path_142656" data-name="Path 142656" d="M-1144.664,1500.089a11.111,11.111,0,0,1-11.1-11.1v-52.535a1.023,1.023,0,0,1,1.023-1.023h20.15a1.023,1.023,0,0,1,1.023,1.023v52.535A11.111,11.111,0,0,1-1144.664,1500.089Zm-9.052-62.61v51.512a9.062,9.062,0,0,0,9.052,9.052,9.062,9.062,0,0,0,9.052-9.052v-51.512Z" transform="translate(1155.762 -1435.433)" fill="#12263f"/>
        </g>
      </g>
      <g id="Group_97077" data-name="Group 97077" transform="translate(114.353 66.187)">
        <path id="Path_142657" data-name="Path 142657" d="M-1150.971,1431.016v-3.694a7.56,7.56,0,0,1,7.56-7.561h12.108l7.307-1.382a3.147,3.147,0,0,1,3.564,4.11h0a12.6,12.6,0,0,1-11.923,8.527Z" transform="translate(1150.971 -1418.322)" fill="#ffca28"/>
      </g>
      <g id="Group_97079" data-name="Group 97079" transform="translate(126.147 66.187)">
        <g id="Group_97078" data-name="Group 97078">
          <path id="Path_142658" data-name="Path 142658" d="M-1118.5,1418.38l-4.106.777a3.124,3.124,0,0,1,.849,3.333h0a12.6,12.6,0,0,1-11.924,8.527h6.821a12.6,12.6,0,0,0,11.923-8.527h0A3.147,3.147,0,0,0-1118.5,1418.38Z" transform="translate(1133.681 -1418.322)" fill="#ffd34d"/>
        </g>
      </g>
      <g id="Group_97080" data-name="Group 97080" transform="translate(113.33 65.163)">
        <path id="Path_142659" data-name="Path 142659" d="M-1132.833,1431.563h-18.615a1.023,1.023,0,0,1-1.023-1.023v-3.7a8.592,8.592,0,0,1,8.583-8.583h12.011l7.213-1.365a4.128,4.128,0,0,1,3.928,1.366,4.13,4.13,0,0,1,.8,4.081A13.623,13.623,0,0,1-1132.833,1431.563Zm-17.592-2.046h17.592a11.577,11.577,0,0,0,10.956-7.835,2.1,2.1,0,0,0-.405-2.079,2.107,2.107,0,0,0-2-.7l-7.307,1.383a.994.994,0,0,1-.19.018h-12.108a6.544,6.544,0,0,0-6.537,6.537Z" transform="translate(1152.471 -1416.821)" fill="#12263f"/>
      </g>
      <g id="Group_97081" data-name="Group 97081" transform="translate(1.022 1.023)">
        <path id="Path_142660" data-name="Path 142660" d="M-1265.8,1360.307a26.73,26.73,0,0,0,2.2-12.318,26.884,26.884,0,0,0-25.436-25.166,26.783,26.783,0,0,0-28.043,28.142,26.874,26.874,0,0,0,24.831,25.322,26.7,26.7,0,0,0,15.616-3.7h6.477a4.357,4.357,0,0,0,4.357-4.357Z" transform="translate(1317.115 -1322.792)" fill="#4dd0e1"/>
      </g>
      <g id="Group_97083" data-name="Group 97083" transform="translate(1.022 1.023)">
        <g id="Group_97082" data-name="Group 97082">
          <path id="Path_142661" data-name="Path 142661" d="M-1310.258,1350.965a26.781,26.781,0,0,1,23.335-27.951c-.7-.089-1.4-.158-2.113-.192a26.783,26.783,0,0,0-28.043,28.142,26.874,26.874,0,0,0,24.831,25.321,27.178,27.178,0,0,0,5.331-.151A26.885,26.885,0,0,1-1310.258,1350.965Z" transform="translate(1317.115 -1322.792)" fill="#039be5"/>
        </g>
      </g>
      <g id="Group_97084" data-name="Group 97084" transform="translate(0 0.001)">
        <path id="Path_142662" data-name="Path 142662" d="M-1290.813,1376.9q-.989,0-1.984-.069a27.776,27.776,0,0,1-25.781-26.29,27.9,27.9,0,0,1,8.073-21.071,27.906,27.906,0,0,1,21.041-8.145,28.052,28.052,0,0,1,26.408,26.128,27.581,27.581,0,0,1-2.2,12.591v7.706a5.386,5.386,0,0,1-5.38,5.38h-6.2A27.664,27.664,0,0,1-1290.813,1376.9Zm.038-53.56a25.845,25.845,0,0,0-18.28,7.574,25.852,25.852,0,0,0-7.479,19.523,25.728,25.728,0,0,0,23.88,24.353,25.666,25.666,0,0,0,15.021-3.562,1.022,1.022,0,0,1,.525-.145h6.477a3.337,3.337,0,0,0,3.334-3.333v-7.919a1.021,1.021,0,0,1,.086-.41,25.576,25.576,0,0,0,2.114-11.85,25.984,25.984,0,0,0-24.462-24.2C-1289.966,1323.35-1290.371,1323.34-1290.776,1323.34Z" transform="translate(1318.613 -1321.294)" fill="#12263f"/>
      </g>
      <g id="Group_97085" data-name="Group 97085" transform="translate(111.697 1.023)">
        <path id="Path_142663" data-name="Path 142663" d="M-1152.62,1360.307a26.728,26.728,0,0,1-2.2-12.318,26.884,26.884,0,0,1,25.436-25.166,26.783,26.783,0,0,1,28.043,28.142,26.874,26.874,0,0,1-24.831,25.322,26.7,26.7,0,0,1-15.616-3.7h-6.477a4.357,4.357,0,0,1-4.357-4.357Z" transform="translate(1154.865 -1322.792)" fill="#ffa726"/>
      </g>
      <g id="Group_97087" data-name="Group 97087" transform="translate(135.061 1.023)">
        <g id="Group_97086" data-name="Group 97086">
          <path id="Path_142664" data-name="Path 142664" d="M-1118.495,1322.823c-.712.033-1.415.1-2.112.192a26.781,26.781,0,0,1,23.335,27.951,26.885,26.885,0,0,1-23.34,25.17,27.177,27.177,0,0,0,5.331.151,26.874,26.874,0,0,0,24.831-25.321A26.783,26.783,0,0,0-1118.495,1322.823Z" transform="translate(1120.613 -1322.792)" fill="#ffca28"/>
        </g>
      </g>
      <g id="Group_97088" data-name="Group 97088" transform="translate(110.673)">
        <path id="Path_142665" data-name="Path 142665" d="M-1128.559,1376.9a27.653,27.653,0,0,1-13.983-3.771h-6.2a5.386,5.386,0,0,1-5.38-5.38v-7.706a27.583,27.583,0,0,1-2.2-12.591,28.052,28.052,0,0,1,26.408-26.128,27.861,27.861,0,0,1,21.041,8.145,27.9,27.9,0,0,1,8.073,21.071,27.776,27.776,0,0,1-25.781,26.29Q-1127.57,1376.9-1128.559,1376.9Zm-.038-53.561c-.405,0-.809.01-1.215.029a25.984,25.984,0,0,0-24.462,24.2,25.575,25.575,0,0,0,2.114,11.85,1.019,1.019,0,0,1,.086.41v7.919a3.337,3.337,0,0,0,3.333,3.334h6.477a1.024,1.024,0,0,1,.525.145,25.724,25.724,0,0,0,15.02,3.562,25.729,25.729,0,0,0,23.88-24.353,25.852,25.852,0,0,0-7.479-19.523A25.847,25.847,0,0,0-1128.6,1323.339Z" transform="translate(1156.365 -1321.292)" fill="#12263f"/>
      </g>
      <g id="Group_97090" data-name="Group 97090" transform="translate(17.507 11.336)">
        <g id="Group_97089" data-name="Group 97089">
          <path id="Path_142666" data-name="Path 142666" d="M-1275.095,1340.278a8.507,8.507,0,0,1,2.738,6.8,8.17,8.17,0,0,1-2.673,6.474,10.1,10.1,0,0,1-5.7,2.34,1.656,1.656,0,0,0-1.448,1.658v.63a1.673,1.673,0,0,1-1.672,1.673h-3.651a1.673,1.673,0,0,1-1.673-1.673v-5.3a1.673,1.673,0,0,1,1.673-1.673h1.238a10.854,10.854,0,0,0,4.868-.891,3.271,3.271,0,0,0,1.737-3.194,3.117,3.117,0,0,0-.825-2.3,3,3,0,0,0-2.218-.827,3.227,3.227,0,0,0-2.453.936,3.093,3.093,0,0,0-.729,1.231,1.7,1.7,0,0,1-1.641,1.136h-3.744a1.658,1.658,0,0,1-1.66-1.885,8.733,8.733,0,0,1,1-2.873,8.328,8.328,0,0,1,3.628-3.39,12.812,12.812,0,0,1,5.867-1.239A10.838,10.838,0,0,1-1275.095,1340.278Zm-6.691,24.811v4.084a1.673,1.673,0,0,1-1.673,1.673h-4.389a1.673,1.673,0,0,1-1.672-1.673v-4.084a1.673,1.673,0,0,1,1.672-1.673h4.389A1.673,1.673,0,0,1-1281.786,1365.089Z" transform="translate(1292.948 -1337.91)" fill="#12263f"/>
        </g>
      </g>
      <g id="Group_97092" data-name="Group 97092" transform="translate(128.182 11.336)">
        <g id="Group_97091" data-name="Group 97091">
          <path id="Path_142667" data-name="Path 142667" d="M-1112.845,1340.278a8.507,8.507,0,0,1,2.737,6.8,8.17,8.17,0,0,1-2.673,6.474,10.1,10.1,0,0,1-5.7,2.34,1.656,1.656,0,0,0-1.448,1.658v.63a1.673,1.673,0,0,1-1.672,1.673h-3.651a1.673,1.673,0,0,1-1.673-1.673v-5.3a1.673,1.673,0,0,1,1.673-1.673h1.238a10.854,10.854,0,0,0,4.868-.891,3.27,3.27,0,0,0,1.737-3.194,3.117,3.117,0,0,0-.825-2.3,3,3,0,0,0-2.218-.827,3.227,3.227,0,0,0-2.453.936,3.1,3.1,0,0,0-.729,1.231,1.7,1.7,0,0,1-1.641,1.136h-3.744a1.658,1.658,0,0,1-1.66-1.885,8.733,8.733,0,0,1,1-2.873,8.327,8.327,0,0,1,3.627-3.39,12.813,12.813,0,0,1,5.867-1.239A10.838,10.838,0,0,1-1112.845,1340.278Zm-6.692,24.811v4.084a1.673,1.673,0,0,1-1.673,1.673h-4.389a1.673,1.673,0,0,1-1.672-1.673v-4.084a1.673,1.673,0,0,1,1.672-1.673h4.389A1.673,1.673,0,0,1-1119.536,1365.089Z" transform="translate(1130.698 -1337.91)" fill="#12263f"/>
        </g>
      </g>
    </g>
  </g>
</svg>
