<svg xmlns="http://www.w3.org/2000/svg" width="165" height="169.382" viewBox="0 0 165 169.382">
  <g id="t2-p1" transform="translate(403.249 -777.274)">
    <g id="Group_96876" data-name="Group 96876" transform="translate(-403.249 937.064)">
      <g id="Group_96873" data-name="Group 96873" transform="translate(0 7.533)">
        <g id="Group_96871" data-name="Group 96871">
          <path id="Path_142547" data-name="Path 142547" d="M-389.86,1023.078h-12.359a1.03,1.03,0,0,1-1.03-1.03,1.03,1.03,0,0,1,1.03-1.03h12.359a1.03,1.03,0,0,1,1.03,1.03A1.03,1.03,0,0,1-389.86,1023.078Z" transform="translate(403.249 -1021.019)" fill="#12263f"/>
        </g>
        <g id="Group_96872" data-name="Group 96872" transform="translate(150.581)">
          <path id="Path_142548" data-name="Path 142548" d="M-170.5,1023.078h-12.359a1.03,1.03,0,0,1-1.03-1.03,1.03,1.03,0,0,1,1.03-1.03H-170.5a1.03,1.03,0,0,1,1.03,1.03A1.03,1.03,0,0,1-170.5,1023.078Z" transform="translate(183.892 -1021.019)" fill="#12263f"/>
        </g>
      </g>
      <g id="Group_96874" data-name="Group 96874" transform="translate(19.359 7.533)">
        <path id="Path_142549" data-name="Path 142549" d="M-249.8,1023.078H-374.018a1.03,1.03,0,0,1-1.03-1.03,1.029,1.029,0,0,1,1.03-1.03H-249.8a1.029,1.029,0,0,1,1.03,1.03A1.03,1.03,0,0,1-249.8,1023.078Z" transform="translate(375.048 -1021.019)" fill="#12263f"/>
      </g>
      <g id="Group_96875" data-name="Group 96875">
        <path id="Path_142550" data-name="Path 142550" d="M-239.279,1012.105H-402.219a1.03,1.03,0,0,1-1.03-1.03,1.03,1.03,0,0,1,1.03-1.03h162.941a1.03,1.03,0,0,1,1.03,1.03A1.03,1.03,0,0,1-239.279,1012.105Z" transform="translate(403.249 -1010.046)" fill="#12263f"/>
      </g>
    </g>
    <g id="Group_96901" data-name="Group 96901" transform="translate(-370.25 848.314)">
      <g id="Group_96877" data-name="Group 96877" transform="translate(1.03 30.613)">
        <rect id="Rectangle_8666" data-name="Rectangle 8666" width="96.943" height="29.583" rx="4.919" fill="#cecece"/>
      </g>
      <g id="Group_96878" data-name="Group 96878" transform="translate(1.03 60.197)">
        <rect id="Rectangle_8667" data-name="Rectangle 8667" width="96.943" height="29.583" rx="4.919" fill="#cecece"/>
      </g>
      <g id="Group_96879" data-name="Group 96879" transform="translate(1.03 1.03)">
        <rect id="Rectangle_8668" data-name="Rectangle 8668" width="96.943" height="29.583" rx="4.919" fill="#cecece"/>
      </g>
      <g id="Group_96880" data-name="Group 96880" transform="translate(1.03 1.03)">
        <path id="Path_142551" data-name="Path 142551" d="M-348.167,909.808V884.3a2.036,2.036,0,0,1,2.035-2.035h-5.512a2.036,2.036,0,0,0-2.036,2.035v25.513a2.035,2.035,0,0,0,2.036,2.035h5.512A2.035,2.035,0,0,1-348.167,909.808Z" transform="translate(353.679 -882.26)" fill="#9e9e9e"/>
      </g>
      <g id="Group_96881" data-name="Group 96881" transform="translate(90.426 1.03)">
        <path id="Path_142552" data-name="Path 142552" d="M-221.418,909.808V884.3a2.035,2.035,0,0,0-2.035-2.035h5.512a2.036,2.036,0,0,1,2.035,2.035v25.513a2.035,2.035,0,0,1-2.035,2.035h-5.512A2.035,2.035,0,0,0-221.418,909.808Z" transform="translate(223.453 -882.26)" fill="#e2e2e2"/>
      </g>
      <g id="Group_96882" data-name="Group 96882" transform="translate(90.426 30.613)">
        <path id="Path_142553" data-name="Path 142553" d="M-221.418,952.9V927.391a2.036,2.036,0,0,0-2.035-2.036h5.512a2.036,2.036,0,0,1,2.035,2.036V952.9a2.036,2.036,0,0,1-2.035,2.036h-5.512A2.036,2.036,0,0,0-221.418,952.9Z" transform="translate(223.453 -925.355)" fill="#e2e2e2"/>
      </g>
      <g id="Group_96883" data-name="Group 96883" transform="translate(90.426 60.197)">
        <path id="Path_142554" data-name="Path 142554" d="M-221.418,996V970.486a2.035,2.035,0,0,0-2.035-2.035h5.512a2.035,2.035,0,0,1,2.035,2.035V996a2.036,2.036,0,0,1-2.035,2.036h-5.512A2.035,2.035,0,0,0-221.418,996Z" transform="translate(223.453 -968.451)" fill="#e2e2e2"/>
      </g>
      <g id="Group_96884" data-name="Group 96884" transform="translate(1.03 30.613)">
        <path id="Path_142555" data-name="Path 142555" d="M-348.167,952.9V927.391a2.036,2.036,0,0,1,2.035-2.036h-5.512a2.036,2.036,0,0,0-2.036,2.036V952.9a2.036,2.036,0,0,0,2.036,2.036h5.512A2.036,2.036,0,0,1-348.167,952.9Z" transform="translate(353.679 -925.355)" fill="#9e9e9e"/>
      </g>
      <g id="Group_96885" data-name="Group 96885" transform="translate(1.03 60.197)">
        <path id="Path_142556" data-name="Path 142556" d="M-348.167,996V970.486a2.035,2.035,0,0,1,2.035-2.035h-5.512a2.036,2.036,0,0,0-2.036,2.035V996a2.036,2.036,0,0,0,2.036,2.036h5.512A2.036,2.036,0,0,1-348.167,996Z" transform="translate(353.679 -968.451)" fill="#9e9e9e"/>
      </g>
      <g id="Group_96887" data-name="Group 96887">
        <g id="Group_96886" data-name="Group 96886">
          <path id="Path_142557" data-name="Path 142557" d="M-260.582,912.4h-90.19A4.411,4.411,0,0,1-355.179,908v-22.83a4.412,4.412,0,0,1,4.406-4.406h90.19a4.411,4.411,0,0,1,4.406,4.406V908A4.411,4.411,0,0,1-260.582,912.4Zm-90.19-29.583a2.35,2.35,0,0,0-2.347,2.347V908a2.35,2.35,0,0,0,2.347,2.346h90.19A2.35,2.35,0,0,0-258.235,908v-22.83a2.35,2.35,0,0,0-2.347-2.347Z" transform="translate(355.179 -880.76)" fill="#12263f"/>
        </g>
      </g>
      <g id="Group_96889" data-name="Group 96889" transform="translate(0 29.583)">
        <g id="Group_96888" data-name="Group 96888">
          <path id="Path_142558" data-name="Path 142558" d="M-260.582,955.5h-90.19a4.411,4.411,0,0,1-4.406-4.406v-22.83a4.412,4.412,0,0,1,4.406-4.406h90.19a4.411,4.411,0,0,1,4.406,4.406v22.83A4.411,4.411,0,0,1-260.582,955.5Zm-90.19-29.583a2.35,2.35,0,0,0-2.347,2.347v22.83a2.349,2.349,0,0,0,2.347,2.346h90.19a2.349,2.349,0,0,0,2.347-2.346v-22.83a2.35,2.35,0,0,0-2.347-2.347Z" transform="translate(355.179 -923.855)" fill="#12263f"/>
        </g>
      </g>
      <g id="Group_96891" data-name="Group 96891" transform="translate(0 59.167)">
        <g id="Group_96890" data-name="Group 96890">
          <path id="Path_142559" data-name="Path 142559" d="M-260.582,998.593h-90.19a4.412,4.412,0,0,1-4.406-4.406V971.356a4.412,4.412,0,0,1,4.406-4.406h90.19a4.411,4.411,0,0,1,4.406,4.406v22.831A4.411,4.411,0,0,1-260.582,998.593Zm-90.19-29.584a2.35,2.35,0,0,0-2.347,2.347v22.831a2.35,2.35,0,0,0,2.347,2.347h90.19a2.35,2.35,0,0,0,2.347-2.347V971.356a2.35,2.35,0,0,0-2.347-2.347Z" transform="translate(355.179 -966.95)" fill="#12263f"/>
        </g>
      </g>
      <rect id="Rectangle_8669" data-name="Rectangle 8669" width="56.199" height="6.371" rx="2.415" transform="translate(10 12.636)" fill="#ffca28"/>
      <rect id="Rectangle_8670" data-name="Rectangle 8670" width="56.199" height="6.371" rx="2.415" transform="translate(10 42.219)" fill="#ffca28"/>
      <rect id="Rectangle_8671" data-name="Rectangle 8671" width="56.199" height="6.371" rx="2.415" transform="translate(10 71.803)" fill="#ffca28"/>
      <g id="Group_96892" data-name="Group 96892" transform="translate(8.97 11.606)">
        <path id="Path_142560" data-name="Path 142560" d="M-286.541,906.1h-52.883a2.69,2.69,0,0,1-2.688-2.687v-3.056a2.69,2.69,0,0,1,2.688-2.687h52.883a2.69,2.69,0,0,1,2.688,2.688v3.056A2.69,2.69,0,0,1-286.541,906.1Zm-52.883-6.371a.637.637,0,0,0-.628.628v3.056a.636.636,0,0,0,.628.628h52.883a.636.636,0,0,0,.628-.628v-3.056a.637.637,0,0,0-.628-.628Z" transform="translate(342.112 -897.667)" fill="#12263f"/>
      </g>
      <g id="Group_96893" data-name="Group 96893" transform="translate(8.97 41.19)">
        <path id="Path_142561" data-name="Path 142561" d="M-286.541,949.193h-52.883a2.69,2.69,0,0,1-2.688-2.687v-3.055a2.69,2.69,0,0,1,2.688-2.687h52.883a2.69,2.69,0,0,1,2.688,2.688v3.055A2.69,2.69,0,0,1-286.541,949.193Zm-52.883-6.37a.637.637,0,0,0-.628.628v3.055a.636.636,0,0,0,.628.627h52.883a.636.636,0,0,0,.628-.627v-3.055a.628.628,0,0,0-.628-.628Z" transform="translate(342.112 -940.763)" fill="#12263f"/>
      </g>
      <g id="Group_96894" data-name="Group 96894" transform="translate(8.97 70.773)">
        <path id="Path_142562" data-name="Path 142562" d="M-286.541,992.288h-52.883a2.69,2.69,0,0,1-2.688-2.687v-3.056a2.69,2.69,0,0,1,2.688-2.687h52.883a2.69,2.69,0,0,1,2.688,2.688V989.6A2.69,2.69,0,0,1-286.541,992.288Zm-52.883-6.372a.636.636,0,0,0-.628.628V989.6a.637.637,0,0,0,.628.628h52.883a.637.637,0,0,0,.628-.628v-3.056a.636.636,0,0,0-.628-.628Z" transform="translate(342.112 -983.857)" fill="#12263f"/>
      </g>
      <g id="Group_96896" data-name="Group 96896" transform="translate(78.738 11.606)">
        <rect id="Rectangle_8672" data-name="Rectangle 8672" width="6.371" height="6.371" rx="2.415" transform="translate(1.03 1.03)" fill="#ffca28"/>
        <g id="Group_96895" data-name="Group 96895">
          <path id="Path_142563" data-name="Path 142563" d="M-234.736,906.1h-3.056a2.69,2.69,0,0,1-2.687-2.687v-3.056a2.69,2.69,0,0,1,2.687-2.687h3.056a2.69,2.69,0,0,1,2.688,2.688v3.056A2.69,2.69,0,0,1-234.736,906.1Zm-3.056-6.371a.636.636,0,0,0-.627.628v3.056a.636.636,0,0,0,.627.628h3.056a.636.636,0,0,0,.628-.628v-3.056a.636.636,0,0,0-.628-.628Z" transform="translate(240.479 -897.667)" fill="#12263f"/>
        </g>
      </g>
      <g id="Group_96898" data-name="Group 96898" transform="translate(78.738 41.19)">
        <rect id="Rectangle_8673" data-name="Rectangle 8673" width="6.371" height="6.371" rx="2.415" transform="translate(1.03 1.029)" fill="#ffca28"/>
        <g id="Group_96897" data-name="Group 96897">
          <path id="Path_142564" data-name="Path 142564" d="M-234.736,949.193h-3.056a2.69,2.69,0,0,1-2.687-2.687v-3.055a2.69,2.69,0,0,1,2.687-2.687h3.056a2.69,2.69,0,0,1,2.688,2.688v3.055A2.69,2.69,0,0,1-234.736,949.193Zm-3.056-6.37a.628.628,0,0,0-.627.628v3.055a.636.636,0,0,0,.627.627h3.056a.636.636,0,0,0,.628-.627v-3.055a.628.628,0,0,0-.628-.628Z" transform="translate(240.479 -940.763)" fill="#12263f"/>
        </g>
      </g>
      <g id="Group_96900" data-name="Group 96900" transform="translate(78.738 70.773)">
        <rect id="Rectangle_8674" data-name="Rectangle 8674" width="6.371" height="6.371" rx="2.415" transform="translate(1.03 1.03)" fill="#ffca28"/>
        <g id="Group_96899" data-name="Group 96899">
          <path id="Path_142565" data-name="Path 142565" d="M-234.736,992.288h-3.056a2.69,2.69,0,0,1-2.687-2.687v-3.056a2.69,2.69,0,0,1,2.687-2.687h3.056a2.69,2.69,0,0,1,2.688,2.688V989.6A2.69,2.69,0,0,1-234.736,992.288Zm-3.056-6.372a.636.636,0,0,0-.627.628V989.6a.636.636,0,0,0,.627.628h3.056a.637.637,0,0,0,.628-.628v-3.056a.636.636,0,0,0-.628-.628Z" transform="translate(240.479 -983.857)" fill="#12263f"/>
        </g>
      </g>
    </g>
    <g id="Group_96930" data-name="Group 96930" transform="translate(-367.174 777.274)">
      <g id="Group_96902" data-name="Group 96902" transform="translate(7.515 7.515)">
        <circle id="Ellipse_4378" data-name="Ellipse 4378" cx="38.911" cy="38.911" r="38.911" fill="#ffca28"/>
      </g>
      <g id="Group_96904" data-name="Group 96904" transform="translate(7.515 7.515)">
        <g id="Group_96903" data-name="Group 96903">
          <path id="Path_142566" data-name="Path 142566" d="M-334.05,827.132a38.906,38.906,0,0,1,36.06-38.8c-.943-.068-1.891-.115-2.85-.115a38.911,38.911,0,0,0-38.911,38.91,38.911,38.911,0,0,0,38.911,38.911c.96,0,1.908-.047,2.85-.115A38.9,38.9,0,0,1-334.05,827.132Z" transform="translate(339.751 -788.222)" fill="#ffa726"/>
        </g>
      </g>
      <g id="Group_96906" data-name="Group 96906" transform="translate(43.575 7.515)">
        <g id="Group_96905" data-name="Group 96905">
          <path id="Path_142567" data-name="Path 142567" d="M-251.161,827.132a38.906,38.906,0,0,0-36.06-38.8c.943-.068,1.891-.115,2.851-.115a38.91,38.91,0,0,1,38.91,38.91,38.911,38.911,0,0,1-38.91,38.911c-.96,0-1.908-.047-2.851-.115A38.9,38.9,0,0,0-251.161,827.132Z" transform="translate(287.221 -788.222)" fill="#ffd34d"/>
        </g>
      </g>
      <g id="Group_96907" data-name="Group 96907" transform="translate(6.485 6.486)">
        <path id="Path_142568" data-name="Path 142568" d="M-301.31,866.6a39.986,39.986,0,0,1-39.941-39.941,39.986,39.986,0,0,1,39.941-39.94,39.985,39.985,0,0,1,39.94,39.94A39.985,39.985,0,0,1-301.31,866.6Zm0-77.821a37.924,37.924,0,0,0-37.881,37.881,37.924,37.924,0,0,0,37.881,37.881,37.924,37.924,0,0,0,37.881-37.881A37.924,37.924,0,0,0-301.31,788.781Z" transform="translate(341.251 -786.722)" fill="#12263f"/>
      </g>
      <g id="Group_96925" data-name="Group 96925" transform="translate(25.146 23.866)">
        <g id="Group_96908" data-name="Group 96908" transform="translate(0.065 24.842)">
          <path id="Path_142569" data-name="Path 142569" d="M-305.823,850.287h-7.119a1.03,1.03,0,0,1-1.03-1.03,1.029,1.029,0,0,1,1.03-1.03h7.119a1.029,1.029,0,0,1,1.03,1.03A1.03,1.03,0,0,1-305.823,850.287Z" transform="translate(313.972 -848.228)" fill="#12263f"/>
        </g>
        <g id="Group_96911" data-name="Group 96911" transform="translate(0 12.223)">
          <g id="Group_96909" data-name="Group 96909">
            <path id="Path_142570" data-name="Path 142570" d="M-305.742,837.238a1.033,1.033,0,0,1-.391-.077l-2.177-.892a8.681,8.681,0,0,1-3.069-2.116l-2.409-2.573a1.03,1.03,0,0,1,.048-1.455,1.029,1.029,0,0,1,1.455.047l2.41,2.573a6.633,6.633,0,0,0,2.347,1.619l2.177.892a1.029,1.029,0,0,1,.562,1.343A1.029,1.029,0,0,1-305.742,837.238Z" transform="translate(314.067 -829.846)" fill="#12263f"/>
          </g>
          <g id="Group_96910" data-name="Group 96910" transform="translate(33.204)">
            <path id="Path_142571" data-name="Path 142571" d="M-264.667,837.238a1.029,1.029,0,0,1-.953-.639,1.029,1.029,0,0,1,.562-1.343l2.177-.892a6.633,6.633,0,0,0,2.347-1.619l2.409-2.573a1.03,1.03,0,0,1,1.456-.047,1.03,1.03,0,0,1,.047,1.455l-2.41,2.573a8.686,8.686,0,0,1-3.069,2.116l-2.177.892A1.03,1.03,0,0,1-264.667,837.238Z" transform="translate(265.697 -829.846)" fill="#12263f"/>
          </g>
        </g>
        <g id="Group_96914" data-name="Group 96914" transform="translate(0 36.708)">
          <g id="Group_96912" data-name="Group 96912" transform="translate(31.446)">
            <path id="Path_142572" data-name="Path 142572" d="M-258.175,873.658a1.026,1.026,0,0,1-.752-.326l-2.409-2.574a6.633,6.633,0,0,0-2.346-1.618l-3.943-1.647a1.029,1.029,0,0,1-.553-1.346,1.029,1.029,0,0,1,1.347-.553l3.936,1.643a8.678,8.678,0,0,1,3.064,2.114l2.409,2.574a1.029,1.029,0,0,1-.048,1.455A1.024,1.024,0,0,1-258.175,873.658Z" transform="translate(268.259 -865.515)" fill="#12263f"/>
          </g>
          <g id="Group_96913" data-name="Group 96913" transform="translate(0 0.008)">
            <path id="Path_142573" data-name="Path 142573" d="M-313.037,873.662a1.024,1.024,0,0,1-.7-.278,1.029,1.029,0,0,1-.048-1.455l2.409-2.574a8.684,8.684,0,0,1,3.069-2.116l3.938-1.632a1.029,1.029,0,0,1,1.346.557,1.03,1.03,0,0,1-.557,1.346l-3.942,1.634a6.733,6.733,0,0,0-2.35,1.619l-2.41,2.574A1.025,1.025,0,0,1-313.037,873.662Z" transform="translate(314.067 -865.527)" fill="#12263f"/>
          </g>
        </g>
        <g id="Group_96915" data-name="Group 96915" transform="translate(8.214 7.651)">
          <rect id="Rectangle_8675" data-name="Rectangle 8675" width="26.13" height="36.44" rx="13.065" fill="#cecece"/>
        </g>
        <g id="Group_96916" data-name="Group 96916" transform="translate(7.185 6.621)">
          <path id="Path_142574" data-name="Path 142574" d="M-287.431,860.185h-4.151A12.033,12.033,0,0,1-303.6,848.166V833.705a12.032,12.032,0,0,1,12.019-12.019h4.151a12.033,12.033,0,0,1,12.019,12.019v14.461A12.033,12.033,0,0,1-287.431,860.185Zm-4.151-36.44a9.971,9.971,0,0,0-9.96,9.96v14.461a9.972,9.972,0,0,0,9.96,9.96h4.151a9.971,9.971,0,0,0,9.96-9.96V833.705a9.971,9.971,0,0,0-9.96-9.96Z" transform="translate(303.601 -821.686)" fill="#12263f"/>
        </g>
        <g id="Group_96917" data-name="Group 96917" transform="translate(7.295 18.003)">
          <path id="Path_142575" data-name="Path 142575" d="M-276.5,840.325H-302.41a1.03,1.03,0,0,1-1.03-1.03,1.03,1.03,0,0,1,1.03-1.03H-276.5a1.03,1.03,0,0,1,1.03,1.03A1.03,1.03,0,0,1-276.5,840.325Z" transform="translate(303.44 -838.266)" fill="#12263f"/>
        </g>
        <g id="Group_96918" data-name="Group 96918" transform="translate(20.25 18.079)">
          <path id="Path_142576" data-name="Path 142576" d="M-283.538,865.418a1.03,1.03,0,0,1-1.03-1.03V839.407a1.03,1.03,0,0,1,1.03-1.03,1.03,1.03,0,0,1,1.03,1.03v24.982A1.03,1.03,0,0,1-283.538,865.418Z" transform="translate(284.568 -838.377)" fill="#12263f"/>
        </g>
        <g id="Group_96919" data-name="Group 96919" transform="translate(33.315 24.842)">
          <path id="Path_142577" data-name="Path 142577" d="M-257.387,850.287h-7.119a1.03,1.03,0,0,1-1.03-1.03,1.03,1.03,0,0,1,1.03-1.03h7.119a1.029,1.029,0,0,1,1.03,1.03A1.03,1.03,0,0,1-257.387,850.287Z" transform="translate(265.536 -848.228)" fill="#12263f"/>
        </g>
        <g id="Group_96920" data-name="Group 96920" transform="translate(11.471)">
          <path id="Path_142578" data-name="Path 142578" d="M-293.248,822.039a1.028,1.028,0,0,1-.915-.555,1.069,1.069,0,0,1-.073-.179c-.161-.449-1.9-4.915-3.049-7.861a1.029,1.029,0,0,1,.585-1.333,1.031,1.031,0,0,1,1.334.585l1.545,3.967c.386.993.772,1.986,1.059,2.732.64,1.656.812,2.1-.013,2.53A1.021,1.021,0,0,1-293.248,822.039Z" transform="translate(297.356 -812.04)" fill="#12263f"/>
        </g>
        <g id="Group_96921" data-name="Group 96921" transform="translate(25.968)">
          <path id="Path_142579" data-name="Path 142579" d="M-275.208,822.039a1.022,1.022,0,0,1-.473-.115c-.825-.428-.653-.873-.013-2.53.288-.746.673-1.738,1.059-2.732l1.546-3.967a1.03,1.03,0,0,1,1.333-.585,1.029,1.029,0,0,1,.586,1.333c-1.15,2.946-2.889,7.412-3.05,7.861a1.072,1.072,0,0,1-.073.179A1.028,1.028,0,0,1-275.208,822.039Z" transform="translate(276.238 -812.04)" fill="#12263f"/>
        </g>
        <g id="Group_96924" data-name="Group 96924" transform="translate(16.036 12.697)">
          <g id="Group_96922" data-name="Group 96922">
            <circle id="Ellipse_4379" data-name="Ellipse 4379" cx="0.976" cy="0.976" r="0.976" fill="#12263f"/>
          </g>
          <g id="Group_96923" data-name="Group 96923" transform="translate(8.536)">
            <circle id="Ellipse_4380" data-name="Ellipse 4380" cx="0.976" cy="0.976" r="0.976" fill="#12263f"/>
          </g>
        </g>
      </g>
      <g id="Group_96926" data-name="Group 96926" transform="translate(45.396)">
        <path id="Path_142580" data-name="Path 142580" d="M-283.538,792.3a1.03,1.03,0,0,1-1.03-1.03V778.3a1.03,1.03,0,0,1,1.03-1.03,1.03,1.03,0,0,1,1.03,1.03v12.971A1.03,1.03,0,0,1-283.538,792.3Z" transform="translate(284.568 -777.274)" fill="#12263f"/>
      </g>
      <g id="Group_96927" data-name="Group 96927" transform="translate(45.396 77.822)">
        <path id="Path_142581" data-name="Path 142581" d="M-283.538,905.669a1.03,1.03,0,0,1-1.03-1.03V891.67a1.03,1.03,0,0,1,1.03-1.03,1.03,1.03,0,0,1,1.03,1.03v12.97A1.03,1.03,0,0,1-283.538,905.669Z" transform="translate(284.568 -890.64)" fill="#12263f"/>
      </g>
      <g id="Group_96928" data-name="Group 96928" transform="translate(77.821 45.396)">
        <path id="Path_142582" data-name="Path 142582" d="M-223.332,845.463H-236.3a1.03,1.03,0,0,1-1.03-1.03,1.03,1.03,0,0,1,1.03-1.03h12.971a1.03,1.03,0,0,1,1.03,1.03A1.03,1.03,0,0,1-223.332,845.463Z" transform="translate(237.333 -843.404)" fill="#12263f"/>
      </g>
      <g id="Group_96929" data-name="Group 96929" transform="translate(0 45.396)">
        <path id="Path_142583" data-name="Path 142583" d="M-336.7,845.463h-12.97a1.03,1.03,0,0,1-1.03-1.03,1.03,1.03,0,0,1,1.03-1.03h12.97a1.03,1.03,0,0,1,1.03,1.03A1.03,1.03,0,0,1-336.7,845.463Z" transform="translate(350.698 -843.404)" fill="#12263f"/>
      </g>
    </g>
  </g>
</svg>
