<svg xmlns="http://www.w3.org/2000/svg" width="170.498" height="150" viewBox="0 0 170.498 150">
  <g id="t2-p2" transform="translate(732.292 -804.967)">
    <g id="Group_96969" data-name="Group 96969" transform="translate(-731.228 804.967)">
      <g id="Group_96934" data-name="Group 96934" transform="translate(1.129 23.359)">
        <g id="Group_96933" data-name="Group 96933">
          <rect id="Rectangle_8676" data-name="Rectangle 8676" width="65.191" height="22.229" rx="4.919" fill="#cecece"/>
        </g>
      </g>
      <g id="Group_96936" data-name="Group 96936" transform="translate(1.129 45.588)">
        <g id="Group_96935" data-name="Group 96935">
          <rect id="Rectangle_8677" data-name="Rectangle 8677" width="65.191" height="22.229" rx="4.919" fill="#cecece"/>
        </g>
      </g>
      <g id="Group_96938" data-name="Group 96938" transform="translate(1.129 1.13)">
        <g id="Group_96937" data-name="Group 96937">
          <rect id="Rectangle_8678" data-name="Rectangle 8678" width="65.191" height="22.229" rx="4.919" fill="#cecece"/>
        </g>
      </g>
      <g id="Group_96940" data-name="Group 96940" transform="translate(55.084 1.13)">
        <g id="Group_96939" data-name="Group 96939">
          <path id="Path_142584" data-name="Path 142584" d="M-645.605,806.56h-7.532a3.7,3.7,0,0,1,3.7,3.7v14.82a3.7,3.7,0,0,1-3.7,3.7h7.532a3.7,3.7,0,0,0,3.7-3.7v-14.82A3.7,3.7,0,0,0-645.605,806.56Z" transform="translate(653.137 -806.56)" fill="#e2e2e2"/>
        </g>
      </g>
      <g id="Group_96942" data-name="Group 96942" transform="translate(1.129 1.13)">
        <g id="Group_96941" data-name="Group 96941">
          <path id="Path_142585" data-name="Path 142585" d="M-725.5,806.56h7.532a3.7,3.7,0,0,0-3.7,3.7v14.82a3.705,3.705,0,0,0,3.7,3.7H-725.5a3.705,3.705,0,0,1-3.7-3.7v-14.82A3.7,3.7,0,0,1-725.5,806.56Z" transform="translate(729.2 -806.56)" fill="#9e9e9e"/>
        </g>
      </g>
      <g id="Group_96944" data-name="Group 96944" transform="translate(1.129 23.359)">
        <g id="Group_96943" data-name="Group 96943">
          <path id="Path_142586" data-name="Path 142586" d="M-725.5,837.9h7.532a3.7,3.7,0,0,0-3.7,3.7v14.82a3.7,3.7,0,0,0,3.7,3.7H-725.5a3.7,3.7,0,0,1-3.7-3.7V841.6A3.7,3.7,0,0,1-725.5,837.9Z" transform="translate(729.2 -837.898)" fill="#9e9e9e"/>
        </g>
      </g>
      <g id="Group_96946" data-name="Group 96946" transform="translate(1.129 45.589)">
        <g id="Group_96945" data-name="Group 96945">
          <path id="Path_142587" data-name="Path 142587" d="M-725.5,869.236h7.532a3.7,3.7,0,0,0-3.7,3.7v14.82a3.7,3.7,0,0,0,3.7,3.7H-725.5a3.7,3.7,0,0,1-3.7-3.7V872.94A3.7,3.7,0,0,1-725.5,869.236Z" transform="translate(729.2 -869.236)" fill="#9e9e9e"/>
        </g>
      </g>
      <g id="Group_96948" data-name="Group 96948" transform="translate(55.084 23.359)">
        <g id="Group_96947" data-name="Group 96947">
          <path id="Path_142588" data-name="Path 142588" d="M-645.605,837.9h-7.532a3.7,3.7,0,0,1,3.7,3.7v14.82a3.7,3.7,0,0,1-3.7,3.7h7.532a3.7,3.7,0,0,0,3.7-3.7V841.6A3.7,3.7,0,0,0-645.605,837.9Z" transform="translate(653.137 -837.898)" fill="#e2e2e2"/>
        </g>
      </g>
      <g id="Group_96950" data-name="Group 96950" transform="translate(55.084 45.589)">
        <g id="Group_96949" data-name="Group 96949">
          <path id="Path_142589" data-name="Path 142589" d="M-645.605,869.236h-7.532a3.7,3.7,0,0,1,3.7,3.7v14.82a3.7,3.7,0,0,1-3.7,3.7h7.532a3.7,3.7,0,0,0,3.7-3.7V872.94A3.7,3.7,0,0,0-645.605,869.236Z" transform="translate(653.137 -869.236)" fill="#e2e2e2"/>
        </g>
      </g>
      <g id="Group_96952" data-name="Group 96952">
        <g id="Group_96951" data-name="Group 96951">
          <path id="Path_142590" data-name="Path 142590" d="M-668.176,829.456h-57.782a4.84,4.84,0,0,1-4.834-4.834V809.8a4.84,4.84,0,0,1,4.834-4.834h57.782a4.84,4.84,0,0,1,4.834,4.834v14.82A4.84,4.84,0,0,1-668.176,829.456Zm-57.782-22.229a2.578,2.578,0,0,0-2.575,2.575v14.82a2.577,2.577,0,0,0,2.575,2.574h57.782a2.578,2.578,0,0,0,2.575-2.574V809.8a2.578,2.578,0,0,0-2.575-2.575Z" transform="translate(730.792 -804.967)" fill="#12263f"/>
        </g>
      </g>
      <g id="Group_96954" data-name="Group 96954" transform="translate(0 22.229)">
        <g id="Group_96953" data-name="Group 96953">
          <path id="Path_142591" data-name="Path 142591" d="M-668.176,860.794h-57.782a4.84,4.84,0,0,1-4.834-4.835v-14.82a4.84,4.84,0,0,1,4.834-4.835h57.782a4.84,4.84,0,0,1,4.834,4.835v14.82A4.84,4.84,0,0,1-668.176,860.794Zm-57.782-22.23a2.578,2.578,0,0,0-2.575,2.575v14.82a2.578,2.578,0,0,0,2.575,2.575h57.782a2.578,2.578,0,0,0,2.575-2.575v-14.82a2.578,2.578,0,0,0-2.575-2.575Z" transform="translate(730.792 -836.304)" fill="#12263f"/>
        </g>
      </g>
      <g id="Group_96956" data-name="Group 96956" transform="translate(0 44.459)">
        <g id="Group_96955" data-name="Group 96955">
          <path id="Path_142592" data-name="Path 142592" d="M-668.176,892.132h-57.782a4.84,4.84,0,0,1-4.834-4.834v-14.82a4.839,4.839,0,0,1,4.834-4.834h57.782a4.839,4.839,0,0,1,4.834,4.834V887.3A4.84,4.84,0,0,1-668.176,892.132ZM-725.958,869.9a2.577,2.577,0,0,0-2.575,2.574V887.3a2.578,2.578,0,0,0,2.575,2.575h57.782A2.578,2.578,0,0,0-665.6,887.3v-14.82a2.578,2.578,0,0,0-2.575-2.574Z" transform="translate(730.792 -867.643)" fill="#12263f"/>
        </g>
      </g>
      <g id="Group_96957" data-name="Group 96957" transform="translate(7.87 9.851)">
        <rect id="Rectangle_8679" data-name="Rectangle 8679" width="34.575" height="4.787" rx="2.394" fill="#ffca28"/>
      </g>
      <g id="Group_96958" data-name="Group 96958" transform="translate(7.87 32.08)">
        <rect id="Rectangle_8680" data-name="Rectangle 8680" width="34.575" height="4.787" rx="2.394" fill="#ffca28"/>
      </g>
      <g id="Group_96959" data-name="Group 96959" transform="translate(7.87 54.309)">
        <rect id="Rectangle_8681" data-name="Rectangle 8681" width="34.575" height="4.787" rx="2.394" fill="#ffca28"/>
      </g>
      <g id="Group_96960" data-name="Group 96960" transform="translate(6.739 8.721)">
        <path id="Path_142593" data-name="Path 142593" d="M-687.4,824.308h-30.938a2.952,2.952,0,0,1-2.949-2.949v-1.15a2.952,2.952,0,0,1,2.949-2.949H-687.4a2.952,2.952,0,0,1,2.949,2.949v1.15A2.952,2.952,0,0,1-687.4,824.308Zm-30.938-4.787a.7.7,0,0,0-.689.689v1.15a.7.7,0,0,0,.689.689H-687.4a.7.7,0,0,0,.689-.689v-1.15a.7.7,0,0,0-.689-.689Z" transform="translate(721.291 -817.261)" fill="#12263f"/>
      </g>
      <g id="Group_96961" data-name="Group 96961" transform="translate(6.739 30.95)">
        <path id="Path_142594" data-name="Path 142594" d="M-687.4,855.646h-30.938a2.952,2.952,0,0,1-2.949-2.949v-1.15a2.952,2.952,0,0,1,2.949-2.949H-687.4a2.952,2.952,0,0,1,2.949,2.949v1.15A2.952,2.952,0,0,1-687.4,855.646Zm-30.938-4.787a.7.7,0,0,0-.689.689v1.15a.7.7,0,0,0,.689.689H-687.4a.7.7,0,0,0,.689-.689v-1.15a.7.7,0,0,0-.689-.689Z" transform="translate(721.291 -848.599)" fill="#12263f"/>
      </g>
      <g id="Group_96962" data-name="Group 96962" transform="translate(6.739 53.18)">
        <path id="Path_142595" data-name="Path 142595" d="M-687.4,886.984h-30.938a2.952,2.952,0,0,1-2.949-2.949v-1.15a2.952,2.952,0,0,1,2.949-2.949H-687.4a2.952,2.952,0,0,1,2.949,2.949v1.15A2.952,2.952,0,0,1-687.4,886.984Zm-30.938-4.788a.7.7,0,0,0-.689.689v1.15a.7.7,0,0,0,.689.689H-687.4a.7.7,0,0,0,.689-.689v-1.15a.7.7,0,0,0-.689-.689Z" transform="translate(721.291 -879.937)" fill="#12263f"/>
      </g>
      <g id="Group_96963" data-name="Group 96963" transform="translate(52.64 9.851)">
        <rect id="Rectangle_8682" data-name="Rectangle 8682" width="4.787" height="4.787" rx="2.394" fill="#ffca28"/>
      </g>
      <g id="Group_96964" data-name="Group 96964" transform="translate(51.51 8.721)">
        <path id="Path_142596" data-name="Path 142596" d="M-654.076,824.308h-1.15a2.952,2.952,0,0,1-2.949-2.949v-1.15a2.952,2.952,0,0,1,2.949-2.949h1.15a2.952,2.952,0,0,1,2.949,2.949v1.15A2.952,2.952,0,0,1-654.076,824.308Zm-1.15-4.787a.7.7,0,0,0-.689.689v1.15a.7.7,0,0,0,.689.689h1.15a.7.7,0,0,0,.689-.689v-1.15a.7.7,0,0,0-.689-.689Z" transform="translate(658.175 -817.261)" fill="#12263f"/>
      </g>
      <g id="Group_96965" data-name="Group 96965" transform="translate(52.64 32.08)">
        <rect id="Rectangle_8683" data-name="Rectangle 8683" width="4.787" height="4.787" rx="2.394" fill="#ffca28"/>
      </g>
      <g id="Group_96966" data-name="Group 96966" transform="translate(51.51 30.95)">
        <path id="Path_142597" data-name="Path 142597" d="M-654.076,855.646h-1.15a2.952,2.952,0,0,1-2.949-2.949v-1.15a2.952,2.952,0,0,1,2.949-2.949h1.15a2.952,2.952,0,0,1,2.949,2.949v1.15A2.952,2.952,0,0,1-654.076,855.646Zm-1.15-4.787a.7.7,0,0,0-.689.689v1.15a.7.7,0,0,0,.689.689h1.15a.7.7,0,0,0,.689-.689v-1.15a.7.7,0,0,0-.689-.689Z" transform="translate(658.175 -848.599)" fill="#12263f"/>
      </g>
      <g id="Group_96967" data-name="Group 96967" transform="translate(52.64 54.309)">
        <rect id="Rectangle_8684" data-name="Rectangle 8684" width="4.787" height="4.787" rx="2.394" fill="#ffca28"/>
      </g>
      <g id="Group_96968" data-name="Group 96968" transform="translate(51.51 53.18)">
        <path id="Path_142598" data-name="Path 142598" d="M-654.076,886.984h-1.15a2.952,2.952,0,0,1-2.949-2.949v-1.15a2.952,2.952,0,0,1,2.949-2.949h1.15a2.952,2.952,0,0,1,2.949,2.949v1.15A2.952,2.952,0,0,1-654.076,886.984Zm-1.15-4.788a.7.7,0,0,0-.689.689v1.15a.7.7,0,0,0,.689.689h1.15a.7.7,0,0,0,.689-.689v-1.15a.7.7,0,0,0-.689-.689Z" transform="translate(658.175 -879.937)" fill="#12263f"/>
      </g>
    </g>
    <g id="Group_97006" data-name="Group 97006" transform="translate(-630.309 804.967)">
      <g id="Group_96971" data-name="Group 96971" transform="translate(1.13 23.359)">
        <g id="Group_96970" data-name="Group 96970">
          <rect id="Rectangle_8685" data-name="Rectangle 8685" width="65.191" height="22.229" rx="4.919" fill="#cecece"/>
        </g>
      </g>
      <g id="Group_96973" data-name="Group 96973" transform="translate(1.13 45.588)">
        <g id="Group_96972" data-name="Group 96972">
          <rect id="Rectangle_8686" data-name="Rectangle 8686" width="65.191" height="22.229" rx="4.919" fill="#cecece"/>
        </g>
      </g>
      <g id="Group_96975" data-name="Group 96975" transform="translate(1.13 1.13)">
        <g id="Group_96974" data-name="Group 96974">
          <rect id="Rectangle_8687" data-name="Rectangle 8687" width="65.191" height="22.229" rx="4.919" fill="#cecece"/>
        </g>
      </g>
      <g id="Group_96977" data-name="Group 96977" transform="translate(55.084 1.13)">
        <g id="Group_96976" data-name="Group 96976">
          <path id="Path_142599" data-name="Path 142599" d="M-503.334,806.56h-7.532a3.7,3.7,0,0,1,3.7,3.7v14.82a3.7,3.7,0,0,1-3.7,3.7h7.532a3.705,3.705,0,0,0,3.7-3.7v-14.82A3.7,3.7,0,0,0-503.334,806.56Z" transform="translate(510.866 -806.56)" fill="#e2e2e2"/>
        </g>
      </g>
      <g id="Group_96979" data-name="Group 96979" transform="translate(1.13 1.13)">
        <g id="Group_96978" data-name="Group 96978">
          <path id="Path_142600" data-name="Path 142600" d="M-583.223,806.56h7.532a3.7,3.7,0,0,0-3.7,3.7v14.82a3.705,3.705,0,0,0,3.7,3.7h-7.532a3.7,3.7,0,0,1-3.7-3.7v-14.82A3.7,3.7,0,0,1-583.223,806.56Z" transform="translate(586.928 -806.56)" fill="#9e9e9e"/>
        </g>
      </g>
      <g id="Group_96981" data-name="Group 96981" transform="translate(1.13 23.359)">
        <g id="Group_96980" data-name="Group 96980">
          <path id="Path_142601" data-name="Path 142601" d="M-583.223,837.9h7.532a3.7,3.7,0,0,0-3.7,3.7v14.82a3.7,3.7,0,0,0,3.7,3.7h-7.532a3.7,3.7,0,0,1-3.7-3.7V841.6A3.7,3.7,0,0,1-583.223,837.9Z" transform="translate(586.928 -837.898)" fill="#9e9e9e"/>
        </g>
      </g>
      <g id="Group_96983" data-name="Group 96983" transform="translate(1.13 45.589)">
        <g id="Group_96982" data-name="Group 96982">
          <path id="Path_142602" data-name="Path 142602" d="M-583.223,869.236h7.532a3.7,3.7,0,0,0-3.7,3.7v14.82a3.7,3.7,0,0,0,3.7,3.7h-7.532a3.7,3.7,0,0,1-3.7-3.7V872.94A3.7,3.7,0,0,1-583.223,869.236Z" transform="translate(586.928 -869.236)" fill="#9e9e9e"/>
        </g>
      </g>
      <g id="Group_96985" data-name="Group 96985" transform="translate(55.084 23.359)">
        <g id="Group_96984" data-name="Group 96984">
          <path id="Path_142603" data-name="Path 142603" d="M-503.334,837.9h-7.532a3.7,3.7,0,0,1,3.7,3.7v14.82a3.7,3.7,0,0,1-3.7,3.7h7.532a3.7,3.7,0,0,0,3.7-3.7V841.6A3.7,3.7,0,0,0-503.334,837.9Z" transform="translate(510.866 -837.898)" fill="#e2e2e2"/>
        </g>
      </g>
      <g id="Group_96987" data-name="Group 96987" transform="translate(55.084 45.589)">
        <g id="Group_96986" data-name="Group 96986">
          <path id="Path_142604" data-name="Path 142604" d="M-503.334,869.236h-7.532a3.7,3.7,0,0,1,3.7,3.7v14.82a3.7,3.7,0,0,1-3.7,3.7h7.532a3.7,3.7,0,0,0,3.7-3.7V872.94A3.7,3.7,0,0,0-503.334,869.236Z" transform="translate(510.866 -869.236)" fill="#e2e2e2"/>
        </g>
      </g>
      <g id="Group_96989" data-name="Group 96989" transform="translate(0)">
        <g id="Group_96988" data-name="Group 96988">
          <path id="Path_142605" data-name="Path 142605" d="M-525.9,829.456h-57.782a4.84,4.84,0,0,1-4.835-4.834V809.8a4.841,4.841,0,0,1,4.835-4.834H-525.9a4.84,4.84,0,0,1,4.834,4.834v14.82A4.84,4.84,0,0,1-525.9,829.456Zm-57.782-22.229a2.578,2.578,0,0,0-2.575,2.575v14.82a2.577,2.577,0,0,0,2.575,2.574H-525.9a2.577,2.577,0,0,0,2.574-2.574V809.8a2.578,2.578,0,0,0-2.574-2.575Z" transform="translate(588.521 -804.967)" fill="#12263f"/>
        </g>
      </g>
      <g id="Group_96991" data-name="Group 96991" transform="translate(0 22.229)">
        <g id="Group_96990" data-name="Group 96990">
          <path id="Path_142606" data-name="Path 142606" d="M-525.9,860.794h-57.782a4.841,4.841,0,0,1-4.835-4.835v-14.82a4.841,4.841,0,0,1,4.835-4.835H-525.9a4.84,4.84,0,0,1,4.834,4.835v14.82A4.841,4.841,0,0,1-525.9,860.794Zm-57.782-22.23a2.578,2.578,0,0,0-2.575,2.575v14.82a2.578,2.578,0,0,0,2.575,2.575H-525.9a2.578,2.578,0,0,0,2.574-2.575v-14.82a2.578,2.578,0,0,0-2.574-2.575Z" transform="translate(588.521 -836.304)" fill="#12263f"/>
        </g>
      </g>
      <g id="Group_96993" data-name="Group 96993" transform="translate(0 44.459)">
        <g id="Group_96992" data-name="Group 96992">
          <path id="Path_142607" data-name="Path 142607" d="M-525.9,892.132h-57.782a4.841,4.841,0,0,1-4.835-4.834v-14.82a4.84,4.84,0,0,1,4.835-4.834H-525.9a4.84,4.84,0,0,1,4.834,4.834V887.3A4.84,4.84,0,0,1-525.9,892.132ZM-583.686,869.9a2.577,2.577,0,0,0-2.575,2.574V887.3a2.578,2.578,0,0,0,2.575,2.575H-525.9a2.578,2.578,0,0,0,2.574-2.575v-14.82A2.577,2.577,0,0,0-525.9,869.9Z" transform="translate(588.521 -867.643)" fill="#12263f"/>
        </g>
      </g>
      <g id="Group_96994" data-name="Group 96994" transform="translate(7.87 9.851)">
        <rect id="Rectangle_8688" data-name="Rectangle 8688" width="34.575" height="4.787" rx="2.394" fill="#ffca28"/>
      </g>
      <g id="Group_96995" data-name="Group 96995" transform="translate(7.87 32.08)">
        <rect id="Rectangle_8689" data-name="Rectangle 8689" width="34.575" height="4.787" rx="2.394" fill="#ffca28"/>
      </g>
      <g id="Group_96996" data-name="Group 96996" transform="translate(7.87 54.309)">
        <rect id="Rectangle_8690" data-name="Rectangle 8690" width="34.575" height="4.787" rx="2.394" fill="#ffca28"/>
      </g>
      <g id="Group_96997" data-name="Group 96997" transform="translate(6.74 8.721)">
        <path id="Path_142608" data-name="Path 142608" d="M-545.133,824.308H-576.07a2.952,2.952,0,0,1-2.949-2.949v-1.15a2.952,2.952,0,0,1,2.949-2.949h30.937a2.952,2.952,0,0,1,2.949,2.949v1.15A2.952,2.952,0,0,1-545.133,824.308Zm-30.937-4.787a.7.7,0,0,0-.69.689v1.15a.7.7,0,0,0,.69.689h30.937a.7.7,0,0,0,.69-.689v-1.15a.7.7,0,0,0-.69-.689Z" transform="translate(579.019 -817.261)" fill="#12263f"/>
      </g>
      <g id="Group_96998" data-name="Group 96998" transform="translate(6.74 30.95)">
        <path id="Path_142609" data-name="Path 142609" d="M-545.133,855.646H-576.07a2.952,2.952,0,0,1-2.949-2.949v-1.15a2.952,2.952,0,0,1,2.949-2.949h30.937a2.952,2.952,0,0,1,2.949,2.949v1.15A2.952,2.952,0,0,1-545.133,855.646Zm-30.937-4.787a.7.7,0,0,0-.69.689v1.15a.7.7,0,0,0,.69.689h30.937a.7.7,0,0,0,.69-.689v-1.15a.7.7,0,0,0-.69-.689Z" transform="translate(579.019 -848.599)" fill="#12263f"/>
      </g>
      <g id="Group_96999" data-name="Group 96999" transform="translate(6.74 53.18)">
        <path id="Path_142610" data-name="Path 142610" d="M-545.133,886.984H-576.07a2.952,2.952,0,0,1-2.949-2.949v-1.15a2.952,2.952,0,0,1,2.949-2.949h30.937a2.952,2.952,0,0,1,2.949,2.949v1.15A2.952,2.952,0,0,1-545.133,886.984ZM-576.07,882.2a.7.7,0,0,0-.69.689v1.15a.7.7,0,0,0,.69.689h30.937a.7.7,0,0,0,.69-.689v-1.15a.7.7,0,0,0-.69-.689Z" transform="translate(579.019 -879.937)" fill="#12263f"/>
      </g>
      <g id="Group_97000" data-name="Group 97000" transform="translate(52.641 9.851)">
        <rect id="Rectangle_8691" data-name="Rectangle 8691" width="4.787" height="4.787" rx="2.394" fill="#ffca28"/>
      </g>
      <g id="Group_97001" data-name="Group 97001" transform="translate(51.511 8.721)">
        <path id="Path_142611" data-name="Path 142611" d="M-511.805,824.308h-1.149a2.952,2.952,0,0,1-2.949-2.949v-1.15a2.952,2.952,0,0,1,2.949-2.949h1.149a2.952,2.952,0,0,1,2.949,2.949v1.15A2.951,2.951,0,0,1-511.805,824.308Zm-1.149-4.787a.7.7,0,0,0-.689.689v1.15a.7.7,0,0,0,.689.689h1.149a.7.7,0,0,0,.69-.689v-1.15a.7.7,0,0,0-.69-.689Z" transform="translate(515.903 -817.261)" fill="#12263f"/>
      </g>
      <g id="Group_97002" data-name="Group 97002" transform="translate(52.641 32.08)">
        <rect id="Rectangle_8692" data-name="Rectangle 8692" width="4.787" height="4.787" rx="2.394" fill="#ffca28"/>
      </g>
      <g id="Group_97003" data-name="Group 97003" transform="translate(51.511 30.95)">
        <path id="Path_142612" data-name="Path 142612" d="M-511.805,855.646h-1.149A2.952,2.952,0,0,1-515.9,852.7v-1.15a2.952,2.952,0,0,1,2.949-2.949h1.149a2.952,2.952,0,0,1,2.949,2.949v1.15A2.952,2.952,0,0,1-511.805,855.646Zm-1.149-4.787a.7.7,0,0,0-.689.689v1.15a.7.7,0,0,0,.689.689h1.149a.7.7,0,0,0,.69-.689v-1.15a.7.7,0,0,0-.69-.689Z" transform="translate(515.903 -848.599)" fill="#12263f"/>
      </g>
      <g id="Group_97004" data-name="Group 97004" transform="translate(52.641 54.309)">
        <rect id="Rectangle_8693" data-name="Rectangle 8693" width="4.787" height="4.787" rx="2.394" fill="#ffca28"/>
      </g>
      <g id="Group_97005" data-name="Group 97005" transform="translate(51.511 53.18)">
        <path id="Path_142613" data-name="Path 142613" d="M-511.805,886.984h-1.149a2.952,2.952,0,0,1-2.949-2.949v-1.15a2.952,2.952,0,0,1,2.949-2.949h1.149a2.951,2.951,0,0,1,2.949,2.949v1.15A2.952,2.952,0,0,1-511.805,886.984Zm-1.149-4.788a.7.7,0,0,0-.689.689v1.15a.7.7,0,0,0,.689.689h1.149a.7.7,0,0,0,.69-.689v-1.15a.7.7,0,0,0-.69-.689Z" transform="translate(515.903 -879.937)" fill="#12263f"/>
      </g>
    </g>
    <g id="Group_97012" data-name="Group 97012" transform="translate(-732.292 945.055)">
      <g id="Group_97009" data-name="Group 97009" transform="translate(0 7.784)">
        <g id="Group_97007" data-name="Group 97007">
          <path id="Path_142614" data-name="Path 142614" d="M-718.458,1015.558h-12.77a1.064,1.064,0,0,1-1.064-1.064,1.064,1.064,0,0,1,1.064-1.064h12.77a1.064,1.064,0,0,1,1.064,1.064A1.064,1.064,0,0,1-718.458,1015.558Z" transform="translate(732.292 -1013.43)" fill="#12263f"/>
        </g>
        <g id="Group_97008" data-name="Group 97008" transform="translate(155.599)">
          <path id="Path_142615" data-name="Path 142615" d="M-499.1,1015.558h-12.771a1.064,1.064,0,0,1-1.064-1.064,1.064,1.064,0,0,1,1.064-1.064H-499.1a1.064,1.064,0,0,1,1.064,1.064A1.064,1.064,0,0,1-499.1,1015.558Z" transform="translate(512.936 -1013.43)" fill="#12263f"/>
        </g>
      </g>
      <g id="Group_97010" data-name="Group 97010" transform="translate(20.004 7.784)">
        <path id="Path_142616" data-name="Path 142616" d="M-574.666,1015.558H-703.028a1.064,1.064,0,0,1-1.064-1.064,1.064,1.064,0,0,1,1.064-1.064h128.362a1.064,1.064,0,0,1,1.064,1.064A1.064,1.064,0,0,1-574.666,1015.558Z" transform="translate(704.092 -1013.43)" fill="#12263f"/>
      </g>
      <g id="Group_97011" data-name="Group 97011">
        <path id="Path_142617" data-name="Path 142617" d="M-562.858,1004.585h-168.37a1.064,1.064,0,0,1-1.064-1.064,1.064,1.064,0,0,1,1.064-1.064h168.37a1.064,1.064,0,0,1,1.064,1.064A1.064,1.064,0,0,1-562.858,1004.585Z" transform="translate(732.292 -1002.457)" fill="#12263f"/>
      </g>
    </g>
    <g id="Group_97013" data-name="Group 97013" transform="translate(-705.019 871.787)">
      <path id="Path_142618" data-name="Path 142618" d="M-582.5,951.34h-106.73a4.616,4.616,0,0,1-4.611-4.611v-46.5a1.064,1.064,0,0,1,1.064-1.064,1.064,1.064,0,0,1,1.064,1.064v46.5a2.486,2.486,0,0,0,2.483,2.483H-582.5a2.486,2.486,0,0,0,2.483-2.483v-46.5a1.064,1.064,0,0,1,1.064-1.064,1.064,1.064,0,0,1,1.064,1.064v46.5A4.616,4.616,0,0,1-582.5,951.34Z" transform="translate(693.844 -899.167)" fill="#12263f"/>
    </g>
    <g id="Group_97024" data-name="Group 97024" transform="translate(-681.909 881.827)">
      <g id="Group_97023" data-name="Group 97023">
        <g id="Group_97014" data-name="Group 97014" transform="translate(1.064 1.064)">
          <path id="Path_142619" data-name="Path 142619" d="M-645.793,971.063V938.647a7.987,7.987,0,0,1,7.987-7.986h34.876l-5.458-7.188h-16.772l-7.987-8.652h-18.63a7.987,7.987,0,0,0-7.987,7.987v48.255a6.982,6.982,0,0,0,5.729,6.866,6.979,6.979,0,0,0,1.256.119h0A6.985,6.985,0,0,0-645.793,971.063Z" transform="translate(659.764 -914.821)" fill="#9e9e9e"/>
        </g>
        <g id="Group_97015" data-name="Group 97015">
          <path id="Path_142620" data-name="Path 142620" d="M-653.215,978.677a7.99,7.99,0,0,1-1.446-.136,8.038,8.038,0,0,1-6.6-7.913V922.372a9.061,9.061,0,0,1,9.051-9.051h18.63a1.064,1.064,0,0,1,.782.343l7.671,8.309h16.306a1.063,1.063,0,0,1,.847.42l5.458,7.189a1.065,1.065,0,0,1,.106,1.117,1.065,1.065,0,0,1-.953.591h-34.876a6.93,6.93,0,0,0-6.923,6.922v32.416A8.059,8.059,0,0,1-653.215,978.677Zm1-63.228a6.931,6.931,0,0,0-6.922,6.923v48.255a5.911,5.911,0,0,0,4.855,5.819,5.9,5.9,0,0,0,1.065.1,5.928,5.928,0,0,0,5.922-5.922V938.211a9.061,9.061,0,0,1,9.051-9.051h32.732l-3.842-5.06H-625.6a1.064,1.064,0,0,1-.782-.343l-7.671-8.309Z" transform="translate(661.264 -913.321)" fill="#12263f"/>
        </g>
        <g id="Group_97016" data-name="Group 97016" transform="translate(8.049 6.559)">
          <rect id="Rectangle_8694" data-name="Rectangle 8694" width="54.635" height="49.431" fill="#e2e2e2"/>
        </g>
        <g id="Group_97017" data-name="Group 97017" transform="translate(6.985 5.495)">
          <path id="Path_142621" data-name="Path 142621" d="M-595.717,972.627h-54.636a1.064,1.064,0,0,1-1.064-1.064V922.131a1.064,1.064,0,0,1,1.064-1.064h54.636a1.064,1.064,0,0,1,1.064,1.064v49.432A1.064,1.064,0,0,1-595.717,972.627Zm-53.572-2.128h52.508V923.2h-52.508Z" transform="translate(651.417 -921.067)" fill="#12263f"/>
        </g>
        <g id="Group_97018" data-name="Group 97018" transform="translate(8.05 16.904)">
          <path id="Path_142622" data-name="Path 142622" d="M-600.068,937.151h-34.876a7.987,7.987,0,0,0-7.987,7.986v32.416a6.985,6.985,0,0,1-6.985,6.986h53.634a6.983,6.983,0,0,0,6.984-6.983v-40.4Z" transform="translate(649.916 -937.151)" fill="#ffca28"/>
        </g>
        <g id="Group_97019" data-name="Group 97019" transform="translate(6.985 15.84)">
          <path id="Path_142623" data-name="Path 142623" d="M-596.719,985.167h-53.634a1.064,1.064,0,0,1-1.064-1.064,1.064,1.064,0,0,1,1.064-1.064,5.928,5.928,0,0,0,5.922-5.922V944.7a9.061,9.061,0,0,1,9.05-9.051h45.646a1.064,1.064,0,0,1,1.064,1.064v40.4A8.057,8.057,0,0,1-596.719,985.167Zm-48.186-2.128h48.186a5.927,5.927,0,0,0,5.92-5.92v-39.34h-44.582A6.93,6.93,0,0,0-642.3,944.7v32.416A8.03,8.03,0,0,1-644.905,983.039Z" transform="translate(651.417 -935.651)" fill="#12263f"/>
        </g>
        <g id="Group_97022" data-name="Group 97022" transform="translate(15.496 8.652)">
          <g id="Group_97020" data-name="Group 97020">
            <path id="Path_142624" data-name="Path 142624" d="M-600.741,927.646h-37.614a1.064,1.064,0,0,1-1.064-1.064,1.064,1.064,0,0,1,1.064-1.064h37.614a1.064,1.064,0,0,1,1.064,1.064A1.064,1.064,0,0,1-600.741,927.646Z" transform="translate(639.419 -925.518)" fill="#12263f"/>
          </g>
          <g id="Group_97021" data-name="Group 97021" transform="translate(0 3.594)">
            <path id="Path_142625" data-name="Path 142625" d="M-600.741,932.712h-37.614a1.064,1.064,0,0,1-1.064-1.064,1.064,1.064,0,0,1,1.064-1.064h37.614a1.064,1.064,0,0,1,1.064,1.064A1.064,1.064,0,0,1-600.741,932.712Z" transform="translate(639.419 -930.584)" fill="#12263f"/>
          </g>
        </g>
      </g>
    </g>
  </g>
</svg>
