<svg xmlns="http://www.w3.org/2000/svg" xmlns:xlink="http://www.w3.org/1999/xlink" width="1924.77" height="373.51" viewBox="0 0 1924.77 373.51">
  <defs>
    <clipPath id="clip-path">
      <rect id="Rectángulo_6780" data-name="Rectángulo 6780" width="1924.77" height="373.51" transform="translate(-1 1.14)" fill="none"/>
    </clipPath>
  </defs>
  <g id="Grupo_47698" data-name="Grupo 47698" transform="translate(1 -1.14)">
    <g id="Grupo_47697" data-name="Grupo 47697" clip-path="url(#clip-path)">
      <path id="Trazado_63938" data-name="Trazado 63938" d="M51.407,1471.584s-320.185-229.366-174.278-528.7,410,157.54,594.088-264.957S696.539-68,1186.6,65.412s289.176,483.551,545.657,518.717,459.13,161.966,341.593,436.152,174.279,454.242,174.279,454.242Z" fill="#97c7fa"/>
      <path id="Trazado_63939" data-name="Trazado 63939" d="M407.782,444.244S87.6,214.879,233.5-84.454s410,157.54,594.088-264.957,225.322-745.933,715.38-612.516,289.175,483.551,545.656,518.717,459.13,161.966,341.594,436.151S2604.5,447.184,2604.5,447.184Z" fill="#00448c" opacity="0.7"/>
      <path id="Trazado_63940" data-name="Trazado 63940" d="M-1057.591,717.756s-320.186-229.365-174.279-528.7,410,157.54,594.088-264.957S-412.46-821.832,77.6-688.415,366.773-204.864,623.254-169.7,1082.384-7.732,964.848,266.453,1139.126,720.7,1139.126,720.7Z" fill="#5e9af2" opacity="0.7"/>
      <path id="Trazado_63941" data-name="Trazado 63941" d="M-348.336,1461.6s-320.186-229.365-174.279-528.7,410,157.54,594.088-264.958S296.8-77.984,786.853,55.433s289.175,483.551,545.656,518.717S1791.639,736.116,1674.1,1010.3s174.278,454.243,174.278,454.243Z" fill="#00448c" opacity="0.7"/>
      <path id="Trazado_63942" data-name="Trazado 63942" d="M1323.978,516.569h-122c5.876-4.325,26.963-19.41,46.062-27.556,7.916-3.374,15.488-5.557,21.494-5.288C1288.582,484.578,1315.285,508.347,1323.978,516.569Z" fill="#fc801c"/>
      <path id="Trazado_63943" data-name="Trazado 63943" d="M1285.2,516.569h-122c8.309-6.118,47.053-33.759,67.556-32.844,5.349.241,11.3,2.288,17.288,5.288C1263.375,496.7,1278.941,510.653,1285.2,516.569Z" fill="#fb9d39"/>
      <path id="Trazado_63944" data-name="Trazado 63944" d="M1919.731,518.229H1105.553a.8.8,0,0,1-.8-.8h0a.8.8,0,0,1,.8-.8h814.178a.8.8,0,0,1,.8.8h0A.8.8,0,0,1,1919.731,518.229Z" fill="#1e2e50"/>
      <path id="Trazado_63945" data-name="Trazado 63945" d="M1251.968,446.5a1.027,1.027,0,0,0-1.227.768l-9.3,40.518c-2.512.074-5.066,2.787-5.934,6.567l-.886,3.86a5.245,5.245,0,0,0-.121.65l10.328,2.359a2.659,2.659,0,0,0,.2-.632l.886-3.86c.865-3.769-.242-7.312-2.479-8.483l9.3-40.523A1.024,1.024,0,0,0,1251.968,446.5Z" fill="#0d458d"/>
      <path id="Trazado_63946" data-name="Trazado 63946" d="M1224.939,498.8s21.452-5.542,28.3-1.031-3.489,9.281-3.489,9.281Z" fill="#fb9d39"/>
      <g id="Grupo_47683" data-name="Grupo 47683" opacity="0.5">
        <g id="Grupo_47681" data-name="Grupo 47681">
          <path id="Trazado_64178" data-name="Trazado 64178" d="M109.256,463.1-22.171,406.586A13.031,13.031,0,0,1-29,389.467l81.06-188.5a13.031,13.031,0,0,1,17.119-6.823l131.427,56.516a13.031,13.031,0,0,1,6.824,17.119l-81.059,188.5A13.032,13.032,0,0,1,109.256,463.1Z" fill="#fae0b2"/>
          <path id="Trazado_64179" data-name="Trazado 64179" d="M182.063,281.62l-118.1-50.785A3.738,3.738,0,0,1,62,225.924h0a3.74,3.74,0,0,1,4.912-1.958l118.1,50.786a3.739,3.739,0,0,1,1.958,4.912h0A3.737,3.737,0,0,1,182.063,281.62Z" fill="#466eb6"/>
          <path id="Trazado_64180" data-name="Trazado 64180" d="M154.9,286.535l-96.964-41.7a3.739,3.739,0,0,1-1.956-4.913h0a3.739,3.739,0,0,1,4.912-1.957l96.964,41.7a3.737,3.737,0,0,1,1.957,4.91h0A3.738,3.738,0,0,1,154.9,286.535Z" fill="#466eb6"/>
          <path id="Trazado_64181" data-name="Trazado 64181" d="M170.02,309.628l-118.1-50.785a3.74,3.74,0,0,1-1.957-4.913h0a3.74,3.74,0,0,1,4.912-1.958l118.1,50.786a3.739,3.739,0,0,1,1.958,4.912h0A3.74,3.74,0,0,1,170.02,309.628Z" fill="#466eb6"/>
          <path id="Trazado_64182" data-name="Trazado 64182" d="M137.049,312.042,45.9,272.845a3.737,3.737,0,0,1-1.957-4.912h0a3.738,3.738,0,0,1,4.91-1.958L140,305.172a3.739,3.739,0,0,1,1.958,4.913h0A3.74,3.74,0,0,1,137.049,312.042Z" fill="#466eb6"/>
          <g id="Grupo_47680" data-name="Grupo 47680">
            <path id="Trazado_64183" data-name="Trazado 64183" d="M87.709,189.079l-2.377-1.023a1.677,1.677,0,0,0-2.227.81l-7.692,17.89a1.675,1.675,0,0,0,.943,2.173l2.378,1.022a1.677,1.677,0,0,0,2.227-.81l7.692-17.89A1.675,1.675,0,0,0,87.709,189.079Z" fill="#355389"/>
            <path id="Trazado_64184" data-name="Trazado 64184" d="M97.883,193.453,95.5,192.431a1.677,1.677,0,0,0-2.227.808l-7.692,17.892a1.675,1.675,0,0,0,.944,2.172l2.378,1.023a1.674,1.674,0,0,0,2.224-.81l7.7-17.891A1.678,1.678,0,0,0,97.883,193.453Z" fill="#355389"/>
            <path id="Trazado_64185" data-name="Trazado 64185" d="M108.053,197.828l-2.377-1.023a1.675,1.675,0,0,0-2.226.808l-7.693,17.892a1.674,1.674,0,0,0,.944,2.172l2.377,1.023a1.678,1.678,0,0,0,2.227-.81L109,200A1.674,1.674,0,0,0,108.053,197.828Z" fill="#355389"/>
            <path id="Trazado_64186" data-name="Trazado 64186" d="M118.226,202.2l-2.377-1.023a1.677,1.677,0,0,0-2.228.809l-7.693,17.891a1.677,1.677,0,0,0,.944,2.172l2.378,1.024a1.677,1.677,0,0,0,2.226-.811l7.694-17.889A1.677,1.677,0,0,0,118.226,202.2Z" fill="#355389"/>
            <path id="Trazado_64187" data-name="Trazado 64187" d="M128.4,206.576l-2.378-1.023a1.675,1.675,0,0,0-2.226.809L116.1,224.253a1.68,1.68,0,0,0,.944,2.173l2.379,1.022a1.676,1.676,0,0,0,2.226-.809l7.694-17.892A1.675,1.675,0,0,0,128.4,206.576Z" fill="#355389"/>
            <path id="Trazado_64188" data-name="Trazado 64188" d="M138.569,210.95l-2.376-1.023a1.679,1.679,0,0,0-2.228.809l-7.692,17.89a1.677,1.677,0,0,0,.944,2.174l2.377,1.021a1.676,1.676,0,0,0,2.227-.809l7.693-17.89A1.676,1.676,0,0,0,138.569,210.95Z" fill="#355389"/>
            <path id="Trazado_64189" data-name="Trazado 64189" d="M148.743,215.323l-2.379-1.022a1.675,1.675,0,0,0-2.226.81L136.444,233a1.676,1.676,0,0,0,.945,2.173l2.378,1.023a1.675,1.675,0,0,0,2.225-.808l7.694-17.892A1.679,1.679,0,0,0,148.743,215.323Z" fill="#355389"/>
            <path id="Trazado_64190" data-name="Trazado 64190" d="M158.913,219.7l-2.377-1.023a1.677,1.677,0,0,0-2.226.809l-7.694,17.891a1.677,1.677,0,0,0,.944,2.173l2.378,1.022a1.676,1.676,0,0,0,2.227-.809l7.693-17.89A1.677,1.677,0,0,0,158.913,219.7Z" fill="#355389"/>
            <path id="Trazado_64191" data-name="Trazado 64191" d="M169.085,224.071l-2.377-1.021a1.677,1.677,0,0,0-2.227.81l-7.693,17.889a1.677,1.677,0,0,0,.945,2.173l2.377,1.022a1.677,1.677,0,0,0,2.227-.809l7.693-17.89A1.678,1.678,0,0,0,169.085,224.071Z" fill="#355389"/>
            <path id="Trazado_64192" data-name="Trazado 64192" d="M179.259,228.445l-2.379-1.022a1.677,1.677,0,0,0-2.226.81l-7.693,17.89a1.677,1.677,0,0,0,.943,2.173l2.378,1.023a1.675,1.675,0,0,0,2.226-.81l7.7-17.89A1.68,1.68,0,0,0,179.259,228.445Z" fill="#355389"/>
            <path id="Trazado_64193" data-name="Trazado 64193" d="M189.43,232.821l-2.379-1.023a1.673,1.673,0,0,0-2.225.81l-7.694,17.89a1.676,1.676,0,0,0,.944,2.172l2.377,1.023a1.678,1.678,0,0,0,2.228-.809l7.693-17.891A1.676,1.676,0,0,0,189.43,232.821Z" fill="#355389"/>
            <path id="Trazado_64194" data-name="Trazado 64194" d="M199.6,237.2l-2.378-1.023a1.676,1.676,0,0,0-2.226.81l-7.693,17.89a1.674,1.674,0,0,0,.944,2.172l2.378,1.023a1.673,1.673,0,0,0,2.225-.809l7.694-17.891A1.676,1.676,0,0,0,199.6,237.2Z" fill="#355389"/>
          </g>
        </g>
        <g id="Grupo_47682" data-name="Grupo 47682">
          <path id="Trazado_64195" data-name="Trazado 64195" d="M2.817,197.248,25.494,326.913a2.955,2.955,0,0,0,.28.833l11.284,22.189A2.962,2.962,0,0,0,42.633,349l3.527-25.108a2.983,2.983,0,0,0-.016-.924l-22.737-130a2.964,2.964,0,0,0-3.557-2.384L5.1,193.843A2.963,2.963,0,0,0,2.817,197.248Z" fill="#b75742"/>
          <path id="Trazado_64196" data-name="Trazado 64196" d="M46.168,323.113l.057.319-3.4,24.227-6.287,1.248-10.7-21.033C32.1,326.039,39.222,323.464,46.168,323.113Z" fill="#f7cc7f"/>
        </g>
      </g>
      <g id="Grupo_47696" data-name="Grupo 47696" opacity="0.5">
        <g id="Grupo_47684" data-name="Grupo 47684">
          <rect id="Rectángulo_6777" data-name="Rectángulo 6777" width="9.021" height="52.389" transform="matrix(0.198, -0.98, 0.98, 0.198, -128.635, 94.955)" fill="#adeff7"/>
        </g>
        <g id="Grupo_47685" data-name="Grupo 47685">
          <rect id="Rectángulo_6778" data-name="Rectángulo 6778" width="55.171" height="9.021" transform="matrix(0.846, -0.533, 0.533, 0.846, -104.277, 217.792)" fill="#adeff7"/>
        </g>
        <g id="Grupo_47686" data-name="Grupo 47686">
          <rect id="Rectángulo_6779" data-name="Rectángulo 6779" width="9.02" height="57.591" transform="translate(-24.363 -19.916) rotate(-10.978)" fill="#adeff7"/>
        </g>
        <g id="Grupo_47687" data-name="Grupo 47687">
          <path id="Trazado_64197" data-name="Trazado 64197" d="M-11.23,33.649,79.69,57.029l31.5,83.218-8.439,3.194L72.911,64.6-8.5,43.666l-61.338,61.226,20.5,85.267-8.773,2.109-21.677-90.186Z" fill="#adeff7"/>
        </g>
        <g id="Grupo_47688" data-name="Grupo 47688">
          <path id="Trazado_64198" data-name="Trazado 64198" d="M86.855,139.039a21.8,21.8,0,1,1,17.659,25.275A21.8,21.8,0,0,1,86.855,139.039Z" fill="#8cd334"/>
        </g>
        <g id="Grupo_47689" data-name="Grupo 47689">
          <path id="Trazado_64199" data-name="Trazado 64199" d="M56.1,54.177A21.8,21.8,0,1,1,73.758,79.452,21.8,21.8,0,0,1,56.1,54.177Z" fill="#8cd334"/>
        </g>
        <g id="Grupo_47690" data-name="Grupo 47690">
          <path id="Trazado_64200" data-name="Trazado 64200" d="M-31.533,34.558A21.8,21.8,0,0,1-6.258,16.9,21.8,21.8,0,0,1,11.4,42.175,21.8,21.8,0,0,1-13.875,59.833,21.8,21.8,0,0,1-31.533,34.558Z" fill="#8cd334"/>
        </g>
        <g id="Grupo_47691" data-name="Grupo 47691">
          <path id="Trazado_64201" data-name="Trazado 64201" d="M-44.059-32.563A21.8,21.8,0,0,1-18.783-50.221,21.8,21.8,0,0,1-1.125-24.946,21.8,21.8,0,0,1-26.4-7.288,21.8,21.8,0,0,1-44.059-32.563Z" fill="#8cd334"/>
        </g>
        <g id="Grupo_47692" data-name="Grupo 47692">
          <path id="Trazado_64202" data-name="Trazado 64202" d="M-162.92,82.256A21.8,21.8,0,0,1-137.646,64.6a21.8,21.8,0,0,1,17.658,25.276,21.8,21.8,0,0,1-25.275,17.658A21.8,21.8,0,0,1-162.92,82.256Z" fill="#8cd334"/>
        </g>
        <g id="Grupo_47693" data-name="Grupo 47693">
          <path id="Trazado_64203" data-name="Trazado 64203" d="M-134.826,220.856A21.8,21.8,0,0,1-109.553,203.2a21.8,21.8,0,0,1,17.659,25.274,21.8,21.8,0,0,1-25.274,17.659A21.8,21.8,0,0,1-134.826,220.856Z" fill="#8cd334"/>
        </g>
        <g id="Grupo_47694" data-name="Grupo 47694">
          <path id="Trazado_64204" data-name="Trazado 64204" d="M-99.935,98.776A21.8,21.8,0,0,1-74.659,81.117,21.8,21.8,0,0,1-57,106.392a21.8,21.8,0,0,1-25.275,17.657A21.8,21.8,0,0,1-99.935,98.776Z" fill="#8cd334"/>
        </g>
        <g id="Grupo_47695" data-name="Grupo 47695">
          <path id="Trazado_64205" data-name="Trazado 64205" d="M-76.645,188.421a21.8,21.8,0,0,1,25.277-17.658,21.8,21.8,0,0,1,17.657,25.275A21.8,21.8,0,0,1-58.986,213.7,21.8,21.8,0,0,1-76.645,188.421Z" fill="#8cd334"/>
        </g>
      </g>
    </g>
  </g>
</svg>
